<svg id="Layer_6" data-name="Layer 6" xmlns="http://www.w3.org/2000/svg" viewBox="0 0 420.6 90.24"><defs><style>.cls-1{opacity:0.94;}.cls-2{fill:#71db3a;}.cls-3{opacity:0.87;}.cls-4{fill:#a6e885;}.cls-5{fill:#fff;}.cls-6{opacity:0.73;}.cls-7{fill:#97e470;}.cls-8{opacity:0.78;}.cls-9{fill:#83df56;}</style></defs><g class="cls-1"><rect class="cls-2" width="299.04" height="90.24" rx="29.58"/></g><g class="cls-3"><rect class="cls-4" x="121.56" width="299.04" height="90.24" rx="29.58"/></g><path class="cls-5" d="M2374,134.05c-4.75-4.76-12.4-4.76-27.71-4.76h-2.7c-15.31,0-23,0-27.71,4.76s-4.76,12.4-4.76,27.7v2.71c0,15.3,0,23,4.76,27.71s12.4,4.75,27.71,4.75h2.7c15.31,0,23,0,27.71-4.75s4.76-12.41,4.76-27.71v-2.71C2378.77,146.45,2378.77,138.8,2374,134.05Zm-14.35,44c-1.72-5.35-6-9.49-11.67-10.06V178h-.87c-15.42,0-24.21-10.56-24.57-28.15h7.72c.25,12.91,5.94,18.38,10.45,19.5v-19.5H2348V161c4.46-.48,9.13-5.55,10.71-11.13H2366a21.48,21.48,0,0,1-9.89,14A22.23,22.23,0,0,1,2367.66,178Z" transform="translate(-1966.6 -117.99)"/><g class="cls-6"><rect class="cls-7" x="81.04" width="299.04" height="90.24" rx="29.58"/></g><path class="cls-5" d="M2306.17,129.29A33.82,33.82,0,1,0,2340,163.11,33.82,33.82,0,0,0,2306.17,129.29Zm16.61,23.17-5.55,26.15c-.41,1.86-1.52,2.31-3.06,1.43l-8.45-6.23-4.08,3.93a2.13,2.13,0,0,1-1.7.83l.6-8.6,15.66-14.16c.68-.6-.15-.94-1-.34l-19.36,12.19-8.34-2.6c-1.82-.58-1.86-1.82.38-2.69l32.6-12.57C2321.94,149.25,2323.27,150.17,2322.78,152.46Z" transform="translate(-1966.6 -117.99)"/><g class="cls-8"><rect class="cls-9" x="40.52" width="299.04" height="90.24" rx="29.58"/></g><path class="cls-5" d="M2275.63,129.29h-25.37a21.14,21.14,0,0,0-21.13,21.14v25.36a21.13,21.13,0,0,0,21.13,21.13h25.37a21.13,21.13,0,0,0,21.13-21.13V150.43A21.14,21.14,0,0,0,2275.63,129.29Zm14.79,46.5a14.81,14.81,0,0,1-14.79,14.79h-25.37a14.81,14.81,0,0,1-14.79-14.79V150.43a14.82,14.82,0,0,1,14.79-14.8h25.37a14.82,14.82,0,0,1,14.79,14.8Z" transform="translate(-1966.6 -117.99)"/><path class="cls-5" d="M2263,146.2a16.91,16.91,0,1,0,16.9,16.91A16.91,16.91,0,0,0,2263,146.2Zm0,27.47a10.57,10.57,0,1,1,10.56-10.56A10.58,10.58,0,0,1,2263,173.67Z" transform="translate(-1966.6 -117.99)"/><circle class="cls-5" cx="314.52" cy="26.95" r="2.25"/><g class="cls-1"><rect class="cls-2" width="299.04" height="90.24" rx="29.58"/></g><path class="cls-5" d="M2018.19,165.15a10.57,10.57,0,0,1-10.87,10.91c-5,0-9.78-2.93-10.57-8.44h5.58a4.85,4.85,0,0,0,5,3.57,5.07,5.07,0,0,0,5.13-4h-6.54v-4.22h6.46a5,5,0,0,0-5.09-3.84,4.75,4.75,0,0,0-5,3.54h-5.58c.76-5.32,5.36-8.4,10.53-8.4A10.58,10.58,0,0,1,2018.19,165.15Z" transform="translate(-1966.6 -117.99)"/><path class="cls-5" d="M2036,175.61l-8.55-9.13v9.13H2022V154.69h5.44v8.71l7.94-8.71h6.92l-9.54,10,10.19,11Z" transform="translate(-1966.6 -117.99)"/><path class="cls-5" d="M2064.78,165.15a10.9,10.9,0,1,1-10.91-10.91A10.68,10.68,0,0,1,2064.78,165.15Zm-16.31,0c0,3.46,2.35,5.74,5.4,5.74s5.4-2.28,5.4-5.74a5.41,5.41,0,1,0-10.8,0Z" transform="translate(-1966.6 -117.99)"/><path class="cls-5" d="M2068.09,165.15A10.63,10.63,0,0,1,2079,154.24c5.1,0,9.62,3.08,10.42,8.4h-5.59a4.7,4.7,0,0,0-4.83-3.38c-3.3,0-5.43,2.43-5.39,5.89s2.16,5.89,5.36,5.89a4.75,4.75,0,0,0,4.86-3.42h5.59c-.83,5.51-5.43,8.44-10.45,8.44A10.62,10.62,0,0,1,2068.09,165.15Z" transform="translate(-1966.6 -117.99)"/><path class="cls-5" d="M2112.89,154.69v20.92h-5.44v-7.42l.34-6.2-8.63,13.62h-6.27V154.69h5.44v7.42l-.27,6.12,8.59-13.54Z" transform="translate(-1966.6 -117.99)"/><path class="cls-5" d="M2116.77,165.15a10.63,10.63,0,0,1,10.92-10.91c5.09,0,9.62,3.08,10.41,8.4h-5.59a4.7,4.7,0,0,0-4.82-3.38c-3.31,0-5.44,2.43-5.4,5.89s2.16,5.89,5.36,5.89a4.75,4.75,0,0,0,4.86-3.42h5.59c-.83,5.51-5.43,8.44-10.45,8.44A10.62,10.62,0,0,1,2116.77,165.15Z" transform="translate(-1966.6 -117.99)"/><path class="cls-5" d="M2158.34,159.83h-6.47v15.78h-5.43V159.83H2140v-5.14h18.33Z" transform="translate(-1966.6 -117.99)"/><path class="cls-5" d="M2182.18,166.56h-16a5.18,5.18,0,0,0,5.44,5,4.83,4.83,0,0,0,4.63-2.63h5.63c-1.56,4.94-5.74,7.11-10.23,7.11-6.54,0-11-4.64-11-10.87a10.57,10.57,0,0,1,10.91-10.95C2178.42,154.24,2182.72,159.67,2182.18,166.56Zm-15.78-4h10a4.86,4.86,0,0,0-4.94-3.84A5.08,5.08,0,0,0,2166.4,162.56Z" transform="translate(-1966.6 -117.99)"/><path class="cls-5" d="M2209.19,154.69v20.92h-5.44v-7.42l.38-7.15-6.5,9.36h-.16L2191,161l.34,7.15v7.42h-5.43V154.69h6.27l5.4,7.46,5.4-7.46Z" transform="translate(-1966.6 -117.99)"/><path class="cls-5" d="M2234.63,154.69l0,20.92h-5.44v-2.82a7.76,7.76,0,0,1-6.54,3.27c-5.47,0-9.54-4.48-9.54-10.91s4.14-10.91,9.51-10.91a7.83,7.83,0,0,1,6.61,3.38v-2.93Zm-5.44,10.46c0-3.42-2.32-5.74-5.36-5.74s-5.29,2.32-5.29,5.74,2.29,5.74,5.29,5.74S2229.19,168.61,2229.19,165.15Z" transform="translate(-1966.6 -117.99)"/></svg>