<svg id="Layer_2" data-name="Layer 2" xmlns="http://www.w3.org/2000/svg" viewBox="0 0 517.52 438.11"><defs><style>.cls-1{fill:#ffb9b9;}.cls-2{fill:#2f2e41;}.cls-3{isolation:isolate;opacity:0.14;}.cls-4{fill:#d0cde1;}.cls-5{fill:#3f3d56;}.cls-6{fill:#fff;}.cls-7{fill:#71db3a;}</style></defs><polygon class="cls-1" points="373.56 279.09 377.57 268.75 339.63 248.34 333.7 263.59 373.56 279.09"/><path class="cls-2" d="M6130.84,2772.55a13.92,13.92,0,0,0-18,7.92h0l-2.71,7-4.18,10.75-1,2.63,13.39,5.21,12.95-33.32Z" transform="translate(-5735.76 -2520.42)"/><path class="cls-2" d="M6105.94,2779.62l-1.74,4.64-4.36,11.56-.11.29c-11.11,1.43-23.29-1.37-34.55-5.72a140.79,140.79,0,0,1-13.22-5.9c-6.37-3.22-12.08-6.61-16.63-9.52-6.85-4.4-11.08-7.7-11.08-7.7s-1.12,1-3.15,2.75c-2.71,2.32-7.05,5.95-12.54,10.21q-3.15,2.46-6.75,5.15c-17.72,13.15-40.47-21.93-40.47-21.93s6.4-4.08,8.07-4.87c5.38-2.54,18-8.55,28.93-13.89,5.62-2.75,10.77-5.34,14.23-7.17,12.25-6.52,27.47,5.82,27.47,5.82Z" transform="translate(-5735.76 -2520.42)"/><g class="cls-3"><path d="M6105.94,2779.62l-1.74,4.64-4.36,11.56-.11.29c-11.11,1.43-23.29-1.37-34.55-5.72a140.79,140.79,0,0,1-13.22-5.9c-6.37-3.22-12.08-6.61-16.63-9.52-6.85-4.4-11.08-7.7-11.08-7.7s-1.12,1-3.15,2.75c-2.71,2.32-7.05,5.95-12.54,10.21q-3.15,2.46-6.75,5.15c-17.72,13.15-40.47-21.93-40.47-21.93s6.4-4.08,8.07-4.87c5.38-2.54,18-8.55,28.93-13.89,5.62-2.75,10.77-5.34,14.23-7.17,12.25-6.52,27.47,5.82,27.47,5.82Z" transform="translate(-5735.76 -2520.42)"/></g><path class="cls-1" d="M5978.53,2710.77a8.47,8.47,0,0,0-6.88,9.81,7.22,7.22,0,0,0,.39,1.45l-14.27,13.11,5.86,10.62,19.88-18.81a8.52,8.52,0,0,0-5-16.18Z" transform="translate(-5735.76 -2520.42)"/><path class="cls-4" d="M5935.62,2770.4c-.64,0-1.29,0-1.93-.08a22.78,22.78,0,0,1-18.36-12.26l-22.85-44a12.62,12.62,0,0,1,21.82-12.63l21.08,47.29,28.68-23.3,16.61,6.46-28,31A23.08,23.08,0,0,1,5935.62,2770.4Z" transform="translate(-5735.76 -2520.42)"/><path class="cls-1" d="M5844,2822a8.49,8.49,0,0,0,6.37-10.16,8.72,8.72,0,0,0-.46-1.42l13.56-13.84-6.4-10.29-18.88,19.81A8.52,8.52,0,0,0,5844,2822Z" transform="translate(-5735.76 -2520.42)"/><path class="cls-5" d="M5973.07,2577.91h1.33V2541.5a21.08,21.08,0,0,1,21.08-21.08h77.14a21.07,21.07,0,0,1,21.07,21.08v199.75a21.07,21.07,0,0,1-21.07,21.08h-77.14a21.08,21.08,0,0,1-21.08-21.08V2603.83h-1.33Z" transform="translate(-5735.76 -2520.42)"/><path class="cls-6" d="M5994.63,2525.91h10.06a7.49,7.49,0,0,0,6.93,10.3h44.19a7.48,7.48,0,0,0,7.48-7.48,7.35,7.35,0,0,0-.56-2.82h9.41a15.74,15.74,0,0,1,15.74,15.73h0v199.47a15.74,15.74,0,0,1-15.74,15.73h-77.51a15.73,15.73,0,0,1-15.74-15.73h0V2541.64A15.73,15.73,0,0,1,5994.63,2525.91Z" transform="translate(-5735.76 -2520.42)"/><circle class="cls-7" cx="297.67" cy="121.19" r="44.66"/><path class="cls-2" d="M5928.66,2682.37h-52.45a4.07,4.07,0,0,1-4.07-4.07v-22.6a30.3,30.3,0,0,1,60.59,0v22.6A4.08,4.08,0,0,1,5928.66,2682.37Z" transform="translate(-5735.76 -2520.42)"/><polygon class="cls-1" points="370.35 293.62 375.15 283.63 338.89 260.36 331.81 275.11 370.35 293.62"/><path class="cls-2" d="M6129.64,2788.82a13.91,13.91,0,0,0-18.56,6.51h0l-3.24,6.74-5,10.39-1.22,2.55,12.94,6.23,15.48-32.23Z" transform="translate(-5735.76 -2520.42)"/><path class="cls-2" d="M6104.28,2794l-2.1,4.48-5.24,11.2-.12.28c-11.19.57-23.12-3.16-34-8.36a139.54,139.54,0,0,1-12.73-6.9c-6.11-3.7-11.53-7.52-15.85-10.77-6.49-4.91-10.46-8.53-10.46-8.53s-1.19.93-3.34,2.5c-2.89,2.11-7.49,5.39-13.3,9.22-2.21,1.48-4.59,3-7.12,4.62-18.68,11.74-45.25,26.05-67.85,29.07-39.68,5.3-30.34-47.66-30.34-47.66l31.58-16.4,13.41,2.72,14.93,3,5.29,1.08,2.73-1c5.56-2.13,18.63-7.15,29.91-11.63,5.82-2.32,11.15-4.49,14.74-6.06,12.72-5.56,26.95,7.91,26.95,7.91Z" transform="translate(-5735.76 -2520.42)"/><circle class="cls-1" cx="174.1" cy="141.81" r="21.15"/><path class="cls-4" d="M5882.35,2720.93l18.42,52.23-.11.18c-2.56,4.24-3.4,7.65-2.42,9.88a4.31,4.31,0,0,0,2.73,2.36l43.59-30.47L5943,2742.9l.09-.14c4.21-6.74,5.58-12.85,4.05-18.15-2-6.87-8.25-10-8.31-10l-.15-.11L5917,2688l-29.06,5.17Z" transform="translate(-5735.76 -2520.42)"/><path class="cls-4" d="M5854.34,2812.6,5842,2797.41l29.75-49.1,13.87-42.88.43.14-.43-.14a17.23,17.23,0,0,1,32.78,10.61,17.49,17.49,0,0,1-2.07,4.26l-25.46,38.14Z" transform="translate(-5735.76 -2520.42)"/><path class="cls-2" d="M5939.89,2658h-32.07l-.33-4.61-1.64,4.61h-4.94l-.65-9.13L5897,2658h-9.55v-.46a24,24,0,0,1,24-24h4.52a24,24,0,0,1,24,24Z" transform="translate(-5735.76 -2520.42)"/><path class="cls-2" d="M5907.56,2686.59a4.37,4.37,0,0,1-.72-.06l-23.48-4.15v-38.81h25.85l-.64.75c-8.91,10.39-2.2,27.22,2.59,36.34a4.06,4.06,0,0,1-3.6,5.93Z" transform="translate(-5735.76 -2520.42)"/><path class="cls-5" d="M6252.32,2822.71H5736.71a1,1,0,0,1,0-1.91h515.61a1,1,0,1,1,0,1.91Z" transform="translate(-5735.76 -2520.42)"/><path class="cls-6" d="M6057.56,2652.74a5.57,5.57,0,0,0-2.73-3.44l-9-4.61a5.4,5.4,0,0,0-6.75,1.49l-1.95,2.53a28.74,28.74,0,0,1-6-4.74,29.78,29.78,0,0,1-4.81-6.17l2.47-1.94a5.44,5.44,0,0,0,1.49-6.76l-4.61-8.89a5.46,5.46,0,0,0-3.44-2.79,5.4,5.4,0,0,0-4.35.71l-5.71,3.77a6.8,6.8,0,0,0-3.05,6.23,25.33,25.33,0,0,0,.78,5.52c1.68,6.82,5.9,13.83,11.81,19.67a45,45,0,0,0,19.68,11.88,35.51,35.51,0,0,0,5.58.78h.45a6.75,6.75,0,0,0,5.78-3.18l3.7-5.78a5.49,5.49,0,0,0,.65-4.28Z" transform="translate(-5735.76 -2520.42)"/><path d="M5812.61,2906.33l-10.66-12v12h-4.06v-25.2H5802v11.52l10.19-11.52h5.11l-10.87,12.28,11.38,12.92Z" transform="translate(-5735.76 -2520.42)"/><path d="M5838.89,2896.43a10.26,10.26,0,1,1-10.26-10.33A10.09,10.09,0,0,1,5838.89,2896.43Zm-16.42,0a6.16,6.16,0,1,0,6.16-6.44A6.12,6.12,0,0,0,5822.47,2896.43Z" transform="translate(-5735.76 -2520.42)"/><path d="M5861.6,2886.53v19.8h-4.06v-8.17H5847v8.17H5843v-19.8H5847v7.78h10.51v-7.78Z" transform="translate(-5735.76 -2520.42)"/><path d="M5881.8,2890.35h-6.44v16h-4.07v-16h-6.48v-3.82h17Z" transform="translate(-5735.76 -2520.42)"/><path d="M5904.08,2886.53v19.8H5900V2903a7.9,7.9,0,0,1-6.91,3.74c-5.29,0-9.14-4.28-9.14-10.33s3.92-10.33,9.11-10.33a8,8,0,0,1,6.94,3.82v-3.39Zm-4,9.9A6.08,6.08,0,0,0,5894,2890c-3.46,0-5.91,2.66-5.91,6.44s2.49,6.45,5.91,6.45S5900.05,2900.25,5900.05,2896.43Z" transform="translate(-5735.76 -2520.42)"/><path d="M5922.23,2906.33l-9.33-9.14v9.14h-4.06v-19.8h4.06v8.57l8.57-8.57h5.22l-9.68,9.4,10.47,10.4Z" transform="translate(-5735.76 -2520.42)"/><path d="M5946.2,2890.35h-6.44v16h-4.07v-16h-6.48v-3.82h17Z" transform="translate(-5735.76 -2520.42)"/><path d="M5966.29,2899.38c0,4.76-3.17,6.95-7.24,6.95h-9.61v-19.8h4.07v6.19h5.69C5963.27,2892.72,5966.29,2894.63,5966.29,2899.38Zm-4.1,0c0-1.83-.72-3.06-3.21-3.06h-5.47v6.12h5.4C5961.39,2902.44,5962.19,2901.15,5962.19,2899.38Zm11.08-12.85v19.8h-4.06v-19.8Z" transform="translate(-5735.76 -2520.42)"/><path d="M6005.75,2900.72c0,3.81-3.35,6-8.54,6-6.19,0-8.89-2.84-9.64-6.94h4.1c.58,2.73,2.34,3.78,5.44,3.78s4.53-1.26,4.53-3.17c0-1.37-.65-2.74-3.49-2.74h-3.67v-3.13h3c2.77,0,3.6-1,3.6-2.45,0-1.62-1.12-2.91-4.21-2.91-2.13,0-4.07.68-4.61,3h-4.14c.72-3.46,3.31-6.05,8.82-6.05,5,0,8.24,2.2,8.24,5.72a4.24,4.24,0,0,1-2.59,4A4.87,4.87,0,0,1,6005.75,2900.72Z" transform="translate(-5735.76 -2520.42)"/><path d="M6029,2886.53v19.8h-4.07V2903a7.9,7.9,0,0,1-6.91,3.74c-5.29,0-9.14-4.28-9.14-10.33s3.92-10.33,9.11-10.33a8,8,0,0,1,6.94,3.82v-3.39Zm-4,9.9a6.08,6.08,0,0,0-6.09-6.44c-3.45,0-5.9,2.66-5.9,6.44s2.49,6.45,5.9,6.45S6025,2900.25,6025,2896.43Z" transform="translate(-5735.76 -2520.42)"/><path d="M6050.92,2900.64c0,3.75-2.7,5.69-7.09,5.69h-10.08v-19.8H6043c4.28,0,7,1.37,7,5,0,2-1.08,3.2-2.7,4.17A4.79,4.79,0,0,1,6050.92,2900.64Zm-8.28-10.9h-4.82v5h4.75c2.45,0,3.28-1,3.28-2.41C6045.85,2890.71,6045.13,2889.74,6042.64,2889.74Zm4.18,10.58c0-1.62-.86-2.66-3.28-2.66h-5.72v5.47h5.76C6046.1,2903.13,6046.82,2902,6046.82,2900.32Z" transform="translate(-5735.76 -2520.42)"/><path d="M6074.07,2897.55H6058a5.87,5.87,0,0,0,6.19,5.65,5.54,5.54,0,0,0,5.29-2.95h4.22c-1.55,4.43-5.33,6.51-9.54,6.51a10.33,10.33,0,0,1-.08-20.66C6070.44,2886.1,6074.47,2891,6074.07,2897.55Zm-15.87-3.31h11.52a5.62,5.62,0,0,0-5.66-4.61A5.83,5.83,0,0,0,6058.2,2894.24Z" transform="translate(-5735.76 -2520.42)"/><path d="M6100.75,2902.52v9h-4.07v-5.15h-16.77v5.15h-4.07v-9h3.45c.9-.69,1.48-2.2,1.95-5l1.76-11h14.15v16Zm-7.67,0v-12.17h-6.62l-1.19,7.34a12,12,0,0,1-1.55,4.83Z" transform="translate(-5735.76 -2520.42)"/><path d="M6122.92,2897.55h-16.09a5.87,5.87,0,0,0,6.19,5.65,5.56,5.56,0,0,0,5.3-2.95h4.21c-1.55,4.43-5.33,6.51-9.54,6.51a10.33,10.33,0,0,1-.07-20.66C6119.29,2886.1,6123.32,2891,6122.92,2897.55Zm-15.87-3.31h11.52a5.61,5.61,0,0,0-5.65-4.61A5.84,5.84,0,0,0,6107.05,2894.24Z" transform="translate(-5735.76 -2520.42)"/><path d="M6145.53,2886.53v19.8h-4.07v-8.17H6131v8.17h-4.07v-19.8H6131v7.78h10.51v-7.78Z" transform="translate(-5735.76 -2520.42)"/><path d="M6168.64,2886.53v19.8h-4.07v-8.28l.26-6.26-9.79,14.54h-4.79v-19.8h4.07v8.28l-.26,6.23,9.8-14.51Z" transform="translate(-5735.76 -2520.42)"/><path d="M6191.75,2886.53v19.8h-4.06v-8.28l.25-6.26-9.79,14.54h-4.79v-19.8h4.07v8.28l-.25,6.23,9.79-14.51Zm-15.08-8.56v-.83h3.24v.68a2.65,2.65,0,0,0,5.29,0v-.68h3.24v.83a5.54,5.54,0,0,1-5.86,5.58C6179.41,2883.55,6176.67,2881.46,6176.67,2878Z" transform="translate(-5735.76 -2520.42)"/><path d="M5797.09,2939.63a10.06,10.06,0,0,1,10.3-10.33c4.68,0,8.82,2.85,9.72,7.63h-4.21a5.5,5.5,0,0,0-5.51-3.85c-3.67,0-6.19,2.74-6.19,6.55s2.59,6.55,6.15,6.55a5.59,5.59,0,0,0,5.55-3.88h4.21c-.94,4.89-5.11,7.66-9.76,7.66A10,10,0,0,1,5797.09,2939.63Z" transform="translate(-5735.76 -2520.42)"/><path d="M5841.15,2939.63c0,6-3.85,10.33-9.14,10.33a8,8,0,0,1-6.91-3.74v12.31H5821v-28.8h4.07v3.39a8,8,0,0,1,6.95-3.82C5837.23,2929.3,5841.15,2933.59,5841.15,2939.63Zm-4.1,0c0-3.78-2.45-6.44-5.9-6.44a6.08,6.08,0,0,0-6.09,6.44c0,3.82,2.63,6.45,6.09,6.45S5837.05,2943.45,5837.05,2939.63Z" transform="translate(-5735.76 -2520.42)"/><path d="M5864.73,2929.73v19.8h-4.06v-3.31a7.91,7.91,0,0,1-6.91,3.74c-5.3,0-9.15-4.28-9.15-10.33s3.93-10.33,9.11-10.33a8,8,0,0,1,6.95,3.82v-3.39Zm-4,9.9c0-3.78-2.62-6.44-6.08-6.44s-5.9,2.66-5.9,6.44,2.48,6.45,5.9,6.45S5860.7,2943.45,5860.7,2939.63Z" transform="translate(-5735.76 -2520.42)"/><path d="M5886.44,2943.92c0,3.81-3.35,6-8.53,6-6.19,0-8.89-2.84-9.65-6.94h4.11c.57,2.73,2.34,3.78,5.43,3.78s4.54-1.26,4.54-3.17c0-1.37-.65-2.74-3.49-2.74h-3.67v-3.13h2.95c2.77,0,3.6-1,3.6-2.45,0-1.62-1.12-2.91-4.21-2.91-2.13,0-4.07.68-4.61,2.95h-4.14c.72-3.46,3.31-6,8.82-6,5,0,8.24,2.2,8.24,5.73a4.23,4.23,0,0,1-2.59,4A4.88,4.88,0,0,1,5886.44,2943.92Z" transform="translate(-5735.76 -2520.42)"/><path d="M5908,2929.73l-13.1,28.8h-4.36l5.22-11.52-7.81-17.28h4.36l5.61,12.89,5.73-12.89Z" transform="translate(-5735.76 -2520.42)"/><path d="M5939.18,2943.84c0,3.75-2.7,5.69-7.09,5.69H5922v-19.8h9.22c4.28,0,7,1.37,7,5,0,2-1.08,3.2-2.7,4.17A4.79,4.79,0,0,1,5939.18,2943.84Zm-8.28-10.9h-4.82v5h4.75c2.45,0,3.28-1,3.28-2.41C5934.11,2933.91,5933.39,2932.94,5930.9,2932.94Zm4.18,10.58c0-1.62-.87-2.66-3.28-2.66h-5.72v5.47h5.76C5934.36,2946.33,5935.08,2945.18,5935.08,2943.52Z" transform="translate(-5735.76 -2520.42)"/><path d="M5972.12,2949.53h-4.07v-16h-10.22v16h-4.07v-19.8h18.36Z" transform="translate(-5735.76 -2520.42)"/><path d="M5997.14,2939.63c0,6-3.85,10.33-9.14,10.33a8,8,0,0,1-6.91-3.74v12.31H5977v-28.8h4.07v3.39a8,8,0,0,1,6.94-3.82C5993.22,2929.3,5997.14,2933.59,5997.14,2939.63Zm-4.1,0c0-3.78-2.45-6.44-5.91-6.44a6.08,6.08,0,0,0-6.08,6.44c0,3.82,2.63,6.45,6.08,6.45S5993,2943.45,5993,2939.63Z" transform="translate(-5735.76 -2520.42)"/><path d="M6019.64,2929.73v19.8h-4.07v-8.28l.26-6.26-9.8,14.54h-4.78v-19.8h4.06V2938l-.25,6.23,9.79-14.51Z" transform="translate(-5735.76 -2520.42)"/><path d="M6043.33,2929.73v19.8h-4.07v-16h-6.55l-1.3,8.28c-1,5.9-3.16,8.13-6.55,8.13a12.35,12.35,0,0,1-2-.21v-3.67c.39,0,.79.1,1.19.1,1.9,0,2.73-1,3.34-4.71l1.87-11.74Z" transform="translate(-5735.76 -2520.42)"/><path d="M6067.92,2939.63a10.26,10.26,0,1,1-10.26-10.33A10.09,10.09,0,0,1,6067.92,2939.63Zm-16.42,0a6.16,6.16,0,1,0,6.16-6.44A6.12,6.12,0,0,0,6051.5,2939.63Z" transform="translate(-5735.76 -2520.42)"/><path d="M6096.46,2949.53l-9.36-9.14v9.14H6083v-9.14l-9.36,9.14h-5.22l10.44-10.4-9.69-9.4h5.26l8.57,8.61v-8.61h4.06v8.61l8.57-8.61h5.26l-9.69,9.4,10.44,10.4Z" transform="translate(-5735.76 -2520.42)"/><path d="M6122.49,2940.75H6106.4a5.87,5.87,0,0,0,6.19,5.65,5.54,5.54,0,0,0,5.29-3h4.22c-1.55,4.43-5.33,6.51-9.54,6.51a10.33,10.33,0,0,1-.08-20.66C6118.86,2929.3,6122.89,2934.23,6122.49,2940.75Zm-15.87-3.31h11.52a5.62,5.62,0,0,0-5.66-4.61A5.83,5.83,0,0,0,6106.62,2937.44Z" transform="translate(-5735.76 -2520.42)"/><path d="M6145.1,2929.73v19.8H6141v-8.17h-10.51v8.17h-4.07v-19.8h4.07v7.78H6141v-7.78Z" transform="translate(-5735.76 -2520.42)"/><path d="M6168.21,2929.73v19.8h-4.07v-8.28l.26-6.26-9.8,14.54h-4.78v-19.8h4.06V2938l-.25,6.23,9.79-14.51Z" transform="translate(-5735.76 -2520.42)"/><path d="M6191.32,2929.73v19.8h-4.06v-8.28l.25-6.26-9.79,14.54h-4.79v-19.8H6177V2938l-.26,6.23,9.8-14.51Z" transform="translate(-5735.76 -2520.42)"/></svg>