<svg id="Isolation_Mode" data-name="Isolation Mode" xmlns="http://www.w3.org/2000/svg" viewBox="0 0 240.21 303"><defs><style>.cls-1{fill:#e6e6e6;}.cls-2{fill:#71db3a;}.cls-3{fill:#3f3d56;}</style></defs><polygon class="cls-1" points="240.21 90.65 178.31 185.45 101.55 303 0 240.25 82.94 98.2 127.88 21.24 240.21 90.65"/><rect class="cls-2" x="2111.69" y="5594.43" width="223.95" height="16.9" transform="translate(-5778.85 -953.8) rotate(-58.29)"/><path class="cls-3" d="M2255.47,5661.93l-87.28,135.17-92.56-57.19,95.89-162.31a74.16,74.16,0,0,1,45.63,37.68C2227,5634,2241.3,5649.64,2255.47,5661.93Z" transform="translate(-2067.28 -5503.17)"/><rect class="cls-1" x="2155.16" y="5627.39" width="15.51" height="15.51" transform="translate(-5835.12 -990.18) rotate(-58.29)"/><rect class="cls-1" x="2180.8" y="5605.98" width="15.51" height="15.51" transform="translate(-5804.74 -978.52) rotate(-58.29)"/><rect class="cls-1" x="2198.2" y="5635.3" width="15.51" height="15.51" transform="matrix(0.93, -0.37, 0.37, 0.93, -3999.39, -4285.81)"/><rect class="cls-1" x="2207.6" y="5673.4" width="15.51" height="15.51" transform="matrix(0.93, -0.37, 0.37, 0.93, -4012.83, -4279.62)"/><rect class="cls-1" x="2158.83" y="5661.9" width="15.51" height="15.51" transform="translate(-4012.03 -4298.49) rotate(-21.73)"/><circle class="cls-3" cx="179.59" cy="126.46" r="3.17"/><circle class="cls-3" cx="135.88" cy="74.61" r="3.17"/><circle class="cls-3" cx="193.37" cy="84.06" r="3.17"/></svg>