<svg id="Isolation_Mode" data-name="Isolation Mode" xmlns="http://www.w3.org/2000/svg" viewBox="0 0 529.69 529.69"><defs><style>.cls-1{fill:#71db3a;}.cls-2{isolation:isolate;opacity:0.2;}.cls-3{fill:#3f3d56;}.cls-4{fill:#ff6584;}.cls-5{fill:#e6e6e6;}.cls-6{fill:#f9a825;}.cls-7{fill:#00bf71;}</style></defs><circle class="cls-1" cx="264.84" cy="264.84" r="264.78"/><path class="cls-2" d="M1780.34,5287.54c-95.71-47.25-135-163.15-87.72-258.85s163.15-135,258.86-87.73,135,163.16,87.72,258.86a193.27,193.27,0,0,1-258.86,87.72Zm165.86-335.89c-89.66-44.28-198.62-7.35-242.9,82.31s-7.34,198.62,82.32,242.9,198.62,7.34,242.89-82.32,7.35-198.62-82.31-242.89Z" transform="translate(-1638.37 -4836.38)"/><circle class="cls-3" cx="227.54" cy="277.87" r="187.31"/><path class="cls-4" d="M1774.17,4985.42a23.77,23.77,0,1,1,47.54-.64v.06l1.44,116.6a23.77,23.77,0,0,1-47.54.66V5102Z" transform="translate(-1638.37 -4836.38)"/><path class="cls-2" d="M1774.33,4998.43l-.07-5.38c15.13-3.1,31-3,47.54-.59l.07,5.38C1804.89,4993.45,1788.86,4992.91,1774.33,4998.43Z" transform="translate(-1638.37 -4836.38)"/><path class="cls-2" d="M1774.64,5023.54l-.07-5.38c15.13-3.09,31-3,47.54-.58l.07,5.38C1805.2,5018.56,1789.18,5018,1774.64,5023.54Z" transform="translate(-1638.37 -4836.38)"/><path class="cls-2" d="M1775,5048.66l-.07-5.38c15.13-3.1,31-3,47.54-.59l.07,5.38C1805.51,5043.68,1789.49,5043.14,1775,5048.66Z" transform="translate(-1638.37 -4836.38)"/><path class="cls-2" d="M1775.26,5073.78l-.07-5.39c15.13-3.09,31-3,47.54-.58l.07,5.38C1805.82,5068.79,1789.8,5068.26,1775.26,5073.78Z" transform="translate(-1638.37 -4836.38)"/><path class="cls-2" d="M1775.57,5098.89l-.07-5.38c15.13-3.1,31-3,47.54-.59l.07,5.38C1806.13,5093.91,1790.11,5093.37,1775.57,5098.89Z" transform="translate(-1638.37 -4836.38)"/><path class="cls-4" d="M1721.35,5002.73a23.77,23.77,0,0,1,47.54-.63v0l1.44,116.61a23.77,23.77,0,0,1-47.54.58Z" transform="translate(-1638.37 -4836.38)"/><path class="cls-2" d="M1721.51,5015.73l-.07-5.38c15.12-3.09,31-3,47.54-.59l.07,5.39C1752.07,5010.75,1736,5010.22,1721.51,5015.73Z" transform="translate(-1638.37 -4836.38)"/><path class="cls-2" d="M1721.82,5040.85l-.07-5.38c15.12-3.1,31-3,47.54-.59l.07,5.38C1752.38,5035.87,1736.35,5035.33,1721.82,5040.85Z" transform="translate(-1638.37 -4836.38)"/><path class="cls-2" d="M1722.13,5066l-.07-5.38c15.12-3.09,31-3,47.54-.59l.07,5.39C1752.69,5061,1736.66,5060.45,1722.13,5066Z" transform="translate(-1638.37 -4836.38)"/><path class="cls-2" d="M1722.44,5091.08l-.07-5.38c15.12-3.1,31-3,47.54-.59l.07,5.38C1753,5086.1,1737,5085.56,1722.44,5091.08Z" transform="translate(-1638.37 -4836.38)"/><path class="cls-2" d="M1722.75,5116.19l-.07-5.38c15.13-3.09,31-3,47.54-.58l.07,5.38C1753.31,5111.21,1737.28,5110.68,1722.75,5116.19Z" transform="translate(-1638.37 -4836.38)"/><path class="cls-5" d="M1975.49,5175l.15.07a28.36,28.36,0,0,0,31.68-4.19,92.46,92.46,0,0,0,21.18-28.25c22-45.22,3.58-100.32-41.19-123.21A92.82,92.82,0,0,0,1874,5161.73a28.11,28.11,0,0,0,30.56,8.64A92.46,92.46,0,0,1,1975.49,5175Z" transform="translate(-1638.37 -4836.38)"/><circle class="cls-6" cx="1958.75" cy="5101.22" r="30.65" transform="translate(-5120.85 -237.38) rotate(-63.72)"/><circle class="cls-3" cx="263.77" cy="229.02" r="3.61"/><circle class="cls-3" cx="155.39" cy="179.3" r="3.61"/><circle class="cls-3" cx="297.6" cy="203.99" r="3.61"/><circle class="cls-3" cx="251.43" cy="297.26" r="3.61"/><circle class="cls-3" cx="364.93" cy="228.92" r="3.61"/><circle class="cls-3" cx="112.03" cy="214.19" r="3.61"/><circle class="cls-3" cx="112.71" cy="272.44" r="3.61"/><circle class="cls-4" cx="258.37" cy="351.97" r="13.62"/><path class="cls-2" d="M1905.52,5193.63a10.21,10.21,0,0,1-18.32-9" transform="translate(-1638.37 -4836.38)"/><path class="cls-2" d="M1888,5183.06a10.22,10.22,0,0,1,18.33,9" transform="translate(-1638.37 -4836.38)"/><ellipse class="cls-4" cx="1894.23" cy="5181.89" rx="1.28" ry="0.85" transform="translate(-5229.13 -250.28) rotate(-63.72)"/><ellipse class="cls-4" cx="1899.57" cy="5182.62" rx="1.28" ry="0.85" transform="translate(-5226.81 -245.08) rotate(-63.72)"/><ellipse class="cls-4" cx="1894.67" cy="5192.54" rx="1.28" ry="0.85" transform="translate(-5238.44 -243.95) rotate(-63.72)"/><ellipse class="cls-4" cx="1902.26" cy="5188.7" rx="1.28" ry="0.85" transform="translate(-5230.76 -239.28) rotate(-63.72)"/><ellipse class="cls-4" cx="1897.35" cy="5196.72" rx="1.28" ry="0.85" transform="translate(-5240.69 -239.21) rotate(-63.72)"/><ellipse class="cls-4" cx="1890.08" cy="5188.38" rx="1.28" ry="0.85" transform="translate(-5237.26 -250.38) rotate(-63.72)"/><circle class="cls-4" cx="299.01" cy="331.2" r="13.62"/><path class="cls-2" d="M1946.16,5172.87a10.22,10.22,0,0,1-18.32-9.05" transform="translate(-1638.37 -4836.38)"/><path class="cls-2" d="M1928.59,5162.3a10.21,10.21,0,0,1,18.32,9" transform="translate(-1638.37 -4836.38)"/><ellipse class="cls-4" cx="1934.87" cy="5161.12" rx="1.28" ry="0.85" transform="translate(-5187.86 -225.41) rotate(-63.72)"/><ellipse class="cls-4" cx="1940.2" cy="5161.86" rx="1.28" ry="0.85" transform="translate(-5185.55 -220.22) rotate(-63.72)"/><ellipse class="cls-4" cx="1935.3" cy="5171.78" rx="1.28" ry="0.85" transform="translate(-5197.18 -219.08) rotate(-63.72)"/><ellipse class="cls-4" cx="1942.9" cy="5167.93" rx="1.28" ry="0.85" transform="translate(-5189.5 -214.41) rotate(-63.72)"/><ellipse class="cls-4" cx="1937.99" cy="5175.96" rx="1.28" ry="0.85" transform="translate(-5199.42 -214.35) rotate(-63.72)"/><ellipse class="cls-4" cx="1930.71" cy="5167.62" rx="1.28" ry="0.85" transform="translate(-5196 -225.52) rotate(-63.72)"/><circle class="cls-1" cx="315.14" cy="360.06" r="13.62"/><path class="cls-2" d="M1962.3,5201.73a10.22,10.22,0,0,1-18.33-9" transform="translate(-1638.37 -4836.38)"/><path class="cls-2" d="M1944.73,5191.15a10.22,10.22,0,0,1,18.32,9.05" transform="translate(-1638.37 -4836.38)"/><ellipse class="cls-1" cx="1951.01" cy="5189.98" rx="1.28" ry="0.85" transform="translate(-5204.74 -194.86) rotate(-63.72)"/><ellipse class="cls-1" cx="1956.34" cy="5190.71" rx="1.28" ry="0.85" transform="translate(-5202.43 -189.67) rotate(-63.72)"/><ellipse class="cls-1" cx="1951.44" cy="5200.64" rx="1.28" ry="0.85" transform="translate(-5214.06 -188.53) rotate(-63.72)"/><ellipse class="cls-1" cx="1959.03" cy="5196.79" rx="1.28" ry="0.85" transform="translate(-5206.38 -183.86) rotate(-63.72)"/><ellipse class="cls-1" cx="1954.13" cy="5204.81" rx="1.28" ry="0.85" transform="translate(-5216.31 -183.8) rotate(-63.72)"/><ellipse class="cls-1" cx="1946.85" cy="5196.47" rx="1.28" ry="0.85" transform="translate(-5212.88 -194.97) rotate(-63.72)"/><circle class="cls-1" cx="253.32" cy="331.43" r="13.62"/><path class="cls-2" d="M1900.47,5173.1a10.22,10.22,0,0,1-18.32-9.05" transform="translate(-1638.37 -4836.38)"/><path class="cls-2" d="M1882.9,5162.52a10.22,10.22,0,0,1,18.32,9" transform="translate(-1638.37 -4836.38)"/><ellipse class="cls-1" cx="1889.18" cy="5161.35" rx="1.28" ry="0.85" transform="translate(-5213.53 -266.25) rotate(-63.72)"/><ellipse class="cls-1" cx="1894.51" cy="5162.08" rx="1.28" ry="0.85" transform="translate(-5211.21 -261.06) rotate(-63.72)"/><ellipse class="cls-1" cx="1889.61" cy="5172.01" rx="1.28" ry="0.85" transform="translate(-5222.84 -259.92) rotate(-63.72)"/><ellipse class="cls-1" cx="1897.21" cy="5168.16" rx="1.28" ry="0.85" transform="translate(-5215.16 -255.25) rotate(-63.72)"/><ellipse class="cls-1" cx="1892.3" cy="5176.18" rx="1.28" ry="0.85" transform="translate(-5225.09 -255.19) rotate(-63.72)"/><ellipse class="cls-1" cx="1885.02" cy="5167.84" rx="1.28" ry="0.85" transform="translate(-5221.67 -266.36) rotate(-63.72)"/><circle class="cls-1" cx="278.16" cy="350.34" r="13.62"/><path class="cls-2" d="M1925.31,5192a10.22,10.22,0,1,1-18.33-9v0" transform="translate(-1638.37 -4836.38)"/><path class="cls-2" d="M1907.75,5181.44a10.22,10.22,0,0,1,18.33,9h0" transform="translate(-1638.37 -4836.38)"/><ellipse class="cls-1" cx="1914.02" cy="5180.26" rx="1.28" ry="0.85" transform="translate(-5216.64 -233.43) rotate(-63.72)"/><ellipse class="cls-1" cx="1919.36" cy="5181" rx="1.28" ry="0.85" transform="translate(-5214.33 -228.24) rotate(-63.72)"/><ellipse class="cls-1" cx="1914.46" cy="5190.92" rx="1.28" ry="0.85" transform="translate(-5225.96 -227.11) rotate(-63.72)"/><ellipse class="cls-1" cx="1922.05" cy="5187.08" rx="1.28" ry="0.85" transform="translate(-5218.28 -222.44) rotate(-63.72)"/><ellipse class="cls-1" cx="1917.14" cy="5195.1" rx="1.28" ry="0.85" transform="translate(-5228.2 -222.37) rotate(-63.72)"/><ellipse class="cls-1" cx="1909.87" cy="5186.76" rx="1.28" ry="0.85" transform="translate(-5224.78 -233.54) rotate(-63.72)"/><circle class="cls-4" cx="290.84" cy="372.75" r="13.62"/><path class="cls-2" d="M1938,5214.41a10.21,10.21,0,1,1-18.32-9" transform="translate(-1638.37 -4836.38)"/><path class="cls-2" d="M1920.42,5203.84a10.22,10.22,0,1,1,18.32,9.05h0" transform="translate(-1638.37 -4836.38)"/><ellipse class="cls-4" cx="1926.7" cy="5202.66" rx="1.28" ry="0.85" transform="translate(-5229.66 -209.58) rotate(-63.72)"/><ellipse class="cls-4" cx="1932.03" cy="5203.4" rx="1.28" ry="0.85" transform="translate(-5227.35 -204.39) rotate(-63.72)"/><ellipse class="cls-4" cx="1927.13" cy="5213.32" rx="1.28" ry="0.85" transform="translate(-5238.98 -203.25) rotate(-63.72)"/><ellipse class="cls-4" cx="1934.73" cy="5209.48" rx="1.28" ry="0.85" transform="translate(-5231.3 -198.59) rotate(-63.72)"/><ellipse class="cls-4" cx="1929.82" cy="5217.5" rx="1.28" ry="0.85" transform="translate(-5241.23 -198.52) rotate(-63.72)"/><ellipse class="cls-4" cx="1922.54" cy="5209.16" rx="1.28" ry="0.85" transform="translate(-5237.8 -209.69) rotate(-63.72)"/><circle class="cls-3" cx="156.76" cy="248.62" r="3.61"/><polygon class="cls-6" points="186.73 409.59 119.63 349.63 128.07 340.04 195.17 399.99 186.73 409.59"/><path class="cls-6" d="M1815.53,5236.64a239.11,239.11,0,0,1-80.61-39.8l5.67-11.47a274.74,274.74,0,0,0,80.6,39.8Z" transform="translate(-1638.37 -4836.38)"/><path class="cls-6" d="M1840.8,5206.33a239.15,239.15,0,0,1-80.6-39.8l5.66-11.47a275,275,0,0,0,80.61,39.8Z" transform="translate(-1638.37 -4836.38)"/><path class="cls-6" d="M1861.88,5233.85a239,239,0,0,1-80.6-39.8l5.66-11.47a274.74,274.74,0,0,0,80.6,39.8Z" transform="translate(-1638.37 -4836.38)"/><path class="cls-6" d="M1862.24,5250.2a239.15,239.15,0,0,1-80.6-39.8l5.66-11.47a275,275,0,0,0,80.61,39.8Z" transform="translate(-1638.37 -4836.38)"/><polygon class="cls-6" points="239.13 442.47 153 416.56 156.75 404.34 242.87 430.25 239.13 442.47"/><path class="cls-6" d="M1864.89,5274.46a241.07,241.07,0,0,1-90.11-2l.43-12.75a277.25,277.25,0,0,0,90.11,2Z" transform="translate(-1638.37 -4836.38)"/><path class="cls-6" d="M1875.43,5236.41a240.87,240.87,0,0,1-90.11-2l.43-12.75a277,277,0,0,0,90.11,2Z" transform="translate(-1638.37 -4836.38)"/><path class="cls-6" d="M1906.08,5252.41a241.07,241.07,0,0,1-90.11-2l.43-12.75a277,277,0,0,0,90.11,2Z" transform="translate(-1638.37 -4836.38)"/><path class="cls-6" d="M1913.18,5267a241.07,241.07,0,0,1-90.11-2l.42-12.75a277,277,0,0,0,90.11,2Z" transform="translate(-1638.37 -4836.38)"/><rect class="cls-7" x="1822.89" y="5195.9" width="4.26" height="4.26" transform="translate(-5282.18 -303.34) rotate(-63.72)"/><rect class="cls-7" x="1801.54" y="5267.97" width="4.26" height="4.26" transform="translate(-5358.69 -282.32) rotate(-63.72)"/><rect class="cls-7" x="1773.26" y="5171.4" width="4.26" height="4.26" transform="translate(-5287.86 -361.49) rotate(-63.72)"/><rect class="cls-7" x="1838.45" y="5262.46" width="4.26" height="4.26" transform="translate(-5333.18 -252.3) rotate(-63.72)"/><rect class="cls-7" x="1851.67" y="5241.45" width="4.26" height="4.26" transform="translate(-5306.98 -252.15) rotate(-63.72)"/><rect class="cls-7" x="1794.19" y="5196.34" width="3.41" height="5.96" transform="translate(-3969.95 -3273.28) rotate(-29.57)"/><rect class="cls-7" x="1835.08" y="5226.98" width="3.41" height="5.96" transform="translate(-3979.75 -3249.11) rotate(-29.57)"/><rect class="cls-7" x="1772.96" y="5214.34" width="3.41" height="5.96" transform="translate(-3981.6 -3281.41) rotate(-29.57)"/><rect class="cls-7" x="1804.49" y="5228.02" width="5.96" height="3.41" transform="translate(-3983.45 -3263.61) rotate(-29.57)"/><rect class="cls-7" x="1822.46" y="5243.54" width="5.96" height="3.41" transform="translate(-3988.77 -3252.72) rotate(-29.57)"/><rect class="cls-7" x="1886.48" y="5252.36" width="5.96" height="3.41" transform="translate(-3984.79 -3219.98) rotate(-29.57)"/></svg>