<svg id="Isolation_Mode" data-name="Isolation Mode" xmlns="http://www.w3.org/2000/svg" viewBox="0 0 180.68 316.2"><defs><style>.cls-1{fill:#71db3a;}.cls-2{fill:#3f3d56;}.cls-3{isolation:isolate;opacity:0.2;}</style></defs><path class="cls-1" d="M371.81,5639.31l-36.08,13a5.1,5.1,0,0,0-3.06,6.52l5.72,15.83a5.07,5.07,0,0,0,6.51,3.06l6-2.16,8.57,23.74,24.12-8.71L375,5666.87l6-2.16a5.08,5.08,0,0,0,3.05-6.51l-5.71-15.84A5.09,5.09,0,0,0,371.81,5639.31Z" transform="translate(-332.37 -5639)"/><path class="cls-2" d="M460.29,5771.22a197.26,197.26,0,0,1-72-98.35,4.19,4.19,0,0,0-4.47-2.8l-2.47-6.84L343.26,5677l2.44,6.75-.53.19a4.15,4.15,0,0,0-2.49,5.32,2.33,2.33,0,0,0,.11.28Q370,5750.69,353,5813.11a11.44,11.44,0,0,0,.41,7.24l50.7,127.4a11.87,11.87,0,0,0,14.95,6.78l86.21-31.13a11.86,11.86,0,0,0,7.11-14.95l-43.58-125.74A24,24,0,0,0,460.29,5771.22Z" transform="translate(-332.37 -5639)"/><path class="cls-3" d="M366.15,5647.18a11,11,0,0,1-20.64,7.46" transform="translate(-332.37 -5639)"/><path class="cls-1" d="M462.1,5819l-10.43,3.77a29.13,29.13,0,0,0-54.16,19.55l-10.44,3.77a8.19,8.19,0,0,0-4.92,10.48,7.32,7.32,0,0,0,.51,1.14l37.95,69.61,65.11-23.51L473,5825.35a8.19,8.19,0,0,0-9.4-6.77A8.36,8.36,0,0,0,462.1,5819Z" transform="translate(-332.37 -5639)"/></svg>