<svg id="Layer_2" data-name="Layer 2" xmlns="http://www.w3.org/2000/svg" viewBox="0 0 1730.99 1026.61"><defs><style>.cls-1{fill:#3f3d56;}.cls-2,.cls-3,.cls-8,.cls-9{isolation:isolate;}.cls-2{opacity:0.1;}.cls-3,.cls-4{fill:#585ec7;}.cls-3{opacity:0.4;}.cls-5{fill:none;stroke:#3f3d56;stroke-miterlimit:10;stroke-width:6.32px;}.cls-6{fill:#71db3a;}.cls-7{fill:#656380;}.cls-8{opacity:0.2;}.cls-13,.cls-9{fill:#fe7d1e;}.cls-9{opacity:0.6;}.cls-10{fill:#ffb8b8;}.cls-11{fill:#2f2e41;}.cls-12{fill:#fff;}.cls-14{fill:#f2f2f2;}</style></defs><path class="cls-1" d="M717.66,6562.88h.1l15.54-.52c142.2-4.81,323.09-7.69,520.08-7.69,457.56,0,828.49,15.55,828.49,34.71s-370.93,34.69-828.49,34.69q-37.79,0-74.74-.13-35.48-.15-70-.39c-94.92-.7-184.25-2.09-265.07-4q-38.37-.91-74-2-36.79-1.1-70.38-2.38c-25.9-1-50.32-2.06-73.11-3.17-125.33-6.07-201.13-14-201.13-22.65C424.89,6578.72,538.56,6569.24,717.66,6562.88Z" transform="translate(-424.89 -5597.49)"/><path class="cls-1" d="M717.66,6562.83h.11l15.55-.52c96.8-3.27,211.64-5.66,337.26-6.83q31.53-.3,63.93-.51,58.21-.36,118.87-.34t118.87.34q32.32.2,64,.51c369.62,3.48,645.67,17.31,645.67,33.84,0,19.24-370.93,34.78-828.49,34.78q-37.79,0-74.74-.16-35.49-.13-70-.38c-94.92-.69-184.25-2.09-265.09-4q-38.35-.93-74-2-36.79-1.14-70.38-2.39c-25.9-1-50.32-2.07-73.11-3.16-125.33-6.1-201.13-14-201.13-22.69C424.89,6578.72,538.56,6569.24,717.66,6562.83Z" transform="translate(-424.89 -5597.49)"/><ellipse class="cls-2" cx="828.49" cy="991.11" rx="193.35" ry="20.44"/><circle class="cls-1" cx="828.49" cy="609.99" r="384.83"/><path class="cls-2" d="M938.35,6152.32q2.45-13.89,6-27.34c.65-2.45,1.33-4.8,2-7.19,38.78-132.9,161.53-230,307-230,168.52,0,306.59,130.29,318.88,295.66q.9,11.91.9,24c0,3.59-.07,7.19-.19,10.78-5.33,161.54-130.54,292.75-289.53,307.6-9.87.93-19.91,1.39-30,1.39-176.59,0-319.77-143.16-319.77-319.77A321.53,321.53,0,0,1,938.35,6152.32Z" transform="translate(-424.89 -5597.49)"/><path class="cls-3" d="M933.61,6207.39a319.65,319.65,0,0,1,12.77-89.76C980,6104.26,1017.2,6097,1053,6093.49c105.54-10.31,215.79,3.72,308.17,55.81,34.39,19.46,66.36,44.07,103.7,56.92,34.45,11.87,71.59,13.08,108,12-5.67,171.6-146.59,309-319.58,309-176.59,0-319.77-143.16-319.77-319.77Z" transform="translate(-424.89 -5597.49)"/><path class="cls-3" d="M938.37,6152.16q2.45-13.89,6-27.33c104.67-9.77,213.75,4.44,305.29,56.08,34.39,19.46,66.35,44.06,103.71,56.92,34.45,11.87,71.59,13.07,108.05,12a319.8,319.8,0,0,1-178,276c-9.87.93-19.91,1.39-30,1.39-176.59,0-319.77-143.16-319.77-319.77A321.49,321.49,0,0,1,938.37,6152.16Z" transform="translate(-424.89 -5597.49)"/><path class="cls-4" d="M938.37,6152.23c51.78,8.79,101.94,25.25,147.68,51.05,34.41,19.38,66.36,44,103.71,56.84,35.37,12.19,73.55,13.14,110.94,11.95,30-.9,60.21-3.16,88.67-12.65,39-13,72.36-38.83,109.87-55.67a254,254,0,0,1,73-20.31q.9,11.91.9,24c0,176.61-143.18,319.77-319.77,319.77s-319.77-143.16-319.77-319.77A321.59,321.59,0,0,1,938.37,6152.23Z" transform="translate(-424.89 -5597.49)"/><path class="cls-5" d="M517.15,6255.72q-3.63,49.57-4.92,99.2c-.25,9.95-.36,20.27,3.7,29.33,2.85,6.29,7.5,11.57,12.34,16.51A217.34,217.34,0,0,0,568.39,6433c19.69,12.31,44.3,26,44.68,49.21.19,16.14-11.9,29.34-21.94,42s-18.75,30-11.07,44.27" transform="translate(-424.89 -5597.49)"/><path class="cls-6" d="M481.17,6265.8a36.17,36.17,0,1,0,24.5-44.91l.24,19.4-8.1-16a36.14,36.14,0,0,0-16.64,41.52Z" transform="translate(-424.89 -5597.49)"/><path class="cls-6" d="M540.25,6482.28l24.87,5.75-22.61-18.39a36.13,36.13,0,1,1-2.26,12.64Z" transform="translate(-424.89 -5597.49)"/><path class="cls-6" d="M562.13,6428.54l-1.51-.07a36.19,36.19,0,0,1,4.9-72.22h.09l8.19,16.22-.19-14.91a36.18,36.18,0,0,1-11.48,71Z" transform="translate(-424.89 -5597.49)"/><path class="cls-6" d="M440.7,6342.26a36.4,36.4,0,0,1,10.79-35l13.15,12.65-6.32-17.52a36.16,36.16,0,1,1-17.62,39.88Z" transform="translate(-424.89 -5597.49)"/><path class="cls-2" d="M480.52,6263.2a36.19,36.19,0,1,0,67.63-24,25.77,25.77,0,0,0-9.1,8.57c-2.42,3.88-3.84,8.27-6.71,11.78-5.29,6.52-14.49,8.52-22.87,8s-16.51-3.11-24.86-4C483.25,6263.41,481.81,6263.31,480.52,6263.2Z" transform="translate(-424.89 -5597.49)"/><path class="cls-2" d="M440.75,6342.29c1.22,0,2.44.11,3.64.22,8.71.79,17.14,3.27,25.87,3.67s18.35-1.77,24-8.4c3-3.57,4.6-8.06,7.18-11.95a26.41,26.41,0,0,1,7.27-7.29,36.18,36.18,0,1,1-67.94,23.75Z" transform="translate(-424.89 -5597.49)"/><path class="cls-2" d="M529.25,6403.05c8.91.68,17.53,2.88,26.49,3.07,9.25.22,19.51-2.17,25.62-9,3.35-3.67,5.1-8.24,7.9-12.2a29.46,29.46,0,0,1,7.66-7.36,36.22,36.22,0,1,1-67.67,25.46Z" transform="translate(-424.89 -5597.49)"/><path class="cls-2" d="M562.59,6499.73c10.7-.28,22.64-3.27,30-10.54,4-3.91,6.25-8.65,9.69-12.86a36.48,36.48,0,0,1,7.91-7.07,36.19,36.19,0,0,1-66,29.52A155.69,155.69,0,0,0,562.59,6499.73Z" transform="translate(-424.89 -5597.49)"/><path class="cls-7" d="M624.22,6580.37c-8.58,5.23-51.26,10.53-83.5,10.26s8.54-39.31,10.68-49.14,37.45-2.5,46.05,3.62,37.16,7,37.16,7S632.81,6575.13,624.22,6580.37Z" transform="translate(-424.89 -5597.49)"/><path class="cls-8" d="M528.38,6582.31c-.18,4.9,3,8.21,12.34,8.29,32.24.25,74.92-5,83.5-10.26s10.39-28.26,10.39-28.26h-1c-.87,6.59-3.48,20.89-10,24.87-8.59,5.24-51.26,10.52-83.5,10.26C533.21,6587.15,529.67,6585.3,528.38,6582.31Z" transform="translate(-424.89 -5597.49)"/><path class="cls-5" d="M785.4,6357.75q2.33,32.39,3.16,64.83c.17,6.49.25,13.21-2.41,19.14a38.26,38.26,0,0,1-8,10.77,142.12,142.12,0,0,1-26.2,21.06c-12.86,8-28.93,17-29.17,32.13-.18,10.54,7.79,19.16,14.32,27.43s12.22,19.64,7.21,28.92" transform="translate(-424.89 -5597.49)"/><path class="cls-6" d="M808.84,6364.37A23.64,23.64,0,1,1,792.91,6335l-.16,12.65,5.28-10.46a23.66,23.66,0,0,1,10.81,27.2Z" transform="translate(-424.89 -5597.49)"/><path class="cls-6" d="M770.38,6505.61l-16.24,3.77,14.77-12a23.64,23.64,0,0,0-44.27-.25,23.21,23.21,0,0,0-1.59,9.58,23.63,23.63,0,0,0,44.61,9.75A23.22,23.22,0,0,0,770.38,6505.61Z" transform="translate(-424.89 -5597.49)"/><path class="cls-6" d="M777.44,6453.93a23.21,23.21,0,0,0,1-8.07,23.72,23.72,0,0,0-24.7-22.49h0L748.38,6434l.11-9.74a23.7,23.7,0,0,0-15.16,13.09,23.22,23.22,0,0,0-2,10.77,23.61,23.61,0,0,0,46.15,5.85Z" transform="translate(-424.89 -5597.49)"/><path class="cls-6" d="M813.35,6432.38a23.64,23.64,0,0,0,14.86-41l-8.58,8.25,4.17-11.44a23.63,23.63,0,1,0-10.45,44.22Z" transform="translate(-424.89 -5597.49)"/><path class="cls-2" d="M809.27,6362.6a23.61,23.61,0,1,1-44.14-15.68,17,17,0,0,1,5.94,5.61c1.58,2.5,2.52,5.39,4.38,7.69,3.46,4.25,9.47,5.58,14.94,5.23s10.79-2,16.22-2.64C807.52,6362.81,808.4,6362.67,809.27,6362.6Z" transform="translate(-424.89 -5597.49)"/><path class="cls-2" d="M835.31,6414.16c-.79,0-1.6.07-2.37.15-5.69.52-11.21,2.11-16.9,2.38s-12-1.15-15.67-5.47c-2-2.34-3-5.28-4.74-7.81a17.42,17.42,0,0,0-4.75-4.74,23.42,23.42,0,0,0-2.24,11.21,23.66,23.66,0,0,0,46.67,4.28Z" transform="translate(-424.89 -5597.49)"/><path class="cls-2" d="M777.47,6453.82c-5.81.42-11.25,1.86-17.29,2s-12.75-1.43-16.73-5.87c-2.15-2.34-3.29-5.31-5.12-7.91a19,19,0,0,0-5-4.74,23.22,23.22,0,0,0-2,10.77,23.61,23.61,0,0,0,46.18,5.74Z" transform="translate(-424.89 -5597.49)"/><path class="cls-2" d="M755.72,6517c-6.93-.19-14.74-2.13-19.57-6.87-2.6-2.57-4.08-5.66-6.33-8.4a23.78,23.78,0,0,0-5.18-4.63,23.21,23.21,0,0,0-1.59,9.58,23.63,23.63,0,0,0,44.61,9.75A99.23,99.23,0,0,1,755.72,6517Z" transform="translate(-424.89 -5597.49)"/><path class="cls-7" d="M715.4,6569.74c5.61,3.42,33.49,6.85,54.53,6.69s-5.63-25.66-7-32.08-24.43-1.64-30,2.36-24.27,4.58-24.27,4.58S709.79,6566.33,715.4,6569.74Z" transform="translate(-424.89 -5597.49)"/><path class="cls-8" d="M778,6571c.11,3.21-2,5.41-8.06,5.41-21.06.17-48.92-3.27-54.53-6.69s-6.8-18.45-6.8-18.45h.63c.57,4.3,2.26,13.64,6.55,16.25,5.52,3.42,33.47,6.86,54.53,6.69C774.88,6574.17,777.19,6573,778,6571Z" transform="translate(-424.89 -5597.49)"/><path class="cls-9" d="M1285.25,6443.1s12.4-15.4,25-17.68,11.07-45.71,11.07-45.71a114.89,114.89,0,0,0,28.09,8.37c-1.93,27.84,13.35,29,13.35,29,0-8.37,6.61-22.45,9.28-27.81,1.39-.1,2.78-.24,4.17-.4,4.65,5.84,13.3,15.56,16.46,12.4,2.75-2.77.41-10.31-1.8-15.72a66.42,66.42,0,0,0,33.5-25.94s-48.13-69.51-104.11-5.68c0,0-11.31-19.37-30-25.38s-22.42-6.73-24-14.23c0,0,.15,52.43,36.12,59.07C1302.39,6373.4,1266.47,6406.46,1285.25,6443.1Z" transform="translate(-424.89 -5597.49)"/><path class="cls-9" d="M1088.58,6362.3s5.73-18.84,16.7-25.69-6.64-46.58-6.64-46.58a114.31,114.31,0,0,0,29-2.65c8.53,26.58,23.15,22,23.15,22-3.11-7.77-2.18-23.31-1.69-29.29,1.25-.6,2.5-1.23,3.73-1.91,6.48,3.7,18.1,9.6,19.87,5.41,1.54-3.57-3.43-9.71-7.49-13.92a66.34,66.34,0,0,0,21.5-36.52s-70.48-46.77-98.8,33.2c0,0-17.64-13.78-37.3-12.36s-23.36,2.07-27.55-4.25c0,0,19.58,48.63,55.44,41.45C1078.54,6291.2,1057.52,6335.19,1088.58,6362.3Z" transform="translate(-424.89 -5597.49)"/><polygon class="cls-10" points="1496.14 900.62 1470.67 900.62 1478.88 967.16 1496.14 967.16 1496.14 900.62"/><path class="cls-11" d="M1925.43,6581.38H1869.8v-.71a21.68,21.68,0,0,1,21.66-21.65h34Z" transform="translate(-424.89 -5597.49)"/><polygon class="cls-10" points="1684.34 877.43 1662.51 890.55 1703.82 943.36 1718.61 934.47 1684.34 877.43"/><path class="cls-11" d="M2108.2,6572.68l-.36-.6a21.68,21.68,0,0,1,7.41-29.71l29.12-17.5,11.52,19.16Z" transform="translate(-424.89 -5597.49)"/><path class="cls-11" d="M1925.52,6550.92h-.3a231.73,231.73,0,0,1-25.12-1.45c-3.18-.31-6.63-.65-10.78-1l-.14,0c-2.84-.84-2.92-27.43-1.71-118.42.61-46.61,1.31-99.44.48-133.08v-.33l.25-.22c30.77-26.77,70.3-36.8,111.28-28.25l.31.06.16.27c17,28.69,42.55,70,67.31,110,56.83,91.74,73.09,118.72,71.3,120.76l-.21.17c-3.88,1.94-6.79,3.43-9.27,4.7-8.3,4.25-11.73,6-30.18,13.61l-.45.19-.34-.37c-57.66-63.19-105.65-133.77-135.33-199-3.47,22.27-7.68,51.36-12.13,82.1-12.79,88.38-21.44,146.58-24.92,150.12Z" transform="translate(-424.89 -5597.49)"/><path class="cls-11" d="M1927.84,6014.43c-2.23-17-2.83-34.57,2.3-50.9s16.77-31.31,32.89-36.83,44.23-.36,51.83,15c11,22.09,6,49.13.22,73.11C1987.12,6013.29,1957.48,6013.86,1927.84,6014.43Z" transform="translate(-424.89 -5597.49)"/><circle class="cls-10" cx="1540.17" cy="382.71" r="34.56"/><path class="cls-11" d="M1920.55,5974.23c0-.93-.06-1.86,0-2.79a43.41,43.41,0,0,1,86.81,1.64C1979.71,5974.35,1950.13,5974.29,1920.55,5974.23Z" transform="translate(-424.89 -5597.49)"/><path class="cls-1" d="M1941.05,6303.75a301.77,301.77,0,0,1,101,16.91c1.13-54.48-17.63-109.07-51.54-149.9l-.26-.3.13-.38c9.06-26.17,18.42-53.23,26.79-80.15l-.13-.45c-5.86-20.86-18.46-41.94-38.5-64.44a12.31,12.31,0,0,0-16.83-.85c-35.62,32.65-55,81.58-50.55,127.68v.14l0,.13c-15.7,53.16-21.39,80.47-26.42,104.56-3.66,17.57-6.84,32.79-13.21,54.53A327,327,0,0,1,1941.05,6303.75Z" transform="translate(-424.89 -5597.49)"/><polygon class="cls-2" points="1486.57 619.82 1515.74 649.33 1566.78 538.2 1486.57 619.82"/><path class="cls-6" d="M1792,5821.46l-2.75,18.19,33.53-.26-3-18.15c43.86-8.57,77.16-55.52,76.72-111.89-.49-62.17-41.83-112.25-92.34-111.86s-91.08,51.12-90.59,113.29C1713.93,5767.15,1748,5813.57,1792,5821.46Z" transform="translate(-424.89 -5597.49)"/><path class="cls-12" d="M1865.13,5667.38l12.67-.1a206.17,206.17,0,0,1,.56,71.76l-12.67.1Q1873.64,5704.54,1865.13,5667.38Z" transform="translate(-424.89 -5597.49)"/><rect class="cls-1" x="1786.86" y="5821.23" width="37.99" height="8.44" transform="translate(-470.33 -5583.21) rotate(-0.45)"/><path class="cls-13" d="M1623.64,5849.9l-1.43,18.35,33.41-2.66-4.31-17.89c43.14-11.68,73-60.88,68.54-117.08-4.93-62-49.74-109-100.1-105s-87.19,57.49-82.27,119.47C1542,5801.3,1579.2,5845.18,1623.64,5849.9Z" transform="translate(-424.89 -5597.49)"/><path class="cls-12" d="M1685.64,5691l12.63-1a206.29,206.29,0,0,1,5.68,71.54l-12.63,1Q1696.78,5727.45,1685.64,5691Z" transform="translate(-424.89 -5597.49)"/><rect class="cls-1" x="1618.8" y="5848.67" width="37.99" height="8.44" transform="translate(-883.13 -5449.45) rotate(-4.54)"/><rect class="cls-1" x="1773.14" y="5812.56" width="4.22" height="529.3" transform="translate(-3338.17 -3774.9) rotate(-31.49)"/><path class="cls-6" d="M1586.84,5867.69l6,17.39,29.58-15.77-11.1-14.68c34.9-27.93,42.63-85,16.11-134.71-29.25-54.86-89.1-80.06-133.68-56.3s-57,87.51-27.74,142.38C1492.53,5855.73,1544.2,5881.1,1586.84,5867.69Z" transform="translate(-424.89 -5597.49)"/><path class="cls-12" d="M1580.25,5697.24l11.17-6a206.05,206.05,0,0,1,33.77,63.33l-11.18,6Q1605,5726.21,1580.25,5697.24Z" transform="translate(-424.89 -5597.49)"/><rect class="cls-1" x="1582.01" y="5860.56" width="37.99" height="8.44" transform="translate(-2996.03 -4154.49) rotate(-28.07)"/><rect class="cls-1" x="1755.42" y="5815.65" width="4.22" height="529.3" transform="translate(-3665.67 -3399.96) rotate(-36.04)"/><rect class="cls-1" x="1845.59" y="5821.44" width="4.22" height="529.3" transform="translate(-1460.64 -5180.63) rotate(-10.07)"/><path class="cls-10" d="M1877.87,6253.82a14.22,14.22,0,0,1-5.45-27.72l36.26-27.76,24,10.36-42.06,27.56a13.7,13.7,0,0,1,.39,2.46,14.14,14.14,0,0,1-13.13,15.1Z" transform="translate(-424.89 -5597.49)"/><path class="cls-1" d="M1918.34,6234l-.53-.38c-10-7.37-21.12-15-31.87-22.35l-.64-.45.5-.59c22.94-26.84,45.91-54.87,68.12-82,0,0,0-.08,0-.1l.2-.1.09-.11,0,0,.13-.07-.6.05-6.85-53.69c-6.18-8.44-7.36-25.19.74-36.88,8.39-12.11,26.15-16.16,38-8.67a24.92,24.92,0,0,1,10.95,18.62,22.49,22.49,0,0,1-6,18.41c2.91,28.42,3,53.81,3.13,78.38v.24l-.15.21c-23.68,30.08-49.69,60-74.84,88.94Z" transform="translate(-424.89 -5597.49)"/><polygon class="cls-14" points="1136.5 675.84 1136.5 675.84 1136.5 675.84 1136.5 675.84"/><polygon class="cls-14" points="1336.16 814.38 1336.16 814.38 1336.16 814.38 1336.16 814.38"/><polygon class="cls-14" points="1739.81 185.28 1739.81 185.28 1739.81 185.28 1739.81 185.28"/></svg>