<svg id="Layer_2" data-name="Layer 2" xmlns="http://www.w3.org/2000/svg" viewBox="0 0 2175.19 487.33"><defs><style>.cls-1{fill:#ffb9b9;}.cls-2{fill:#d0cde1;}.cls-3{fill:#2f2e41;}.cls-4{fill:#71db3a;}.cls-5{fill:#3f3d56;}.cls-6{fill:#ccc;}.cls-10,.cls-7{isolation:isolate;}.cls-7{opacity:0.1;}.cls-8{fill:#fff;}.cls-9{fill:#9f616a;}.cls-10{opacity:0.14;}</style></defs><path class="cls-1" d="M5431.53,2636a8.52,8.52,0,0,1,1.4-.3l19-38.56-5.8-8.69,12-10.45,15,18.4L5442.49,2641a9.1,9.1,0,1,1-12-4.59,9.58,9.58,0,0,1,1.06-.39Z" transform="translate(-4906.92 -2471.2)"/><path class="cls-2" d="M5463.92,2583.3a3.93,3.93,0,0,1-.88.7l-19.42,11.25a3.89,3.89,0,0,1-5.32-1.41l-.16-.29-9.44-20a3.88,3.88,0,0,1,1.33-4.89l12-8.19a3.89,3.89,0,0,1,5,.47l16.82,16.88a3.89,3.89,0,0,1,.08,5.43Z" transform="translate(-4906.92 -2471.2)"/><polygon class="cls-1" points="584.26 333.04 574.01 335.83 558.37 297.62 573.5 293.5 584.26 333.04"/><path class="cls-3" d="M5472.81,2806.09l19.77-5.37h0l3.39,12.44h0l-32.22,8.77h0A12.91,12.91,0,0,1,5472.81,2806.09Z" transform="translate(-4906.92 -2471.2)"/><polygon class="cls-1" points="496.63 340.86 486 340.86 480.95 299.88 496.63 299.88 496.63 340.86"/><path class="cls-3" d="M5385.34,2809h20.48v12.9h-33.38A12.89,12.89,0,0,1,5385.34,2809Z" transform="translate(-4906.92 -2471.2)"/><circle class="cls-1" cx="507.82" cy="54.43" r="21.28"/><path class="cls-3" d="M5402.9,2782.85h-14.52a3.93,3.93,0,0,1-3.9-3.66c-4.32-68.77-1.79-118.1,8-155.24a3,3,0,0,1,.16-.48l.77-1.94a3.87,3.87,0,0,1,3.62-2.45h29.86a3.84,3.84,0,0,1,3,1.36l4.05,4.73a3.11,3.11,0,0,1,.23.28c18.28,25.5,34.67,75.35,53.65,142.35a3.89,3.89,0,0,1-2.57,4.78l-15.6,5a3.93,3.93,0,0,1-4.7-2l-40.49-84a3,3,0,0,0-5.73.91l-11.9,87A3.92,3.92,0,0,1,5402.9,2782.85Z" transform="translate(-4906.92 -2471.2)"/><path class="cls-2" d="M5432.24,2625.51h-.13l-36.26-1.14a3.89,3.89,0,0,1-3.75-3.43c-4.6-37.21,8-47.18,13.64-49.73a3,3,0,0,0,1.75-2.38l.49-3.9a3.82,3.82,0,0,1,.77-1.9c8.83-11.44,20.89-15.1,27.29-16.27a3.89,3.89,0,0,1,4.52,3.15.58.58,0,0,1,0,.19l.73,5.6a3.12,3.12,0,0,0,.62,1.46c18.42,24.09-2.1,59.64-6.4,66.53h0A3.9,3.9,0,0,1,5432.24,2625.51Z" transform="translate(-4906.92 -2471.2)"/><path class="cls-3" d="M5457.68,2528a84.65,84.65,0,0,0-16.9-17.69c-5.37-4.2-11.35-7.78-17.95-9.5s-13.88-1.42-19.9,1.78-12.24,9.55-12.27,16.37c0,2.19.54,5.15,2.7,4.77l.62.08,15.6-3.15,6.65,23.06c.47,1.62,1.09,3.43,2.63,4.13s3.12,0,4.59-.58c.24-.1,2.31-4.75,2.31-4.75a.87.87,0,0,1,1.11-.52,1,1,0,0,1,.39.27l1.23,1.54a1.75,1.75,0,0,0,2,.52l25.44-10.63c1.17-.49,2.48-1.12,2.82-2.35S5458.38,2529,5457.68,2528Z" transform="translate(-4906.92 -2471.2)"/><path class="cls-4" d="M5413.78,2687.67a2.78,2.78,0,0,1-1.64-.54l-3.94-2.86a1.92,1.92,0,0,0-2.26,0l-3.94,2.86a2.78,2.78,0,0,1-3.89-.61,2.82,2.82,0,0,1-.4-2.5l1.51-4.64a1.89,1.89,0,0,0-.7-2.14l-3.94-2.87a2.79,2.79,0,0,1,1.64-5h4.87a1.91,1.91,0,0,0,1.83-1.32l1.5-4.64a2.79,2.79,0,0,1,5.3,0l1.51,4.64a1.89,1.89,0,0,0,1.82,1.32h4.88a2.79,2.79,0,0,1,1.63,5l-3.94,2.87a1.89,1.89,0,0,0-.7,2.14l1.51,4.64a2.8,2.8,0,0,1-2.65,3.65Z" transform="translate(-4906.92 -2471.2)"/><path class="cls-1" d="M5428.85,2678.4a9.3,9.3,0,0,0,2.28-13,9.82,9.82,0,0,0-1.06-1.26l6.74-81.34-20.06,2.76-.38,79a9.36,9.36,0,0,0,12.48,13.77Z" transform="translate(-4906.92 -2471.2)"/><path class="cls-2" d="M5438.12,2594.55a3.77,3.77,0,0,1-1.11-.16l-21.53-6.33a3.89,3.89,0,0,1-2.64-4.84c0-.1.06-.21.1-.31l8-20.58a3.88,3.88,0,0,1,4.47-2.4l14.22,3.09a3.9,3.9,0,0,1,3.07,3.92l-.66,23.82a3.89,3.89,0,0,1-3.89,3.79Z" transform="translate(-4906.92 -2471.2)"/><path class="cls-5" d="M5275.29,2620.48h-330.8A5.45,5.45,0,0,1,4939,2615v-98.85a5.45,5.45,0,0,1,5.45-5.45h330.8a5.46,5.46,0,0,1,5.45,5.45V2615A5.46,5.46,0,0,1,5275.29,2620.48Zm-330.8-108.19a3.9,3.9,0,0,0-3.9,3.89V2615a3.9,3.9,0,0,0,3.9,3.89h330.8a3.89,3.89,0,0,0,3.89-3.89v-98.85a3.89,3.89,0,0,0-3.89-3.89Z" transform="translate(-4906.92 -2471.2)"/><path class="cls-4" d="M5097.47,2662.1a3.05,3.05,0,0,1-1.8-.59l-4.34-3.16a2.1,2.1,0,0,0-2.48,0l-4.34,3.16a3.07,3.07,0,0,1-4.72-3.43l1.66-5.1a2.09,2.09,0,0,0-.76-2.36l-4.34-3.16a3.06,3.06,0,0,1,1.8-5.54h5.36a2.11,2.11,0,0,0,2-1.46l1.66-5.1a3.06,3.06,0,0,1,3.86-2,3.12,3.12,0,0,1,2,2l1.65,5.1a2.12,2.12,0,0,0,2,1.46H5102a3.06,3.06,0,0,1,1.8,5.54l-4.34,3.16a2.08,2.08,0,0,0-.77,2.36l1.66,5.1a3.08,3.08,0,0,1-2.92,4Z" transform="translate(-4906.92 -2471.2)"/><path class="cls-4" d="M5139.4,2662.1a3.05,3.05,0,0,1-1.8-.59l-4.34-3.16a2.1,2.1,0,0,0-2.48,0l-4.34,3.16a3.07,3.07,0,0,1-4.72-3.43l1.66-5.1a2.11,2.11,0,0,0-.77-2.36l-4.34-3.16a3.06,3.06,0,0,1,1.8-5.54h5.37a2.1,2.1,0,0,0,2-1.46l1.66-5.1a3.06,3.06,0,0,1,5.83,0l1.66,5.1a2.11,2.11,0,0,0,2,1.46H5144A3.07,3.07,0,0,1,5147,2645a3,3,0,0,1-1.27,2.47l-4.34,3.16a2.09,2.09,0,0,0-.76,2.36l1.65,5.1a3,3,0,0,1-1.11,3.43A3.05,3.05,0,0,1,5139.4,2662.1Z" transform="translate(-4906.92 -2471.2)"/><path class="cls-4" d="M5180.3,2662.1a3.05,3.05,0,0,1-1.8-.59l-4.35-3.16a2.1,2.1,0,0,0-2.48,0l-4.34,3.16a3.07,3.07,0,0,1-4.28-.68,3.1,3.1,0,0,1-.43-2.75l1.66-5.1a2.11,2.11,0,0,0-.77-2.36l-4.34-3.16a3.06,3.06,0,0,1,1.8-5.54h5.36a2.11,2.11,0,0,0,2-1.46l1.66-5.1a3.06,3.06,0,0,1,5.83,0l1.66,5.1a2.1,2.1,0,0,0,2,1.46h5.37a3.06,3.06,0,0,1,1.8,5.54l-4.34,3.16a2.11,2.11,0,0,0-.77,2.36l1.66,5.1a3,3,0,0,1-1.11,3.43A3.08,3.08,0,0,1,5180.3,2662.1Z" transform="translate(-4906.92 -2471.2)"/><path class="cls-4" d="M5221.19,2662.1a3.08,3.08,0,0,1-1.8-.59l-4.34-3.16a2.1,2.1,0,0,0-2.48,0l-4.34,3.16a3.06,3.06,0,0,1-4.71-3.43l1.65-5.1a2.09,2.09,0,0,0-.76-2.36l-4.34-3.16a3.06,3.06,0,0,1,1.8-5.54h5.36a2.11,2.11,0,0,0,2-1.46l1.66-5.1a3.06,3.06,0,0,1,3.86-2,3.12,3.12,0,0,1,2,2l1.65,5.1a2.12,2.12,0,0,0,2,1.46h5.37a3.06,3.06,0,0,1,1.8,5.54l-4.34,3.16a2.11,2.11,0,0,0-.77,2.36l1.66,5.1a3.08,3.08,0,0,1-2.92,4Z" transform="translate(-4906.92 -2471.2)"/><path class="cls-5" d="M5250.41,2662.4a3.38,3.38,0,0,1-3.2-4.41l1.66-5.11a1.8,1.8,0,0,0-.66-2l-4.34-3.15a3.37,3.37,0,0,1-.74-4.7,3.33,3.33,0,0,1,2.72-1.39h5.37a1.8,1.8,0,0,0,1.72-1.25l1.65-5.1a3.37,3.37,0,0,1,6.41,0l1.65,5.1a1.81,1.81,0,0,0,1.72,1.25h5.37a3.37,3.37,0,0,1,2,6.09l-4.34,3.15a1.8,1.8,0,0,0-.66,2l1.66,5.11a3.36,3.36,0,0,1-5.18,3.76l-4.34-3.15a1.79,1.79,0,0,0-2.13,0l-4.34,3.15A3.33,3.33,0,0,1,5250.41,2662.4Zm7.39-5.71a3.32,3.32,0,0,1,2,.65l4.34,3.15a1.81,1.81,0,0,0,2.79-2l-1.66-5.11a3.37,3.37,0,0,1,1.22-3.76l4.34-3.15a1.81,1.81,0,0,0-1.06-3.27h-5.37a3.37,3.37,0,0,1-3.2-2.33l-1.65-5.1a1.81,1.81,0,0,0-2.28-1.16,1.83,1.83,0,0,0-1.17,1.16l-1.65,5.1a3.36,3.36,0,0,1-3.2,2.33h-5.37a1.81,1.81,0,0,0-1.06,3.27l4.34,3.15a3.37,3.37,0,0,1,1.22,3.76l-1.66,5.11a1.81,1.81,0,0,0,2.79,2l4.34-3.15A3.33,3.33,0,0,1,5257.8,2656.69Z" transform="translate(-4906.92 -2471.2)"/><path class="cls-6" d="M4981.85,2534.08a5.06,5.06,0,0,0,0,10.12h256.08a5.06,5.06,0,0,0,0-10.12Z" transform="translate(-4906.92 -2471.2)"/><path class="cls-6" d="M4981.85,2560.54a5.06,5.06,0,0,0,0,10.12h256.08a5.06,5.06,0,0,0,0-10.12Z" transform="translate(-4906.92 -2471.2)"/><path class="cls-6" d="M4981.85,2587a5.06,5.06,0,0,0,0,10.12h256.08a5.06,5.06,0,0,0,0-10.12Z" transform="translate(-4906.92 -2471.2)"/><path class="cls-6" d="M4981.85,2534.08a5.06,5.06,0,0,0,0,10.12h256.08a5.06,5.06,0,0,0,0-10.12Z" transform="translate(-4906.92 -2471.2)"/><path class="cls-6" d="M4981.85,2560.54a5.06,5.06,0,0,0,0,10.12h256.08a5.06,5.06,0,0,0,0-10.12Z" transform="translate(-4906.92 -2471.2)"/><path class="cls-6" d="M4981.85,2587a5.06,5.06,0,0,0,0,10.12h256.08a5.06,5.06,0,0,0,0-10.12Z" transform="translate(-4906.92 -2471.2)"/><path class="cls-5" d="M6856.24,2686.81a38.74,38.74,0,0,1-9.53-1.23l-.61-.17-.57-.29c-20.57-10.31-37.92-23.93-51.57-40.48a153,153,0,0,1-26-46.24,177.86,177.86,0,0,1-10.07-62.69c0-.45,0-.79,0-1,0-10.37,5.76-19.47,14.66-23.18,6.82-2.84,68.72-28.27,73.19-30.1,8.43-4.22,17.41-.7,18.85-.09,3.22,1.32,60.45,24.73,72.81,30.62,12.75,6.06,16.15,17,16.15,22.45,0,24.83-4.3,48-12.79,69a159.67,159.67,0,0,1-28.7,46.26c-23.43,26.37-46.87,35.71-47.09,35.8A25.84,25.84,0,0,1,6856.24,2686.81Zm-5.64-11.33c2.08.47,6.88,1.17,10,0,4-1.45,24.1-11.89,42.9-33.05,26-29.24,39.17-66,39.18-109.24,0-.88-.66-7.13-8.94-11.07-12.44-5.92-73.45-30.87-74.07-31.12l-.17-.08c-1.28-.53-5.35-1.66-8.15-.19l-.56.26c-.68.28-68.09,28-75.28,31-5,2.1-6.82,7.29-6.82,11.45,0,.3,0,.74,0,1.31C6768.11,2564.34,6775,2637.16,6850.6,2675.48Z" transform="translate(-4906.92 -2471.2)"/><path class="cls-4" d="M6848.26,2484.84s-68,27.94-75.31,31-10.93,10.33-10.93,17.62-5.46,102.38,86.24,148.35c0,0,8.32,2.31,14.64,0s86.47-41.17,86.47-148.66c0,0,0-10.93-12.75-17s-74.41-31.28-74.41-31.28S6854.64,2481.5,6848.26,2484.84Z" transform="translate(-4906.92 -2471.2)"/><g class="cls-7"><path d="M6855.55,2506.71v149s-68.63-33-68-119.87Z" transform="translate(-4906.92 -2471.2)"/></g><polygon class="cls-8" points="1949.52 142.61 1927.66 114.5 1940.37 104.61 1950.72 117.92 1985.69 81.01 1997.38 92.09 1949.52 142.61"/><polygon class="cls-9" points="1743 300.54 1727.77 300.54 1732.68 340.32 1742.99 340.32 1743 300.54"/><path class="cls-3" d="M6652.55,2821.53h-33.26v-.42a12.94,12.94,0,0,1,12.94-13h20.32Z" transform="translate(-4906.92 -2471.2)"/><polygon class="cls-9" points="1708.31 300.54 1693.09 300.54 1697.99 340.32 1708.31 340.32 1708.31 300.54"/><path class="cls-3" d="M6617.86,2821.53H6584.6v-.42a13,13,0,0,1,12.95-13h20.31Z" transform="translate(-4906.92 -2471.2)"/><polygon class="cls-3" points="1762.6 190.37 1758.21 245.19 1744.32 325.58 1724.31 326.83 1726.78 200.6 1762.6 190.37"/><path class="cls-3" d="M6611.05,2620.64l52.62.73,5.85,40.2-35.82,16.81-8.77,32.16-5,88.82-23.34.67,2.8-149.43Z" transform="translate(-4906.92 -2471.2)"/><circle class="cls-9" cx="1732.68" cy="27.74" r="17.9"/><polygon class="cls-6" points="1743.18 55.36 1752.36 66.84 1747.98 158.21 1713.62 157.47 1707.78 77.8 1715.09 57.34 1717.83 53.19 1743.18 55.36"/><path class="cls-3" d="M6665.86,2572.4l8,30.7-8,30.69,13.16,17.55,11.7-55.55s-8.78-45.32-9.51-50.44-2.19-5.84-2.19-5.84l-5.85.73Z" transform="translate(-4906.92 -2471.2)"/><polygon class="cls-3" points="1700.47 112.89 1695.35 122.39 1693.89 138.47 1696.81 156.74 1686.58 173.55 1676.35 127.51 1687.31 68.3 1691.7 68.3 1700.47 112.89"/><path class="cls-3" d="M6626.1,2510l.22.7s-12.9-4.84-8.69-24c2.63-11.95,13-14.65,21.15-15.46s22,4.88,22,11.39-14.64,4.88-20.34,3.26-8.13,12.2-8.13,12.2l-3.26.82A10.87,10.87,0,0,0,6626.1,2510Z" transform="translate(-4906.92 -2471.2)"/><path class="cls-3" d="M6668.06,2582.63l-2.93,27.77,5.85,16.82,3.65,16.08s0,15.34-14.61,16.08-27.05-46.05-27.05-46.05-2.19,10.23-3.65,16.08-26.31,29.23-26.31,29.23-5.85-.73-11-12.42,10.23-22.66,10.23-22.66l4.39-15.35-1.46-19-10.24-49.7,30.34-15.72,7.67,74.92,16.45-72.73,5.48,4,23.39,9.51Z" transform="translate(-4906.92 -2471.2)"/><polygon class="cls-1" points="1202.39 328.31 1206.41 317.97 1168.47 297.56 1162.54 312.81 1202.39 328.31"/><path class="cls-3" d="M6130.84,2772.55a13.92,13.92,0,0,0-18,7.92h0l-2.71,7-4.18,10.75-1,2.63,13.39,5.21,12.95-33.32Z" transform="translate(-4906.92 -2471.2)"/><path class="cls-3" d="M6105.94,2779.62l-1.74,4.64-4.36,11.56-.11.29c-11.11,1.43-23.29-1.37-34.55-5.72a140.79,140.79,0,0,1-13.22-5.9c-6.37-3.22-12.08-6.61-16.63-9.52-6.85-4.4-11.08-7.7-11.08-7.7s-1.12,1-3.15,2.75c-2.71,2.32-7.05,5.95-12.54,10.21q-3.15,2.46-6.75,5.15c-17.72,13.15-40.47-21.93-40.47-21.93s6.4-4.08,8.07-4.87c5.38-2.54,18-8.55,28.93-13.89,5.62-2.75,10.77-5.34,14.23-7.17,12.25-6.52,27.47,5.82,27.47,5.82Z" transform="translate(-4906.92 -2471.2)"/><g class="cls-10"><path d="M6105.94,2779.62l-1.74,4.64-4.36,11.56-.11.29c-11.11,1.43-23.29-1.37-34.55-5.72a140.79,140.79,0,0,1-13.22-5.9c-6.37-3.22-12.08-6.61-16.63-9.52-6.85-4.4-11.08-7.7-11.08-7.7s-1.12,1-3.15,2.75c-2.71,2.32-7.05,5.95-12.54,10.21q-3.15,2.46-6.75,5.15c-17.72,13.15-40.47-21.93-40.47-21.93s6.4-4.08,8.07-4.87c5.38-2.54,18-8.55,28.93-13.89,5.62-2.75,10.77-5.34,14.23-7.17,12.25-6.52,27.47,5.82,27.47,5.82Z" transform="translate(-4906.92 -2471.2)"/></g><path class="cls-1" d="M5978.53,2710.77a8.47,8.47,0,0,0-6.88,9.81,7.22,7.22,0,0,0,.39,1.45l-14.27,13.11,5.86,10.62,19.88-18.81a8.52,8.52,0,0,0-5-16.18Z" transform="translate(-4906.92 -2471.2)"/><path class="cls-2" d="M5935.62,2770.4c-.64,0-1.29,0-1.93-.08a22.78,22.78,0,0,1-18.36-12.26l-22.85-44a12.62,12.62,0,0,1,21.82-12.63l21.08,47.29,28.68-23.3,16.61,6.46-28,31A23.08,23.08,0,0,1,5935.62,2770.4Z" transform="translate(-4906.92 -2471.2)"/><path class="cls-1" d="M5844,2822a8.49,8.49,0,0,0,6.37-10.16,8.72,8.72,0,0,0-.46-1.42l13.56-13.84-6.4-10.29-18.88,19.81A8.52,8.52,0,0,0,5844,2822Z" transform="translate(-4906.92 -2471.2)"/><path class="cls-5" d="M5973.07,2577.91h1.33V2541.5a21.08,21.08,0,0,1,21.08-21.08h77.14a21.07,21.07,0,0,1,21.07,21.08v199.75a21.07,21.07,0,0,1-21.07,21.08h-77.14a21.08,21.08,0,0,1-21.08-21.08V2603.83h-1.33Z" transform="translate(-4906.92 -2471.2)"/><path class="cls-8" d="M5994.63,2525.91h10.06a7.49,7.49,0,0,0,6.93,10.3h44.19a7.48,7.48,0,0,0,7.48-7.48,7.35,7.35,0,0,0-.56-2.82h9.41a15.74,15.74,0,0,1,15.74,15.73h0v199.47a15.74,15.74,0,0,1-15.74,15.73h-77.51a15.73,15.73,0,0,1-15.74-15.73h0V2541.64A15.73,15.73,0,0,1,5994.63,2525.91Z" transform="translate(-4906.92 -2471.2)"/><circle class="cls-4" cx="1126.5" cy="170.41" r="44.66"/><path class="cls-3" d="M5928.66,2682.37h-52.45a4.07,4.07,0,0,1-4.07-4.07v-22.6a30.3,30.3,0,0,1,60.59,0v22.6A4.08,4.08,0,0,1,5928.66,2682.37Z" transform="translate(-4906.92 -2471.2)"/><polygon class="cls-1" points="1199.19 342.84 1203.99 332.85 1167.72 309.58 1160.64 324.33 1199.19 342.84"/><path class="cls-3" d="M6129.64,2788.82a13.91,13.91,0,0,0-18.56,6.51h0l-3.24,6.74-5,10.39-1.22,2.55,12.94,6.23,15.48-32.23Z" transform="translate(-4906.92 -2471.2)"/><path class="cls-3" d="M6104.28,2794l-2.1,4.48-5.24,11.2-.12.28c-11.19.57-23.12-3.16-34-8.36a139.54,139.54,0,0,1-12.73-6.9c-6.11-3.7-11.53-7.52-15.85-10.77-6.49-4.91-10.46-8.53-10.46-8.53s-1.19.93-3.34,2.5c-2.89,2.11-7.49,5.39-13.3,9.22-2.21,1.48-4.59,3-7.12,4.62-18.68,11.74-45.25,26.05-67.85,29.07-39.68,5.3-30.34-47.66-30.34-47.66l31.58-16.4,13.41,2.72,14.93,3,5.29,1.08,2.73-1c5.56-2.13,18.63-7.15,29.91-11.63,5.82-2.32,11.15-4.49,14.74-6.06,12.72-5.56,26.95,7.91,26.95,7.91Z" transform="translate(-4906.92 -2471.2)"/><circle class="cls-1" cx="1002.94" cy="191.03" r="21.15"/><path class="cls-2" d="M5882.35,2720.93l18.42,52.23-.11.18c-2.56,4.24-3.4,7.65-2.42,9.88a4.31,4.31,0,0,0,2.73,2.36l43.59-30.47L5943,2742.9l.09-.14c4.21-6.74,5.58-12.85,4.05-18.15-2-6.87-8.25-10-8.31-10l-.15-.11L5917,2688l-29.06,5.17Z" transform="translate(-4906.92 -2471.2)"/><path class="cls-2" d="M5854.34,2812.6,5842,2797.41l29.75-49.1,13.87-42.88.43.14-.43-.14a17.23,17.23,0,0,1,32.78,10.61,17.49,17.49,0,0,1-2.07,4.26l-25.46,38.14Z" transform="translate(-4906.92 -2471.2)"/><path class="cls-3" d="M5939.89,2658h-32.07l-.33-4.61-1.64,4.61h-4.94l-.65-9.13L5897,2658h-9.55v-.46a24,24,0,0,1,24-24h4.52a24,24,0,0,1,24,24Z" transform="translate(-4906.92 -2471.2)"/><path class="cls-3" d="M5907.56,2686.59a4.37,4.37,0,0,1-.72-.06l-23.48-4.15v-38.81h25.85l-.64.75c-8.91,10.39-2.2,27.22,2.59,36.34a4.06,4.06,0,0,1-3.6,5.93Z" transform="translate(-4906.92 -2471.2)"/><path class="cls-5" d="M6252.32,2822.71H5736.71a1,1,0,0,1,0-1.91h515.61a1,1,0,1,1,0,1.91Z" transform="translate(-4906.92 -2471.2)"/><path class="cls-8" d="M6057.56,2652.74a5.57,5.57,0,0,0-2.73-3.44l-9-4.61a5.4,5.4,0,0,0-6.75,1.49l-1.95,2.53a28.74,28.74,0,0,1-6-4.74,29.78,29.78,0,0,1-4.81-6.17l2.47-1.94a5.44,5.44,0,0,0,1.49-6.76l-4.61-8.89a5.46,5.46,0,0,0-3.44-2.79,5.4,5.4,0,0,0-4.35.71l-5.71,3.77a6.8,6.8,0,0,0-3.05,6.23,25.33,25.33,0,0,0,.78,5.52c1.68,6.82,5.9,13.83,11.81,19.67a45,45,0,0,0,19.68,11.88,35.51,35.51,0,0,0,5.58.78h.45a6.75,6.75,0,0,0,5.78-3.18l3.7-5.78a5.49,5.49,0,0,0,.65-4.28Z" transform="translate(-4906.92 -2471.2)"/><path d="M5032.91,2885h-7.7v21.31h-4.07V2885h-7.67v-3.89h19.44Z" transform="translate(-4906.92 -2471.2)"/><path d="M5052.82,2896.43a10.26,10.26,0,1,1-10.26-10.33A10.09,10.09,0,0,1,5052.82,2896.43Zm-16.42,0a6.16,6.16,0,1,0,6.16-6.44A6.12,6.12,0,0,0,5036.4,2896.43Z" transform="translate(-4906.92 -2471.2)"/><path d="M5075,2886.53v19.8h-4.07v-16h-6.55l-1.3,8.28c-1,5.9-3.16,8.13-6.55,8.13a13.71,13.71,0,0,1-2-.21v-3.67c.39,0,.79.1,1.19.1,1.9,0,2.73-1,3.34-4.71l1.87-11.74Z" transform="translate(-4906.92 -2471.2)"/><path d="M5096.56,2899.38c0,4.76-3.17,6.95-7.24,6.95h-9.64v-19.8h4.06v6.19h5.73C5093.54,2892.72,5096.56,2894.63,5096.56,2899.38Zm-4.1,0c0-1.83-.73-3.06-3.21-3.06h-5.51v6.12h5.47C5091.7,2902.44,5092.46,2901.15,5092.46,2899.38Z" transform="translate(-4906.92 -2471.2)"/><path d="M5114.05,2906.33l-9.32-9.14v9.14h-4.07v-19.8h4.07v8.57l8.57-8.57h5.22l-9.68,9.4,10.47,10.4Z" transform="translate(-4906.92 -2471.2)"/><path d="M5140.3,2896.43A10.26,10.26,0,1,1,5130,2886.1,10.09,10.09,0,0,1,5140.3,2896.43Zm-16.42,0A6.16,6.16,0,1,0,5130,2890,6.12,6.12,0,0,0,5123.88,2896.43Z" transform="translate(-4906.92 -2471.2)"/><path d="M5173.53,2906.33h-4.07v-16h-10.22v16h-4.07v-19.8h18.36Z" transform="translate(-4906.92 -2471.2)"/><path d="M5198.54,2896.43c0,6.05-3.85,10.33-9.14,10.33a8,8,0,0,1-6.91-3.74v12.31h-4.07v-28.8h4.07v3.39a8,8,0,0,1,6.95-3.82C5194.62,2886.1,5198.54,2890.39,5198.54,2896.43Zm-4.1,0c0-3.78-2.45-6.44-5.9-6.44s-6.08,2.66-6.08,6.44,2.62,6.45,6.08,6.45S5194.44,2900.25,5194.44,2896.43Z" transform="translate(-4906.92 -2471.2)"/><path d="M5222.52,2896.43a10.26,10.26,0,1,1-10.26-10.33A10.09,10.09,0,0,1,5222.52,2896.43Zm-16.41,0a6.16,6.16,0,1,0,6.15-6.44A6.12,6.12,0,0,0,5206.11,2896.43Z" transform="translate(-4906.92 -2471.2)"/><path d="M5243.76,2900.64c0,3.75-2.7,5.69-7.09,5.69h-10.08v-19.8h9.21c4.29,0,7,1.37,7,5,0,2-1.08,3.2-2.7,4.17A4.79,4.79,0,0,1,5243.76,2900.64Zm-8.28-10.9h-4.82v5h4.75c2.45,0,3.28-1,3.28-2.41C5238.69,2890.71,5238,2889.74,5235.48,2889.74Zm4.18,10.58c0-1.62-.87-2.66-3.28-2.66h-5.72v5.47h5.76C5238.94,2903.13,5239.66,2902,5239.66,2900.32Z" transform="translate(-4906.92 -2471.2)"/><path d="M5266.91,2897.55h-16.09a5.86,5.86,0,0,0,6.19,5.65,5.55,5.55,0,0,0,5.29-2.95h4.21c-1.55,4.43-5.33,6.51-9.54,6.51a10.33,10.33,0,0,1-.07-20.66C5263.27,2886.1,5267.3,2891,5266.91,2897.55Zm-15.88-3.31h11.52a5.6,5.6,0,0,0-5.65-4.61A5.85,5.85,0,0,0,5251,2894.24Z" transform="translate(-4906.92 -2471.2)"/><path d="M5291.17,2896.43c0,6.05-3.85,10.33-9.14,10.33a8,8,0,0,1-6.91-3.74v12.31h-4.07v-28.8h4.07v3.39a8,8,0,0,1,6.94-3.82C5287.25,2886.1,5291.17,2890.39,5291.17,2896.43Zm-4.1,0c0-3.78-2.45-6.44-5.91-6.44a6.08,6.08,0,0,0-6.08,6.44c0,3.82,2.63,6.45,6.08,6.45S5287.07,2900.25,5287.07,2896.43Z" transform="translate(-4906.92 -2471.2)"/><path d="M5314.86,2897.55h-16.09a5.86,5.86,0,0,0,6.19,5.65,5.54,5.54,0,0,0,5.29-2.95h4.21c-1.54,4.43-5.32,6.51-9.54,6.51a10.33,10.33,0,0,1-.07-20.66C5311.22,2886.1,5315.26,2891,5314.86,2897.55Zm-15.87-3.31h11.51a5.6,5.6,0,0,0-5.65-4.61A5.83,5.83,0,0,0,5299,2894.24Z" transform="translate(-4906.92 -2471.2)"/><path d="M5337.47,2886.53v19.8h-4.07v-8.17h-10.51v8.17h-4.07v-19.8h4.07v7.78h10.51v-7.78Z" transform="translate(-4906.92 -2471.2)"/><path d="M5360.83,2886.53v19.8h-4.07v-8.17h-10.51v8.17h-4.06v-19.8h4.06v7.78h10.51v-7.78Z" transform="translate(-4906.92 -2471.2)"/><path d="M5382.39,2899.38c0,4.76-3.16,6.95-7.23,6.95h-9.61v-19.8h4.07v6.19h5.68C5379.37,2892.72,5382.39,2894.63,5382.39,2899.38Zm-4.1,0c0-1.83-.72-3.06-3.2-3.06h-5.47v6.12h5.4C5377.5,2902.44,5378.29,2901.15,5378.29,2899.38Zm11.09-12.85v19.8h-4.07v-19.8Z" transform="translate(-4906.92 -2471.2)"/><path d="M5413.68,2897.55h-16.09a5.86,5.86,0,0,0,6.19,5.65,5.56,5.56,0,0,0,5.29-2.95h4.21c-1.55,4.43-5.32,6.51-9.54,6.51a10.33,10.33,0,0,1-.07-20.66C5410,2886.1,5414.07,2891,5413.68,2897.55Zm-15.88-3.31h11.52a5.6,5.6,0,0,0-5.65-4.61A5.85,5.85,0,0,0,5397.8,2894.24Z" transform="translate(-4906.92 -2471.2)"/><path d="M5130.16,2943.92c0,3.81-3.34,6-8.53,6-6.19,0-8.89-2.84-9.64-6.94h4.1c.58,2.73,2.34,3.78,5.44,3.78s4.53-1.26,4.53-3.17c0-1.37-.65-2.74-3.49-2.74h-3.67v-3.13h3c2.77,0,3.6-1,3.6-2.45,0-1.62-1.12-2.91-4.21-2.91-2.13,0-4.07.68-4.61,2.95h-4.14c.72-3.46,3.31-6,8.82-6,5,0,8.24,2.2,8.24,5.73a4.23,4.23,0,0,1-2.59,4A4.88,4.88,0,0,1,5130.16,2943.92Z" transform="translate(-4906.92 -2471.2)"/><path d="M5153.42,2929.73v19.8h-4.07v-3.31a7.9,7.9,0,0,1-6.91,3.74c-5.29,0-9.14-4.28-9.14-10.33s3.92-10.33,9.1-10.33a8,8,0,0,1,7,3.82v-3.39Zm-4,9.9a6.08,6.08,0,0,0-6.09-6.44c-3.45,0-5.9,2.66-5.9,6.44s2.48,6.45,5.9,6.45S5149.39,2943.45,5149.39,2939.63Z" transform="translate(-4906.92 -2471.2)"/><path d="M5175.34,2943.84c0,3.75-2.7,5.69-7.09,5.69h-10.08v-19.8h9.22c4.28,0,7,1.37,7,5,0,2-1.08,3.2-2.7,4.17A4.79,4.79,0,0,1,5175.34,2943.84Zm-8.28-10.9h-4.82v5H5167c2.45,0,3.28-1,3.28-2.41C5170.27,2933.91,5169.55,2932.94,5167.06,2932.94Zm4.18,10.58c0-1.62-.86-2.66-3.28-2.66h-5.72v5.47H5168C5170.52,2946.33,5171.24,2945.18,5171.24,2943.52Z" transform="translate(-4906.92 -2471.2)"/><path d="M5198.49,2940.75H5182.4a5.86,5.86,0,0,0,6.19,5.65,5.54,5.54,0,0,0,5.29-3h4.21c-1.54,4.43-5.32,6.51-9.53,6.51a10.33,10.33,0,0,1-.08-20.66C5194.86,2929.3,5198.89,2934.23,5198.49,2940.75Zm-15.87-3.31h11.51a5.6,5.6,0,0,0-5.65-4.61A5.83,5.83,0,0,0,5182.62,2937.44Z" transform="translate(-4906.92 -2471.2)"/><path d="M5225.17,2945.72v9h-4.07v-5.15h-16.78v5.15h-4.06v-9h3.45c.9-.69,1.48-2.2,1.95-5l1.76-11h14.15v16Zm-7.67,0v-12.17h-6.62l-1.19,7.34a12,12,0,0,1-1.55,4.83Z" transform="translate(-4906.92 -2471.2)"/><path d="M5247.34,2940.75h-16.09a5.87,5.87,0,0,0,6.19,5.65,5.54,5.54,0,0,0,5.29-3H5247c-1.55,4.43-5.33,6.51-9.54,6.51a10.33,10.33,0,0,1-.07-20.66C5243.71,2929.3,5247.74,2934.23,5247.34,2940.75Zm-15.87-3.31H5243a5.61,5.61,0,0,0-5.65-4.61A5.84,5.84,0,0,0,5231.47,2937.44Z" transform="translate(-4906.92 -2471.2)"/><path d="M5270,2929.73v19.8h-4.07v-8.17h-10.51v8.17h-4.07v-19.8h4.07v7.78h10.51v-7.78Z" transform="translate(-4906.92 -2471.2)"/><path d="M5293.06,2929.73v19.8H5289v-8.28l.26-6.26-9.79,14.54h-4.79v-19.8h4.07V2938l-.26,6.23,9.79-14.51Z" transform="translate(-4906.92 -2471.2)"/><path d="M5314.41,2929.73v19.8h-4.07v-7.16h-3.92l-5.15,7.16h-5l5.79-7.45c-2.73-.68-4.78-2.41-4.78-5.72,0-4.57,3.13-6.63,7.19-6.63Zm-4.07,9.29v-5.61h-5.65c-2.52,0-3.31,1.22-3.31,2.88s1,2.73,3.42,2.73Z" transform="translate(-4906.92 -2471.2)"/><path d="M6598.21,2881.13v25.2h-4.06v-11h-12.93v11h-4.06v-25.2h4.06v10.3h12.93v-10.3Z" transform="translate(-4906.92 -2471.2)"/><path d="M6621.9,2886.53v19.8h-4.07v-8.28l.26-6.26-9.79,14.54h-4.79v-19.8h4.07v8.28l-.26,6.23,9.8-14.51Z" transform="translate(-4906.92 -2471.2)"/><path d="M6640,2906.33l-9.32-9.14v9.14h-4.07v-19.8h4.07v8.57l8.57-8.57h5.21l-9.68,9.4,10.48,10.4Z" transform="translate(-4906.92 -2471.2)"/><path d="M6665.86,2886.53v19.8h-4.07V2903a7.91,7.91,0,0,1-6.91,3.74c-5.29,0-9.14-4.28-9.14-10.33s3.92-10.33,9.1-10.33a8,8,0,0,1,6.95,3.82v-3.39Zm-4,9.9a6.08,6.08,0,0,0-6.09-6.44c-3.45,0-5.9,2.66-5.9,6.44s2.48,6.45,5.9,6.45S6661.83,2900.25,6661.83,2896.43Z" transform="translate(-4906.92 -2471.2)"/><path d="M6684,2906.33l-9.32-9.14v9.14h-4.07v-19.8h4.07v8.57l8.57-8.57h5.22l-9.69,9.4,10.48,10.4Z" transform="translate(-4906.92 -2471.2)"/><path d="M6710.25,2896.43A10.26,10.26,0,1,1,6700,2886.1,10.09,10.09,0,0,1,6710.25,2896.43Zm-16.42,0A6.16,6.16,0,1,0,6700,2890,6.12,6.12,0,0,0,6693.83,2896.43Z" transform="translate(-4906.92 -2471.2)"/><path d="M6727.49,2890.35h-9.11v16h-4.06v-19.8h13.17Z" transform="translate(-4906.92 -2471.2)"/><path d="M6750.17,2896.43a10.26,10.26,0,1,1-10.26-10.33A10.09,10.09,0,0,1,6750.17,2896.43Zm-16.42,0a6.17,6.17,0,1,0,6.16-6.44A6.12,6.12,0,0,0,6733.75,2896.43Z" transform="translate(-4906.92 -2471.2)"/><path d="M6780.52,2890.35h-6.45v16H6770v-16h-6.48v-3.82h17Z" transform="translate(-4906.92 -2471.2)"/><path d="M6804.06,2896.43c0,6.05-3.85,10.33-9.14,10.33A8,8,0,0,1,6788,2903v12.31h-4.07v-28.8H6788v3.39a8,8,0,0,1,6.94-3.82C6800.14,2886.1,6804.06,2890.39,6804.06,2896.43Zm-4.1,0c0-3.78-2.45-6.44-5.91-6.44a6.08,6.08,0,0,0-6.08,6.44c0,3.82,2.63,6.45,6.08,6.45S6800,2900.25,6800,2896.43Z" transform="translate(-4906.92 -2471.2)"/><path d="M6827.75,2897.55h-16.09a5.86,5.86,0,0,0,6.19,5.65,5.55,5.55,0,0,0,5.29-2.95h4.21c-1.55,4.43-5.32,6.51-9.54,6.51a10.33,10.33,0,0,1-.07-20.66C6824.11,2886.1,6828.14,2891,6827.75,2897.55Zm-15.88-3.31h11.52a5.6,5.6,0,0,0-5.65-4.61A5.85,5.85,0,0,0,6811.87,2894.24Z" transform="translate(-4906.92 -2471.2)"/><path d="M6845.1,2906.33l-9.32-9.14v9.14h-4.07v-19.8h4.07v8.57l8.56-8.57h5.22l-9.68,9.4,10.48,10.4Z" transform="translate(-4906.92 -2471.2)"/><path d="M6872,2886.53v19.8h-4.07v-8.28l.26-6.26-9.8,14.54h-4.78v-19.8h4.07v8.28l-.26,6.23,9.79-14.51Z" transform="translate(-4906.92 -2471.2)"/><path d="M6895.36,2886.53v19.8h-4.07v-8.17h-10.51v8.17h-4.07v-19.8h4.07v7.78h10.51v-7.78Z" transform="translate(-4906.92 -2471.2)"/><path d="M6913.25,2890.35h-9.11v16h-4.07v-19.8h13.18Z" transform="translate(-4906.92 -2471.2)"/><path d="M6935.53,2886.53v19.8h-4.07V2903a7.9,7.9,0,0,1-6.91,3.74c-5.29,0-9.14-4.28-9.14-10.33s3.92-10.33,9.11-10.33a8,8,0,0,1,6.94,3.82v-3.39Zm-4,9.9a6.08,6.08,0,0,0-6.08-6.44c-3.46,0-5.91,2.66-5.91,6.44s2.49,6.45,5.91,6.45S6931.5,2900.25,6931.5,2896.43Z" transform="translate(-4906.92 -2471.2)"/><path d="M6553.22,2929.73v19.8h-4.07v-8.28l.25-6.26-9.79,14.54h-4.79v-19.8h4.07V2938l-.25,6.23,9.79-14.51Z" transform="translate(-4906.92 -2471.2)"/><path d="M6587.38,2929.73v19.8h-4.07v-8.17H6572.8v8.17h-4.07v-19.8h4.07v7.78h10.51v-7.78Z" transform="translate(-4906.92 -2471.2)"/><path d="M6611.57,2929.73v19.8h-4.07v-3.31a7.9,7.9,0,0,1-6.91,3.74c-5.29,0-9.14-4.28-9.14-10.33s3.92-10.33,9.11-10.33a8,8,0,0,1,6.94,3.82v-3.39Zm-4,9.9a6.08,6.08,0,0,0-6.08-6.44c-3.46,0-5.91,2.66-5.91,6.44s2.49,6.45,5.91,6.45S6607.54,2943.45,6607.54,2939.63Z" transform="translate(-4906.92 -2471.2)"/><path d="M6633.28,2943.92c0,3.81-3.35,6-8.53,6-6.19,0-8.89-2.84-9.65-6.94h4.1c.58,2.73,2.34,3.78,5.44,3.78s4.53-1.26,4.53-3.17c0-1.37-.64-2.74-3.49-2.74H6622v-3.13H6625c2.77,0,3.6-1,3.6-2.45,0-1.62-1.11-2.91-4.21-2.91-2.12,0-4.07.68-4.61,2.95h-4.14c.72-3.46,3.32-6,8.82-6,5,0,8.25,2.2,8.25,5.73a4.24,4.24,0,0,1-2.6,4A4.87,4.87,0,0,1,6633.28,2943.92Z" transform="translate(-4906.92 -2471.2)"/><path d="M6656.93,2939.63a10.26,10.26,0,1,1-10.26-10.33A10.09,10.09,0,0,1,6656.93,2939.63Zm-16.41,0a6.16,6.16,0,1,0,6.15-6.44A6.11,6.11,0,0,0,6640.52,2939.63Z" transform="translate(-4906.92 -2471.2)"/><path d="M6679.39,2929.73v19.8h-4.06v-8.28l.25-6.26-9.79,14.54H6661v-19.8h4.07V2938l-.25,6.23,9.79-14.51Zm-15.08-8.56v-.83h3.24v.68a2.65,2.65,0,0,0,5.29,0v-.68h3.24v.83c0,3.49-2.73,5.58-5.87,5.58S6664.31,2924.66,6664.31,2921.17Z" transform="translate(-4906.92 -2471.2)"/><path d="M6703.08,2929.73v19.8H6699v-16h-6.55l-1.29,8.28c-1,5.9-3.17,8.13-6.55,8.13a12.59,12.59,0,0,1-2-.21v-3.67c.4,0,.79.1,1.19.1,1.91,0,2.73-1,3.35-4.71l1.87-11.74Z" transform="translate(-4906.92 -2471.2)"/><path d="M6726.19,2929.73v19.8h-4.06v-8.28l.25-6.26-9.79,14.54h-4.79v-19.8h4.07V2938l-.25,6.23,9.79-14.51Z" transform="translate(-4906.92 -2471.2)"/><path d="M6748.08,2943.84c0,3.75-2.7,5.69-7.09,5.69h-10.08v-19.8h9.22c4.28,0,7,1.37,7,5,0,2-1.08,3.2-2.7,4.17A4.79,4.79,0,0,1,6748.08,2943.84Zm-8.28-10.9H6735v5h4.75c2.45,0,3.28-1,3.28-2.41C6743,2933.91,6742.29,2932.94,6739.8,2932.94Zm4.18,10.58c0-1.62-.87-2.66-3.28-2.66H6735v5.47h5.76C6743.26,2946.33,6744,2945.18,6744,2943.52Z" transform="translate(-4906.92 -2471.2)"/><path d="M6771.73,2939.63a10.26,10.26,0,1,1-10.26-10.33A10.09,10.09,0,0,1,6771.73,2939.63Zm-16.41,0a6.16,6.16,0,1,0,6.15-6.44A6.12,6.12,0,0,0,6755.32,2939.63Z" transform="translate(-4906.92 -2471.2)"/><path d="M6794.2,2929.73v19.8h-4.07v-8.28l.25-6.26-9.79,14.54h-4.79v-19.8h4.07V2938l-.25,6.23,9.79-14.51Zm-15.09-8.56v-.83h3.24v.68a2.65,2.65,0,0,0,5.29,0v-.68h3.24v.83a5.54,5.54,0,0,1-5.86,5.58C6781.85,2926.75,6779.11,2924.66,6779.11,2921.17Z" transform="translate(-4906.92 -2471.2)"/><path d="M6830,2939.63c0,6-3.86,10.33-9.15,10.33a8,8,0,0,1-6.91-3.74v12.31h-4.07v-28.8H6814v3.39a8,8,0,0,1,6.95-3.82C6826.09,2929.3,6830,2933.59,6830,2939.63Zm-4.11,0c0-3.78-2.45-6.44-5.9-6.44s-6.08,2.66-6.08,6.44,2.62,6.45,6.08,6.45S6825.91,2943.45,6825.91,2939.63Z" transform="translate(-4906.92 -2471.2)"/><path d="M6853.7,2940.75h-16.09a5.87,5.87,0,0,0,6.19,5.65,5.56,5.56,0,0,0,5.3-3h4.21c-1.55,4.43-5.33,6.51-9.54,6.51a10.33,10.33,0,0,1-.07-20.66C6850.07,2929.3,6854.1,2934.23,6853.7,2940.75Zm-15.87-3.31h11.52a5.61,5.61,0,0,0-5.65-4.61A5.84,5.84,0,0,0,6837.83,2937.44Z" transform="translate(-4906.92 -2471.2)"/><path d="M6871.06,2949.53l-9.33-9.14v9.14h-4.06v-19.8h4.06v8.57l8.57-8.57h5.22l-9.68,9.4,10.47,10.4Z" transform="translate(-4906.92 -2471.2)"/><path d="M6898.52,2929.73v19.8h-4.06v-16h-6.56l-1.29,8.28c-1,5.9-3.17,8.13-6.55,8.13a12.59,12.59,0,0,1-2-.21v-3.67c.4,0,.79.1,1.19.1,1.91,0,2.73-1,3.35-4.71l1.87-11.74Z" transform="translate(-4906.92 -2471.2)"/><path d="M6922.71,2929.73v19.8h-4.06v-3.31a7.91,7.91,0,0,1-6.91,3.74c-5.3,0-9.15-4.28-9.15-10.33s3.93-10.33,9.11-10.33a8,8,0,0,1,6.95,3.82v-3.39Zm-4,9.9a6.08,6.08,0,0,0-6.08-6.44c-3.46,0-5.9,2.66-5.9,6.44s2.48,6.45,5.9,6.45S6918.68,2943.45,6918.68,2939.63Z" transform="translate(-4906.92 -2471.2)"/><path d="M6948.74,2929.73v19.8h-4.07v-8.28l.29-6.87-6.8,9.68h-.11l-6.8-9.68.29,6.87v8.28h-4.07v-19.8h4.79l5.83,8.14,5.87-8.14Z" transform="translate(-4906.92 -2471.2)"/><path d="M6970.34,2942.58c0,4.76-3.17,7-7.23,7h-9.61v-19.8h4.06v6.19h5.69C6967.32,2935.92,6970.34,2937.83,6970.34,2942.58Zm-4.1,0c0-1.83-.72-3.06-3.2-3.06h-5.48v6.12h5.4C6965.45,2945.64,6966.24,2944.35,6966.24,2942.58Zm11.09-12.85v19.8h-4.07v-19.8Z" transform="translate(-4906.92 -2471.2)"/><path d="M5812.61,2906.33l-10.66-12v12h-4.06v-25.2H5802v11.52l10.19-11.52h5.11l-10.87,12.28,11.38,12.92Z" transform="translate(-4906.92 -2471.2)"/><path d="M5838.89,2896.43a10.26,10.26,0,1,1-10.26-10.33A10.09,10.09,0,0,1,5838.89,2896.43Zm-16.42,0a6.16,6.16,0,1,0,6.16-6.44A6.12,6.12,0,0,0,5822.47,2896.43Z" transform="translate(-4906.92 -2471.2)"/><path d="M5861.6,2886.53v19.8h-4.06v-8.17H5847v8.17H5843v-19.8H5847v7.78h10.51v-7.78Z" transform="translate(-4906.92 -2471.2)"/><path d="M5881.8,2890.35h-6.44v16h-4.07v-16h-6.48v-3.82h17Z" transform="translate(-4906.92 -2471.2)"/><path d="M5904.08,2886.53v19.8H5900V2903a7.9,7.9,0,0,1-6.91,3.74c-5.29,0-9.14-4.28-9.14-10.33s3.92-10.33,9.11-10.33a8,8,0,0,1,6.94,3.82v-3.39Zm-4,9.9A6.08,6.08,0,0,0,5894,2890c-3.46,0-5.91,2.66-5.91,6.44s2.49,6.45,5.91,6.45S5900.05,2900.25,5900.05,2896.43Z" transform="translate(-4906.92 -2471.2)"/><path d="M5922.23,2906.33l-9.33-9.14v9.14h-4.06v-19.8h4.06v8.57l8.57-8.57h5.22l-9.68,9.4,10.47,10.4Z" transform="translate(-4906.92 -2471.2)"/><path d="M5946.2,2890.35h-6.44v16h-4.07v-16h-6.48v-3.82h17Z" transform="translate(-4906.92 -2471.2)"/><path d="M5966.29,2899.38c0,4.76-3.17,6.95-7.24,6.95h-9.61v-19.8h4.07v6.19h5.69C5963.27,2892.72,5966.29,2894.63,5966.29,2899.38Zm-4.1,0c0-1.83-.72-3.06-3.21-3.06h-5.47v6.12h5.4C5961.39,2902.44,5962.19,2901.15,5962.19,2899.38Zm11.08-12.85v19.8h-4.06v-19.8Z" transform="translate(-4906.92 -2471.2)"/><path d="M6005.75,2900.72c0,3.81-3.35,6-8.54,6-6.19,0-8.89-2.84-9.64-6.94h4.1c.58,2.73,2.34,3.78,5.44,3.78s4.53-1.26,4.53-3.17c0-1.37-.65-2.74-3.49-2.74h-3.67v-3.13h3c2.77,0,3.6-1,3.6-2.45,0-1.62-1.12-2.91-4.21-2.91-2.13,0-4.07.68-4.61,3h-4.14c.72-3.46,3.31-6.05,8.82-6.05,5,0,8.24,2.2,8.24,5.72a4.24,4.24,0,0,1-2.59,4A4.87,4.87,0,0,1,6005.75,2900.72Z" transform="translate(-4906.92 -2471.2)"/><path d="M6029,2886.53v19.8h-4.07V2903a7.9,7.9,0,0,1-6.91,3.74c-5.29,0-9.14-4.28-9.14-10.33s3.92-10.33,9.11-10.33a8,8,0,0,1,6.94,3.82v-3.39Zm-4,9.9a6.08,6.08,0,0,0-6.09-6.44c-3.45,0-5.9,2.66-5.9,6.44s2.49,6.45,5.9,6.45S6025,2900.25,6025,2896.43Z" transform="translate(-4906.92 -2471.2)"/><path d="M6050.92,2900.64c0,3.75-2.7,5.69-7.09,5.69h-10.08v-19.8H6043c4.28,0,7,1.37,7,5,0,2-1.08,3.2-2.7,4.17A4.79,4.79,0,0,1,6050.92,2900.64Zm-8.28-10.9h-4.82v5h4.75c2.45,0,3.28-1,3.28-2.41C6045.85,2890.71,6045.13,2889.74,6042.64,2889.74Zm4.18,10.58c0-1.62-.86-2.66-3.28-2.66h-5.72v5.47h5.76C6046.1,2903.13,6046.82,2902,6046.82,2900.32Z" transform="translate(-4906.92 -2471.2)"/><path d="M6074.07,2897.55H6058a5.87,5.87,0,0,0,6.19,5.65,5.54,5.54,0,0,0,5.29-2.95h4.22c-1.55,4.43-5.33,6.51-9.54,6.51a10.33,10.33,0,0,1-.08-20.66C6070.44,2886.1,6074.47,2891,6074.07,2897.55Zm-15.87-3.31h11.52a5.62,5.62,0,0,0-5.66-4.61A5.83,5.83,0,0,0,6058.2,2894.24Z" transform="translate(-4906.92 -2471.2)"/><path d="M6100.75,2902.52v9h-4.07v-5.15h-16.77v5.15h-4.07v-9h3.45c.9-.69,1.48-2.2,1.95-5l1.76-11h14.15v16Zm-7.67,0v-12.17h-6.62l-1.19,7.34a12,12,0,0,1-1.55,4.83Z" transform="translate(-4906.92 -2471.2)"/><path d="M6122.92,2897.55h-16.09a5.87,5.87,0,0,0,6.19,5.65,5.56,5.56,0,0,0,5.3-2.95h4.21c-1.55,4.43-5.33,6.51-9.54,6.51a10.33,10.33,0,0,1-.07-20.66C6119.29,2886.1,6123.32,2891,6122.92,2897.55Zm-15.87-3.31h11.52a5.61,5.61,0,0,0-5.65-4.61A5.84,5.84,0,0,0,6107.05,2894.24Z" transform="translate(-4906.92 -2471.2)"/><path d="M6145.53,2886.53v19.8h-4.07v-8.17H6131v8.17h-4.07v-19.8H6131v7.78h10.51v-7.78Z" transform="translate(-4906.92 -2471.2)"/><path d="M6168.64,2886.53v19.8h-4.07v-8.28l.26-6.26-9.79,14.54h-4.79v-19.8h4.07v8.28l-.26,6.23,9.8-14.51Z" transform="translate(-4906.92 -2471.2)"/><path d="M6191.75,2886.53v19.8h-4.06v-8.28l.25-6.26-9.79,14.54h-4.79v-19.8h4.07v8.28l-.25,6.23,9.79-14.51Zm-15.08-8.56v-.83h3.24v.68a2.65,2.65,0,0,0,5.29,0v-.68h3.24v.83a5.54,5.54,0,0,1-5.86,5.58C6179.41,2883.55,6176.67,2881.46,6176.67,2878Z" transform="translate(-4906.92 -2471.2)"/><path d="M5797.09,2939.63a10.06,10.06,0,0,1,10.3-10.33c4.68,0,8.82,2.85,9.72,7.63h-4.21a5.5,5.5,0,0,0-5.51-3.85c-3.67,0-6.19,2.74-6.19,6.55s2.59,6.55,6.15,6.55a5.59,5.59,0,0,0,5.55-3.88h4.21c-.94,4.89-5.11,7.66-9.76,7.66A10,10,0,0,1,5797.09,2939.63Z" transform="translate(-4906.92 -2471.2)"/><path d="M5841.15,2939.63c0,6-3.85,10.33-9.14,10.33a8,8,0,0,1-6.91-3.74v12.31H5821v-28.8h4.07v3.39a8,8,0,0,1,6.95-3.82C5837.23,2929.3,5841.15,2933.59,5841.15,2939.63Zm-4.1,0c0-3.78-2.45-6.44-5.9-6.44a6.08,6.08,0,0,0-6.09,6.44c0,3.82,2.63,6.45,6.09,6.45S5837.05,2943.45,5837.05,2939.63Z" transform="translate(-4906.92 -2471.2)"/><path d="M5864.73,2929.73v19.8h-4.06v-3.31a7.91,7.91,0,0,1-6.91,3.74c-5.3,0-9.15-4.28-9.15-10.33s3.93-10.33,9.11-10.33a8,8,0,0,1,6.95,3.82v-3.39Zm-4,9.9c0-3.78-2.62-6.44-6.08-6.44s-5.9,2.66-5.9,6.44,2.48,6.45,5.9,6.45S5860.7,2943.45,5860.7,2939.63Z" transform="translate(-4906.92 -2471.2)"/><path d="M5886.44,2943.92c0,3.81-3.35,6-8.53,6-6.19,0-8.89-2.84-9.65-6.94h4.11c.57,2.73,2.34,3.78,5.43,3.78s4.54-1.26,4.54-3.17c0-1.37-.65-2.74-3.49-2.74h-3.67v-3.13h2.95c2.77,0,3.6-1,3.6-2.45,0-1.62-1.12-2.91-4.21-2.91-2.13,0-4.07.68-4.61,2.95h-4.14c.72-3.46,3.31-6,8.82-6,5,0,8.24,2.2,8.24,5.73a4.23,4.23,0,0,1-2.59,4A4.88,4.88,0,0,1,5886.44,2943.92Z" transform="translate(-4906.92 -2471.2)"/><path d="M5908,2929.73l-13.1,28.8h-4.36l5.22-11.52-7.81-17.28h4.36l5.61,12.89,5.73-12.89Z" transform="translate(-4906.92 -2471.2)"/><path d="M5939.18,2943.84c0,3.75-2.7,5.69-7.09,5.69H5922v-19.8h9.22c4.28,0,7,1.37,7,5,0,2-1.08,3.2-2.7,4.17A4.79,4.79,0,0,1,5939.18,2943.84Zm-8.28-10.9h-4.82v5h4.75c2.45,0,3.28-1,3.28-2.41C5934.11,2933.91,5933.39,2932.94,5930.9,2932.94Zm4.18,10.58c0-1.62-.87-2.66-3.28-2.66h-5.72v5.47h5.76C5934.36,2946.33,5935.08,2945.18,5935.08,2943.52Z" transform="translate(-4906.92 -2471.2)"/><path d="M5972.12,2949.53h-4.07v-16h-10.22v16h-4.07v-19.8h18.36Z" transform="translate(-4906.92 -2471.2)"/><path d="M5997.14,2939.63c0,6-3.85,10.33-9.14,10.33a8,8,0,0,1-6.91-3.74v12.31H5977v-28.8h4.07v3.39a8,8,0,0,1,6.94-3.82C5993.22,2929.3,5997.14,2933.59,5997.14,2939.63Zm-4.1,0c0-3.78-2.45-6.44-5.91-6.44a6.08,6.08,0,0,0-6.08,6.44c0,3.82,2.63,6.45,6.08,6.45S5993,2943.45,5993,2939.63Z" transform="translate(-4906.92 -2471.2)"/><path d="M6019.64,2929.73v19.8h-4.07v-8.28l.26-6.26-9.8,14.54h-4.78v-19.8h4.06V2938l-.25,6.23,9.79-14.51Z" transform="translate(-4906.92 -2471.2)"/><path d="M6043.33,2929.73v19.8h-4.07v-16h-6.55l-1.3,8.28c-1,5.9-3.16,8.13-6.55,8.13a12.35,12.35,0,0,1-2-.21v-3.67c.39,0,.79.1,1.19.1,1.9,0,2.73-1,3.34-4.71l1.87-11.74Z" transform="translate(-4906.92 -2471.2)"/><path d="M6067.92,2939.63a10.26,10.26,0,1,1-10.26-10.33A10.09,10.09,0,0,1,6067.92,2939.63Zm-16.42,0a6.16,6.16,0,1,0,6.16-6.44A6.12,6.12,0,0,0,6051.5,2939.63Z" transform="translate(-4906.92 -2471.2)"/><path d="M6096.46,2949.53l-9.36-9.14v9.14H6083v-9.14l-9.36,9.14h-5.22l10.44-10.4-9.69-9.4h5.26l8.57,8.61v-8.61h4.06v8.61l8.57-8.61h5.26l-9.69,9.4,10.44,10.4Z" transform="translate(-4906.92 -2471.2)"/><path d="M6122.49,2940.75H6106.4a5.87,5.87,0,0,0,6.19,5.65,5.54,5.54,0,0,0,5.29-3h4.22c-1.55,4.43-5.33,6.51-9.54,6.51a10.33,10.33,0,0,1-.08-20.66C6118.86,2929.3,6122.89,2934.23,6122.49,2940.75Zm-15.87-3.31h11.52a5.62,5.62,0,0,0-5.66-4.61A5.83,5.83,0,0,0,6106.62,2937.44Z" transform="translate(-4906.92 -2471.2)"/><path d="M6145.1,2929.73v19.8H6141v-8.17h-10.51v8.17h-4.07v-19.8h4.07v7.78H6141v-7.78Z" transform="translate(-4906.92 -2471.2)"/><path d="M6168.21,2929.73v19.8h-4.07v-8.28l.26-6.26-9.8,14.54h-4.78v-19.8h4.06V2938l-.25,6.23,9.79-14.51Z" transform="translate(-4906.92 -2471.2)"/><path d="M6191.32,2929.73v19.8h-4.06v-8.28l.25-6.26-9.79,14.54h-4.79v-19.8H6177V2938l-.26,6.23,9.8-14.51Z" transform="translate(-4906.92 -2471.2)"/><path class="cls-5" d="M5570.43,2822.71H4908.15a1,1,0,1,1,0-1.91h662.28a1,1,0,1,1,0,1.91Z" transform="translate(-4906.92 -2471.2)"/><path class="cls-5" d="M7080.88,2822.71H6418.6a1,1,0,1,1,0-1.91h662.28a1,1,0,1,1,0,1.91Z" transform="translate(-4906.92 -2471.2)"/></svg>