<svg id="Layer_2" data-name="Layer 2" xmlns="http://www.w3.org/2000/svg" viewBox="0 0 893.68 551.15"><defs><style>.cls-1{fill:#3f3d56;}.cls-2{fill:#ffb6b6;}.cls-3{fill:#2f2e41;}.cls-4{fill:#fff;}.cls-5{fill:#e4e4e4;}.cls-6{fill:#71db3a;}.cls-7{fill:#9e616a;}.cls-8{fill:#e6e6e6;}.cls-9{isolation:isolate;opacity:0.2;}</style></defs><path class="cls-1" d="M748,8264.18,580.58,7962.34a4.47,4.47,0,0,0-2.23-3.6,4.4,4.4,0,0,0-2.42-.59h-.16a4.45,4.45,0,0,0-4.64,4.05l-177.43,302a4.5,4.5,0,1,0,7.79,4.51h0l174.24-296.54L740.2,8268.68a4.5,4.5,0,0,0,7.8-4.49Z" transform="translate(-166.24 -7721.41)"/><polygon class="cls-2" points="381.87 490.98 400.79 486.64 393.05 411.59 365.13 418 381.87 490.98"/><path class="cls-3" d="M562.74,8176.14l-26.93,6.17-8.61-16.82-.49-.6a26.81,26.81,0,0,1-6-16.58l-22.38-59.21-1.83-.87a11,11,0,0,1-5.22-14.68,11.75,11.75,0,0,1,.7-1.25l-2.37-6.27-66.86.12h-.07l-82.1-23,8.62-51.39,23.09,14.53c7.61-.49,138-8.5,150,20.72,10.72,26,26.18,70.47,37.25,103.17a26.2,26.2,0,0,0,2.05,4.23,18.31,18.31,0,0,1,2.94,8.86,21.42,21.42,0,0,0,.78,4.06c4.61,13.76-2.41,28.49-2.48,28.64Z" transform="translate(-166.24 -7721.41)"/><path class="cls-3" d="M541.71,8206.12l6.16-1.41,21.78-15.28,15.11,6.81h0a28.16,28.16,0,0,1,33.73,21.14l.2.89-70.48,16.17Z" transform="translate(-166.24 -7721.41)"/><path class="cls-4" d="M799.67,8174.78a7,7,0,0,1-6.65-.55c-.5-.33-.94.49-.44.81a7.87,7.87,0,0,0,7.35.63.49.49,0,0,0,.32-.58.47.47,0,0,0-.58-.31Z" transform="translate(-166.24 -7721.41)"/><path class="cls-4" d="M745.53,8200.44a7,7,0,0,1-5.64,3.56c-.6,0-.46,1,.13.92a7.85,7.85,0,0,0,6.25-3.93.46.46,0,0,0-.74-.55Z" transform="translate(-166.24 -7721.41)"/><path class="cls-1" d="M1059.92,8271.37a1.2,1.2,0,0,1-1.19,1.19H167.43a1.19,1.19,0,1,1,0-2.38h891.3A1.2,1.2,0,0,1,1059.92,8271.37Z" transform="translate(-166.24 -7721.41)"/><circle class="cls-1" cx="574.11" cy="85.12" r="4.5"/><path class="cls-5" d="M684,7841.19l60.67-38.11a4.79,4.79,0,0,1,5.1,8.12c-.12.08-.25.15-.38.22l-63.87,32.46a1.55,1.55,0,0,1-1.52-2.69Z" transform="translate(-166.24 -7721.41)"/><path class="cls-6" d="M562.29,7923.26a4.2,4.2,0,0,1,.07-4.79,9.81,9.81,0,0,1,4-3.14,33.16,33.16,0,0,1,10.35-3.27c2.74-.39,5.73-.52,7.86-2.29s3.29-5.05,6-5.33,4.68,2.63,7.34,2.81c3.26.22,5.41-3.6,8.59-4.39,2.13-.52,4.32.4,6.31,1.31l12,5.44,6.14,2.79c2.15,1,4.57,2.28,5,4.6.55,3.19-3,5.44-6,6.58a97,97,0,0,1-67.12,0" transform="translate(-166.24 -7721.41)"/><ellipse class="cls-1" cx="414.11" cy="238.12" rx="157.5" ry="22.5"/><path class="cls-1" d="M791.85,8099h108a9,9,0,0,1,9,9h0a9,9,0,0,1-9,9h-108a9,9,0,0,1-9-9h0A9,9,0,0,1,791.85,8099Z" transform="translate(-166.24 -7721.41)"/><path class="cls-1" d="M952.19,7938.57,916.52,8108l9.29,43.37,17.54,81.85V8270a.76.76,0,0,1,0,.15,7.16,7.16,0,0,1-.44,2.38H928.8a6.69,6.69,0,0,1-.44-2.38.76.76,0,0,1,0-.15v-35.21l-15.92-74.29-3.22-15L903,8116.46l-1.8-8.42h0l1.78-8.44,1.37-6.51,33.18-157.59a7.5,7.5,0,1,1,14.68,3.07Z" transform="translate(-166.24 -7721.41)"/><path class="cls-1" d="M799.35,8108v162a.76.76,0,0,1,0,.15,7.16,7.16,0,0,1-.44,2.38H784.8a6.69,6.69,0,0,1-.44-2.38.76.76,0,0,1,0-.15V8108a7.5,7.5,0,1,1,15,0Z" transform="translate(-166.24 -7721.41)"/><path class="cls-1" d="M809.85,8081h72a27,27,0,0,1,27,27h-126A27,27,0,0,1,809.85,8081Z" transform="translate(-166.24 -7721.41)"/><path class="cls-1" d="M917.85,8160.53h-126a7.5,7.5,0,1,1,0-15h126a7.5,7.5,0,0,1,0,15Z" transform="translate(-166.24 -7721.41)"/><rect class="cls-1" x="156.52" y="375.17" width="145.09" height="20.73" rx="9"/><path class="cls-1" d="M330.45,8107.06l-2.3,9.48-8.44,34.72-3.64,15-16.9,69.58V8266a7.45,7.45,0,0,1-1.26,4.15,7.24,7.24,0,0,1-2.57,2.38H288a7.5,7.5,0,0,1-3.83-6.53v-32l18.78-77.3,12.12-49.92L274,7911.57a7.49,7.49,0,1,1,14.66-3.09h0l38,180.43,1.75,8.32,2,9.7Z" transform="translate(-166.24 -7721.41)"/><path class="cls-1" d="M465,8106.94V8266a7.45,7.45,0,0,1-1.26,4.15,7.24,7.24,0,0,1-2.57,2.38h-7.35a7.21,7.21,0,0,1-2.56-2.38A7.3,7.3,0,0,1,450,8266V8106.94a7.5,7.5,0,0,1,15,0Z" transform="translate(-166.24 -7721.41)"/><path class="cls-1" d="M467.85,8106.94H322.76v-4.09a27,27,0,0,1,27-27h91.09a27,27,0,0,1,27,27v4.09Z" transform="translate(-166.24 -7721.41)"/><path class="cls-1" d="M457.48,8166.26H312.39a7.5,7.5,0,1,1,0-15H457.48a7.5,7.5,0,0,1,0,15Z" transform="translate(-166.24 -7721.41)"/><polygon class="cls-7" points="477.71 510.27 461.95 502.73 483.6 436.85 506.87 447.97 477.71 510.27"/><polygon class="cls-7" points="584.54 504.31 567.59 508.49 543.03 443.64 568.05 437.47 584.54 504.31"/><path class="cls-7" d="M685.81,7945.3a16.43,16.43,0,0,0,22.26,5.58,15.84,15.84,0,0,0,2.12-1.53L760,7978l-2.16-29.36-47-22.65a16.36,16.36,0,0,0-19.86-2.59,15.76,15.76,0,0,0-5.39,21.62C685.67,7945.08,685.74,7945.19,685.81,7945.3Z" transform="translate(-166.24 -7721.41)"/><path class="cls-8" d="M738.6,7967.18l8.81,5.37L787,7996.68a23.33,23.33,0,0,0,32.15-7.4v0a22.78,22.78,0,0,0,2.91-16.11l-17.58-87.85A24.38,24.38,0,0,0,776,7865.85a23.85,23.85,0,0,0-3.53.94,23.21,23.21,0,0,0-14.65,28.2l18.39,62.34L748,7944.19Z" transform="translate(-166.24 -7721.41)"/><path class="cls-3" d="M717.77,8207.54l-27.13-54.4V8153l2.67-99.78c0-.89.11-1.78.22-2.65a30.3,30.3,0,0,1,11.55-20.43,29.17,29.17,0,0,1,21.75-5.95l77.56,10,2.69-11,.5-.18,74.32-27.24.42.7c9.74,15.84,16.54,47.47,18.39,56.79l0,.13c0,.2.06.32.07.35,3.83,15.9-12,42.24-27.73,46.2-33.17,8.46-62.83,1.86-97.18-5.78-12.32-2.74-25-5.57-39.07-8l.41,8.26a61.83,61.83,0,0,0,3.92,18.56c2.5,7.32,4.47,13.11.29,25.16l-2,5.84a19.87,19.87,0,0,1-2,17.63l-.41.62,17.89,45.26Z" transform="translate(-166.24 -7721.41)"/><path class="cls-3" d="M673.2,8183.48l-32.34-3,11.46-36.65A239.21,239.21,0,0,1,670,8074.31l15.63-37c0-.82.11-1.65.21-2.46a30.31,30.31,0,0,1,11.54-20.43,29.2,29.2,0,0,1,21.76-5.95l77.44,10,3.38-28.31,74.33-9.94.34.55c13,21.14,21.24,37.69,26,52.08.24.74.45,1.49.63,2.23,3.85,16-5.77,32.24-21.44,36.18-39.93,10.18-87.95,9.9-151.09-.89l-30.56,72.72a112.26,112.26,0,0,1-10.79,19.79Z" transform="translate(-166.24 -7721.41)"/><ellipse class="cls-7" cx="619.79" cy="56.66" rx="37.47" ry="38.3"/><path class="cls-5" d="M796.84,8019.79l-5.37-19.26-1.32-9.5-7.73.26-15.17-35-5.89-9.23q-1.8-1.91-3.26-3.65A82.25,82.25,0,0,1,743.54,7920a61.8,61.8,0,0,1-4.26-19.3c-1.1-19.56,7.15-40.25,25.21-63.26a10.87,10.87,0,0,1-.59-2.52,10.67,10.67,0,0,1,9.28-11.81l17.42-2a10.29,10.29,0,0,1,7.62,2.22,10.7,10.7,0,0,1,3.95,7.26,11,11,0,0,1-1.23,6.32,46.52,46.52,0,0,1,38.61,32.49,309.34,309.34,0,0,1,24.78,61.2c1.19,4.16.66,8.45.15,12.59-.48,3.83-1,7.78-.14,11.73s2.85,8,5,12.3c2.45,4.88,5,9.92,5.66,15.06l0,.37Z" transform="translate(-166.24 -7721.41)"/><path class="cls-9" d="M744,7919.78a81.89,81.89,0,0,0,14.47,23.31q1.57,1.86,3.31,3.7l5.92,9.3c21.85-16.38,39.55-80.86,39.55-80.86l-24.65-4.8Z" transform="translate(-166.24 -7721.41)"/><path class="cls-7" d="M729.08,7820a16.47,16.47,0,0,1-5.56,22.29,15.86,15.86,0,0,1-2.34,1.15l1.74,57.43-24.87-15.65L700.2,7833a16.44,16.44,0,0,1,7.08-18.77,15.71,15.71,0,0,1,21.58,5.32C728.94,7819.7,729,7819.82,729.08,7820Z" transform="translate(-166.24 -7721.41)"/><path class="cls-8" d="M725.11,7879.14,697.76,7883l1.17,56.64a23.7,23.7,0,0,0,11.59,20h0a22.7,22.7,0,0,0,27.12-3.08l64.58-62.11a24.5,24.5,0,0,0,1.8-33.63h0a23.23,23.23,0,0,0-32.72-2.75l-.55.48a23.78,23.78,0,0,0-1.81,1.81l-42.64,49.05Z" transform="translate(-166.24 -7721.41)"/><polygon class="cls-2" points="330.1 527.19 349.52 527.19 358.75 452.31 330.1 452.31 330.1 527.19"/><circle class="cls-2" cx="386.3" cy="7778.73" r="38.75" transform="translate(-7520.11 -807.38) rotate(-80.78)"/><path class="cls-3" d="M522.09,8225.53H494.6l-7-9.39-1.9-8.86-1.63-1.58a13.63,13.63,0,0,1-2.3-16.76l-19.92-93c-5.22-.46-64.07-5.72-105-13-10.47-1.85-18.65-6.94-24.3-15.12-13.89-20.11-7.94-52.65-7.87-53l.06-.36.37-.05,95.56-10.72.12.06c3.18,1.5,77.81,36.93,90,49.13,5.51,5.51,17.8,38.23,20.55,73,.49,6.23-1.28,12.58-3,18.72-1.6,5.74-3.26,11.68-2.93,17.29.5,8.66,1,17.75,1.42,27,.07,1.47,1.18,3,2.26,4.48s2.18,3,2.25,4.52c.65,14.78-9,27.21-9.11,27.33Z" transform="translate(-166.24 -7721.41)"/><path class="cls-2" d="M528.35,7881.94a14.76,14.76,0,0,0-18.13,10.35,14.6,14.6,0,0,0-.46,2.56l-32.2,10.06L478.9,7926l45.27-14.85a14.84,14.84,0,0,0,4.18-29.18Z" transform="translate(-166.24 -7721.41)"/><path class="cls-6" d="M507.34,7916.78l-24.06,9.11-.61,1.2a12.15,12.15,0,0,1-16.36,5.22h0l-54.08,20.47s-24.15-24.17-41.35-45.74l5.86-36.05a69.08,69.08,0,0,1,8.51-23.72c35.27,7.73,55.51,57,55.51,57l63.56-12.13Z" transform="translate(-166.24 -7721.41)"/><path class="cls-3" d="M380.79,7815.41c-9.7,2.62-20.39-.86-28-7.47s-12.31-16-15-25.64c-2-7.08-3-14.94.21-21.59s11.64-11.14,18.19-7.78c-4-4.71-2-12.49,2.69-16.52s11.2-5.18,17.37-5.81c8.95-.91,18.2-1,26.72,1.89s16.27,9.24,18.93,17.84a13.6,13.6,0,0,0,16.2-3.66,12.32,12.32,0,0,1-6.78,13.34l13.05-4.24c2.25,4.76-1.69,10.64-6.72,12.16s-10.46-.14-15.23-2.34-9.4-5-14.59-5.84-11.27.81-13.67,5.49c-1.26,2.45-1.33,5.32-2.05,8s-2.58,5.41-5.33,5.63c-1.73.13-3.43-.79-5.16-.6-2.14.23-3.78,2.18-4.35,4.25a16.37,16.37,0,0,0,0,6.43l3.32,25.35" transform="translate(-166.24 -7721.41)"/><path class="cls-6" d="M332.79,8072.53h0l-.3-.05-.09-.3c-1.12-3.74-2.53-7.58-3.9-11.29a136.12,136.12,0,0,1-5.11-15.73,120.86,120.86,0,0,1-2.26-15.5c-.38-3.78-.77-7.68-1.45-11.53-.29-1.71.84-3.33,1.93-4.89s2-2.83,1.77-4.12-1.67-2.78-3.09-4.19-3.17-3.14-3.4-4.82a480.43,480.43,0,0,1-4.33-69.16c.32-32,1.77-53.82,4.3-64.84,6.81-29.62,38.25-35,43.17-35.7a10.86,10.86,0,0,1,14-6.35l.71.29L397,7834.57a36.4,36.4,0,0,1,19.34,21.6l3.32,10.11,1.66,67.92L412.15,7982l18,27C334.21,8061.7,333.09,8072.53,332.79,8072.53Z" transform="translate(-166.24 -7721.41)"/><path class="cls-3" d="M485.89,8241.05h6.32l24.64-10,13.21,10h0a28.14,28.14,0,0,1,28.14,28.15v.91H485.89Z" transform="translate(-166.24 -7721.41)"/><path class="cls-2" d="M536.41,7930.41a14.75,14.75,0,0,0-20.2,5.26,14.91,14.91,0,0,0-1.12,2.35l-33.7,1.31-4.54,15.7,47.91,2.45a14.84,14.84,0,0,0,11.65-27.07Z" transform="translate(-166.24 -7721.41)"/><path class="cls-6" d="M508.73,7959.18l-34.63-.43-4.38-.06-70.44-.89s-19.13-18.25-35.79-37l2.34-16.89A69,69,0,0,1,389,7861.16c23.86,15.94,37.69,47.49,37.69,47.49l23.2,10.38h0a101.59,101.59,0,0,1,46.37,13.58l7.63,4.42Z" transform="translate(-166.24 -7721.41)"/><path class="cls-3" d="M763.15,8257.66l-11.52,2.84-4.74-10.37-2.59,12.18-30.55,7.54a7.08,7.08,0,0,1-7-11.56L727,8235.42l-2.72-11,26.05-4.8Z" transform="translate(-166.24 -7721.41)"/><path class="cls-3" d="M641.1,8261.21l-11-4.48,2.27-11.18-9.25,8.33L594,8242a7.07,7.07,0,0,1,1.15-13.46L625,8222l4.28-10.48,23.88,11.45Z" transform="translate(-166.24 -7721.41)"/><path class="cls-5" d="M602.85,7955.53h-9a36.54,36.54,0,0,1-36.5-36.5v-.5h82v.5A36.54,36.54,0,0,1,602.85,7955.53Z" transform="translate(-166.24 -7721.41)"/><path class="cls-1" d="M593.85,7905.53c0,2.49-4.5,4.5-4.5,4.5s-4.5-2-4.5-4.5,4.5-4.5,4.5-4.5S593.85,7903.05,593.85,7905.53Z" transform="translate(-166.24 -7721.41)"/><path class="cls-1" d="M620.85,7905.53c0,2.49-4.5,4.5-4.5,4.5s-4.5-2-4.5-4.5,4.5-4.5,4.5-4.5S620.85,7903.05,620.85,7905.53Z" transform="translate(-166.24 -7721.41)"/><path class="cls-1" d="M602.85,7914.53c0,2.49-4.5,4.5-4.5,4.5s-4.5-2-4.5-4.5,4.5-4.5,4.5-4.5S602.85,7912.05,602.85,7914.53Z" transform="translate(-166.24 -7721.41)"/><circle class="cls-1" cx="405.11" cy="170.12" r="4.5"/><path class="cls-5" d="M505.9,7881.86l71,9.8a4.79,4.79,0,1,1-1.31,9.5l-.42-.07-69.8-16.19a1.55,1.55,0,0,1,.56-3Z" transform="translate(-166.24 -7721.41)"/><path class="cls-3" d="M886.28,7761.46c-6.36-7.43-9.39-17.28-14.48-25.72s-13.95-16-23.31-14c-6.46,1.36-11.44,7.05-14,13.4s-3,13.34-3.44,20.2c.16-14.09-9.13-27.75-21.92-32.25s-28.09.52-36.13,11.84a19.53,19.53,0,0,0-25.94-.54c-7.18,6.42-8.77,18.65-3.49,26.85s16.74,11.24,25.14,6.7l3,2.73c-1.67,5.85,1.57,12.76,7,15,4.42,1.78,10.66,1.48,12.31,6.12,1.16,3.24-1,6.7-3.3,9.19s-5,5.06-5.3,8.51c-.42,5.2,4.95,8.84,9.84,9.94,11.78,2.64,24.84-2.81,31.63-13.2.13-.2.28-.4.43-.61a45.48,45.48,0,0,0,9.15-34.77c-.38-2.4,0-4.19,1.66-4.76,7.16-2.46,27.21,2.7,33.28,7.37s10.93,10.83,16.78,15.8,13.3,8.8,20.72,7.44c6-1.08,11-5.4,14.41-10.6s5.36-11.28,7.11-17.31C914.3,7776.33,896.31,7773.15,886.28,7761.46Z" transform="translate(-166.24 -7721.41)"/></svg>