<svg id="Layer_2" data-name="Layer 2" xmlns="http://www.w3.org/2000/svg" viewBox="0 0 1066.89 916.23"><defs><style>.cls-1{fill:#3f3d56;}.cls-2{fill:#2f2e41;}.cls-3{fill:#ffb9b9;}.cls-4{fill:#d0cde1;}.cls-5{fill:#9f616a;}.cls-6{fill:#575a88;}.cls-7{isolation:isolate;opacity:0.1;}.cls-8{fill:#f2f2f2;}.cls-9{fill:#71db3a;}.cls-10{fill:#fff;}.cls-11{fill:#e5e5e5;}</style></defs><path class="cls-1" d="M4111.55,859.84v244.42H4150V881.37h153.73v222.89h38.43V615.43h-38.43c-12.74,0-32.28,66.32-32.28,133,0,50.23,5.86,93.28,14.2,111.44Zm192.16,0h-.38c.13-.27.25-.56.38-.84Z" transform="translate(-3460.03 -303.44)"/><path class="cls-2" d="M4254,494.45h0c-31.55,0-57.12,28.38-57.12,63.39v44.47h13.68l7.92-16.47-2,16.47h87.93l7.2-15-1.8,15h9.9V567.39C4319.7,527.11,4290.27,494.45,4254,494.45Z" transform="translate(-3460.03 -303.44)"/><path class="cls-2" d="M4188.52,785.05,4153.45,800,4031.58,899a35.94,35.94,0,0,0-7.89,19.29c-.87,11.4-37.7,71-24.54,78.91s60.49,31.56,63.12,15.78,16.66-83.29,16.66-83.29L4196.41,824.5Z" transform="translate(-3460.03 -303.44)"/><path class="cls-2" d="M4050.87,999.85l-14.9,43.83s15.78,16.66,7.89,30.69v48.22h-12.28l-3.5-25.42s-14,25.1-21,25.42c-14.81.67-44.12,5.94-45-1.95s22.2-15.58,22.2-15.58l24.55-67.51,10.52-41.21Z" transform="translate(-3460.03 -303.44)"/><path class="cls-2" d="M4279.7,773.65s7.89,77.15-14.9,91.18-123.62,58.74-123.62,58.74,43,40.33,34.19,50-48.22,35.94-53.48,30.68-64-68.38-57-88.55,104.33-85.92,104.33-85.92l11.4-41.21,3.51-33.31L4221,731.56Z" transform="translate(-3460.03 -303.44)"/><circle class="cls-3" cx="779.5" cy="254.03" r="36.55"/><path class="cls-3" d="M4267.87,572.44s-1.76,33.31,25.42,43.83-67.51,78.91-67.51,78.91V618.9s12.28-13.15,0-33.31Z" transform="translate(-3460.03 -303.44)"/><path class="cls-3" d="M4326.17,728.93l-7,34.2-21.05,117.48s17.54,50-6.13,49.1-12.28-54.36-12.28-54.36L4292,778v-37.7Z" transform="translate(-3460.03 -303.44)"/><path class="cls-3" d="M4175.37,712.28,4167.48,743l-35.95,86.8S4107,871,4127.15,870.09s20.16-40.33,20.16-40.33l41.21-70.14V720.17Z" transform="translate(-3460.03 -303.44)"/><path class="cls-2" d="M4169.23,968.28l28.94,27.18s20.16-4.38,28.05,19.29,13.15,38.58,13.15,38.58l-10.52,6.14-13.15-18.42s-7.89,33.32-15.78,36-47.35,20.17-43.84,0l19.29-28.06s2.63-31.56-5.26-34.19-28.93-28.93-28.93-28.93Z" transform="translate(-3460.03 -303.44)"/><path class="cls-1" d="M4281.09,800.83s-82.41-29.81-87.67-27.18a39.5,39.5,0,0,1-12.35,3.2l.07-12s27.18-9.64,42.09-3.51,60.49,33.32,60.49,33.32Z" transform="translate(-3460.03 -303.44)"/><path class="cls-4" d="M4231,677.64s23.68-27.17,30.69-43.83a43.06,43.06,0,0,1,22.75-22.38s52.65,11.86,51.77,32.9-33.31,53.48-33.31,53.48,4.38,116.61-19.29,114.85a50.69,50.69,0,0,1-10.52-21C4270.5,779.35,4189,766.2,4189,766.2s-7,12.27-7.89,7,7-134.14,7-134.14l41.81-27.64Z" transform="translate(-3460.03 -303.44)"/><path class="cls-4" d="M4329.5,635.86l.59.33a12.09,12.09,0,0,1,6.17,10.55V711.8a12.2,12.2,0,0,0,4.34,9.28c3.38,2.88,6.51,7,.05,9.17-10.52,3.51-51.73,21-52.61,14.9S4285.4,732,4288,732c2.06,0,14.33-62.87,24.19-89.75a12.1,12.1,0,0,1,17.28-6.39Z" transform="translate(-3460.03 -303.44)"/><path class="cls-4" d="M4199.92,636l-12.28,3.51-14,60.49s-16.66,3.51-11.4,9.65,27.18,21.91,27.18,21.91Z" transform="translate(-3460.03 -303.44)"/><path class="cls-2" d="M4270.21,511.91a30,30,0,0,0-23.64-12.06h-1.12c-21.62,0-39.15,19.56-39.15,43.7h7.24l1.17-8.91,1.72,8.91h43L4263,536l-.9,7.54h8.45q5.91,29.38-17,58.76H4268l7.2-15.06-1.8,15.06h27.45l5.4-34.65C4306.2,541.7,4291.11,519.69,4270.21,511.91Z" transform="translate(-3460.03 -303.44)"/><path class="cls-1" d="M3535.91,916.32c9.22-20.09,15.71-67.69,15.71-123.23,0-73.69-21.62-147-35.7-147h-42.49v540.49h42.49V940.11h170v246.45h42.49V916.32Zm-20-.94.42.94h-.42Z" transform="translate(-3460.03 -303.44)"/><path class="cls-5" d="M3713,817.71s51.18,21.22,34.95,33.7-49.92-15-48.68-18.72-5-12.48-5-12.48Z" transform="translate(-3460.03 -303.44)"/><path class="cls-6" d="M3668.08,650.47l16.23,15,3.74,43.69,12.48,46.18S3721.75,799,3718,807.73s3.74,11.23,3.74,11.23L3693,830.2s-31.2-35-31.2-42.44S3668.08,650.47,3668.08,650.47Z" transform="translate(-3460.03 -303.44)"/><g class="cls-7"><path d="M3668.08,650.47l16.23,15,3.74,43.69,12.48,46.18S3721.75,799,3718,807.73s3.74,11.23,3.74,11.23L3693,830.2s-31.2-35-31.2-42.44S3668.08,650.47,3668.08,650.47Z" transform="translate(-3460.03 -303.44)"/></g><path class="cls-6" d="M3821.6,1099.79s-6.24,28.71-7.49,31.21,23.72,11.23,23.72,11.23l30-21.22s-12.48-27.46-12.48-32.45Z" transform="translate(-3460.03 -303.44)"/><path class="cls-2" d="M3658.1,820.21l8.73,10s181,22.46,184.73,57.41,30,199.7,15,204.69-53.67,23.72-53.67,13.73-25-147.28-20-172.24c0,0-215.92-27.46-220.92-58.66s5-44.93,5-44.93Z" transform="translate(-3460.03 -303.44)"/><g class="cls-7"><path d="M3658.1,820.21l8.73,10s181,22.46,184.73,57.41,30,199.7,15,204.69-53.67,23.72-53.67,13.73-25-147.28-20-172.24c0,0-215.92-27.46-220.92-58.66s5-44.93,5-44.93Z" transform="translate(-3460.03 -303.44)"/></g><path class="cls-2" d="M3819.1,1128.5s-5-11.23-7.48-7.49-11.24,47.43-2.5,47.43,88.62,20,99.85,17.47,32.45,1.25,30-11.23-15-13.73-15-13.73-46.18-27.46-48.68-41.19-16.23-6.24-16.23-6.24v8.74S3832.83,1142.23,3819.1,1128.5Z" transform="translate(-3460.03 -303.44)"/><path class="cls-5" d="M3582,555.61s8.74,42.43-10,46.18,23.72,28.7,23.72,28.7l27.46,15,20-20s-18.1-36.82-4.37-64.28S3582,555.61,3582,555.61Z" transform="translate(-3460.03 -303.44)"/><path class="cls-5" d="M3643.12,625.5l-20,20-27.46-15s-42.44-25-23.72-28.7c12.05-2.41,12.72-20.83,11.69-33.66a117.3,117.3,0,0,0-1.7-12.52s70.52-21.85,56.79,5.61a47.77,47.77,0,0,0-4.29,13.43C3630.25,599.33,3643.12,625.5,3643.12,625.5Z" transform="translate(-3460.03 -303.44)"/><polygon class="cls-6" points="252.98 832.55 252.98 861.25 300.41 861.25 304.15 850.02 299.16 820.07 252.98 832.55"/><path class="cls-2" d="M3517.06,845.17s0,73.64,30,76.14,137.3,16.23,137.3,16.23,6.24,122.31,17.47,162.25,1.25,42.44,11.23,44.93,52.42-6.24,51.18-15S3758,900.09,3758,900.09s11.23-47.43-138.55-69.89Z" transform="translate(-3460.03 -303.44)"/><path class="cls-2" d="M3716.76,1156s-7.49-16.23-8.74-11.24-16.22,48.68-1.25,52.43,62.41,23.71,93.61,22.46,34.95-2.49,34.95-2.49,8.74-12.49-2.5-20-57.41-51.18-59.91-56.17-21.21-8.74-21.21,0S3725.49,1167.19,3716.76,1156Z" transform="translate(-3460.03 -303.44)"/><g class="cls-7"><path d="M3638.75,561.22a47.77,47.77,0,0,0-4.29,13.43c-6.22,3.76-10.38,2.8-18.18,2.8-11.57,0-16.23-14.79-23.71-22.47-.59-7.12-10.61.63-10.61.63S3652.48,533.76,3638.75,561.22Z" transform="translate(-3460.03 -303.44)"/></g><circle class="cls-5" cx="153.13" cy="232.2" r="41.19"/><path class="cls-6" d="M3684.31,665.44s-6.24,44.94-10,61.16-8.74,91.11-11.23,101.1-17.48,12.48-47.43,8.74A56.47,56.47,0,0,0,3610,836c-18.44-.58-39.55,6.32-59.08,11.73-11.24,3.12-22,5.75-31.36,6.17-14.23.65-18.39-15.13-17.91-32.2.46-15.89,5-32.93,9.18-38.94,7.57-10.84.12-108.1,2.92-140.18h0c.42-4.9,1.08-8.27,2.07-9.59,7.49-10,56.16-35,61.62-33.94s52,30.2,52,30.2c11.23,0,10.87-12.18,10.87-12.18s7.85,14.67,22.83,18.42S3684.31,665.44,3684.31,665.44Z" transform="translate(-3460.03 -303.44)"/><path class="cls-5" d="M3600.87,827.25s80.4,2.56,66.32,12.12-76.49,18.28-77.74,5.8S3600.87,827.25,3600.87,827.25Z" transform="translate(-3460.03 -303.44)"/><g class="cls-7"><path d="M3610,836c.26,4.79-12.63,15.59-16.8,22.89-2.31,4.05-20.18-1.28-42.28-11.16a433.73,433.73,0,0,1-49.27-26c.46-15.89,5-32.93,9.18-38.94,7.57-10.84.12-108.1,2.92-140.18h0a12.86,12.86,0,0,1,2.07-.85h15c51.17,23.71-7.49,126.06-7.49,126.06s77.38,63.65,84.87,66.15A2.24,2.24,0,0,1,3610,836Z" transform="translate(-3460.03 -303.44)"/></g><path class="cls-6" d="M3530.79,634.24h-15s-13.73,3.74-25,28.71-52.43,102.34-16.23,132.3,113.58,64.9,118.57,56.16,22.47-22.46,15-25-84.87-66.15-84.87-66.15S3582,658,3530.79,634.24Z" transform="translate(-3460.03 -303.44)"/><path class="cls-2" d="M3606.83,516.47s1.8-25,24.1-14.82,20.85-17.92,14.11-22.89-6.53-6.2-31.17-2.87-72.5,9-57,58.51,29.49,36.81,29.49,36.81-12.3-44.59.16-36.1l12.46,8.5,6.58-1.4Z" transform="translate(-3460.03 -303.44)"/><path class="cls-1" d="M4526.92,876.77c0-22.53-167.41-40.79-373.92-40.79s-373.92,18.26-373.92,40.79c0,8.73,25.16,16.82,68,23.46v279.08h20.4V903.11c68.59,8.84,171,14.45,285.54,14.45,115.44,0,218.65-5.7,287.24-14.67v276.42h20.4V900C4502.42,893.38,4526.92,885.39,4526.92,876.77Z" transform="translate(-3460.03 -303.44)"/><ellipse class="cls-8" cx="739.81" cy="555.46" rx="76.14" ry="18.72"/><ellipse class="cls-4" cx="739.81" cy="555.46" rx="62.41" ry="15.35"/><ellipse class="cls-8" cx="456.48" cy="570.44" rx="76.14" ry="18.72"/><ellipse class="cls-4" cx="456.48" cy="570.44" rx="62.41" ry="15.35"/><ellipse class="cls-5" cx="738.04" cy="548.41" rx="36.3" ry="5.73"/><ellipse class="cls-9" cx="718.7" cy="540.05" rx="11.46" ry="6.21"/><ellipse class="cls-9" cx="714.4" cy="540.05" rx="11.46" ry="6.21"/><ellipse class="cls-9" cx="764.54" cy="541.49" rx="11.46" ry="6.21"/><ellipse class="cls-9" cx="738.28" cy="540.05" rx="11.46" ry="6.21"/><ellipse class="cls-9" cx="757.86" cy="540.05" rx="11.46" ry="6.21"/><path class="cls-1" d="M4232.7,839.67q-31.08,10.55-69.73,0v-1A28.49,28.49,0,0,1,4190,810.24a177.23,177.23,0,0,1,18.44,0A25.74,25.74,0,0,1,4232.7,836Z" transform="translate(-3460.03 -303.44)"/><path class="cls-1" d="M4222.53,866a228.6,228.6,0,0,1-46.05,0,14.71,14.71,0,0,1-13.27-14.62h72.59A14.71,14.71,0,0,1,4222.53,866Z" transform="translate(-3460.03 -303.44)"/><path class="cls-4" d="M4188.28,819.14a13.68,13.68,0,0,1-10.51,0A13.59,13.59,0,0,1,4188.28,819.14Z" transform="translate(-3460.03 -303.44)"/><path class="cls-4" d="M4198.79,823.43a13.68,13.68,0,0,1-10.51,0A13.68,13.68,0,0,1,4198.79,823.43Z" transform="translate(-3460.03 -303.44)"/><path class="cls-4" d="M4199.74,815.79a13.65,13.65,0,0,1-10.5,0A13.65,13.65,0,0,1,4199.74,815.79Z" transform="translate(-3460.03 -303.44)"/><path class="cls-4" d="M4219.32,815.79a13.65,13.65,0,0,1-10.5,0A13.65,13.65,0,0,1,4219.32,815.79Z" transform="translate(-3460.03 -303.44)"/><path class="cls-4" d="M4214.07,820.09a13.68,13.68,0,0,1-10.51,0A13.68,13.68,0,0,1,4214.07,820.09Z" transform="translate(-3460.03 -303.44)"/><ellipse class="cls-5" cx="455.96" cy="563.39" rx="36.3" ry="5.73"/><ellipse class="cls-9" cx="436.62" cy="555.03" rx="11.46" ry="6.21"/><ellipse class="cls-9" cx="432.32" cy="555.03" rx="11.46" ry="6.21"/><ellipse class="cls-9" cx="482.47" cy="556.46" rx="11.46" ry="6.21"/><ellipse class="cls-9" cx="456.2" cy="555.03" rx="11.46" ry="6.21"/><ellipse class="cls-9" cx="475.78" cy="555.03" rx="11.46" ry="6.21"/><path class="cls-1" d="M3950.62,854.65q-31.08,10.54-69.73,0v-1a28.48,28.48,0,0,1,27.05-28.46,180,180,0,0,1,18.44,0A25.75,25.75,0,0,1,3950.62,851Z" transform="translate(-3460.03 -303.44)"/><path class="cls-1" d="M3940.45,881a230,230,0,0,1-46,0,14.71,14.71,0,0,1-13.28-14.62h72.59A14.71,14.71,0,0,1,3940.45,881Z" transform="translate(-3460.03 -303.44)"/><path class="cls-4" d="M3906.2,834.11a13.65,13.65,0,0,1-10.5,0A13.65,13.65,0,0,1,3906.2,834.11Z" transform="translate(-3460.03 -303.44)"/><path class="cls-4" d="M3916.71,838.41a13.68,13.68,0,0,1-10.51,0A13.68,13.68,0,0,1,3916.71,838.41Z" transform="translate(-3460.03 -303.44)"/><path class="cls-4" d="M3917.67,830.77a13.68,13.68,0,0,1-10.51,0A13.68,13.68,0,0,1,3917.67,830.77Z" transform="translate(-3460.03 -303.44)"/><path class="cls-4" d="M3937.25,830.77a13.68,13.68,0,0,1-10.51,0A13.68,13.68,0,0,1,3937.25,830.77Z" transform="translate(-3460.03 -303.44)"/><path class="cls-4" d="M3932,835.07a13.65,13.65,0,0,1-10.5,0A13.65,13.65,0,0,1,3932,835.07Z" transform="translate(-3460.03 -303.44)"/><path class="cls-9" d="M4265.34,853.83l.18,3.87.22,5s-23,1.3-27.67,6.2a3.07,3.07,0,0,0-.29.34l-9.23-2,0-4.55.37-.2.2-.11A83.89,83.89,0,0,1,4265.34,853.83Z" transform="translate(-3460.03 -303.44)"/><g class="cls-7"><path d="M4265.34,853.83l.18,3.87c-10.22.31-29.54,6.4-29.54,6.4l-7.08-1.61A83.8,83.8,0,0,1,4265.34,853.83Z" transform="translate(-3460.03 -303.44)"/></g><g class="cls-7"><path class="cls-10" d="M4229.1,862.38l6.88,1.72,2.09,4.81a3.07,3.07,0,0,0-.29.34l-9.23-2,0-4.55.37-.2Z" transform="translate(-3460.03 -303.44)"/></g><path class="cls-9" d="M3987,870.06l.17,3.86.23,5s-23,1.3-27.67,6.2a3.17,3.17,0,0,0-.3.34l-9.22-2,0-4.54.37-.21.2-.1A83.89,83.89,0,0,1,3987,870.06Z" transform="translate(-3460.03 -303.44)"/><g class="cls-7"><path d="M3987,870.06l.17,3.86c-10.21.32-29.54,6.41-29.54,6.41l-7.07-1.62A83.62,83.62,0,0,1,3987,870.06Z" transform="translate(-3460.03 -303.44)"/></g><g class="cls-7"><path class="cls-10" d="M3950.77,878.61l6.87,1.72,2.1,4.81a3.17,3.17,0,0,0-.3.34l-9.22-2,0-4.54.37-.21Z" transform="translate(-3460.03 -303.44)"/></g><path class="cls-1" d="M4404,738a23,23,0,0,0-6.79-4.7v-48.5a2.14,2.14,0,0,0-2.15-2.14h-12a2.14,2.14,0,0,0-2.15,2.14h0V732.4A21.75,21.75,0,0,0,4366,753.05v104a9.53,9.53,0,0,0,9.53,9.53h25.72a9.49,9.49,0,0,0,9.49-9.49V754.28A22.88,22.88,0,0,0,4404,738Z" transform="translate(-3460.03 -303.44)"/><rect class="cls-9" x="906" y="464.86" width="44.74" height="59.1"/><path class="cls-9" d="M4398.21,686h-1v-1.17a2.14,2.14,0,0,0-2.15-2.14h-12a2.14,2.14,0,0,0-2.15,2.14h0V686h-1v5h1v25.41h16.3V691h1Z" transform="translate(-3460.03 -303.44)"/><path class="cls-4" d="M4045.82,780.12c-1.19-2.52-2.12-4.31-2.45-4.93-20.08,5-33.48.77-35.59,0-1,1.95-7.49,14.43-10.09,26.38-2.36,10.79-1,18,4.06,21.5l.15.1,0,0c5.58,3.67,10.9,6.92,15.81,9.67l1.87,1,.07,0,0,0a31.07,31.07,0,0,1,1.88,2.66,10.47,10.47,0,0,1,1.91,5.16V895.4h-.34c-12.81.26-20.74,2.43-20.74,4.29,0,2,9.51,4.32,23.15,4.32s23.15-2.27,23.15-4.32c0-1.83-7.79-4-20.39-4.28H4028l.32-49.56a22,22,0,0,1,2.28-9.67c.26-.5.53-1,.81-1.46s.47-.73.72-1.07l0-.07.07,0c.63-.34,1.3-.71,2-1.12l.08,0c4.65-2.63,9.66-5.71,14.89-9.16,4.67-3.08,6.3-9.3,4.84-18.5C4052.67,796,4048.81,786.5,4045.82,780.12Z" transform="translate(-3460.03 -303.44)"/><path class="cls-9" d="M4047,822.1c-5.49,3.62-10,6.33-13.48,8.28h0a79.1,79.1,0,0,0-15.15.43c-3.55-2-8.34-4.83-14.23-8.71L4004,822h0c-5.41-3.72-5.54-11.59-3.78-19.64,4.47-.5,11.6-.28,21.19,3.14,11.35,4.06,23.23,1.76,30.11-.32C4052.63,812.26,4051.94,818.86,4047,822.1Z" transform="translate(-3460.03 -303.44)"/><circle class="cls-9" cx="554.36" cy="494.43" r="1.55"/><circle class="cls-10" cx="550.01" cy="508.72" r="1.55"/><circle class="cls-9" cx="558.09" cy="498.16" r="0.93"/><circle class="cls-10" cx="561.82" cy="515.87" r="0.93"/><circle class="cls-10" cx="555.29" cy="516.8" r="0.93"/><circle class="cls-9" cx="574.25" cy="485.73" r="0.93"/><path class="cls-4" d="M4118.68,729.62c-1.18-2.53-2.12-4.32-2.44-4.93-20.09,4.95-33.49.76-35.6,0-1,2-7.48,14.43-10.09,26.39-2.36,10.78-1,18,4.06,21.49l.15.11,0,0c5.57,3.67,10.89,6.93,15.8,9.67l1.88,1,.06,0,0,.06a27,27,0,0,1,1.88,2.65,10.38,10.38,0,0,1,1.91,5.16v53.57H4096c-12.81.26-20.74,2.43-20.74,4.3,0,2,9.51,4.32,23.16,4.32s23.15-2.28,23.15-4.32c0-1.84-7.8-4-20.39-4.29h-.34l.32-49.55a21.74,21.74,0,0,1,2.27-9.67c.26-.51.53-1,.82-1.46s.47-.74.72-1.08l0-.06.07,0,2-1.12.08,0c4.65-2.62,9.66-5.7,14.9-9.15,4.67-3.08,6.3-9.31,4.83-18.5C4125.54,745.45,4121.68,736,4118.68,729.62Z" transform="translate(-3460.03 -303.44)"/><path class="cls-9" d="M4119.88,771.6c-5.49,3.61-10,6.32-13.48,8.28h0a78.38,78.38,0,0,0-15.16.42c-3.55-2-8.34-4.82-14.23-8.7l-.17-.12h0c-5.4-3.72-5.54-11.6-3.78-19.65,4.47-.5,11.61-.28,21.19,3.14,11.35,4.06,23.23,1.77,30.11-.32C4125.49,761.76,4124.81,768.35,4119.88,771.6Z" transform="translate(-3460.03 -303.44)"/><circle class="cls-9" cx="627.23" cy="443.92" r="1.55"/><circle class="cls-10" cx="622.88" cy="458.21" r="1.55"/><circle class="cls-9" cx="630.95" cy="447.65" r="0.93"/><circle class="cls-10" cx="634.68" cy="465.36" r="0.93"/><circle class="cls-10" cx="628.16" cy="466.29" r="0.93"/><circle class="cls-9" cx="647.11" cy="435.22" r="0.93"/><polygon class="cls-10" points="577.07 138.44 255.69 138.44 219.98 174.15 219.98 138.44 204.23 138.44 204.23 1.9 577.07 1.9 577.07 138.44"/><path class="cls-11" d="M3678.12,443.77h-15.75V303.44H4039V443.77H3716.51l-38.39,38.39Zm357.09-136.54H3666.16V440h15.75v33l33-33h320.27Z" transform="translate(-3460.03 -303.44)"/><path d="M3708.71,363.18l-8.69-9.81v9.81h-3.32V342.62H3700V352l8.31-9.4h4.17l-8.87,10,9.28,10.55Z" transform="translate(-3460.03 -303.44)"/><path d="M3729.83,347v16.16h-3.32v-2.7a6.45,6.45,0,0,1-5.64,3c-4.31,0-7.46-3.49-7.46-8.43s3.21-8.43,7.43-8.43a6.51,6.51,0,0,1,5.67,3.11V347Zm-3.29,8.08a5,5,0,0,0-5-5.26c-2.82,0-4.82,2.18-4.82,5.26s2,5.26,4.82,5.26A4.94,4.94,0,0,0,3726.54,355.1Z" transform="translate(-3460.03 -303.44)"/><path d="M3744.64,363.18l-7.61-7.46v7.46h-3.32V347H3737v7l7-7h4.26l-7.9,7.67,8.54,8.49Z" transform="translate(-3460.03 -303.44)"/><path d="M3773,350.14h-5.26v13h-3.32v-13h-5.28V347H3773Z" transform="translate(-3460.03 -303.44)"/><path d="M3789.4,357.51c0,3.88-2.59,5.67-5.9,5.67h-7.85V347H3779v5.06h4.64C3786.93,352.08,3789.4,353.63,3789.4,357.51Zm-3.35,0c0-1.5-.59-2.5-2.61-2.5H3779v5h4.41C3785.4,360,3786.05,359,3786.05,357.51Zm9-10.49v16.16h-3.32V347Z" transform="translate(-3460.03 -303.44)"/><path d="M3823,347v16.16h-3.32v-6.67h-8.57v6.67h-3.32V347h3.32v6.35h8.57V347Z" transform="translate(-3460.03 -303.44)"/><path d="M3842.71,347v16.16h-3.32v-2.7a6.45,6.45,0,0,1-5.64,3c-4.32,0-7.46-3.49-7.46-8.43s3.2-8.43,7.43-8.43a6.51,6.51,0,0,1,5.67,3.11V347Zm-3.29,8.08a5,5,0,0,0-5-5.26c-2.82,0-4.82,2.18-4.82,5.26s2,5.26,4.82,5.26A4.94,4.94,0,0,0,3839.42,355.1Z" transform="translate(-3460.03 -303.44)"/><path d="M3868.29,347v16.16h-21.7V347h3.32v13h5.87V347h3.32v13H3865V347Z" transform="translate(-3460.03 -303.44)"/><path d="M3887.65,347v16.16h-3.32v-13H3879l-1.05,6.75c-.8,4.82-2.59,6.64-5.35,6.64a10,10,0,0,1-1.64-.18v-3c.32,0,.64.09,1,.09,1.55,0,2.23-.86,2.73-3.85l1.52-9.58Z" transform="translate(-3460.03 -303.44)"/><path d="M3907.39,347v16.16h-3.32v-2.7a6.47,6.47,0,0,1-5.64,3c-4.32,0-7.46-3.49-7.46-8.43s3.2-8.43,7.43-8.43a6.53,6.53,0,0,1,5.67,3.11V347Zm-3.29,8.08a5,5,0,0,0-5-5.26c-2.82,0-4.81,2.18-4.81,5.26s2,5.26,4.81,5.26A5,5,0,0,0,3904.1,355.1Z" transform="translate(-3460.03 -303.44)"/><path d="M3932.71,350.14h-5.26v13h-3.32v-13h-5.29V347h13.87Z" transform="translate(-3460.03 -303.44)"/><path d="M3950.89,347v16.16h-3.32v-2.7a6.47,6.47,0,0,1-5.64,3c-4.32,0-7.46-3.49-7.46-8.43s3.2-8.43,7.43-8.43a6.53,6.53,0,0,1,5.67,3.11V347Zm-3.29,8.08a5,5,0,0,0-5-5.26c-2.82,0-4.81,2.18-4.81,5.26s2,5.26,4.81,5.26A5,5,0,0,0,3947.6,355.1Z" transform="translate(-3460.03 -303.44)"/><path d="M3965.69,363.18l-7.61-7.46v7.46h-3.32V347h3.32v7l7-7h4.26l-7.9,7.67,8.55,8.49Z" transform="translate(-3460.03 -303.44)"/><path d="M3987.1,355.1a8.37,8.37,0,1,1-8.37-8.43A8.23,8.23,0,0,1,3987.1,355.1Zm-13.39,0a5,5,0,1,0,5-5.26A5,5,0,0,0,3973.71,355.1Z" transform="translate(-3460.03 -303.44)"/><path d="M4006.4,356h-13.13a4.78,4.78,0,0,0,5.05,4.61,4.52,4.52,0,0,0,4.32-2.41h3.44a7.82,7.82,0,0,1-7.79,5.32,8.43,8.43,0,0,1-.05-16.86C4003.43,346.67,4006.72,350.69,4006.4,356Zm-13-2.7h9.4a4.58,4.58,0,0,0-4.61-3.76A4.77,4.77,0,0,0,3993.45,353.31Z" transform="translate(-3460.03 -303.44)"/><path class="cls-9" d="M3707.16,398.43l-7.61-7.47v7.47h-3.32V382.27h3.32v7l7-7h4.26l-7.9,7.67,8.55,8.49Z" transform="translate(-3460.03 -303.44)"/><path class="cls-9" d="M3729.57,382.27v16.16h-3.32V385.38h-5.35l-1.05,6.76c-.8,4.82-2.59,6.64-5.35,6.64a10.28,10.28,0,0,1-1.65-.18v-3c.33,0,.65.08,1,.08,1.56,0,2.24-.85,2.74-3.84l1.52-9.58Z" transform="translate(-3460.03 -303.44)"/><path class="cls-9" d="M3749.31,382.27v16.16H3746v-2.71a6.48,6.48,0,0,1-5.64,3.06c-4.32,0-7.46-3.5-7.46-8.43s3.2-8.43,7.43-8.43A6.53,6.53,0,0,1,3746,385v-2.76Zm-3.29,8.08a5,5,0,0,0-5-5.26c-2.82,0-4.82,2.17-4.82,5.26s2,5.26,4.82,5.26A5,5,0,0,0,3746,390.35Z" transform="translate(-3460.03 -303.44)"/><path class="cls-9" d="M3752.65,390.35a8.21,8.21,0,0,1,8.4-8.43,7.76,7.76,0,0,1,7.94,6.22h-3.44a4.49,4.49,0,0,0-4.5-3.14c-3,0-5.05,2.23-5.05,5.35a5,5,0,0,0,5,5.34,4.54,4.54,0,0,0,4.52-3.17H3769a7.77,7.77,0,0,1-8,6.26A8.21,8.21,0,0,1,3752.65,390.35Z" transform="translate(-3460.03 -303.44)"/><path class="cls-9" d="M3771.51,390.35a8.2,8.2,0,0,1,8.4-8.43,7.74,7.74,0,0,1,7.93,6.22h-3.43a4.49,4.49,0,0,0-4.5-3.14c-3,0-5,2.23-5,5.35a5,5,0,0,0,5,5.34,4.55,4.55,0,0,0,4.53-3.17h3.43a7.75,7.75,0,0,1-8,6.26A8.2,8.2,0,0,1,3771.51,390.35Z" transform="translate(-3460.03 -303.44)"/><path class="cls-9" d="M3806.11,382.27v16.16h-3.32v-6.67h-8.57v6.67h-3.32V382.27h3.32v6.34h8.57v-6.34Z" transform="translate(-3460.03 -303.44)"/><path class="cls-9" d="M3826.17,390.35a8.37,8.37,0,1,1-8.37-8.43A8.24,8.24,0,0,1,3826.17,390.35Zm-13.39,0a5,5,0,1,0,5-5.26A5,5,0,0,0,3812.78,390.35Z" transform="translate(-3460.03 -303.44)"/><path class="cls-9" d="M3845.47,391.26h-13.13a4.78,4.78,0,0,0,5,4.61,4.52,4.52,0,0,0,4.32-2.41h3.44a7.84,7.84,0,0,1-7.79,5.32,8.43,8.43,0,0,1-.05-16.86C3842.5,381.92,3845.79,385.94,3845.47,391.26Zm-12.95-2.7h9.4a4.57,4.57,0,0,0-4.61-3.76A4.76,4.76,0,0,0,3832.52,388.56Z" transform="translate(-3460.03 -303.44)"/><path class="cls-9" d="M3874.87,382.27v16.16h-3.32v-6.76l.24-5.61-5.55,7.9h-.09l-5.55-7.9.23,5.61v6.76h-3.32V382.27h3.91l4.76,6.64,4.79-6.64Z" transform="translate(-3460.03 -303.44)"/><path class="cls-9" d="M3894.73,391.26H3881.6a4.78,4.78,0,0,0,5.05,4.61,4.52,4.52,0,0,0,4.32-2.41h3.44a7.84,7.84,0,0,1-7.79,5.32,8.43,8.43,0,0,1-.06-16.86C3891.76,381.92,3895.05,385.94,3894.73,391.26Zm-13-2.7h9.4a4.56,4.56,0,0,0-4.61-3.76A4.77,4.77,0,0,0,3881.77,388.56Z" transform="translate(-3460.03 -303.44)"/><path class="cls-9" d="M3897.43,390.35a8.2,8.2,0,0,1,8.4-8.43,7.74,7.74,0,0,1,7.93,6.22h-3.43a4.49,4.49,0,0,0-4.5-3.14c-3,0-5,2.23-5,5.35a5,5,0,0,0,5,5.34,4.55,4.55,0,0,0,4.53-3.17h3.43a7.75,7.75,0,0,1-8,6.26A8.2,8.2,0,0,1,3897.43,390.35Z" transform="translate(-3460.03 -303.44)"/><path class="cls-9" d="M3929.09,385.38h-5.25v13.05h-3.32V385.38h-5.29v-3.11h13.86Z" transform="translate(-3460.03 -303.44)"/><path class="cls-9" d="M3947.6,390.35a8.37,8.37,0,1,1-8.37-8.43A8.24,8.24,0,0,1,3947.6,390.35Zm-13.4,0a5,5,0,1,0,5-5.26A5,5,0,0,0,3934.2,390.35Z" transform="translate(-3460.03 -303.44)"/><path class="cls-9" d="M3955.53,390.44c0-2.12,1.09-2.77,3.23-3.88,1.7-.88,2.56-1.44,2.56-2.91,0-1.76-1.27-3-3.85-3-2.06,0-3.67.85-3.94,3.67h-3.35c.27-4.53,3.38-6.76,7.4-6.76s7.08,2.26,7.08,6.05c0,2.88-1.76,4-4,5.2-1.21.65-1.88,1.15-1.88,2.29V392h-3.26Zm-.56,6.25a2,2,0,0,1,2.2-2.05,2.07,2.07,0,0,1,2.24,2.05,2.1,2.1,0,0,1-2.24,2.09A2.07,2.07,0,0,1,3955,396.69Z" transform="translate(-3460.03 -303.44)"/><path class="cls-11" d="M4170.77,585.26l-38.4,38.4v30.6H3890.63V569.51h241.74v15.75Zm-42.19,65.21V622.09l33-33h-33V573.3H3894.42v77.17Z" transform="translate(-3460.03 -303.44)"/><path class="cls-9" d="M3918,611.1a10.34,10.34,0,0,1,10.61-10.63,10,10,0,0,1,9.84,7.13h-3.56a6.7,6.7,0,0,0-6.31-4,7.46,7.46,0,0,0,0,14.92,6.71,6.71,0,0,0,6.31-4h3.56a10,10,0,0,1-9.84,7.14A10.34,10.34,0,0,1,3918,611.1Z" transform="translate(-3460.03 -303.44)"/><path class="cls-9" d="M3957.56,614.21h-13.13a4.78,4.78,0,0,0,5.05,4.61,4.53,4.53,0,0,0,4.32-2.41h3.44a7.83,7.83,0,0,1-7.79,5.32,8.43,8.43,0,0,1-.06-16.86C3954.59,604.87,3957.88,608.9,3957.56,614.21Zm-13-2.7h9.4a4.57,4.57,0,0,0-4.61-3.76A4.78,4.78,0,0,0,3944.6,611.51Z" transform="translate(-3460.03 -303.44)"/><path class="cls-9" d="M3971.71,621.38l-7.6-7.46v7.46h-3.32V605.22h3.32v7l7-7h4.26l-7.9,7.67,8.54,8.49Z" transform="translate(-3460.03 -303.44)"/><path class="cls-9" d="M3995.21,613.3c0,4.94-3.14,8.43-7.46,8.43a6.54,6.54,0,0,1-5.64-3.05v10h-3.32v-23.5h3.32V608a6.53,6.53,0,0,1,5.67-3.11C3992,604.87,3995.21,608.37,3995.21,613.3Zm-3.34,0c0-3.08-2-5.26-4.82-5.26a5.27,5.27,0,0,0,0,10.52C3989.84,618.56,3991.87,616.41,3991.87,613.3Z" transform="translate(-3460.03 -303.44)"/><path class="cls-9" d="M4014.54,614.21h-13.13a4.78,4.78,0,0,0,5.05,4.61,4.52,4.52,0,0,0,4.32-2.41h3.44a7.83,7.83,0,0,1-7.79,5.32,8.43,8.43,0,0,1,0-16.86C4011.57,604.87,4014.86,608.9,4014.54,614.21Zm-12.95-2.7h9.4a4.58,4.58,0,0,0-4.61-3.76A4.77,4.77,0,0,0,4001.59,611.51Z" transform="translate(-3460.03 -303.44)"/><path class="cls-9" d="M4030.05,608.34h-5.26v13h-3.32v-13h-5.28v-3.12h13.86Z" transform="translate(-3460.03 -303.44)"/><path class="cls-9" d="M4047.7,605.22v16.16h-3.32v-6.76l.21-5.11-8,11.87h-3.91V605.22H4036V612l-.2,5.08,8-11.84Z" transform="translate(-3460.03 -303.44)"/><path class="cls-9" d="M4062.48,621.38l-7.61-7.46v7.46h-3.32V605.22h3.32v7l7-7h4.26l-7.9,7.67,8.54,8.49Z" transform="translate(-3460.03 -303.44)"/><path class="cls-9" d="M4083,608.4a2.08,2.08,0,0,1-2.18,2.08,2.05,2.05,0,0,1-2.14-2.08,2,2,0,0,1,2.14-2.06A2.06,2.06,0,0,1,4083,608.4Zm0,11.25a2.08,2.08,0,0,1-2.18,2.08,2.05,2.05,0,0,1-2.14-2.08,2,2,0,0,1,2.14-2.06A2.06,2.06,0,0,1,4083,619.65Z" transform="translate(-3460.03 -303.44)"/><path class="cls-9" d="M4090.32,598.41a26.93,26.93,0,0,1,0,30.66l-2.53-1.49c2.83-5.44,4-9.05,4-13.84s-1.17-8.4-4-13.83Z" transform="translate(-3460.03 -303.44)"/></svg>