<svg id="Layer_6" data-name="Layer 6" xmlns="http://www.w3.org/2000/svg" viewBox="0 0 420.6 90.24"><defs><style>.cls-1{opacity:0.94;}.cls-2{fill:#fff;}.cls-3{opacity:0.8;}.cls-4{fill:#8c8b9a;}.cls-5{fill:#3f3d56;}.cls-6{fill:#b2b1bb;}.cls-7{fill:#d9d8dd;}</style></defs><g class="cls-1"><rect class="cls-2" width="299.04" height="90.24" rx="29.58"/></g><g class="cls-3"><rect class="cls-4" x="121.56" width="299.04" height="90.24" rx="29.58"/></g><path class="cls-5" d="M3025.16-304.68c-4.76-4.75-12.41-4.75-27.71-4.75h-2.71c-15.3,0-22.95,0-27.71,4.75s-4.75,12.41-4.75,27.71v2.7c0,15.31,0,23,4.75,27.71s12.41,4.76,27.71,4.76h2.71c15.3,0,23,0,27.71-4.76s4.75-12.4,4.75-27.71V-277C3029.91-292.27,3029.91-299.93,3025.16-304.68Zm-14.35,44c-1.72-5.36-6-9.5-11.67-10.06v10.06h-.87c-15.42,0-24.21-10.57-24.58-28.15h7.72c.26,12.9,6,18.37,10.46,19.5v-19.5h7.27v11.13c4.45-.48,9.13-5.55,10.71-11.13h7.27a21.49,21.49,0,0,1-9.89,14,22.28,22.28,0,0,1,11.58,14.12Z" transform="translate(-2617.75 320.74)"/><g class="cls-3"><rect class="cls-6" x="81.04" width="299.04" height="90.24" rx="29.58"/></g><path class="cls-5" d="M2957.31-309.43a33.8,33.8,0,0,0-33.81,33.81,33.81,33.81,0,0,0,33.81,33.82,33.82,33.82,0,0,0,33.82-33.82A33.81,33.81,0,0,0,2957.31-309.43Zm16.61,23.16-5.55,26.16c-.41,1.85-1.51,2.3-3,1.43l-8.46-6.23-4.07,3.92a2.13,2.13,0,0,1-1.71.83l.6-8.6,15.67-14.15c.68-.6-.15-.94-1-.34l-19.36,12.19-8.35-2.61c-1.81-.57-1.85-1.81.38-2.68l32.61-12.58C2973.09-289.47,2974.41-288.56,2973.92-286.27Z" transform="translate(-2617.75 320.74)"/><g class="cls-3"><rect class="cls-7" x="40.52" width="299.04" height="90.24" rx="29.58"/></g><path class="cls-5" d="M2926.77-309.43h-25.36a21.13,21.13,0,0,0-21.13,21.13v25.36a21.14,21.14,0,0,0,21.13,21.14h25.36a21.15,21.15,0,0,0,21.14-21.14V-288.3A21.14,21.14,0,0,0,2926.77-309.43Zm14.8,46.49a14.82,14.82,0,0,1-14.8,14.8h-25.36a14.81,14.81,0,0,1-14.79-14.8V-288.3a14.8,14.8,0,0,1,14.79-14.79h25.36a14.81,14.81,0,0,1,14.8,14.79Z" transform="translate(-2617.75 320.74)"/><path class="cls-5" d="M2914.09-292.53a16.91,16.91,0,0,0-16.91,16.91,16.91,16.91,0,0,0,16.91,16.91A16.91,16.91,0,0,0,2931-275.62,16.91,16.91,0,0,0,2914.09-292.53Zm0,27.48a10.59,10.59,0,0,1-10.57-10.57,10.59,10.59,0,0,1,10.57-10.57,10.58,10.58,0,0,1,10.57,10.57A10.58,10.58,0,0,1,2914.09-265Z" transform="translate(-2617.75 320.74)"/><circle class="cls-5" cx="314.52" cy="26.95" r="2.25"/><g class="cls-1"><rect class="cls-2" width="299.04" height="90.24" rx="29.58"/></g><path class="cls-5" d="M2669.34-273.58a10.59,10.59,0,0,1-10.88,10.92c-5,0-9.77-2.93-10.57-8.45h5.59a4.84,4.84,0,0,0,5,3.58,5.09,5.09,0,0,0,5.14-4h-6.54v-4.22h6.46a5,5,0,0,0-5.1-3.84,4.75,4.75,0,0,0-4.94,3.53h-5.59c.76-5.32,5.36-8.4,10.53-8.4A10.6,10.6,0,0,1,2669.34-273.58Z" transform="translate(-2617.75 320.74)"/><path class="cls-5" d="M2687.14-263.12l-8.56-9.13v9.13h-5.44V-284h5.44v8.7l8-8.7h6.92l-9.54,10,10.19,10.95Z" transform="translate(-2617.75 320.74)"/><path class="cls-5" d="M2715.93-273.58A10.69,10.69,0,0,1,2705-262.66a10.69,10.69,0,0,1-10.87-10.92A10.71,10.71,0,0,1,2705-284.49,10.73,10.73,0,0,1,2715.93-273.58Zm-16.32,0c0,3.46,2.36,5.75,5.4,5.75s5.4-2.29,5.4-5.75a5.39,5.39,0,0,0-5.4-5.74A5.39,5.39,0,0,0,2699.61-273.58Z" transform="translate(-2617.75 320.74)"/><path class="cls-5" d="M2719.24-273.58a10.63,10.63,0,0,1,10.91-10.91c5.1,0,9.62,3.08,10.42,8.4H2735a4.71,4.71,0,0,0-4.83-3.38c-3.31,0-5.44,2.43-5.4,5.89s2.17,5.9,5.36,5.9a4.76,4.76,0,0,0,4.87-3.43h5.59c-.84,5.52-5.44,8.45-10.46,8.45A10.63,10.63,0,0,1,2719.24-273.58Z" transform="translate(-2617.75 320.74)"/><path class="cls-5" d="M2764-284v20.91h-5.44v-7.41l.34-6.2-8.63,13.61H2744V-284h5.43v7.41l-.26,6.12L2757.8-284Z" transform="translate(-2617.75 320.74)"/><path class="cls-5" d="M2767.92-273.58a10.63,10.63,0,0,1,10.91-10.91c5.1,0,9.62,3.08,10.42,8.4h-5.59a4.71,4.71,0,0,0-4.83-3.38c-3.31,0-5.44,2.43-5.4,5.89s2.17,5.9,5.36,5.9a4.76,4.76,0,0,0,4.87-3.43h5.59c-.83,5.52-5.44,8.45-10.46,8.45A10.63,10.63,0,0,1,2767.92-273.58Z" transform="translate(-2617.75 320.74)"/><path class="cls-5" d="M2809.48-278.9H2803v15.78h-5.44V-278.9h-6.42V-284h18.32Z" transform="translate(-2617.75 320.74)"/><path class="cls-5" d="M2833.33-272.17h-16a5.19,5.19,0,0,0,5.44,5,4.84,4.84,0,0,0,4.64-2.62H2833c-1.56,4.94-5.74,7.11-10.23,7.11-6.54,0-11-4.64-11-10.88a10.58,10.58,0,0,1,10.92-10.95C2829.57-284.49,2833.86-279,2833.33-272.17Zm-15.78-4h10a4.87,4.87,0,0,0-4.94-3.84A5.07,5.07,0,0,0,2817.55-276.16Z" transform="translate(-2617.75 320.74)"/><path class="cls-5" d="M2860.33-284v20.91h-5.44v-7.41l.38-7.15-6.5,9.35h-.15l-6.5-9.35.34,7.15v7.41H2837V-284h6.28l5.4,7.45,5.4-7.45Z" transform="translate(-2617.75 320.74)"/><path class="cls-5" d="M2885.78-284l0,20.91h-5.44v-2.81a7.78,7.78,0,0,1-6.54,3.27c-5.47,0-9.54-4.49-9.54-10.92s4.14-10.91,9.5-10.91a7.87,7.87,0,0,1,6.62,3.38V-284Zm-5.44,10.45c0-3.42-2.32-5.74-5.36-5.74s-5.29,2.32-5.29,5.74,2.28,5.75,5.29,5.75S2880.34-270.12,2880.34-273.58Z" transform="translate(-2617.75 320.74)"/></svg>