<svg id="Layer_2" data-name="Layer 2" xmlns="http://www.w3.org/2000/svg" viewBox="0 0 2480 572.61"><defs><style>.cls-1{fill:#71db3a;}.cls-2{fill:#fff;}</style></defs><rect class="cls-1" width="2480" height="572.61"/><path class="cls-2" d="M318.74,3725.59h138.6a6.31,6.31,0,0,0,6.3-6.3v-25.2a6.3,6.3,0,0,0-6.3-6.3H451v-6.3a63,63,0,0,0-44.1-60.1v-2.9a18.9,18.9,0,0,0-37.8,0v2.9a63,63,0,0,0-44.1,60.1v6.3h-6.3a6.31,6.31,0,0,0-6.3,6.3v25.2A6.31,6.31,0,0,0,318.74,3725.59Zm63-107.1a6.3,6.3,0,1,1,12.6,0v.31c-2.08,0-4.15-.31-6.3-.31a42.49,42.49,0,0,0-6.3.31Zm-44.1,63a50.4,50.4,0,0,1,100.8,0v6.3H337.64Zm-12.6,18.9H451V3713H325Z" transform="translate(0 -3491.1)"/><path class="cls-2" d="M427.35,3782.28l-22.36-5.6-11.34-22.62a6.3,6.3,0,0,0-11.21,0l-11.34,22.62-22.37,5.6a6.3,6.3,0,0,0-2,11.34l15.37,10.27-5.61,27.53a6.3,6.3,0,0,0,10,6.3L388,3821.66l21.42,16.06a6.4,6.4,0,0,0,10.21-4.91,6,6,0,0,0-.13-1.39l-5.48-27.34,15.37-10.27a6.3,6.3,0,0,0-1.95-11.34Zm-23.87,13.49a6.29,6.29,0,0,0-2.71,6.3l3.09,15.3-12-8.63a6.3,6.3,0,0,0-7.56,0l-12,9,3.21-15.31a6.3,6.3,0,0,0-2.71-6.3l-7-4.72,11.34-2.84a6.31,6.31,0,0,0,4.1-3.27L388,3771.2l7,13.92a6.29,6.29,0,0,0,4.09,3.27l11.34,2.84Z" transform="translate(0 -3491.1)"/><path class="cls-2" d="M326.56,3782.28l-22.37-5.6-11.34-22.62a6.3,6.3,0,0,0-11.21,0l-11.34,22.62-22.37,5.6a6.3,6.3,0,0,0-2,11.34l15.37,10.27-5.6,27.53a6.29,6.29,0,0,0,9.95,6.3l21.55-16.06,21.42,16.06a6.39,6.39,0,0,0,10.2-4.91,6,6,0,0,0-.13-1.39l-5.48-27.34,15.38-10.27a6.3,6.3,0,0,0-2-11.34Zm-23.88,13.49a6.29,6.29,0,0,0-2.71,6.3l3.09,15.3-12-8.63a6.3,6.3,0,0,0-7.56,0l-12,9,3.22-15.31a6.34,6.34,0,0,0-2.71-6.3l-7-4.72,11.34-2.84a6.31,6.31,0,0,0,4.1-3.27l6.87-14.11,7,13.92a6.29,6.29,0,0,0,4.09,3.27l11.34,2.84Z" transform="translate(0 -3491.1)"/><path class="cls-2" d="M528.15,3782.28l-22.36-5.6-11.34-22.62a6.31,6.31,0,0,0-11.22,0l-11.33,22.62-22.37,5.6a6.3,6.3,0,0,0-1.95,11.34L463,3803.89l-5.61,27.53a6.3,6.3,0,0,0,10,6.3l21.54-16.06,21.42,16.06a6.4,6.4,0,0,0,10.21-4.91,6.54,6.54,0,0,0-.13-1.39l-5.48-27.34,15.37-10.27a6.3,6.3,0,0,0-2-11.34Zm-23.87,13.49a6.29,6.29,0,0,0-2.71,6.3l3.08,15.3-12-8.63a6.3,6.3,0,0,0-7.56,0l-12,9,3.21-15.31a6.3,6.3,0,0,0-2.71-6.3l-7-4.72,11.34-2.84a6.26,6.26,0,0,0,4.09-3.27l6.87-14.11,7,13.92a6.31,6.31,0,0,0,4.1,3.27l11.34,2.84Z" transform="translate(0 -3491.1)"/><path class="cls-2" d="M1318.92,3776.58a26.36,26.36,0,0,0-12.85-16.22l-42.22-21.72c-11-5.5-24.47-2.75-31.81,7l-9.18,11.93a134.87,134.87,0,0,1-28.45-22.33,139,139,0,0,1-22.64-29.07l11.62-9.17a25.62,25.62,0,0,0,7-31.82l-21.72-41.91a25.85,25.85,0,0,0-16.22-13.16,25.34,25.34,0,0,0-20.49,3.37l-26.93,17.74a32.18,32.18,0,0,0-14.37,29.37c.61,11,1.83,19.89,3.67,26,8,32.13,27.84,65.17,55.68,92.7,27.84,27.84,60.57,47.42,92.69,56,6.12,1.53,15,2.75,26.31,3.67h2.15a31.8,31.8,0,0,0,27.22-15l17.44-27.23a25.93,25.93,0,0,0,3.06-20.19Zm-18.05,10.71-17.44,27.23a15.18,15.18,0,0,1-13.46,6.73,145.7,145.7,0,0,1-22.94-3.06c-29.07-7.65-59-25.7-84.75-51.4-25.39-25.39-43.74-55.68-51.39-84.74a138.43,138.43,0,0,1-3.06-23,15.14,15.14,0,0,1,6.73-13.46l26.92-17.74a7.35,7.35,0,0,1,4.59-1.23,5.9,5.9,0,0,1,2.14.31,9.59,9.59,0,0,1,5.2,4l21.72,41.91A8,8,0,0,1,1173,3683l-17.74,13.77a9,9,0,0,0-2.45,11c7.34,13.77,15,25.4,29.37,39.47,13.77,13.77,25.39,21.42,38.85,28.76a8.51,8.51,0,0,0,11-2.14l14.07-17.75a8.06,8.06,0,0,1,10.1-2.14l41.6,22a7.06,7.06,0,0,1,4,5.2A7.2,7.2,0,0,1,1300.87,3787.29Z" transform="translate(0 -3491.1)"/><path class="cls-2" d="M1361.75,3590.57H1233.26a19.19,19.19,0,0,0-19.27,19.28V3697a19.19,19.19,0,0,0,19.27,19.27h128.49A19.2,19.2,0,0,0,1381,3697v-87.19A19.2,19.2,0,0,0,1361.75,3590.57Zm1.84,105.24a3.07,3.07,0,0,1-3.06,3.06h-126a3.06,3.06,0,0,1-3.06-3.06v-55.37l62.42,26.31a12.8,12.8,0,0,0,3.36.61,10.94,10.94,0,0,0,3.37-.61l62.41-26.31v55.37Zm0-74.34L1297.81,3649,1232,3621.47v-10.4a3.06,3.06,0,0,1,3.06-3.06h126a3.06,3.06,0,0,1,3.06,3.06v10.4Z" transform="translate(0 -3491.1)"/><path class="cls-2" d="M2160,3669.52h-11.7v-11.7a58.49,58.49,0,1,0-117,0v11.7h-11.69a11.7,11.7,0,0,0-11.7,11.7V3772a35,35,0,0,0,19.42,31.47l57.2,28.54a11.39,11.39,0,0,0,10.53,0l57.2-28.54a35,35,0,0,0,19.42-31.47v-90.77A11.7,11.7,0,0,0,2160,3669.52Zm-58.49,81.88a11.7,11.7,0,1,1-23.4,0V3728a11.7,11.7,0,1,1,23.4,0Zm23.4-81.88h-70.19v-11.7a35.1,35.1,0,0,1,70.19,0Z" transform="translate(0 -3491.1)"/><path class="cls-2" d="M191.55,3910.61h-8.08v22.55h-5.72v-22.55h-8v-5.44h21.84Z" transform="translate(0 -3491.1)"/><path class="cls-2" d="M213.87,3922.17a11.46,11.46,0,1,1-11.48-11.48A11.23,11.23,0,0,1,213.87,3922.17Zm-17.16,0c0,3.63,2.48,6,5.68,6s5.68-2.4,5.68-6-2.48-6-5.68-6S196.71,3918.57,196.71,3922.17Z" transform="translate(0 -3491.1)"/><path class="cls-2" d="M239,3911.17v22h-5.72v-16.59h-5.68l-1.32,8c-1,6.52-3.8,9.08-7.8,9.08a14.85,14.85,0,0,1-2.68-.28v-5.16a9.62,9.62,0,0,0,1.48.12c2,0,2.8-.92,3.36-4.32l2.08-12.83Z" transform="translate(0 -3491.1)"/><path class="cls-2" d="M262.91,3925.2c0,5.76-4.08,8-8.16,8H243.59l0-22h5.72l0,6.44h5.6C259,3917.61,262.91,3919.45,262.91,3925.2Zm-5.76,0c0-1.6-.68-2.56-2.6-2.56h-5.24v5.08h5.24C256.47,3927.72,257.15,3926.68,257.15,3925.2Z" transform="translate(0 -3491.1)"/><path class="cls-2" d="M281.67,3933.16l-9-9.6v9.6H267v-22h5.72v9.16l8.36-9.16h7.28l-10,10.48L289,3933.16Z" transform="translate(0 -3491.1)"/><path class="cls-2" d="M312,3922.17a11.46,11.46,0,1,1-11.48-11.48A11.23,11.23,0,0,1,312,3922.17Zm-17.16,0c0,3.63,2.48,6,5.68,6s5.68-2.4,5.68-6-2.48-6-5.68-6S294.79,3918.57,294.79,3922.17Z" transform="translate(0 -3491.1)"/><path class="cls-2" d="M348.83,3933.16h-5.72v-16.59h-9.44v16.59H328v-22h20.88Z" transform="translate(0 -3491.1)"/><path class="cls-2" d="M376.31,3922.17c0,6.75-4.32,11.47-10,11.47a8.33,8.33,0,0,1-7-3.44v13h-5.72v-32h5.72v3.08a8.32,8.32,0,0,1,7-3.56C371.91,3910.69,376.31,3915.37,376.31,3922.17Zm-5.8,0c0-3.6-2.36-6-5.56-6s-5.64,2.44-5.64,6,2.44,6,5.64,6S370.51,3925.8,370.51,3922.17Z" transform="translate(0 -3491.1)"/><path class="cls-2" d="M402.71,3922.17a11.46,11.46,0,1,1-11.48-11.48A11.23,11.23,0,0,1,402.71,3922.17Zm-17.16,0c0,3.63,2.48,6,5.68,6s5.68-2.4,5.68-6-2.48-6-5.68-6S385.55,3918.57,385.55,3922.17Z" transform="translate(0 -3491.1)"/><path class="cls-2" d="M426.35,3926.8c0,4.52-3.48,6.36-8,6.36H406.71v-22h10.64c4.4,0,7.88,1.16,7.88,5.56,0,2.28-1.2,3.48-2.84,4.56A5.3,5.3,0,0,1,426.35,3926.8Zm-9.48-11.15h-4.44v4.24h4.44c2,0,2.6-.72,2.6-2.08S418.83,3915.65,416.87,3915.65Zm3.68,10.63c0-1.56-.72-2.32-2.64-2.32h-5.48v4.72h5.48C419.91,3928.68,420.55,3927.88,420.55,3926.28Z" transform="translate(0 -3491.1)"/><path class="cls-2" d="M452,3923.64H435.11a5.45,5.45,0,0,0,5.72,5.28,5.09,5.09,0,0,0,4.88-2.76h5.91c-1.64,5.2-6,7.48-10.75,7.48-6.88,0-11.6-4.88-11.6-11.43a11.13,11.13,0,0,1,11.48-11.52C448,3910.69,452.54,3916.41,452,3923.64Zm-16.59-4.19h10.52a5.12,5.12,0,0,0-5.2-4A5.33,5.33,0,0,0,435.39,3919.45Z" transform="translate(0 -3491.1)"/><path class="cls-2" d="M478.78,3922.17c0,6.75-4.32,11.47-10,11.47a8.33,8.33,0,0,1-7-3.44v13h-5.72v-32h5.72v3.08a8.32,8.32,0,0,1,7-3.56C474.38,3910.69,478.78,3915.37,478.78,3922.17Zm-5.8,0c0-3.6-2.36-6-5.55-6s-5.64,2.44-5.64,6,2.44,6,5.64,6S473,3925.8,473,3922.17Z" transform="translate(0 -3491.1)"/><path class="cls-2" d="M505,3923.64H488.11a5.45,5.45,0,0,0,5.72,5.28,5.07,5.07,0,0,0,4.87-2.76h5.92c-1.64,5.2-6,7.48-10.75,7.48-6.88,0-11.6-4.88-11.6-11.43a11.13,11.13,0,0,1,11.48-11.52C501,3910.69,505.54,3916.41,505,3923.64Zm-16.59-4.19H498.9a5.11,5.11,0,0,0-5.19-4A5.33,5.33,0,0,0,488.39,3919.45Z" transform="translate(0 -3491.1)"/><path class="cls-2" d="M530.18,3911.17v22h-5.72v-8.48h-9.87v8.48h-5.72v-22h5.72v8.12h9.87v-8.12Z" transform="translate(0 -3491.1)"/><path class="cls-2" d="M556.06,3911.17v22h-5.72v-8.48h-9.87v8.48h-5.72v-22h5.72v8.12h9.87v-8.12Z" transform="translate(0 -3491.1)"/><path class="cls-2" d="M579.94,3925.2c0,5.76-4.12,8-8.2,8H560.63v-22h5.72v6.44h5.59C576,3917.61,579.94,3919.45,579.94,3925.2Zm-5.8,0c0-1.6-.64-2.56-2.56-2.56h-5.23v5.08h5.19C573.46,3927.72,574.14,3926.68,574.14,3925.2Zm14.48-14v22H582.9v-22Z" transform="translate(0 -3491.1)"/><path class="cls-2" d="M615.38,3923.64H598.5a5.45,5.45,0,0,0,5.72,5.28,5.09,5.09,0,0,0,4.88-2.76H615c-1.64,5.2-6,7.48-10.76,7.48-6.87,0-11.59-4.88-11.59-11.43a11.12,11.12,0,0,1,11.47-11.52C611.42,3910.69,615.94,3916.41,615.38,3923.64Zm-16.59-4.19H609.3a5.12,5.12,0,0,0-5.2-4A5.31,5.31,0,0,0,598.79,3919.45Z" transform="translate(0 -3491.1)"/><path class="cls-2" d="M211.09,3975.84c0,4.52-4.08,6.8-9.84,6.8-7.16,0-10-3.36-10.8-7.88h5.8c.44,2.6,2,3.52,4.88,3.52s4.16-1,4.16-2.84c0-1.32-.64-2.36-3.2-2.36h-3.68v-4.39h3.08c2.4,0,3.12-.76,3.12-2.16s-1-2.6-3.76-2.6c-2,0-3.72.56-4.16,2.84h-5.8c.72-3.88,3.36-7.08,10-7.08,5.52,0,9.44,2.24,9.44,6.44a4.6,4.6,0,0,1-2.72,4.4A5.4,5.4,0,0,1,211.09,3975.84Z" transform="translate(0 -3491.1)"/><path class="cls-2" d="M237,3960.17l0,22h-5.72v-3a8.18,8.18,0,0,1-6.88,3.44c-5.76,0-10-4.72-10-11.47s4.36-11.48,10-11.48a8.26,8.26,0,0,1,7,3.56v-3.08Zm-5.72,11c0-3.6-2.44-6-5.64-6s-5.56,2.44-5.56,6,2.4,6,5.56,6S231.25,3974.8,231.25,3971.17Z" transform="translate(0 -3491.1)"/><path class="cls-2" d="M261.17,3975.8c0,4.52-3.48,6.36-8,6.36H241.53v-22h10.64c4.4,0,7.88,1.16,7.88,5.56,0,2.28-1.2,3.48-2.84,4.56A5.3,5.3,0,0,1,261.17,3975.8Zm-9.48-11.15h-4.44v4.24h4.44c2,0,2.6-.72,2.6-2.08S253.65,3964.65,251.69,3964.65Zm3.68,10.63c0-1.56-.72-2.32-2.64-2.32h-5.48v4.72h5.48C254.73,3977.68,255.37,3976.88,255.37,3975.28Z" transform="translate(0 -3491.1)"/><path class="cls-2" d="M286.81,3972.64H269.93a5.45,5.45,0,0,0,5.72,5.28,5.09,5.09,0,0,0,4.88-2.76h5.92c-1.64,5.2-6,7.48-10.76,7.48-6.88,0-11.6-4.88-11.6-11.43a11.13,11.13,0,0,1,11.48-11.52C282.85,3959.69,287.37,3965.41,286.81,3972.64Zm-16.6-4.19h10.52a5.12,5.12,0,0,0-5.2-4A5.33,5.33,0,0,0,270.21,3968.45Z" transform="translate(0 -3491.1)"/><path class="cls-2" d="M316.89,3976.76v11h-5.72v-5.56H294.65v5.56h-5.72v-11h3.92c.76-.64,1.24-1.92,1.6-4.16l2-12.43h16.44v16.59Zm-9.72,0v-11.19h-5.84l-1.2,7.31a10,10,0,0,1-1.24,3.88Z" transform="translate(0 -3491.1)"/><path class="cls-2" d="M341.69,3972.64H324.81a5.45,5.45,0,0,0,5.72,5.28,5.09,5.09,0,0,0,4.88-2.76h5.92c-1.64,5.2-6,7.48-10.76,7.48-6.88,0-11.6-4.88-11.6-11.43a11.13,11.13,0,0,1,11.48-11.52C337.73,3959.69,342.25,3965.41,341.69,3972.64Zm-16.6-4.19h10.52a5.12,5.12,0,0,0-5.2-4A5.33,5.33,0,0,0,325.09,3968.45Z" transform="translate(0 -3491.1)"/><path class="cls-2" d="M366.89,3960.17v22h-5.72v-8.48h-9.88v8.48h-5.72v-22h5.72v8.12h9.88v-8.12Z" transform="translate(0 -3491.1)"/><path class="cls-2" d="M392.49,3960.17v22h-5.72v-7.8l.36-6.51-9.08,14.31h-6.6v-22h5.72v7.8l-.28,6.43,9-14.23Z" transform="translate(0 -3491.1)"/><path class="cls-2" d="M416.45,3960.17v22h-5.72v-7.56h-3l-5.08,7.56h-7l6-8.12c-2.68-.84-4.84-2.71-4.84-6.35,0-5.48,4.08-7.52,8.16-7.52Zm-5.72,9.71v-4.59h-5.32c-2,0-2.72,1-2.72,2.32s.88,2.27,2.76,2.27Z" transform="translate(0 -3491.1)"/><path class="cls-2" d="M454,3960.17v22h-5.71v-7.8l.36-6.51-9.08,14.31H433v-22h5.72v7.8l-.28,6.43,9-14.23Z" transform="translate(0 -3491.1)"/><path class="cls-2" d="M495.16,3960.17v22h-5.72v-7.8l.4-7.51-6.83,9.83h-.16l-6.84-9.83.36,7.51v7.8h-5.72v-22h6.6l5.68,7.84,5.67-7.84Z" transform="translate(0 -3491.1)"/><path class="cls-2" d="M522,3972.64H505.09a5.45,5.45,0,0,0,5.72,5.28,5.07,5.07,0,0,0,4.87-2.76h5.92c-1.64,5.2-6,7.48-10.75,7.48-6.88,0-11.6-4.88-11.6-11.43a11.13,11.13,0,0,1,11.48-11.52C518,3959.69,522.52,3965.41,522,3972.64Zm-16.59-4.19h10.51a5.11,5.11,0,0,0-5.19-4A5.33,5.33,0,0,0,505.37,3968.45Z" transform="translate(0 -3491.1)"/><path class="cls-2" d="M525.33,3971.17a11.19,11.19,0,0,1,11.48-11.48c5.35,0,10.11,3.24,11,8.84h-5.88a5,5,0,0,0-5.07-3.56c-3.48,0-5.72,2.56-5.68,6.2s2.28,6.19,5.64,6.19a5,5,0,0,0,5.11-3.6h5.88c-.88,5.8-5.72,8.88-11,8.88A11.17,11.17,0,0,1,525.33,3971.17Z" transform="translate(0 -3491.1)"/><path class="cls-2" d="M569,3965.57h-6.79v16.59h-5.72v-16.59h-6.76v-5.4H569Z" transform="translate(0 -3491.1)"/><path class="cls-2" d="M594.08,3960.17l0,22h-5.72v-3a8.17,8.17,0,0,1-6.87,3.44c-5.76,0-10-4.72-10-11.47s4.36-11.48,10-11.48a8.26,8.26,0,0,1,7,3.56v-3.08Zm-5.72,11c0-3.6-2.44-6-5.63-6s-5.56,2.44-5.56,6,2.4,6,5.56,6S588.36,3974.8,588.36,3971.17Z" transform="translate(0 -3491.1)"/><path class="cls-2" d="M1046.45,3933.16l-10.52-13.08v13.08h-5.72v-28h5.72v12.4l10-12.4H1053l-11,13.56,11.63,14.43Z" transform="translate(0 -3491.1)"/><path class="cls-2" d="M1076.76,3922.17a11.46,11.46,0,1,1-11.47-11.48A11.22,11.22,0,0,1,1076.76,3922.17Zm-17.15,0c0,3.63,2.48,6,5.68,6s5.68-2.4,5.68-6-2.48-6-5.68-6S1059.61,3918.57,1059.61,3922.17Z" transform="translate(0 -3491.1)"/><path class="cls-2" d="M1102.08,3911.17v22h-5.72v-8.48h-9.87v8.48h-5.72v-22h5.72v8.12h9.87v-8.12Z" transform="translate(0 -3491.1)"/><path class="cls-2" d="M1124.52,3916.57h-6.79v16.59H1112v-16.59h-6.76v-5.4h19.27Z" transform="translate(0 -3491.1)"/><path class="cls-2" d="M1149.56,3911.17l0,22h-5.72v-3a8.17,8.17,0,0,1-6.87,3.44c-5.76,0-10-4.72-10-11.47s4.36-11.48,10-11.48a8.26,8.26,0,0,1,6.95,3.56v-3.08Zm-5.72,11c0-3.6-2.44-6-5.63-6s-5.56,2.44-5.56,6,2.4,6,5.56,6S1143.84,3925.8,1143.84,3922.17Z" transform="translate(0 -3491.1)"/><path class="cls-2" d="M1168.84,3933.16l-9-9.6v9.6h-5.72v-22h5.72v9.16l8.35-9.16h7.28l-10,10.48,10.72,11.51Z" transform="translate(0 -3491.1)"/><path class="cls-2" d="M1197.16,3916.57h-6.79v16.59h-5.72v-16.59h-6.76v-5.4h19.27Z" transform="translate(0 -3491.1)"/><path class="cls-2" d="M1219.6,3925.2c0,5.76-4.12,8-8.19,8h-11.12v-22H1206v6.44h5.59C1215.68,3917.61,1219.6,3919.45,1219.6,3925.2Zm-5.8,0c0-1.6-.64-2.56-2.55-2.56H1206v5.08h5.2A2.26,2.26,0,0,0,1213.8,3925.2Zm14.48-14v22h-5.72v-22Z" transform="translate(0 -3491.1)"/><path class="cls-2" d="M1264.44,3926.84c0,4.52-4.08,6.8-9.84,6.8-7.15,0-10-3.36-10.79-7.88h5.79c.44,2.6,2,3.52,4.88,3.52s4.16-1,4.16-2.84c0-1.32-.64-2.36-3.2-2.36h-3.68v-4.39h3.08c2.4,0,3.12-.76,3.12-2.16s-1-2.6-3.76-2.6c-2,0-3.72.56-4.16,2.84h-5.79c.72-3.88,3.36-7.08,10-7.08,5.52,0,9.44,2.24,9.44,6.44a4.6,4.6,0,0,1-2.72,4.4A5.4,5.4,0,0,1,1264.44,3926.84Z" transform="translate(0 -3491.1)"/><path class="cls-2" d="M1290.32,3911.17l0,22h-5.72v-3a8.18,8.18,0,0,1-6.88,3.44c-5.76,0-10-4.72-10-11.47s4.35-11.48,10-11.48a8.26,8.26,0,0,1,7,3.56v-3.08Zm-5.72,11c0-3.6-2.44-6-5.64-6s-5.56,2.44-5.56,6,2.4,6,5.56,6S1284.6,3925.8,1284.6,3922.17Z" transform="translate(0 -3491.1)"/><path class="cls-2" d="M1314.52,3926.8c0,4.52-3.48,6.36-8,6.36h-11.63v-22h10.63c4.4,0,7.88,1.16,7.88,5.56,0,2.28-1.2,3.48-2.84,4.56A5.3,5.3,0,0,1,1314.52,3926.8Zm-9.48-11.15h-4.44v4.24H1305c2,0,2.6-.72,2.6-2.08S1307,3915.65,1305,3915.65Zm3.68,10.63c0-1.56-.72-2.32-2.64-2.32h-5.48v4.72h5.48C1308.08,3928.68,1308.72,3927.88,1308.72,3926.28Z" transform="translate(0 -3491.1)"/><path class="cls-2" d="M1340.16,3923.64h-16.88a5.45,5.45,0,0,0,5.72,5.28,5.09,5.09,0,0,0,4.88-2.76h5.92c-1.64,5.2-6,7.48-10.76,7.48-6.87,0-11.59-4.88-11.59-11.43a11.12,11.12,0,0,1,11.47-11.52C1336.2,3910.69,1340.72,3916.41,1340.16,3923.64Zm-16.6-4.19h10.52a5.12,5.12,0,0,0-5.2-4A5.33,5.33,0,0,0,1323.56,3919.45Z" transform="translate(0 -3491.1)"/><path class="cls-2" d="M1370.24,3927.76v11h-5.72v-5.56H1348v5.56h-5.71v-11h3.92c.75-.64,1.24-1.92,1.59-4.16l2-12.43h16.44v16.59Zm-9.72,0v-11.19h-5.84l-1.2,7.31a10,10,0,0,1-1.24,3.88Z" transform="translate(0 -3491.1)"/><path class="cls-2" d="M1395,3923.64h-16.87a5.44,5.44,0,0,0,5.71,5.28,5.09,5.09,0,0,0,4.88-2.76h5.92c-1.64,5.2-6,7.48-10.76,7.48-6.88,0-11.59-4.88-11.59-11.43a11.12,11.12,0,0,1,11.47-11.52C1391.08,3910.69,1395.6,3916.41,1395,3923.64Zm-16.59-4.19H1389a5.12,5.12,0,0,0-5.2-4A5.32,5.32,0,0,0,1378.45,3919.45Z" transform="translate(0 -3491.1)"/><path class="cls-2" d="M1420.24,3911.17v22h-5.72v-8.48h-9.88v8.48h-5.71v-22h5.71v8.12h9.88v-8.12Z" transform="translate(0 -3491.1)"/><path class="cls-2" d="M1445.84,3911.17v22h-5.72v-7.8l.36-6.51-9.08,14.31h-6.6v-22h5.72v7.8l-.28,6.43,9-14.23Z" transform="translate(0 -3491.1)"/><path class="cls-2" d="M1471.48,3911.17v22h-5.72v-7.8l.36-6.51-9.08,14.31h-6.6v-22h5.72v7.8l-.28,6.43,9-14.23Zm-17.24-9.12V3901h4.52v.92a2.2,2.2,0,1,0,4.4,0V3901h4.48v1.08c0,4-3.2,6.36-6.68,6.36S1454.24,3906.09,1454.24,3902.05Z" transform="translate(0 -3491.1)"/><path class="cls-2" d="M1030.69,3971.17a11.19,11.19,0,0,1,11.48-11.48c5.36,0,10.12,3.24,11,8.84h-5.88a5,5,0,0,0-5.08-3.56c-3.48,0-5.72,2.56-5.68,6.2s2.28,6.19,5.64,6.19a5,5,0,0,0,5.12-3.6h5.88c-.88,5.8-5.72,8.88-11,8.88A11.17,11.17,0,0,1,1030.69,3971.17Z" transform="translate(0 -3491.1)"/><path class="cls-2" d="M1079.69,3971.17c0,6.75-4.32,11.47-10,11.47a8.33,8.33,0,0,1-7-3.44v13H1057v-32h5.72v3.08a8.32,8.32,0,0,1,7-3.56C1075.29,3959.69,1079.69,3964.37,1079.69,3971.17Zm-5.8,0c0-3.6-2.36-6-5.56-6s-5.64,2.44-5.64,6,2.44,6,5.64,6S1073.89,3974.8,1073.89,3971.17Z" transform="translate(0 -3491.1)"/><path class="cls-2" d="M1105.84,3960.17l0,22h-5.71v-3a8.18,8.18,0,0,1-6.88,3.44c-5.76,0-10-4.72-10-11.47s4.36-11.48,10-11.48a8.26,8.26,0,0,1,7,3.56v-3.08Zm-5.71,11c0-3.6-2.44-6-5.64-6s-5.56,2.44-5.56,6,2.4,6,5.56,6S1100.13,3974.8,1100.13,3971.17Z" transform="translate(0 -3491.1)"/><path class="cls-2" d="M1130,3975.84c0,4.52-4.08,6.8-9.84,6.8-7.16,0-10-3.36-10.8-7.88h5.8c.44,2.6,2,3.52,4.88,3.52s4.16-1,4.16-2.84c0-1.32-.64-2.36-3.2-2.36h-3.68v-4.39h3.08c2.4,0,3.12-.76,3.12-2.16s-1-2.6-3.76-2.6c-2,0-3.72.56-4.16,2.84h-5.8c.72-3.88,3.36-7.08,10-7.08,5.52,0,9.44,2.24,9.44,6.44a4.6,4.6,0,0,1-2.72,4.4A5.4,5.4,0,0,1,1130,3975.84Z" transform="translate(0 -3491.1)"/><path class="cls-2" d="M1154.41,3960.17l-14.32,32H1134l5.76-12.92-8.48-19.07h6.08l5.44,12.87,5.48-12.87Z" transform="translate(0 -3491.1)"/><path class="cls-2" d="M1189.16,3975.8c0,4.52-3.47,6.36-8,6.36h-11.64v-22h10.64c4.39,0,7.87,1.16,7.87,5.56,0,2.28-1.2,3.48-2.83,4.56A5.3,5.3,0,0,1,1189.16,3975.8Zm-9.47-11.15h-4.44v4.24h4.44c2,0,2.6-.72,2.6-2.08S1181.65,3964.65,1179.69,3964.65Zm3.68,10.63c0-1.56-.72-2.32-2.64-2.32h-5.48v4.72h5.48C1182.73,3977.68,1183.37,3976.88,1183.37,3975.28Z" transform="translate(0 -3491.1)"/><path class="cls-2" d="M1225.8,3982.16h-5.72v-16.59h-9.43v16.59h-5.72v-22h20.87Z" transform="translate(0 -3491.1)"/><path class="cls-2" d="M1253.28,3971.17c0,6.75-4.32,11.47-10,11.47a8.31,8.31,0,0,1-7-3.44v13h-5.72v-32h5.72v3.08a8.31,8.31,0,0,1,7-3.56C1248.88,3959.69,1253.28,3964.37,1253.28,3971.17Zm-5.8,0c0-3.6-2.36-6-5.56-6s-5.63,2.44-5.63,6,2.44,6,5.63,6S1247.48,3974.8,1247.48,3971.17Z" transform="translate(0 -3491.1)"/><path class="cls-2" d="M1278.32,3960.17v22h-5.72v-7.8l.36-6.51-9.08,14.31h-6.59v-22H1263v7.8l-.28,6.43,9-14.23Z" transform="translate(0 -3491.1)"/><path class="cls-2" d="M1304.72,3960.17v22H1299v-16.59h-5.68l-1.32,8c-1,6.52-3.8,9.08-7.79,9.08a14.85,14.85,0,0,1-2.68-.28v-5.16a9.59,9.59,0,0,0,1.47.12c2,0,2.8-.92,3.37-4.32l2.07-12.83Z" transform="translate(0 -3491.1)"/><path class="cls-2" d="M1331.68,3971.17a11.46,11.46,0,1,1-11.48-11.48A11.23,11.23,0,0,1,1331.68,3971.17Zm-17.16,0c0,3.63,2.48,6,5.68,6s5.68-2.4,5.68-6-2.48-6-5.68-6S1314.52,3967.57,1314.52,3971.17Z" transform="translate(0 -3491.1)"/><path class="cls-2" d="M1363,3982.16l-9-9.6v9.6h-5.72v-9.6l-9,9.6H1332l10.68-11.51-10-10.48h7.28l8.32,9.16v-9.16H1354v9.16l8.32-9.16h7.28l-10,10.48,10.68,11.51Z" transform="translate(0 -3491.1)"/><path class="cls-2" d="M1393.28,3972.64H1376.4a5.45,5.45,0,0,0,5.72,5.28,5.09,5.09,0,0,0,4.88-2.76h5.92c-1.64,5.2-6,7.48-10.76,7.48-6.88,0-11.6-4.88-11.6-11.43a11.13,11.13,0,0,1,11.48-11.52C1389.32,3959.69,1393.84,3965.41,1393.28,3972.64Zm-16.6-4.19h10.52a5.12,5.12,0,0,0-5.2-4A5.33,5.33,0,0,0,1376.68,3968.45Z" transform="translate(0 -3491.1)"/><path class="cls-2" d="M1418.48,3960.17v22h-5.72v-8.48h-9.88v8.48h-5.72v-22h5.72v8.12h9.88v-8.12Z" transform="translate(0 -3491.1)"/><path class="cls-2" d="M1444.08,3960.17v22h-5.72v-7.8l.36-6.51-9.08,14.31H1423v-22h5.72v7.8l-.28,6.43,9-14.23Z" transform="translate(0 -3491.1)"/><path class="cls-2" d="M1469.72,3960.17v22H1464v-7.8l.36-6.51-9.08,14.31h-6.6v-22h5.72v7.8l-.28,6.43,9-14.23Z" transform="translate(0 -3491.1)"/><path class="cls-2" d="M1914,3905.17v28h-5.72v-11.59h-12.44v11.59h-5.72v-28h5.72v11h12.44v-11Z" transform="translate(0 -3491.1)"/><path class="cls-2" d="M1940.34,3911.17v22h-5.72v-7.8l.36-6.51-9.08,14.31h-6.6v-22H1925v7.8l-.28,6.43,9-14.23Z" transform="translate(0 -3491.1)"/><path class="cls-2" d="M1959.66,3933.16l-9-9.6v9.6h-5.72v-22h5.72v9.16l8.36-9.16h7.28l-10,10.48,10.72,11.51Z" transform="translate(0 -3491.1)"/><path class="cls-2" d="M1989.7,3911.17l0,22h-5.72v-3a8.18,8.18,0,0,1-6.88,3.44c-5.76,0-10-4.72-10-11.47s4.36-11.48,10-11.48a8.26,8.26,0,0,1,7,3.56v-3.08Zm-5.72,11c0-3.6-2.44-6-5.64-6s-5.56,2.44-5.56,6,2.4,6,5.56,6S1984,3925.8,1984,3922.17Z" transform="translate(0 -3491.1)"/><path class="cls-2" d="M2009,3933.16l-9-9.6v9.6h-5.72v-22H2000v9.16l8.36-9.16h7.28l-10,10.48,10.72,11.51Z" transform="translate(0 -3491.1)"/><path class="cls-2" d="M2039.26,3922.17a11.46,11.46,0,1,1-11.48-11.48A11.23,11.23,0,0,1,2039.26,3922.17Zm-17.16,0c0,3.63,2.48,6,5.68,6s5.68-2.4,5.68-6-2.48-6-5.68-6S2022.1,3918.57,2022.1,3922.17Z" transform="translate(0 -3491.1)"/><path class="cls-2" d="M2058.22,3916.57H2049v16.59h-5.72v-22h15Z" transform="translate(0 -3491.1)"/><path class="cls-2" d="M2083.54,3922.17a11.46,11.46,0,1,1-11.48-11.48A11.23,11.23,0,0,1,2083.54,3922.17Zm-17.16,0c0,3.63,2.48,6,5.68,6s5.68-2.4,5.68-6-2.48-6-5.68-6S2066.38,3918.57,2066.38,3922.17Z" transform="translate(0 -3491.1)"/><path class="cls-2" d="M2117.42,3916.57h-6.8v16.59h-5.72v-16.59h-6.76v-5.4h19.28Z" transform="translate(0 -3491.1)"/><path class="cls-2" d="M2143.46,3922.17c0,6.75-4.32,11.47-10,11.47a8.33,8.33,0,0,1-7-3.44v13h-5.72v-32h5.72v3.08a8.32,8.32,0,0,1,7-3.56C2139.06,3910.69,2143.46,3915.37,2143.46,3922.17Zm-5.8,0c0-3.6-2.36-6-5.56-6s-5.64,2.44-5.64,6,2.44,6,5.64,6S2137.66,3925.8,2137.66,3922.17Z" transform="translate(0 -3491.1)"/><path class="cls-2" d="M2169.66,3923.64h-16.88a5.45,5.45,0,0,0,5.72,5.28,5.09,5.09,0,0,0,4.88-2.76h5.92c-1.64,5.2-6,7.48-10.76,7.48-6.88,0-11.6-4.88-11.6-11.43a11.13,11.13,0,0,1,11.48-11.52C2165.7,3910.69,2170.22,3916.41,2169.66,3923.64Zm-16.6-4.19h10.52a5.12,5.12,0,0,0-5.2-4A5.33,5.33,0,0,0,2153.06,3919.45Z" transform="translate(0 -3491.1)"/><path class="cls-2" d="M2188.26,3933.16l-9-9.6v9.6h-5.72v-22h5.72v9.16l8.36-9.16h7.28l-10,10.48,10.72,11.51Z" transform="translate(0 -3491.1)"/><path class="cls-2" d="M2219.74,3911.17v22H2214v-7.8l.36-6.51-9.08,14.31h-6.6v-22h5.72v7.8l-.28,6.43,9-14.23Z" transform="translate(0 -3491.1)"/><path class="cls-2" d="M2245.66,3911.17v22h-5.72v-8.48h-9.88v8.48h-5.72v-22h5.72v8.12h9.88v-8.12Z" transform="translate(0 -3491.1)"/><path class="cls-2" d="M2265.18,3916.57h-9.24v16.59h-5.72v-22h15Z" transform="translate(0 -3491.1)"/><path class="cls-2" d="M2290.26,3911.17l0,22h-5.72v-3a8.18,8.18,0,0,1-6.88,3.44c-5.76,0-10-4.72-10-11.47s4.36-11.48,10-11.48a8.26,8.26,0,0,1,7,3.56v-3.08Zm-5.72,11c0-3.6-2.44-6-5.64-6s-5.56,2.44-5.56,6,2.4,6,5.56,6S2284.54,3925.8,2284.54,3922.17Z" transform="translate(0 -3491.1)"/><path class="cls-2" d="M1864.14,3960.17v22h-5.72v-7.8l.36-6.51-9.08,14.31h-6.59v-22h5.71v7.8l-.28,6.43,9-14.23Z" transform="translate(0 -3491.1)"/><path class="cls-2" d="M1902.06,3960.17v22h-5.72v-8.48h-9.88v8.48h-5.72v-22h5.72v8.12h9.88v-8.12Z" transform="translate(0 -3491.1)"/><path class="cls-2" d="M1928.78,3960.17l0,22H1923v-3a8.18,8.18,0,0,1-6.88,3.44c-5.76,0-10-4.72-10-11.47s4.36-11.48,10-11.48a8.26,8.26,0,0,1,7,3.56v-3.08Zm-5.72,11c0-3.6-2.44-6-5.64-6s-5.56,2.44-5.56,6,2.4,6,5.56,6S1923.06,3974.8,1923.06,3971.17Z" transform="translate(0 -3491.1)"/><path class="cls-2" d="M1952.94,3975.84c0,4.52-4.08,6.8-9.84,6.8-7.16,0-10-3.36-10.8-7.88h5.8c.44,2.6,2,3.52,4.88,3.52s4.16-1,4.16-2.84c0-1.32-.64-2.36-3.2-2.36h-3.68v-4.39h3.08c2.4,0,3.12-.76,3.12-2.16s-1-2.6-3.76-2.6c-2,0-3.72.56-4.16,2.84h-5.8c.72-3.88,3.36-7.08,10-7.08,5.52,0,9.44,2.24,9.44,6.44a4.6,4.6,0,0,1-2.72,4.4A5.4,5.4,0,0,1,1952.94,3975.84Z" transform="translate(0 -3491.1)"/><path class="cls-2" d="M1979.06,3971.17a11.46,11.46,0,1,1-11.48-11.48A11.23,11.23,0,0,1,1979.06,3971.17Zm-17.16,0c0,3.63,2.48,6,5.68,6s5.68-2.4,5.68-6-2.48-6-5.68-6S1961.9,3967.57,1961.9,3971.17Z" transform="translate(0 -3491.1)"/><path class="cls-2" d="M2004.1,3960.17v22h-5.72v-7.8l.36-6.51-9.08,14.31h-6.6v-22h5.72v7.8l-.28,6.43,9-14.23Zm-17.24-9.12V3950h4.52v.92a2.2,2.2,0,0,0,4.4,0V3950h4.48v1.08c0,4-3.2,6.36-6.68,6.36S1986.86,3955.09,1986.86,3951.05Z" transform="translate(0 -3491.1)"/><path class="cls-2" d="M2030.5,3960.17v22h-5.72v-16.59h-5.68l-1.32,8c-1,6.52-3.8,9.08-7.8,9.08a14.85,14.85,0,0,1-2.68-.28v-5.16a9.62,9.62,0,0,0,1.48.12c2,0,2.8-.92,3.36-4.32l2.08-12.83Z" transform="translate(0 -3491.1)"/><path class="cls-2" d="M2056.1,3960.17v22h-5.72v-7.8l.36-6.51-9.08,14.31h-6.6v-22h5.72v7.8l-.28,6.43,9-14.23Z" transform="translate(0 -3491.1)"/><path class="cls-2" d="M2080.34,3975.8c0,4.52-3.48,6.36-8,6.36H2060.7v-22h10.64c4.4,0,7.88,1.16,7.88,5.56,0,2.28-1.2,3.48-2.84,4.56A5.3,5.3,0,0,1,2080.34,3975.8Zm-9.48-11.15h-4.44v4.24h4.44c2,0,2.6-.72,2.6-2.08S2072.82,3964.65,2070.86,3964.65Zm3.68,10.63c0-1.56-.72-2.32-2.64-2.32h-5.48v4.72h5.48C2073.9,3977.68,2074.54,3976.88,2074.54,3975.28Z" transform="translate(0 -3491.1)"/><path class="cls-2" d="M2106.5,3971.17a11.46,11.46,0,1,1-11.48-11.48A11.23,11.23,0,0,1,2106.5,3971.17Zm-17.16,0c0,3.63,2.48,6,5.68,6s5.68-2.4,5.68-6-2.48-6-5.68-6S2089.34,3967.57,2089.34,3971.17Z" transform="translate(0 -3491.1)"/><path class="cls-2" d="M2131.54,3960.17v22h-5.72v-7.8l.36-6.51-9.08,14.31h-6.6v-22h5.72v7.8l-.28,6.43,9-14.23Zm-17.24-9.12V3950h4.52v.92a2.2,2.2,0,0,0,4.4,0V3950h4.48v1.08c0,4-3.2,6.36-6.68,6.36S2114.3,3955.09,2114.3,3951.05Z" transform="translate(0 -3491.1)"/><path class="cls-2" d="M2171.06,3971.17c0,6.75-4.32,11.47-10,11.47a8.33,8.33,0,0,1-7-3.44v13h-5.72v-32h5.72v3.08a8.32,8.32,0,0,1,7-3.56C2166.66,3959.69,2171.06,3964.37,2171.06,3971.17Zm-5.8,0c0-3.6-2.36-6-5.56-6s-5.64,2.44-5.64,6,2.44,6,5.64,6S2165.26,3974.8,2165.26,3971.17Z" transform="translate(0 -3491.1)"/><path class="cls-2" d="M2197.26,3972.64h-16.88a5.45,5.45,0,0,0,5.72,5.28,5.09,5.09,0,0,0,4.88-2.76h5.92c-1.64,5.2-6,7.48-10.76,7.48-6.88,0-11.6-4.88-11.6-11.43a11.13,11.13,0,0,1,11.48-11.52C2193.3,3959.69,2197.82,3965.41,2197.26,3972.64Zm-16.6-4.19h10.52a5.12,5.12,0,0,0-5.2-4A5.33,5.33,0,0,0,2180.66,3968.45Z" transform="translate(0 -3491.1)"/><path class="cls-2" d="M2215.86,3982.16l-9-9.6v9.6h-5.72v-22h5.72v9.16l8.36-9.16h7.28l-10,10.48,10.72,11.51Z" transform="translate(0 -3491.1)"/><path class="cls-2" d="M2248.1,3960.17v22h-5.72v-16.59h-5.68l-1.32,8c-1,6.52-3.8,9.08-7.8,9.08a14.85,14.85,0,0,1-2.68-.28v-5.16a9.62,9.62,0,0,0,1.48.12c2,0,2.8-.92,3.36-4.32l2.08-12.83Z" transform="translate(0 -3491.1)"/><path class="cls-2" d="M2274.82,3960.17l0,22h-5.72v-3a8.18,8.18,0,0,1-6.88,3.44c-5.76,0-10-4.72-10-11.47s4.36-11.48,10-11.48a8.26,8.26,0,0,1,7,3.56v-3.08Zm-5.72,11c0-3.6-2.44-6-5.64-6s-5.56,2.44-5.56,6,2.4,6,5.56,6S2269.1,3974.8,2269.1,3971.17Z" transform="translate(0 -3491.1)"/><path class="cls-2" d="M2303.9,3960.17v22h-5.72v-7.8l.4-7.51-6.84,9.83h-.16l-6.84-9.83.36,7.51v7.8h-5.72v-22h6.6l5.68,7.84,5.68-7.84Z" transform="translate(0 -3491.1)"/><path class="cls-2" d="M2327.82,3974.2c0,5.76-4.12,8-8.2,8H2308.5v-22h5.72v6.44h5.6C2323.9,3966.61,2327.82,3968.45,2327.82,3974.2Zm-5.8,0c0-1.6-.64-2.56-2.56-2.56h-5.24v5.08h5.2C2321.34,3976.72,2322,3975.68,2322,3974.2Zm14.47-14v22h-5.71v-22Z" transform="translate(0 -3491.1)"/></svg>