<svg id="Layer_1" data-name="Layer 1" xmlns="http://www.w3.org/2000/svg" viewBox="0 0 372.78 109.24"><defs><style>.cls-1{fill:#71db3a;}.cls-2{fill:#fff;}</style></defs><rect class="cls-1" width="372.78" height="109.24" rx="43.51"/><path class="cls-2" d="M2038.8,177.28h-6.59v-26H2017.9v26h-6.59V145.05h27.49Z" transform="translate(-1979.37 -107.53)"/><path class="cls-2" d="M2070.7,164.62a13.19,13.19,0,1,1-13.21-13.22A12.93,12.93,0,0,1,2070.7,164.62Zm-19.75,0c0,4.18,2.85,6.95,6.54,6.95s6.53-2.77,6.53-6.95-2.85-7-6.53-7S2051,160.47,2051,164.62Z" transform="translate(-1979.37 -107.53)"/><path class="cls-2" d="M2104.63,171.06v12.61H2098v-6.39h-19v6.39h-6.58V171.06H2077c.87-.74,1.43-2.21,1.84-4.79l2.3-14.31H2100v19.1Zm-11.19,0V158.17h-6.72l-1.38,8.43a11.35,11.35,0,0,1-1.43,4.46Z" transform="translate(-1979.37 -107.53)"/><path class="cls-2" d="M2139.75,171.06v12.61h-6.58v-6.39h-19v6.39h-6.59V171.06h4.51c.88-.74,1.43-2.21,1.85-4.79l2.3-14.31h18.92v19.1Zm-11.18,0V158.17h-6.73l-1.38,8.43a11.53,11.53,0,0,1-1.42,4.46Z" transform="translate(-1979.37 -107.53)"/><path class="cls-2" d="M2168.29,166.32h-19.42a6.27,6.27,0,0,0,6.58,6.08,5.88,5.88,0,0,0,5.62-3.18h6.81c-1.89,6-7,8.61-12.38,8.61-7.92,0-13.35-5.62-13.35-13.17a12.81,12.81,0,0,1,13.21-13.26C2163.74,151.4,2168.94,158,2168.29,166.32Zm-19.1-4.83h12.11a5.89,5.89,0,0,0-6-4.65A6.13,6.13,0,0,0,2149.19,161.49Z" transform="translate(-1979.37 -107.53)"/><path class="cls-2" d="M2199.14,164.62c0,7.78-5,13.21-11.56,13.21a9.6,9.6,0,0,1-8-4v14.91H2173V152h6.58v3.54a9.58,9.58,0,0,1,8-4.1C2194.08,151.4,2199.14,156.79,2199.14,164.62Zm-6.68,0c0-4.15-2.71-7-6.39-7s-6.5,2.81-6.5,7,2.81,6.95,6.5,6.95S2192.46,168.8,2192.46,164.62Z" transform="translate(-1979.37 -107.53)"/><path class="cls-2" d="M2235.14,177.28l-10.36-11.05v11.05h-6.58V166.23l-10.36,11.05h-8.38L2211.75,164,2200.24,152h8.38l9.58,10.54V152h6.58V162.5l9.58-10.54h8.37L2231.23,164l12.29,13.26Z" transform="translate(-1979.37 -107.53)"/><path class="cls-2" d="M2270,152l0,25.32h-6.58v-3.41a9.42,9.42,0,0,1-7.92,4c-6.63,0-11.55-5.43-11.55-13.21s5-13.22,11.5-13.22a9.52,9.52,0,0,1,8,4.1V152Zm-6.58,12.66c0-4.15-2.81-7-6.5-7s-6.4,2.81-6.4,7,2.77,6.95,6.4,6.95S2263.41,168.8,2263.41,164.62Z" transform="translate(-1979.37 -107.53)"/><path class="cls-2" d="M2295.81,158.17H2288v19.11h-6.58V158.17h-7.79V152h22.19Z" transform="translate(-1979.37 -107.53)"/><path class="cls-2" d="M2321.69,168.11c0,6.63-4.7,9.17-9.4,9.17h-12.84l0-25.32H2306l0,7.41h6.45C2317.17,159.37,2321.69,161.49,2321.69,168.11Zm-6.63,0c0-1.84-.79-2.94-3-2.94h-6V171h6C2314.27,171,2315.06,169.82,2315.06,168.11Z" transform="translate(-1979.37 -107.53)"/></svg>