<svg id="Layer_2" data-name="Layer 2" xmlns="http://www.w3.org/2000/svg" viewBox="0 0 2480 572.61"><defs><style>.cls-1{fill:#71db3a;}.cls-2{fill:#fff;}</style></defs><rect class="cls-1" width="2480" height="572.61"/><path class="cls-2" d="M51.64,7617.94l16.18-16.25,6.84,6.9-9.42,9.35,9.42,9.35-6.84,6.91Zm20.37,0,16.25-16.25,6.77,6.9-9.42,9.35,9.42,9.35-6.77,6.91Z" transform="translate(0 -7390.95)"/><path class="cls-2" d="M143.38,7622.13c0,9.84-6.28,15.28-16.75,15.28h-21v-48.84h34.12v9.49H115.61v9.07h11.51C137.79,7607.13,143.38,7612.22,143.38,7622.13Zm-10-.14c0-3.91-1.88-5.72-6.56-5.72H115.61v11.65h10.67C131,7627.92,133.33,7625.9,133.33,7622Z" transform="translate(0 -7390.95)"/><path class="cls-2" d="M188.72,7620.8H159.28c.63,6.14,4.82,9.21,10,9.21,3.84,0,7.18-1.74,8.51-4.81h10.32c-2.86,9.07-10.53,13-18.76,13-12,0-20.23-8.51-20.23-19.95s8.3-20.09,20-20.09C181.82,7598.2,189.7,7608.18,188.72,7620.8Zm-28.95-7.32h18.35a8.94,8.94,0,0,0-9.07-7C164.17,7606.43,161,7609.36,159.77,7613.48Z" transform="translate(0 -7390.95)"/><path class="cls-2" d="M229.67,7626.38c0,7.89-7.11,11.86-17.16,11.86-12.49,0-17.44-5.86-18.83-13.74h10.11c.77,4.54,3.49,6.14,8.51,6.14s7.26-1.81,7.26-5c0-2.31-1.12-4.12-5.58-4.12h-6.42v-7.67h5.37c4.19,0,5.44-1.33,5.44-3.77,0-2.65-1.67-4.53-6.56-4.53-3.41,0-6.48,1-7.25,4.95H194.44c1.26-6.77,5.86-12.35,17.51-12.35,9.63,0,16.47,3.91,16.47,11.23a8,8,0,0,1-4.75,7.68A9.43,9.43,0,0,1,229.67,7626.38Z" transform="translate(0 -7390.95)"/><path class="cls-2" d="M294.27,7599v38.37h-10v-14.79H267.07v14.79h-10V7599h10v14.16H284.3V7599Z" transform="translate(0 -7390.95)"/><path class="cls-2" d="M340.88,7599l-.07,38.37h-10v-5.16a14.27,14.27,0,0,1-12,6c-10,0-17.51-8.23-17.51-20s7.6-20,17.44-20a14.41,14.41,0,0,1,12.14,6.21V7599Zm-10,19.18c0-6.28-4.26-10.53-9.84-10.53s-9.69,4.25-9.69,10.53,4.18,10.54,9.69,10.54S330.9,7624.57,330.9,7618.22Z" transform="translate(0 -7390.95)"/><path class="cls-2" d="M385.25,7637.41h-10v-28.95H358.81v28.95h-10V7599h36.42Z" transform="translate(0 -7390.95)"/><path class="cls-2" d="M426.9,7623.52c0,10-7.19,13.89-14.31,13.89H393.2V7599h10v11.23h9.76C420.06,7610.27,426.9,7613.48,426.9,7623.52Zm-10.12,0c0-2.79-1.12-4.46-4.47-4.46h-9.13v8.86h9.07C415.59,7627.92,416.78,7626.11,416.78,7623.52ZM442,7599v38.37h-10V7599Z" transform="translate(0 -7390.95)"/><path class="cls-2" d="M502.8,7599v38.37H450V7599h10V7628H471.4V7599h10V7628h11.44V7599Z" transform="translate(0 -7390.95)"/><path class="cls-2" d="M549.47,7620.8H520c.63,6.14,4.81,9.21,10,9.21,3.83,0,7.18-1.74,8.51-4.81h10.32c-2.86,9.07-10.53,13-18.76,13-12,0-20.23-8.51-20.23-19.95s8.3-20.09,20-20.09C542.56,7598.2,550.45,7608.18,549.47,7620.8Zm-29-7.32h18.35a8.94,8.94,0,0,0-9.07-7C524.91,7606.43,521.77,7609.36,520.52,7613.48Z" transform="translate(0 -7390.95)"/><path class="cls-2" d="M593.42,7599v38.37h-10v-14.79H566.21v14.79h-10V7599h10v14.16h17.24V7599Z" transform="translate(0 -7390.95)"/><path class="cls-2" d="M638.56,7599v38.37h-10v-14.79H611.35v14.79h-10V7599h10v14.16h17.23V7599Z" transform="translate(0 -7390.95)"/><path class="cls-2" d="M680.21,7623.52c0,10-7.19,13.89-14.3,13.89h-19.4V7599h10v11.23h9.77C673.37,7610.27,680.21,7613.48,680.21,7623.52Zm-10.12,0c0-2.79-1.11-4.46-4.46-4.46h-9.14v8.86h9.07C668.91,7627.92,670.09,7626.11,670.09,7623.52ZM695.35,7599v38.37h-10V7599Z" transform="translate(0 -7390.95)"/><path class="cls-2" d="M728.21,7637.41l-7.89-12.07-7.46,12.07h-12l13.53-19.82L701.56,7599h11.86l7.25,11.23,6.77-11.23h12l-12.84,18.83,13.47,19.54Z" transform="translate(0 -7390.95)"/><path class="cls-2" d="M834.73,7618.22c0,11.79-7.53,20-17.51,20a14.51,14.51,0,0,1-12.07-6v21.48h-10v-21.48a14.5,14.5,0,0,1-12.07,6c-10.05,0-17.51-8.23-17.51-20s7.6-20,17.44-20a14.45,14.45,0,0,1,12.14,6.14v-20.65h10v20.65a14.37,14.37,0,0,1,12.14-6.14C827.13,7598.2,834.73,7606.36,834.73,7618.22Zm-39.55,0c0-6.28-4.26-10.53-9.84-10.53s-9.69,4.25-9.69,10.53,4.18,10.54,9.69,10.54S795.18,7624.57,795.18,7618.22Zm29.44,0c0-6.28-4-10.53-9.63-10.53s-9.84,4.25-9.84,10.53,4.26,10.54,9.84,10.54S824.62,7624.57,824.62,7618.22Z" transform="translate(0 -7390.95)"/><path class="cls-2" d="M881.76,7618.22c0,11.79-7.54,20-17.51,20a14.52,14.52,0,0,1-12.14-6v22.6h-10V7599h10v5.37a14.49,14.49,0,0,1,12.14-6.21C874.08,7598.2,881.76,7606.36,881.76,7618.22Zm-10.12,0c0-6.28-4.12-10.53-9.7-10.53s-9.83,4.25-9.83,10.53,4.25,10.54,9.83,10.54S871.64,7624.57,871.64,7618.22Z" transform="translate(0 -7390.95)"/><path class="cls-2" d="M927.38,7599l-.07,38.37h-10v-5.16a14.29,14.29,0,0,1-12,6c-10.05,0-17.51-8.23-17.51-20s7.6-20,17.44-20a14.39,14.39,0,0,1,12.13,6.21V7599Zm-10,19.18c0-6.28-4.25-10.53-9.83-10.53s-9.7,4.25-9.7,10.53,4.19,10.54,9.7,10.54S917.4,7624.57,917.4,7618.22Z" transform="translate(0 -7390.95)"/><path class="cls-2" d="M969.52,7626.38c0,7.89-7.12,11.86-17.16,11.86-12.49,0-17.44-5.86-18.84-13.74h10.12c.76,4.54,3.49,6.14,8.51,6.14s7.25-1.81,7.25-5c0-2.31-1.11-4.12-5.58-4.12H947.4v-7.67h5.38c4.18,0,5.44-1.33,5.44-3.77,0-2.65-1.68-4.53-6.56-4.53-3.42,0-6.49,1-7.26,4.95H934.29c1.25-6.77,5.86-12.35,17.51-12.35,9.63,0,16.46,3.91,16.46,11.23a8,8,0,0,1-4.74,7.68A9.43,9.43,0,0,1,969.52,7626.38Z" transform="translate(0 -7390.95)"/><path class="cls-2" d="M983.75,7649.41h-6.42l5.31-11.51a5.51,5.51,0,0,1-3.7-5.45,5.88,5.88,0,0,1,6.14-6.07c2.58,0,6.28,1.33,6.28,6.49C991.36,7634.41,991.08,7636.85,983.75,7649.41Z" transform="translate(0 -7390.95)"/><path class="cls-2" d="M1057.91,7637.41h-10v-28.95h-16.46v28.95h-10V7599h36.42Z" transform="translate(0 -7390.95)"/><path class="cls-2" d="M1105.84,7618.22c0,11.79-7.54,20-17.51,20a14.52,14.52,0,0,1-12.14-6v22.6h-10V7599h10v5.37a14.49,14.49,0,0,1,12.14-6.21C1098.16,7598.2,1105.84,7606.36,1105.84,7618.22Zm-10.12,0c0-6.28-4.12-10.53-9.7-10.53s-9.83,4.25-9.83,10.53,4.25,10.54,9.83,10.54S1095.72,7624.57,1095.72,7618.22Z" transform="translate(0 -7390.95)"/><path class="cls-2" d="M1151.88,7618.22a20,20,0,1,1-20-20A19.59,19.59,0,0,1,1151.88,7618.22Zm-29.93,0c0,6.35,4.33,10.54,9.91,10.54s9.9-4.19,9.9-10.54-4.32-10.53-9.9-10.53S1122,7611.94,1122,7618.22Z" transform="translate(0 -7390.95)"/><path class="cls-2" d="M1227.09,7618.22c0,11.79-7.54,20-17.52,20a14.48,14.48,0,0,1-12.06-6v21.48h-10v-21.48a14.5,14.5,0,0,1-12.07,6c-10,0-17.51-8.23-17.51-20s7.6-20,17.44-20a14.45,14.45,0,0,1,12.14,6.14v-20.65h10v20.65a14.34,14.34,0,0,1,12.13-6.14C1219.48,7598.2,1227.09,7606.36,1227.09,7618.22Zm-39.56,0c0-6.28-4.26-10.53-9.84-10.53s-9.69,4.25-9.69,10.53,4.18,10.54,9.69,10.54S1187.53,7624.57,1187.53,7618.22Zm29.44,0c0-6.28-4-10.53-9.63-10.53s-9.83,4.25-9.83,10.53,4.25,10.54,9.83,10.54S1217,7624.57,1217,7618.22Z" transform="translate(0 -7390.95)"/><path class="cls-2" d="M1272.85,7620.8h-29.44c.63,6.14,4.81,9.21,10,9.21,3.83,0,7.18-1.74,8.51-4.81h10.32c-2.86,9.07-10.53,13-18.76,13-12,0-20.23-8.51-20.23-19.95s8.3-20.09,20-20.09C1265.94,7598.2,1273.83,7608.18,1272.85,7620.8Zm-28.95-7.32h18.35a8.94,8.94,0,0,0-9.07-7C1248.29,7606.43,1245.16,7609.36,1243.9,7613.48Z" transform="translate(0 -7390.95)"/><path class="cls-2" d="M1278.71,7618.22c0-11.37,8.44-20,20-20,9.35,0,17.65,5.65,19.12,15.42h-10.26c-1.18-4.19-4.81-6.21-8.86-6.21-6.06,0-10,4.46-9.9,10.81s4,10.82,9.83,10.82c4.12,0,7.75-2.1,8.93-6.28h10.26c-1.54,10.11-10,15.48-19.19,15.48C1287.15,7638.24,1278.71,7629.59,1278.71,7618.22Z" transform="translate(0 -7390.95)"/><path class="cls-2" d="M1323.29,7618.22c0-11.37,8.44-20,20-20,9.35,0,17.65,5.65,19.12,15.42h-10.26c-1.18-4.19-4.81-6.21-8.86-6.21-6.07,0-10,4.46-9.9,10.81s4,10.82,9.83,10.82c4.12,0,7.75-2.1,8.93-6.28h10.26c-1.54,10.11-10,15.48-19.19,15.48C1331.73,7638.24,1323.29,7629.59,1323.29,7618.22Z" transform="translate(0 -7390.95)"/><path class="cls-2" d="M1405.47,7599v38.37h-10V7623.8l.62-11.37-15.83,25h-11.51V7599h10v13.6l-.49,11.23L1394,7599Z" transform="translate(0 -7390.95)"/><path class="cls-2" d="M1452.56,7618.22a20,20,0,1,1-20-20A19.59,19.59,0,0,1,1452.56,7618.22Zm-29.93,0c0,6.35,4.33,10.54,9.91,10.54s9.91-4.19,9.91-10.54-4.33-10.53-9.91-10.53S1422.63,7611.94,1422.63,7618.22Z" transform="translate(0 -7390.95)"/><path class="cls-2" d="M1496.72,7599v38.37h-10v-14.79h-17.23v14.79h-10V7599h10v14.16h17.23V7599Z" transform="translate(0 -7390.95)"/><path class="cls-2" d="M1543.33,7599l-.07,38.37h-10v-5.16a14.27,14.27,0,0,1-12,6c-10,0-17.51-8.23-17.51-20s7.6-20,17.44-20a14.41,14.41,0,0,1,12.14,6.21V7599Zm-10,19.18c0-6.28-4.26-10.53-9.84-10.53s-9.69,4.25-9.69,10.53,4.18,10.54,9.69,10.54S1533.35,7624.57,1533.35,7618.22Z" transform="translate(0 -7390.95)"/><path class="cls-2" d="M1589,7599v38.37h-10v-28.95h-9.91l-2.3,13.95c-1.82,11.37-6.63,15.83-13.61,15.83a25.77,25.77,0,0,1-4.67-.48v-9a16.7,16.7,0,0,0,2.58.21c3.42,0,4.88-1.61,5.86-7.54l3.63-22.39Z" transform="translate(0 -7390.95)"/><path class="cls-2" d="M1633.67,7599v38.37h-10V7623.8l.62-11.37-15.83,25H1597V7599h10v13.6l-.49,11.23,15.77-24.83Z" transform="translate(0 -7390.95)"/><path class="cls-2" d="M1675.88,7626.38c0,7.89-7.12,11.86-17.16,11.86-12.49,0-17.44-5.86-18.84-13.74H1650c.76,4.54,3.48,6.14,8.51,6.14s7.25-1.81,7.25-5c0-2.31-1.11-4.12-5.58-4.12h-6.42v-7.67h5.37c4.19,0,5.45-1.33,5.45-3.77,0-2.65-1.68-4.53-6.56-4.53-3.42,0-6.49,1-7.26,4.95h-10.11c1.25-6.77,5.86-12.35,17.51-12.35,9.63,0,16.46,3.91,16.46,11.23a8,8,0,0,1-4.74,7.68A9.43,9.43,0,0,1,1675.88,7626.38Z" transform="translate(0 -7390.95)"/><path class="cls-2" d="M1725.13,7599v38.37h-10V7623.8l.69-13.11-11.93,17.16h-.28l-11.92-17.16.62,13.11v13.61h-10V7599h11.51l9.9,13.67,9.91-13.67Z" transform="translate(0 -7390.95)"/><path class="cls-2" d="M1771.8,7599l-.07,38.37h-10v-5.16a14.27,14.27,0,0,1-12,6c-10,0-17.51-8.23-17.51-20s7.6-20,17.44-20a14.41,14.41,0,0,1,12.14,6.21V7599Zm-10,19.18c0-6.28-4.26-10.53-9.84-10.53s-9.7,4.25-9.7,10.53,4.19,10.54,9.7,10.54S1761.83,7624.57,1761.83,7618.22Z" transform="translate(0 -7390.95)"/><path class="cls-2" d="M1837.38,7599v38.37h-10V7623.8l.62-11.37-15.83,25h-11.51V7599h10v13.6l-.49,11.23,15.77-24.83Z" transform="translate(0 -7390.95)"/><path class="cls-2" d="M1912.66,7628v19.11h-10v-9.69h-28.81v9.69h-10V7628h6.84c1.32-1.12,2.16-3.35,2.79-7.26L1877,7599h28.67V7628Zm-17,0v-19.53h-10.18l-2.09,12.76a17.46,17.46,0,0,1-2.17,6.77Z" transform="translate(0 -7390.95)"/><path class="cls-2" d="M1954.38,7599l-25,55.81h-10.6l10-22.54L1914.05,7599h10.61l9.49,22.46,9.55-22.46Z" transform="translate(0 -7390.95)"/><path class="cls-2" d="M2012.63,7599v38.37h-52.81V7599h10V7628h11.45V7599h10V7628h11.44V7599Z" transform="translate(0 -7390.95)"/><path class="cls-2" d="M2057.77,7599v38.37h-10v-14.79h-17.23v14.79h-10V7599h10v14.16h17.23V7599Z" transform="translate(0 -7390.95)"/><path class="cls-2" d="M2104.79,7618.22a20,20,0,1,1-20-20A19.59,19.59,0,0,1,2104.79,7618.22Zm-29.93,0c0,6.35,4.32,10.54,9.9,10.54s9.91-4.19,9.91-10.54-4.32-10.53-9.91-10.53S2074.86,7611.94,2074.86,7618.22Z" transform="translate(0 -7390.95)"/><path class="cls-2" d="M2142.53,7608.46h-11.86v28.95h-10v-28.95H2108.9V7599h33.63Z" transform="translate(0 -7390.95)"/><path class="cls-2" d="M2181.67,7623.52c0,10-7.19,13.89-14.3,13.89H2148V7599h10v11.23h9.76C2174.83,7610.27,2181.67,7613.48,2181.67,7623.52Zm-10.12,0c0-2.79-1.12-4.46-4.46-4.46H2158v8.86H2167C2170.36,7627.92,2171.55,7626.11,2171.55,7623.52ZM2196.8,7599v38.37h-10V7599Z" transform="translate(0 -7390.95)"/><path class="cls-2" d="M2218.5,7632.31a6.22,6.22,0,1,1-6.21-5.93A5.91,5.91,0,0,1,2218.5,7632.31Z" transform="translate(0 -7390.95)"/><path class="cls-2" d="M133.5,7733.69l-18.34-22.81v22.81h-10v-48.83h10v21.62l17.37-21.62h12.34l-19.18,23.64,20.3,25.19Z" transform="translate(0 -7390.95)"/><path class="cls-2" d="M186.38,7714.5a20,20,0,1,1-20-20A19.6,19.6,0,0,1,186.38,7714.5Zm-29.92,0c0,6.35,4.32,10.54,9.9,10.54s9.91-4.19,9.91-10.54-4.33-10.53-9.91-10.53S156.46,7708.23,156.46,7714.5Z" transform="translate(0 -7390.95)"/><path class="cls-2" d="M233.34,7714.5c0,11.79-7.54,20-17.51,20a14.53,14.53,0,0,1-12.14-6v22.6h-10v-55.81h10v5.37a14.49,14.49,0,0,1,12.14-6.21C225.66,7694.48,233.34,7702.64,233.34,7714.5Zm-10.12,0c0-6.27-4.12-10.53-9.7-10.53s-9.83,4.26-9.83,10.53,4.25,10.54,9.83,10.54S223.22,7720.85,223.22,7714.5Z" transform="translate(0 -7390.95)"/><path class="cls-2" d="M279.38,7714.5a20,20,0,1,1-20-20A19.6,19.6,0,0,1,279.38,7714.5Zm-29.93,0c0,6.35,4.33,10.54,9.91,10.54s9.9-4.19,9.9-10.54-4.32-10.53-9.9-10.53S249.45,7708.23,249.45,7714.5Z" transform="translate(0 -7390.95)"/><path class="cls-2" d="M320,7695.32v38.37H310v-12.35a22.76,22.76,0,0,1-8.86,1.68c-8.17,0-15.42-3.28-15.42-13.89v-13.81h10v11.23c0,5.23,1.54,7.47,7.4,7.47a15.07,15.07,0,0,0,6.91-1.4v-17.3Z" transform="translate(0 -7390.95)"/><path class="cls-2" d="M366.72,7717.09H337.28c.63,6.13,4.82,9.2,10,9.2,3.84,0,7.18-1.74,8.51-4.81H366.1c-2.86,9.07-10.54,13.05-18.77,13.05-12,0-20.23-8.51-20.23-20s8.3-20.09,20-20.09C359.82,7694.48,367.7,7704.46,366.72,7717.09Zm-29-7.33h18.35a9,9,0,0,0-9.07-7.05C342.17,7702.71,339,7705.64,337.77,7709.76Z" transform="translate(0 -7390.95)"/><path class="cls-2" d="M420.51,7704.74H404.4v28.95h-10v-38.37h26.09Z" transform="translate(0 -7390.95)"/><path class="cls-2" d="M464.67,7714.5a20,20,0,1,1-20-20A19.6,19.6,0,0,1,464.67,7714.5Zm-29.93,0c0,6.35,4.33,10.54,9.91,10.54s9.91-4.19,9.91-10.54-4.33-10.53-9.91-10.53S434.74,7708.23,434.74,7714.5Z" transform="translate(0 -7390.95)"/><path class="cls-2" d="M505.9,7722.6c0,7.88-6.07,11.09-13.95,11.09h-20.3v-38.37h18.56c7.67,0,13.74,2,13.74,9.7,0,4-2.09,6.07-4.95,7.95C503.46,7714.29,505.9,7717.71,505.9,7722.6Zm-16.53-19.47h-7.75v7.4h7.75c3.42,0,4.53-1.26,4.53-3.63S492.79,7703.13,489.37,7703.13Zm6.42,18.56c0-2.72-1.26-4-4.61-4h-9.56v8.24h9.56C494.67,7725.88,495.79,7724.48,495.79,7721.69Z" transform="translate(0 -7390.95)"/><path class="cls-2" d="M551.53,7714.5a20,20,0,1,1-20-20A19.6,19.6,0,0,1,551.53,7714.5Zm-29.93,0c0,6.35,4.32,10.54,9.9,10.54s9.91-4.19,9.91-10.54S537.09,7704,531.5,7704,521.6,7708.23,521.6,7714.5Z" transform="translate(0 -7390.95)"/><path class="cls-2" d="M598.48,7714.5c0,11.79-7.54,20-17.51,20a14.54,14.54,0,0,1-12.14-6v22.6h-10v-55.81h10v5.37a14.5,14.5,0,0,1,12.14-6.21C590.8,7694.48,598.48,7702.64,598.48,7714.5Zm-10.12,0c0-6.27-4.11-10.53-9.69-10.53s-9.84,4.26-9.84,10.53,4.25,10.54,9.84,10.54S588.36,7720.85,588.36,7714.5Z" transform="translate(0 -7390.95)"/><path class="cls-2" d="M638.1,7695.32v38.37h-10V7720.5H623l-8.86,13.19H601.9l10.53-14.16c-4.67-1.47-8.44-4.75-8.44-11.09,0-9.56,7.12-13.12,14.23-13.12Zm-10,17v-8h-9.28c-3.49,0-4.74,1.67-4.74,4.05s1.53,4,4.81,4Z" transform="translate(0 -7390.95)"/><path class="cls-2" d="M653.8,7745.69h-6.42l5.31-11.51a5.5,5.5,0,0,1-3.7-5.44,5.88,5.88,0,0,1,6.14-6.07c2.58,0,6.28,1.32,6.28,6.49C661.41,7730.69,661.13,7733.13,653.8,7745.69Z" transform="translate(0 -7390.95)"/><path class="cls-2" d="M728,7733.69H718v-28.95H701.52v28.95h-10v-38.37H728Z" transform="translate(0 -7390.95)"/><path class="cls-2" d="M775.89,7714.5c0,11.79-7.54,20-17.51,20a14.53,14.53,0,0,1-12.14-6v22.6h-10v-55.81h10v5.37a14.49,14.49,0,0,1,12.14-6.21C768.21,7694.48,775.89,7702.64,775.89,7714.5Zm-10.12,0c0-6.27-4.12-10.53-9.7-10.53s-9.83,4.26-9.83,10.53,4.25,10.54,9.83,10.54S765.77,7720.85,765.77,7714.5Z" transform="translate(0 -7390.95)"/><path class="cls-2" d="M821.93,7714.5a20,20,0,1,1-20-20A19.6,19.6,0,0,1,821.93,7714.5Zm-29.93,0c0,6.35,4.33,10.54,9.91,10.54s9.9-4.19,9.9-10.54-4.32-10.53-9.9-10.53S792,7708.23,792,7714.5Z" transform="translate(0 -7390.95)"/><path class="cls-2" d="M828,7714.5c0-11.37,8.44-20,20-20,9.35,0,17.65,5.65,19.12,15.42H856.88c-1.18-4.19-4.81-6.21-8.86-6.21-6.07,0-10,4.47-9.9,10.81s4,10.82,9.83,10.82c4.12,0,7.75-2.1,8.93-6.28h10.26c-1.54,10.12-10,15.49-19.19,15.49C836.44,7734.53,828,7725.88,828,7714.5Z" transform="translate(0 -7390.95)"/><path class="cls-2" d="M904.25,7704.74H892.39v28.95h-10v-28.95H870.63v-9.42h33.62Z" transform="translate(0 -7390.95)"/><path class="cls-2" d="M948.34,7714.5a20,20,0,1,1-20-20A19.6,19.6,0,0,1,948.34,7714.5Zm-29.93,0c0,6.35,4.33,10.54,9.91,10.54s9.91-4.19,9.91-10.54S933.9,7704,928.32,7704,918.41,7708.23,918.41,7714.5Z" transform="translate(0 -7390.95)"/><path class="cls-2" d="M994,7717.09H964.6c.63,6.13,4.81,9.2,10,9.2,3.84,0,7.19-1.74,8.52-4.81h10.32c-2.86,9.07-10.53,13.05-18.77,13.05-12,0-20.23-8.51-20.23-20s8.3-20.09,20-20.09C987.13,7694.48,995,7704.46,994,7717.09Zm-28.95-7.33h18.34a8.93,8.93,0,0,0-9.06-7.05C969.48,7702.71,966.34,7705.64,965.09,7709.76Z" transform="translate(0 -7390.95)"/><path class="cls-2" d="M1061.71,7714.5c0,11.79-7.54,20-17.51,20a14.54,14.54,0,0,1-12.14-6v22.6h-10v-55.81h10v5.37a14.5,14.5,0,0,1,12.14-6.21C1054,7694.48,1061.71,7702.64,1061.71,7714.5Zm-10.12,0c0-6.27-4.11-10.53-9.69-10.53s-9.84,4.26-9.84,10.53,4.25,10.54,9.84,10.54S1051.59,7720.85,1051.59,7714.5Z" transform="translate(0 -7390.95)"/><path class="cls-2" d="M1107.4,7717.09H1078c.63,6.13,4.82,9.2,10,9.2,3.84,0,7.19-1.74,8.51-4.81h10.33c-2.86,9.07-10.54,13.05-18.77,13.05-12,0-20.23-8.51-20.23-20s8.3-20.09,20-20.09C1100.5,7694.48,1108.38,7704.46,1107.4,7717.09Zm-29-7.33h18.35a9,9,0,0,0-9.07-7.05C1082.85,7702.71,1079.71,7705.64,1078.45,7709.76Z" transform="translate(0 -7390.95)"/><path class="cls-2" d="M1167,7695.32v38.37h-52.81v-38.37h10v29h11.44v-29h10v29H1157v-29Z" transform="translate(0 -7390.95)"/><path class="cls-2" d="M1213.65,7717.09h-29.44c.63,6.13,4.82,9.2,10,9.2,3.84,0,7.19-1.74,8.51-4.81H1213c-2.86,9.07-10.54,13.05-18.77,13.05-12,0-20.23-8.51-20.23-20s8.3-20.09,20-20.09C1206.75,7694.48,1214.63,7704.46,1213.65,7717.09Zm-29-7.33h18.35a9,9,0,0,0-9.07-7.05C1189.1,7702.71,1186,7705.64,1184.7,7709.76Z" transform="translate(0 -7390.95)"/><path class="cls-2" d="M1257.61,7695.32v38.37h-10V7718.9H1230.4v14.79h-10v-38.37h10v14.16h17.23v-14.16Z" transform="translate(0 -7390.95)"/><path class="cls-2" d="M1302.25,7695.32v38.37h-10v-13.6l.63-11.38-15.84,25h-11.51v-38.37h10v13.6l-.49,11.24,15.76-24.84Z" transform="translate(0 -7390.95)"/><path class="cls-2" d="M1349,7717.09h-29.44c.62,6.13,4.81,9.2,10,9.2,3.84,0,7.19-1.74,8.51-4.81h10.33c-2.86,9.07-10.54,13.05-18.77,13.05-12,0-20.23-8.51-20.23-20s8.3-20.09,20-20.09C1342.09,7694.48,1350,7704.46,1349,7717.09Zm-29-7.33h18.35a8.93,8.93,0,0,0-9.07-7.05C1324.44,7702.71,1321.3,7705.64,1320,7709.76Z" transform="translate(0 -7390.95)"/><path class="cls-2" d="M1415.76,7714.5a20,20,0,1,1-20-20A19.6,19.6,0,0,1,1415.76,7714.5Zm-29.93,0c0,6.35,4.33,10.54,9.91,10.54s9.9-4.19,9.9-10.54-4.32-10.53-9.9-10.53S1385.83,7708.23,1385.83,7714.5Z" transform="translate(0 -7390.95)"/><path class="cls-2" d="M1461.59,7714.85c0,11.93-8.51,19.68-19.46,19.68-10.6,0-20.3-7.05-20.3-24.56,0-26.51,14.44-30.84,34.81-30.84v9.35c-16.11,0-23.86,2.17-24.69,14.93,2.58-4.6,7.46-6.9,12.69-6.9C1454.13,7696.51,1461.59,7703.76,1461.59,7714.85Zm-10,.56c0-6.28-4.19-10.39-9.7-10.39s-10,4.11-10,10.39,4.32,10.54,9.83,10.54S1451.62,7721.83,1451.62,7715.41Z" transform="translate(0 -7390.95)"/><path class="cls-2" d="M1502.27,7719.81c0,10-7.19,13.88-14.3,13.88h-19.4v-38.37h10v11.23h9.76C1495.43,7706.55,1502.27,7709.76,1502.27,7719.81Zm-10.12,0c0-2.79-1.11-4.47-4.46-4.47h-9.14v8.86h9.07C1491,7724.2,1492.15,7722.39,1492.15,7719.81Zm25.26-24.49v38.37h-10v-38.37Z" transform="translate(0 -7390.95)"/><path class="cls-2" d="M1571.4,7724.27v19.12h-10v-9.7h-28.81v9.7h-10v-19.12h6.84c1.32-1.11,2.16-3.35,2.79-7.25l3.48-21.7h28.68v29Zm-17,0v-19.53h-10.18l-2.1,12.76a17.42,17.42,0,0,1-2.16,6.77Z" transform="translate(0 -7390.95)"/><path class="cls-2" d="M1614.66,7717.09h-29.44c.63,6.13,4.81,9.2,10,9.2,3.84,0,7.19-1.74,8.52-4.81H1614c-2.86,9.07-10.53,13.05-18.77,13.05-12,0-20.23-8.51-20.23-20s8.3-20.09,20-20.09C1607.75,7694.48,1615.63,7704.46,1614.66,7717.09Zm-29-7.33h18.34a8.93,8.93,0,0,0-9.07-7.05C1590.1,7702.71,1587,7705.64,1585.71,7709.76Z" transform="translate(0 -7390.95)"/><path class="cls-2" d="M1658.61,7695.32v38.37h-10V7718.9H1631.4v14.79h-10v-38.37h10v14.16h17.23v-14.16Z" transform="translate(0 -7390.95)"/><path class="cls-2" d="M1703.75,7695.32v38.37h-10V7718.9h-17.23v14.79h-10v-38.37h10v14.16h17.23v-14.16Z" transform="translate(0 -7390.95)"/><path class="cls-2" d="M1750.77,7714.5a20,20,0,1,1-20-20A19.6,19.6,0,0,1,1750.77,7714.5Zm-29.93,0c0,6.35,4.32,10.54,9.91,10.54s9.9-4.19,9.9-10.54-4.32-10.53-9.9-10.53S1720.84,7708.23,1720.84,7714.5Z" transform="translate(0 -7390.95)"/><path class="cls-2" d="M1794.44,7695.32v38.37h-10v-13.6l.63-11.38-15.84,25h-11.51v-38.37h10v13.6l-.49,11.24,15.77-24.84Zm-30.07-15.91v-1.88h7.88v1.6a3.84,3.84,0,0,0,7.68,0v-1.6h7.81v1.88c0,7.05-5.58,11.1-11.65,11.1S1764.37,7686.46,1764.37,7679.41Z" transform="translate(0 -7390.95)"/><path class="cls-2" d="M1859.81,7733.69h-10v-28.95h-16.46v28.95h-10v-38.37h36.42Z" transform="translate(0 -7390.95)"/><path class="cls-2" d="M1907.74,7714.5c0,11.79-7.54,20-17.52,20a14.52,14.52,0,0,1-12.13-6v22.6h-10v-55.81h10v5.37a14.49,14.49,0,0,1,12.13-6.21C1900.06,7694.48,1907.74,7702.64,1907.74,7714.5Zm-10.12,0c0-6.27-4.12-10.53-9.7-10.53s-9.83,4.26-9.83,10.53,4.25,10.54,9.83,10.54S1897.62,7720.85,1897.62,7714.5Z" transform="translate(0 -7390.95)"/><path class="cls-2" d="M1953.78,7714.5a20,20,0,1,1-20-20A19.6,19.6,0,0,1,1953.78,7714.5Zm-29.93,0c0,6.35,4.32,10.54,9.91,10.54s9.9-4.19,9.9-10.54-4.32-10.53-9.9-10.53S1923.85,7708.23,1923.85,7714.5Z" transform="translate(0 -7390.95)"/><path class="cls-2" d="M1999.61,7714.85c0,11.93-8.51,19.68-19.46,19.68-10.6,0-20.3-7.05-20.3-24.56,0-26.51,14.44-30.84,34.81-30.84v9.35c-16.12,0-23.86,2.17-24.7,14.93,2.59-4.6,7.47-6.9,12.7-6.9C1992.15,7696.51,1999.61,7703.76,1999.61,7714.85Zm-10,.56c0-6.28-4.19-10.39-9.7-10.39s-10,4.11-10,10.39,4.33,10.54,9.84,10.54S1989.64,7721.83,1989.64,7715.41Z" transform="translate(0 -7390.95)"/><path class="cls-2" d="M2042.87,7695.32v38.37h-10v-28.95H2023l-2.31,13.95c-1.81,11.37-6.62,15.84-13.6,15.84a25.68,25.68,0,0,1-4.67-.49v-9a16.6,16.6,0,0,0,2.58.21c3.41,0,4.88-1.61,5.86-7.54l3.62-22.39Z" transform="translate(0 -7390.95)"/><path class="cls-2" d="M2089.54,7717.09H2060.1c.63,6.13,4.81,9.2,10,9.2,3.83,0,7.18-1.74,8.51-4.81h10.32c-2.86,9.07-10.53,13.05-18.76,13.05-12,0-20.23-8.51-20.23-20s8.3-20.09,20-20.09C2082.63,7694.48,2090.52,7704.46,2089.54,7717.09Zm-28.95-7.33h18.35a9,9,0,0,0-9.07-7.05C2065,7702.71,2061.84,7705.64,2060.59,7709.76Z" transform="translate(0 -7390.95)"/><path class="cls-2" d="M2139.07,7695.32v38.37h-10v-13.6l.69-13.12-11.92,17.16h-.28L2105.66,7707l.63,13.12v13.6h-10v-38.37h11.51l9.91,13.67,9.9-13.67Z" transform="translate(0 -7390.95)"/><path class="cls-2" d="M2180.79,7719.81c0,10-7.18,13.88-14.3,13.88H2147.1v-38.37h10v11.23h9.77C2174,7706.55,2180.79,7709.76,2180.79,7719.81Zm-10.11,0c0-2.79-1.12-4.47-4.47-4.47h-9.14v8.86h9.07C2169.49,7724.2,2170.68,7722.39,2170.68,7719.81Zm25.25-24.49v38.37h-10v-38.37Z" transform="translate(0 -7390.95)"/><path class="cls-2" d="M2205.21,7723.57l9.42-9.34-9.42-9.35L2212,7698l16.25,16.26L2212,7730.48Zm20.37,0,9.42-9.34-9.42-9.35,6.77-6.91,16.25,16.26-16.25,16.25Z" transform="translate(0 -7390.95)"/></svg>