<svg id="Layer_1" data-name="Layer 1" xmlns="http://www.w3.org/2000/svg" viewBox="0 0 1153.49 163.32"><path d="M2448.23-7247.93c0,6.61-5.61,11.72-16,11.72-11.21,0-17.25-5-18.83-13.3h3.81c1.72,7,6.83,10.14,14.88,10.14,8.48,0,12.29-4,12.29-8.85,0-3.45-1.58-7.83-9.49-7.83h-8.63v-3.09h6.62c7.91,0,10.21-3.09,10.21-6.83,0-4.24-3.17-8.2-11.58-8.2-5.75,0-11.07,2.09-12.79,7.62h-3.88c1.72-6.9,7.69-10.78,16.82-10.78,10.2,0,15.31,5,15.31,11.14,0,3.81-1.87,6.69-6,8.27C2446.36-7256.41,2448.23-7252,2448.23-7247.93Z" transform="translate(-2413.44 7296.09)"/><path d="M2500.34-7240.6v14.45h-3.8V-7237h-41.12v10.85h-3.81v-14.45h6.61c2.59-1.65,4.39-5.89,5.82-14.95l3.38-21h25.74v35.94Zm-11,0v-32.34h-18.69l-2.88,17.46c-1.15,7.7-2.8,12.37-5,14.88Z" transform="translate(-2413.44 7296.09)"/><path d="M2544.05-7255.55H2508.4c.43,9.78,7.18,15.67,16.38,15.67,6.26,0,11.58-2.66,14.24-7.83H2543c-3.23,7.69-10.35,11.5-18.26,11.5-11.64,0-20.2-8.2-20.2-20.42,0-12.07,8.41-20.7,20-20.7C2536.65-7277.33,2544.27-7268.34,2544.05-7255.55Zm-35.58-3.59H2540c-.93-8.48-6.82-14.59-15.52-14.59S2509.47-7267.62,2508.47-7259.14Z" transform="translate(-2413.44 7296.09)"/><path d="M2551.52-7256.77c0-11.86,8.92-20.56,20.35-20.56,8.91,0,16.46,5.39,18.9,13.95h-4a15.33,15.33,0,0,0-14.88-10.35c-9.35,0-16.54,7.18-16.54,17s7.19,17,16.47,17a15.45,15.45,0,0,0,14.95-10.35h4c-2.44,8.56-10.06,13.95-19,13.95C2560.44-7236.21,2551.52-7244.91,2551.52-7256.77Z" transform="translate(-2413.44 7296.09)"/><path d="M2631.6-7250.08c0,7.76-4.17,13.08-13.87,13.08H2600v-39.54h3.81v13.88h14.16C2627.65-7262.66,2631.6-7257.85,2631.6-7250.08Zm-3.81,0c0-5.18-1.94-9.13-9.92-9.13h-14.09v18.54h13.88C2625.64-7240.67,2627.79-7244.91,2627.79-7250.08Z" transform="translate(-2413.44 7296.09)"/><path d="M2691.84-7272.94h-14.38V-7237h-3.81v-35.94H2659.2v-3.6h32.64Z" transform="translate(-2413.44 7296.09)"/><path d="M2731.37-7250.08c0,7.76-4.24,13.08-13.94,13.08h-17.69v-39.54h3.81v13.88h14.16C2727.42-7262.66,2731.37-7257.85,2731.37-7250.08Zm-3.81,0c0-5.18-2-9.13-10-9.13h-14v18.54h13.88C2725.41-7240.67,2727.56-7244.91,2727.56-7250.08Zm14.38-26.46V-7237h-3.81v-39.54Z" transform="translate(-2413.44 7296.09)"/><path d="M2810.51-7276.54V-7237h-3.81v-18.48h-27.6V-7237h-3.81v-39.54h3.81v17.47h27.6v-17.47Z" transform="translate(-2413.44 7296.09)"/><path d="M2859.54-7276.54V-7237h-3.81v-9.42a18.18,18.18,0,0,1-16.54,10.21c-11.07,0-18.76-8.7-18.76-20.56s7.77-20.56,18.69-20.56a18.15,18.15,0,0,1,16.61,10.28v-9.49Zm-3.74,19.77c0-9.78-7-16.89-16.1-16.89s-15.46,7.11-15.46,16.89,6.33,16.89,15.46,16.89S2855.8-7246.92,2855.8-7256.77Z" transform="translate(-2413.44 7296.09)"/><path d="M2906-7276.54V-7237h-3.81v-21.5l.22-13.8-26,35.3h-5v-39.54h3.81v21.5l-.21,13.8,26-35.3Zm-28.61-18.62v-.93h3.31v.79c0,4.67,3.16,7.62,8,7.62s8-2.95,8-7.62v-.79h3.3v.93c0,6.55-5,10.64-11.28,10.64S2877.36-7288.61,2877.36-7295.16Z" transform="translate(-2413.44 7296.09)"/><path d="M2962-7240.6v14.45h-3.81V-7237h-41.12v10.85h-3.81v-14.45h6.62c2.58-1.65,4.38-5.89,5.82-14.95l3.38-21h25.73v35.94Zm-11,0v-32.34h-18.69l-2.87,17.46c-1.15,7.7-2.81,12.37-5,14.88Z" transform="translate(-2413.44 7296.09)"/><path d="M3005.75-7255.55h-35.66c.43,9.78,7.19,15.67,16.39,15.67,6.26,0,11.57-2.66,14.23-7.83h4c-3.24,7.69-10.35,11.5-18.26,11.5-11.65,0-20.2-8.2-20.2-20.42,0-12.07,8.41-20.7,20-20.7C2998.34-7277.33,3006-7268.34,3005.75-7255.55Zm-35.59-3.59h31.56c-.93-8.48-6.83-14.59-15.53-14.59S2971.17-7267.62,2970.16-7259.14Zm4.53-31.42a2.83,2.83,0,0,1,2.88-2.8,2.83,2.83,0,0,1,2.94,2.8,2.85,2.85,0,0,1-2.94,2.88A2.84,2.84,0,0,1,2974.69-7290.56Zm16.25,0a2.84,2.84,0,0,1,2.95-2.8,2.83,2.83,0,0,1,2.94,2.8,2.85,2.85,0,0,1-2.94,2.88A2.85,2.85,0,0,1,2990.94-7290.56Z" transform="translate(-2413.44 7296.09)"/><path d="M3065.84-7276.54V-7237h-50.75v-39.54h3.81v35.94h19.62v-35.94h3.81v35.94H3062v-35.94Z" transform="translate(-2413.44 7296.09)"/><path d="M3109.26-7250.08c0,7.76-4.17,13.08-13.88,13.08h-17.75v-39.54h3.81v13.88h14.16C3105.3-7262.66,3109.26-7257.85,3109.26-7250.08Zm-3.81,0c0-5.18-1.95-9.13-9.92-9.13h-14.09v18.54h13.87C3103.29-7240.67,3105.45-7244.91,3105.45-7250.08Z" transform="translate(-2413.44 7296.09)"/><path d="M3173.23-7248.14c0,6.25-3.81,11.14-13.73,11.14h-18.76v-39.54h17c9.85,0,13.59,3.88,13.59,10.07,0,3.73-1.94,6.75-6.11,8.55C3170.79-7256.48,3173.23-7252.6,3173.23-7248.14Zm-15.67-25.24h-13V-7259h12.72c7.62,0,10.21-3.31,10.21-7C3167.48-7270.14,3165.54-7273.38,3157.56-7273.38Zm11.79,25c0-4-2.45-7.62-10.14-7.62h-14.66v15.82h14.88C3167.41-7240.16,3169.35-7244.12,3169.35-7248.36Z" transform="translate(-2413.44 7296.09)"/><path d="M3180.34-7256.77c0-11.86,8.92-20.56,20.35-20.56,8.91,0,16.46,5.39,18.9,13.95h-4a15.33,15.33,0,0,0-14.88-10.35c-9.35,0-16.54,7.18-16.54,17s7.19,17,16.47,17a15.45,15.45,0,0,0,15-10.35h4c-2.44,8.56-10.06,13.95-19,13.95C3189.26-7236.21,3180.34-7244.91,3180.34-7256.77Z" transform="translate(-2413.44 7296.09)"/><path d="M3266.46-7255.55h-35.65c.43,9.78,7.18,15.67,16.39,15.67,6.25,0,11.57-2.66,14.23-7.83h4c-3.23,7.69-10.35,11.5-18.26,11.5-11.64,0-20.2-8.2-20.2-20.42,0-12.07,8.41-20.7,20-20.7C3259.06-7277.33,3266.68-7268.34,3266.46-7255.55Zm-35.58-3.59h31.56c-.94-8.48-6.83-14.59-15.53-14.59S3231.88-7267.62,3230.88-7259.14Z" transform="translate(-2413.44 7296.09)"/><path d="M3295.5-7256.77c0-11.86,8.91-20.56,20.34-20.56,8.92,0,16.46,5.39,18.91,13.95h-4a15.31,15.31,0,0,0-14.88-10.35c-9.34,0-16.53,7.18-16.53,17s7.19,17,16.46,17a15.44,15.44,0,0,0,14.95-10.35h4c-2.45,8.56-10.07,13.95-19,13.95C3304.41-7236.21,3295.5-7244.91,3295.5-7256.77Z" transform="translate(-2413.44 7296.09)"/><path d="M3342.08-7256.77c0-11.86,8.91-20.56,20.34-20.56,8.92,0,16.46,5.39,18.91,13.95h-4a15.31,15.31,0,0,0-14.88-10.35c-9.34,0-16.53,7.18-16.53,17s7.19,17,16.46,17a15.44,15.44,0,0,0,15-10.35h4c-2.45,8.56-10.07,13.95-19,13.95C3351-7236.21,3342.08-7244.91,3342.08-7256.77Z" transform="translate(-2413.44 7296.09)"/><path d="M3422.16-7250.08c0,7.76-4.25,13.08-13.95,13.08h-17.68v-39.54h3.81v13.88h14.16C3418.2-7262.66,3422.16-7257.85,3422.16-7250.08Zm-3.81,0c0-5.18-2-9.13-10-9.13h-14v18.54h13.87C3416.19-7240.67,3418.35-7244.91,3418.35-7250.08Zm14.37-26.46V-7237h-3.81v-39.54Z" transform="translate(-2413.44 7296.09)"/><path d="M3480-7276.54V-7237h-3.81v-35.94h-18.69l-3.31,20.63c-1.94,12-5.25,16.1-11.07,16.1-.72,0-1.72-.07-2.44-.14v-3.53c.5,0,1.22.07,1.8.07,4.31,0,6.32-2.73,7.9-12.65l3.88-24.08Z" transform="translate(-2413.44 7296.09)"/><path d="M3519.12-7237l-23.57-19.84V-7237h-3.81v-39.54h3.81v18l21.49-18h5.18l-22.36,18.69,24.51,20.85Z" transform="translate(-2413.44 7296.09)"/><path d="M3566.93-7276.54V-7237h-3.81v-21.5l.21-13.8-26,35.3h-5v-39.54h3.81v21.5l-.22,13.8,26-35.3Z" transform="translate(-2413.44 7296.09)"/><path d="M2452.11-7190.28v39.54h-3.81v-18.48h-27.6v18.48h-3.81v-39.54h3.81v17.47h27.6v-17.47Z" transform="translate(-2413.44 7296.09)"/><path d="M2501.13-7190.28v39.54h-3.81v-9.42a18.17,18.17,0,0,1-16.53,10.21c-11.07,0-18.76-8.7-18.76-20.56s7.76-20.56,18.69-20.56a18.14,18.14,0,0,1,16.6,10.28v-9.49Zm-3.73,19.77c0-9.78-7-16.89-16.11-16.89s-15.45,7.11-15.45,16.89,6.33,16.89,15.45,16.89S2497.4-7160.66,2497.4-7170.51Z" transform="translate(-2413.44 7296.09)"/><path d="M2574-7170.51c0,11.86-7.69,20.56-18.69,20.56a18.21,18.21,0,0,1-16.6-10.28v27.46h-3.81v-57.51h3.81v9.49a18.21,18.21,0,0,1,16.6-10.28C2566.26-7191.07,2574-7182.37,2574-7170.51Zm-3.81,0c0-9.78-6.25-16.89-15.45-16.89s-16.11,7.11-16.11,16.89,7,16.89,16.11,16.89S2570.14-7160.73,2570.14-7170.51Z" transform="translate(-2413.44 7296.09)"/><path d="M2621.54-7169.29h-35.66c.43,9.78,7.19,15.67,16.39,15.67,6.26,0,11.57-2.66,14.23-7.83h4c-3.24,7.69-10.35,11.5-18.26,11.5-11.65,0-20.2-8.2-20.2-20.42,0-12.07,8.41-20.7,20-20.7C2614.13-7191.07,2621.75-7182.08,2621.54-7169.29Zm-35.59-3.59h31.56c-.93-8.49-6.83-14.6-15.53-14.6S2587-7181.37,2586-7172.88Z" transform="translate(-2413.44 7296.09)"/><path d="M2629-7170.51c0-11.86,8.91-20.56,20.34-20.56,8.92,0,16.46,5.39,18.91,13.95h-4a15.32,15.32,0,0,0-14.88-10.36c-9.34,0-16.53,7.19-16.53,17s7.19,17,16.46,17a15.44,15.44,0,0,0,14.95-10.35h4c-2.45,8.56-10.06,13.95-19,13.95C2637.92-7149.95,2629-7158.65,2629-7170.51Z" transform="translate(-2413.44 7296.09)"/><path d="M2709.66-7190.28l-27.1,57.51h-4.17l10.64-22.5-16.46-35h4.1l14.38,30.77,14.52-30.77Z" transform="translate(-2413.44 7296.09)"/><path d="M2757-7170.51c0,11.86-7.69,20.56-18.69,20.56a18.22,18.22,0,0,1-16.6-10.28v27.46h-3.81v-57.51h3.81v9.49a18.22,18.22,0,0,1,16.6-10.28C2749.34-7191.07,2757-7182.37,2757-7170.51Zm-3.81,0c0-9.78-6.25-16.89-15.45-16.89s-16.1,7.11-16.1,16.89,7,16.89,16.1,16.89S2753.22-7160.73,2753.22-7170.51Z" transform="translate(-2413.44 7296.09)"/><path d="M2765.08-7170.51c0-11.86,8.92-20.56,20.35-20.56,8.91,0,16.46,5.39,18.9,13.95h-4a15.33,15.33,0,0,0-14.88-10.36c-9.35,0-16.54,7.19-16.54,17s7.19,17,16.46,17a15.46,15.46,0,0,0,15-10.35h4c-2.44,8.56-10.06,13.95-19,13.95C2774-7149.95,2765.08-7158.65,2765.08-7170.51Z" transform="translate(-2413.44 7296.09)"/><path d="M2845.16-7163.83c0,7.77-4.24,13.09-13.94,13.09h-17.69v-39.54h3.81v13.87h14.16C2841.21-7176.41,2845.16-7171.59,2845.16-7163.83Zm-3.81,0c0-5.17-2-9.13-10-9.13h-14v18.55h13.88C2839.19-7154.41,2841.35-7158.65,2841.35-7163.83Zm14.38-26.45v39.54h-3.81v-39.54Z" transform="translate(-2413.44 7296.09)"/><path d="M2916.47-7150.74l-23.58-19.84v19.84h-3.81v-39.54h3.81v18l21.49-18h5.18l-22.36,18.69,24.51,20.85Z" transform="translate(-2413.44 7296.09)"/><path d="M2965-7170.51c0,11.79-8.92,20.56-20.27,20.56a20.09,20.09,0,0,1-20.27-20.56,20.13,20.13,0,0,1,20.27-20.56A20.09,20.09,0,0,1,2965-7170.51Zm-36.66,0c0,9.78,7.26,16.89,16.39,16.89s16.39-7.11,16.39-16.89-7.34-16.89-16.39-16.89S2928.33-7180.43,2928.33-7170.51Z" transform="translate(-2413.44 7296.09)"/><path d="M3014.3-7170.51c0,11.86-7.69,20.56-18.69,20.56a18.23,18.23,0,0,1-16.61-10.28v27.46h-3.81v-57.51H2979v9.49a18.23,18.23,0,0,1,16.61-10.28C3006.61-7191.07,3014.3-7182.37,3014.3-7170.51Zm-3.81,0c0-9.78-6.26-16.89-15.46-16.89s-16.1,7.11-16.1,16.89,7,16.89,16.1,16.89S3010.49-7160.73,3010.49-7170.51Z" transform="translate(-2413.44 7296.09)"/><path d="M3062.89-7170.51c0,11.79-8.91,20.56-20.27,20.56a20.09,20.09,0,0,1-20.27-20.56,20.13,20.13,0,0,1,20.27-20.56A20.09,20.09,0,0,1,3062.89-7170.51Zm-36.66,0c0,9.78,7.26,16.89,16.39,16.89s16.39-7.11,16.39-16.89-7.33-16.89-16.39-16.89S3026.23-7180.43,3026.23-7170.51Z" transform="translate(-2413.44 7296.09)"/><path d="M3102.78-7190.28v39.54H3099v-15.17a32.28,32.28,0,0,1-12.93,2.59c-9.64,0-15.1-4.46-15.1-14.81v-12.15h3.81v11.5c0,8.41,3.67,12,11.86,12,4.31,0,9.7-1.08,12.36-2.73v-20.78Z" transform="translate(-2413.44 7296.09)"/><path d="M3152.24-7169.29h-35.66c.44,9.78,7.19,15.67,16.39,15.67,6.26,0,11.58-2.66,14.24-7.83h3.95c-3.23,7.69-10.35,11.5-18.26,11.5-11.64,0-20.2-8.2-20.2-20.42,0-12.07,8.41-20.7,20-20.7C3144.83-7191.07,3152.45-7182.08,3152.24-7169.29Zm-35.58-3.59h31.55c-.93-8.49-6.83-14.6-15.52-14.6S3117.66-7181.37,3116.66-7172.88Z" transform="translate(-2413.44 7296.09)"/><path d="M3163.45-7138.38h-3l4.39-11.64a2.88,2.88,0,0,1-2.45-2.88,3,3,0,0,1,3.09-3.09,2.86,2.86,0,0,1,3,3.09C3168.56-7152,3168.48-7150.89,3163.45-7138.38Z" transform="translate(-2413.44 7296.09)"/><path d="M3240.36-7169.29h-35.65c.43,9.78,7.19,15.67,16.39,15.67,6.25,0,11.57-2.66,14.23-7.83h4c-3.24,7.69-10.35,11.5-18.26,11.5-11.65,0-20.2-8.2-20.2-20.42,0-12.07,8.41-20.7,20-20.7C3233-7191.07,3240.58-7182.08,3240.36-7169.29Zm-35.58-3.59h31.56c-.94-8.49-6.83-14.6-15.53-14.6S3205.79-7181.37,3204.78-7172.88Z" transform="translate(-2413.44 7296.09)"/><path d="M3291.69-7154.34v14.45h-3.81v-10.85h-41.12v10.85H3243v-14.45h6.61c2.59-1.65,4.39-5.89,5.83-14.95l3.38-21h25.73v35.94Zm-11,0v-32.34H3262l-2.87,17.46c-1.15,7.69-2.81,12.37-5,14.88Z" transform="translate(-2413.44 7296.09)"/><path d="M3331.22-7163.83c0,7.77-4.24,13.09-13.94,13.09h-17.69v-39.54h3.81v13.87h14.17C3327.27-7176.41,3331.22-7171.59,3331.22-7163.83Zm-3.81,0c0-5.17-2-9.13-10-9.13h-14v18.55h13.88C3325.26-7154.41,3327.41-7158.65,3327.41-7163.83Zm14.38-26.45v39.54H3338v-39.54Z" transform="translate(-2413.44 7296.09)"/></svg>