<svg id="Layer_1" data-name="Layer 1" xmlns="http://www.w3.org/2000/svg" viewBox="0 0 308.17 110.08"><defs><style>.cls-1{fill:#71db3a;}</style></defs><path d="M175,143.21l-12.58-14.66v14.66h-11V107.53h11v14.2l11.74-14.2h14l-15.25,17L189,143.21Z" transform="translate(-105 -106.69)"/><path d="M225.7,125.37A18.68,18.68,0,1,1,207,106.69,18.32,18.32,0,0,1,225.7,125.37Zm-26.2,0c0,5,3.31,8.17,7.52,8.17s7.53-3.18,7.53-8.17-3.25-8.18-7.53-8.18S199.5,120.44,199.5,125.37Z" transform="translate(-105 -106.69)"/><path d="M269.1,125.37c0,11-7,18.68-16.09,18.68a12.6,12.6,0,0,1-10.12-4.67v20h-11V107.53h11v4a12.41,12.41,0,0,1,10.19-4.86C262,106.69,269.1,114.28,269.1,125.37Zm-11.16,0c0-4.93-3.24-8.18-7.52-8.18s-7.53,3.25-7.53,8.18,3.25,8.17,7.53,8.17S257.94,130.36,257.94,125.37Z" transform="translate(-105 -106.69)"/><path d="M311.65,125.37A18.68,18.68,0,1,1,293,106.69,18.33,18.33,0,0,1,311.65,125.37Zm-26.2,0c0,5,3.3,8.17,7.52,8.17s7.53-3.18,7.53-8.17-3.25-8.18-7.53-8.18S285.45,120.44,285.45,125.37Z" transform="translate(-105 -106.69)"/><path d="M350,107.53v35.68H339V132.44a20.38,20.38,0,0,1-7.26,1.23c-7.2,0-14.53-2.72-14.53-12.78V107.53h11V118c0,4.09.85,5.84,5.78,5.84a10,10,0,0,0,5-1V107.53Z" transform="translate(-105 -106.69)"/><path d="M393.06,127.7h-26c.52,5.52,4,7.85,7.85,7.85,3,0,5.45-1.43,6.29-4h11.35c-2.46,8.82-9.92,12.52-17.64,12.52-11.42,0-19.07-8.11-19.07-18.68s7.72-18.68,18.81-18.68C386.44,106.69,394.16,116,393.06,127.7ZM367.37,121h14.21c-.72-3.44-3.05-5.84-7-5.84S368.28,117.58,367.37,121Z" transform="translate(-105 -106.69)"/><path class="cls-1" d="M413.17,138.28c0,1.62-.33,4.28-7.78,16.08h-7l5.25-10.83a5.77,5.77,0,0,1-3.82-5.71,6.3,6.3,0,0,1,6.61-6.49C409.15,131.33,413.17,132.7,413.17,138.28Z" transform="translate(-105 -106.69)"/><path d="M188,192.5H162c.51,5.52,4,7.85,7.84,7.85,3,0,5.45-1.42,6.3-4H187.5c-2.47,8.82-9.93,12.52-17.65,12.52-11.41,0-19.07-8.11-19.07-18.68s7.72-18.68,18.82-18.68C181.4,171.49,189.12,180.76,188,192.5Zm-25.69-6.68h14.21c-.72-3.43-3-5.83-7-5.83S163.24,182.39,162.33,185.82Z" transform="translate(-105 -106.69)"/><path d="M237.19,197.63v19.13h-11V208H202.42v8.75h-11V197.63h6.49c.84-.84,1.42-2.34,1.81-4.74L203,172.33h27.7v25.3Zm-17.52,0V182.71h-7.26l-1.75,10.77a13.18,13.18,0,0,1-1.3,4.15Z" transform="translate(-105 -106.69)"/><path d="M277,172.33,277,208h-11v-3.83a12.36,12.36,0,0,1-10.05,4.67c-9.08,0-16.09-7.65-16.09-18.68s7.14-18.68,16-18.68A12.41,12.41,0,0,1,266,176.35v-4Zm-11,17.84c0-4.93-3.25-8.17-7.53-8.17s-7.52,3.24-7.52,8.17,3.31,8.17,7.52,8.17S266,195.16,266,190.17Z" transform="translate(-105 -106.69)"/><rect class="cls-1" y="0.84" width="36.45" height="109.24"/></svg>