<svg id="Layer_1" data-name="Layer 1" xmlns="http://www.w3.org/2000/svg" viewBox="0 0 427.3 427.3"><defs><style>.cls-1{fill:#71d93a;}.cls-2{fill:#fff;}</style></defs><circle class="cls-1" cx="213.65" cy="213.65" r="213.65"/><path class="cls-2" d="M8209.47-6351.17v15.7h-9.79l.07-15.63L8182.9-6383h10.94l10.73,21,10.74-21h10.94Z" transform="translate(-8057.48 6567)"/><path class="cls-2" d="M8236.3-6340.43a5.75,5.75,0,0,1-6,5.77,5.71,5.71,0,0,1-6-5.77,5.75,5.75,0,0,1,6-5.78A5.8,5.8,0,0,1,8236.3-6340.43Z" transform="translate(-8057.48 6567)"/><path class="cls-2" d="M8279.45-6344.71v9.24H8244v-9.24l23.1-29.08h-22V-6383h34.18l.07,9.25-23.17,29.08Z" transform="translate(-8057.48 6567)"/><path class="cls-2" d="M8323.13-6351.64h-28.67c.61,6,4.69,9,9.71,9,3.74,0,7-1.7,8.29-4.69h10.06c-2.79,8.83-10.26,12.7-18.28,12.7-11.69,0-19.7-8.29-19.7-19.43s8.08-19.57,19.5-19.57C8316.4-6373.66,8324.08-6363.94,8323.13-6351.64Zm-28.2-7.14h17.87a8.68,8.68,0,0,0-8.83-6.86C8299.21-6365.64,8296.16-6362.79,8294.93-6358.78Z" transform="translate(-8057.48 6567)"/><path class="cls-2" d="M8364.57-6358.91v23.44h-9.71v-21.34c0-4.89-1.84-7.61-7-7.61-5.51,0-8.43,3.2-8.43,9.31v19.64h-9.71v-37.37h9.71v5.09a13.44,13.44,0,0,1,11.62-5.91C8359.48-6373.66,8364.57-6368.09,8364.57-6358.91Z" transform="translate(-8057.48 6567)"/></svg>