<svg id="Layer_2" data-name="Layer 2" xmlns="http://www.w3.org/2000/svg" viewBox="0 0 664.74 487.33"><defs><style>.cls-1{fill:#3f3d56;}.cls-2{fill:#71db3a;}.cls-3{isolation:isolate;opacity:0.1;}.cls-4{fill:#fff;}.cls-5{fill:#9f616a;}.cls-6{fill:#2f2e41;}.cls-7{fill:#ccc;}</style></defs><path class="cls-1" d="M6856.24,2686.81a38.74,38.74,0,0,1-9.53-1.23l-.61-.17-.57-.29c-20.57-10.31-37.92-23.93-51.57-40.48a153,153,0,0,1-26-46.24,177.86,177.86,0,0,1-10.07-62.69c0-.45,0-.79,0-1,0-10.37,5.76-19.47,14.66-23.18,6.82-2.84,68.72-28.27,73.19-30.1,8.43-4.22,17.41-.7,18.85-.09,3.22,1.32,60.45,24.73,72.81,30.62,12.75,6.06,16.15,17,16.15,22.45,0,24.83-4.3,48-12.79,69a159.67,159.67,0,0,1-28.7,46.26c-23.43,26.37-46.87,35.71-47.09,35.8A25.84,25.84,0,0,1,6856.24,2686.81Zm-5.64-11.33c2.08.47,6.88,1.17,10,0,4-1.45,24.1-11.89,42.9-33.05,26-29.24,39.17-66,39.18-109.24,0-.88-.66-7.13-8.94-11.07-12.44-5.92-73.45-30.87-74.07-31.12l-.17-.08c-1.28-.53-5.35-1.66-8.15-.19l-.56.26c-.68.28-68.09,28-75.28,31-5,2.1-6.82,7.29-6.82,11.45,0,.3,0,.74,0,1.31C6768.11,2564.34,6775,2637.16,6850.6,2675.48Z" transform="translate(-6417.37 -2471.2)"/><path class="cls-2" d="M6848.26,2484.84s-68,27.94-75.31,31-10.93,10.33-10.93,17.62-5.46,102.38,86.24,148.35c0,0,8.32,2.31,14.64,0s86.47-41.17,86.47-148.66c0,0,0-10.93-12.75-17s-74.41-31.28-74.41-31.28S6854.64,2481.5,6848.26,2484.84Z" transform="translate(-6417.37 -2471.2)"/><g class="cls-3"><path d="M6855.55,2506.71v149s-68.63-33-68-119.87Z" transform="translate(-6417.37 -2471.2)"/></g><polygon class="cls-4" points="439.07 142.61 417.21 114.5 429.92 104.61 440.27 117.92 475.24 81.01 486.93 92.09 439.07 142.61"/><polygon class="cls-5" points="232.55 300.54 217.32 300.54 222.23 340.32 232.54 340.32 232.55 300.54"/><path class="cls-6" d="M6652.55,2821.53h-33.26v-.42a12.94,12.94,0,0,1,12.94-13h20.32Z" transform="translate(-6417.37 -2471.2)"/><polygon class="cls-5" points="197.86 300.54 182.64 300.54 187.55 340.32 197.86 340.32 197.86 300.54"/><path class="cls-6" d="M6617.86,2821.53H6584.6v-.42a13,13,0,0,1,12.95-13h20.31Z" transform="translate(-6417.37 -2471.2)"/><polygon class="cls-6" points="252.15 190.37 247.76 245.19 233.87 325.58 213.86 326.83 216.33 200.6 252.15 190.37"/><path class="cls-6" d="M6611.05,2620.64l52.62.73,5.85,40.2-35.82,16.81-8.77,32.16-5,88.82-23.34.67,2.8-149.43Z" transform="translate(-6417.37 -2471.2)"/><circle class="cls-5" cx="222.23" cy="27.74" r="17.9"/><polygon class="cls-7" points="232.73 55.36 241.91 66.84 237.53 158.21 203.18 157.47 197.33 77.8 204.64 57.34 207.38 53.19 232.73 55.36"/><path class="cls-6" d="M6665.86,2572.4l8,30.7-8,30.69,13.16,17.55,11.7-55.55s-8.78-45.32-9.51-50.44-2.19-5.84-2.19-5.84l-5.85.73Z" transform="translate(-6417.37 -2471.2)"/><polygon class="cls-6" points="190.02 112.89 184.9 122.39 183.44 138.47 186.36 156.74 176.13 173.55 165.9 127.51 176.86 68.3 181.25 68.3 190.02 112.89"/><path class="cls-6" d="M6626.1,2510l.22.7s-12.9-4.84-8.69-24c2.63-11.95,13-14.65,21.15-15.46s22,4.88,22,11.39-14.64,4.88-20.34,3.26-8.13,12.2-8.13,12.2l-3.26.82A10.87,10.87,0,0,0,6626.1,2510Z" transform="translate(-6417.37 -2471.2)"/><path class="cls-6" d="M6668.06,2582.63l-2.93,27.77,5.85,16.82,3.65,16.08s0,15.34-14.61,16.08-27.05-46.05-27.05-46.05-2.19,10.23-3.65,16.08-26.31,29.23-26.31,29.23-5.85-.73-11-12.42,10.23-22.66,10.23-22.66l4.39-15.35-1.46-19-10.24-49.7,30.34-15.72,7.67,74.92,16.45-72.73,5.48,4,23.39,9.51Z" transform="translate(-6417.37 -2471.2)"/><path d="M6598.21,2881.13v25.2h-4.06v-11h-12.93v11h-4.06v-25.2h4.06v10.3h12.93v-10.3Z" transform="translate(-6417.37 -2471.2)"/><path d="M6621.9,2886.53v19.8h-4.07v-8.28l.26-6.26-9.79,14.54h-4.79v-19.8h4.07v8.28l-.26,6.23,9.8-14.51Z" transform="translate(-6417.37 -2471.2)"/><path d="M6640,2906.33l-9.32-9.14v9.14h-4.07v-19.8h4.07v8.57l8.57-8.57h5.21l-9.68,9.4,10.48,10.4Z" transform="translate(-6417.37 -2471.2)"/><path d="M6665.86,2886.53v19.8h-4.07V2903a7.91,7.91,0,0,1-6.91,3.74c-5.29,0-9.14-4.28-9.14-10.33s3.92-10.33,9.1-10.33a8,8,0,0,1,6.95,3.82v-3.39Zm-4,9.9a6.08,6.08,0,0,0-6.09-6.44c-3.45,0-5.9,2.66-5.9,6.44s2.48,6.45,5.9,6.45S6661.83,2900.25,6661.83,2896.43Z" transform="translate(-6417.37 -2471.2)"/><path d="M6684,2906.33l-9.32-9.14v9.14h-4.07v-19.8h4.07v8.57l8.57-8.57h5.22l-9.69,9.4,10.48,10.4Z" transform="translate(-6417.37 -2471.2)"/><path d="M6710.25,2896.43A10.26,10.26,0,1,1,6700,2886.1,10.09,10.09,0,0,1,6710.25,2896.43Zm-16.42,0A6.16,6.16,0,1,0,6700,2890,6.12,6.12,0,0,0,6693.83,2896.43Z" transform="translate(-6417.37 -2471.2)"/><path d="M6727.49,2890.35h-9.11v16h-4.06v-19.8h13.17Z" transform="translate(-6417.37 -2471.2)"/><path d="M6750.17,2896.43a10.26,10.26,0,1,1-10.26-10.33A10.09,10.09,0,0,1,6750.17,2896.43Zm-16.42,0a6.17,6.17,0,1,0,6.16-6.44A6.12,6.12,0,0,0,6733.75,2896.43Z" transform="translate(-6417.37 -2471.2)"/><path d="M6780.52,2890.35h-6.45v16H6770v-16h-6.48v-3.82h17Z" transform="translate(-6417.37 -2471.2)"/><path d="M6804.06,2896.43c0,6.05-3.85,10.33-9.14,10.33A8,8,0,0,1,6788,2903v12.31h-4.07v-28.8H6788v3.39a8,8,0,0,1,6.94-3.82C6800.14,2886.1,6804.06,2890.39,6804.06,2896.43Zm-4.1,0c0-3.78-2.45-6.44-5.91-6.44a6.08,6.08,0,0,0-6.08,6.44c0,3.82,2.63,6.45,6.08,6.45S6800,2900.25,6800,2896.43Z" transform="translate(-6417.37 -2471.2)"/><path d="M6827.75,2897.55h-16.09a5.86,5.86,0,0,0,6.19,5.65,5.55,5.55,0,0,0,5.29-2.95h4.21c-1.55,4.43-5.32,6.51-9.54,6.51a10.33,10.33,0,0,1-.07-20.66C6824.11,2886.1,6828.14,2891,6827.75,2897.55Zm-15.88-3.31h11.52a5.6,5.6,0,0,0-5.65-4.61A5.85,5.85,0,0,0,6811.87,2894.24Z" transform="translate(-6417.37 -2471.2)"/><path d="M6845.1,2906.33l-9.32-9.14v9.14h-4.07v-19.8h4.07v8.57l8.56-8.57h5.22l-9.68,9.4,10.48,10.4Z" transform="translate(-6417.37 -2471.2)"/><path d="M6872,2886.53v19.8h-4.07v-8.28l.26-6.26-9.8,14.54h-4.78v-19.8h4.07v8.28l-.26,6.23,9.79-14.51Z" transform="translate(-6417.37 -2471.2)"/><path d="M6895.36,2886.53v19.8h-4.07v-8.17h-10.51v8.17h-4.07v-19.8h4.07v7.78h10.51v-7.78Z" transform="translate(-6417.37 -2471.2)"/><path d="M6913.25,2890.35h-9.11v16h-4.07v-19.8h13.18Z" transform="translate(-6417.37 -2471.2)"/><path d="M6935.53,2886.53v19.8h-4.07V2903a7.9,7.9,0,0,1-6.91,3.74c-5.29,0-9.14-4.28-9.14-10.33s3.92-10.33,9.11-10.33a8,8,0,0,1,6.94,3.82v-3.39Zm-4,9.9a6.08,6.08,0,0,0-6.08-6.44c-3.46,0-5.91,2.66-5.91,6.44s2.49,6.45,5.91,6.45S6931.5,2900.25,6931.5,2896.43Z" transform="translate(-6417.37 -2471.2)"/><path d="M6553.22,2929.73v19.8h-4.07v-8.28l.25-6.26-9.79,14.54h-4.79v-19.8h4.07V2938l-.25,6.23,9.79-14.51Z" transform="translate(-6417.37 -2471.2)"/><path d="M6587.38,2929.73v19.8h-4.07v-8.17H6572.8v8.17h-4.07v-19.8h4.07v7.78h10.51v-7.78Z" transform="translate(-6417.37 -2471.2)"/><path d="M6611.57,2929.73v19.8h-4.07v-3.31a7.9,7.9,0,0,1-6.91,3.74c-5.29,0-9.14-4.28-9.14-10.33s3.92-10.33,9.11-10.33a8,8,0,0,1,6.94,3.82v-3.39Zm-4,9.9a6.08,6.08,0,0,0-6.08-6.44c-3.46,0-5.91,2.66-5.91,6.44s2.49,6.45,5.91,6.45S6607.54,2943.45,6607.54,2939.63Z" transform="translate(-6417.37 -2471.2)"/><path d="M6633.28,2943.92c0,3.81-3.35,6-8.53,6-6.19,0-8.89-2.84-9.65-6.94h4.1c.58,2.73,2.34,3.78,5.44,3.78s4.53-1.26,4.53-3.17c0-1.37-.64-2.74-3.49-2.74H6622v-3.13H6625c2.77,0,3.6-1,3.6-2.45,0-1.62-1.11-2.91-4.21-2.91-2.12,0-4.07.68-4.61,2.95h-4.14c.72-3.46,3.32-6,8.82-6,5,0,8.25,2.2,8.25,5.73a4.24,4.24,0,0,1-2.6,4A4.87,4.87,0,0,1,6633.28,2943.92Z" transform="translate(-6417.37 -2471.2)"/><path d="M6656.93,2939.63a10.26,10.26,0,1,1-10.26-10.33A10.09,10.09,0,0,1,6656.93,2939.63Zm-16.41,0a6.16,6.16,0,1,0,6.15-6.44A6.11,6.11,0,0,0,6640.52,2939.63Z" transform="translate(-6417.37 -2471.2)"/><path d="M6679.39,2929.73v19.8h-4.06v-8.28l.25-6.26-9.79,14.54H6661v-19.8h4.07V2938l-.25,6.23,9.79-14.51Zm-15.08-8.56v-.83h3.24v.68a2.65,2.65,0,0,0,5.29,0v-.68h3.24v.83c0,3.49-2.73,5.58-5.87,5.58S6664.31,2924.66,6664.31,2921.17Z" transform="translate(-6417.37 -2471.2)"/><path d="M6703.08,2929.73v19.8H6699v-16h-6.55l-1.29,8.28c-1,5.9-3.17,8.13-6.55,8.13a12.59,12.59,0,0,1-2-.21v-3.67c.4,0,.79.1,1.19.1,1.91,0,2.73-1,3.35-4.71l1.87-11.74Z" transform="translate(-6417.37 -2471.2)"/><path d="M6726.19,2929.73v19.8h-4.06v-8.28l.25-6.26-9.79,14.54h-4.79v-19.8h4.07V2938l-.25,6.23,9.79-14.51Z" transform="translate(-6417.37 -2471.2)"/><path d="M6748.08,2943.84c0,3.75-2.7,5.69-7.09,5.69h-10.08v-19.8h9.22c4.28,0,7,1.37,7,5,0,2-1.08,3.2-2.7,4.17A4.79,4.79,0,0,1,6748.08,2943.84Zm-8.28-10.9H6735v5h4.75c2.45,0,3.28-1,3.28-2.41C6743,2933.91,6742.29,2932.94,6739.8,2932.94Zm4.18,10.58c0-1.62-.87-2.66-3.28-2.66H6735v5.47h5.76C6743.26,2946.33,6744,2945.18,6744,2943.52Z" transform="translate(-6417.37 -2471.2)"/><path d="M6771.73,2939.63a10.26,10.26,0,1,1-10.26-10.33A10.09,10.09,0,0,1,6771.73,2939.63Zm-16.41,0a6.16,6.16,0,1,0,6.15-6.44A6.12,6.12,0,0,0,6755.32,2939.63Z" transform="translate(-6417.37 -2471.2)"/><path d="M6794.2,2929.73v19.8h-4.07v-8.28l.25-6.26-9.79,14.54h-4.79v-19.8h4.07V2938l-.25,6.23,9.79-14.51Zm-15.09-8.56v-.83h3.24v.68a2.65,2.65,0,0,0,5.29,0v-.68h3.24v.83a5.54,5.54,0,0,1-5.86,5.58C6781.85,2926.75,6779.11,2924.66,6779.11,2921.17Z" transform="translate(-6417.37 -2471.2)"/><path d="M6830,2939.63c0,6-3.86,10.33-9.15,10.33a8,8,0,0,1-6.91-3.74v12.31h-4.07v-28.8H6814v3.39a8,8,0,0,1,6.95-3.82C6826.09,2929.3,6830,2933.59,6830,2939.63Zm-4.11,0c0-3.78-2.45-6.44-5.9-6.44s-6.08,2.66-6.08,6.44,2.62,6.45,6.08,6.45S6825.91,2943.45,6825.91,2939.63Z" transform="translate(-6417.37 -2471.2)"/><path d="M6853.7,2940.75h-16.09a5.87,5.87,0,0,0,6.19,5.65,5.56,5.56,0,0,0,5.3-3h4.21c-1.55,4.43-5.33,6.51-9.54,6.51a10.33,10.33,0,0,1-.07-20.66C6850.07,2929.3,6854.1,2934.23,6853.7,2940.75Zm-15.87-3.31h11.52a5.61,5.61,0,0,0-5.65-4.61A5.84,5.84,0,0,0,6837.83,2937.44Z" transform="translate(-6417.37 -2471.2)"/><path d="M6871.06,2949.53l-9.33-9.14v9.14h-4.06v-19.8h4.06v8.57l8.57-8.57h5.22l-9.68,9.4,10.47,10.4Z" transform="translate(-6417.37 -2471.2)"/><path d="M6898.52,2929.73v19.8h-4.06v-16h-6.56l-1.29,8.28c-1,5.9-3.17,8.13-6.55,8.13a12.59,12.59,0,0,1-2-.21v-3.67c.4,0,.79.1,1.19.1,1.91,0,2.73-1,3.35-4.71l1.87-11.74Z" transform="translate(-6417.37 -2471.2)"/><path d="M6922.71,2929.73v19.8h-4.06v-3.31a7.91,7.91,0,0,1-6.91,3.74c-5.3,0-9.15-4.28-9.15-10.33s3.93-10.33,9.11-10.33a8,8,0,0,1,6.95,3.82v-3.39Zm-4,9.9a6.08,6.08,0,0,0-6.08-6.44c-3.46,0-5.9,2.66-5.9,6.44s2.48,6.45,5.9,6.45S6918.68,2943.45,6918.68,2939.63Z" transform="translate(-6417.37 -2471.2)"/><path d="M6948.74,2929.73v19.8h-4.07v-8.28l.29-6.87-6.8,9.68h-.11l-6.8-9.68.29,6.87v8.28h-4.07v-19.8h4.79l5.83,8.14,5.87-8.14Z" transform="translate(-6417.37 -2471.2)"/><path d="M6970.34,2942.58c0,4.76-3.17,7-7.23,7h-9.61v-19.8h4.06v6.19h5.69C6967.32,2935.92,6970.34,2937.83,6970.34,2942.58Zm-4.1,0c0-1.83-.72-3.06-3.2-3.06h-5.48v6.12h5.4C6965.45,2945.64,6966.24,2944.35,6966.24,2942.58Zm11.09-12.85v19.8h-4.07v-19.8Z" transform="translate(-6417.37 -2471.2)"/><path class="cls-1" d="M7080.88,2822.71H6418.6a1,1,0,1,1,0-1.91h662.28a1,1,0,1,1,0,1.91Z" transform="translate(-6417.37 -2471.2)"/></svg>