<svg id="Layer_3" data-name="Layer 3" xmlns="http://www.w3.org/2000/svg" viewBox="0 0 116.16 116.16"><defs><style>.cls-1{opacity:0.25;}</style></defs><circle class="cls-1" cx="58.08" cy="58.08" r="58.08"/><path class="cls-1" d="M2166.3,114.25A50.68,50.68,0,1,0,2217,164.93,50.67,50.67,0,0,0,2166.3,114.25ZM2191.19,149l-8.31,39.2c-.62,2.77-2.27,3.45-4.58,2.14L2165.63,181l-6.11,5.89a3.2,3.2,0,0,1-2.55,1.24l.89-12.89L2181.34,154c1-.9-.22-1.41-1.57-.51l-29,18.27-12.5-3.91c-2.72-.85-2.78-2.71.57-4L2187.68,145C2190,144.17,2191.93,145.54,2191.19,149Z" transform="translate(-2108.22 -106.69)"/></svg>