<svg id="Layer_3" data-name="Layer 3" xmlns="http://www.w3.org/2000/svg" viewBox="0 0 116.16 116.16"><defs><style>.cls-1,.cls-2{opacity:0.25;}</style></defs><circle class="cls-1" cx="58.08" cy="58.08" r="58.08"/><g class="cls-2"><path d="M2024.33,122.17h-31.71a26.43,26.43,0,0,0-26.43,26.43v31.71a26.43,26.43,0,0,0,26.43,26.43h31.71a26.43,26.43,0,0,0,26.43-26.43V148.6A26.43,26.43,0,0,0,2024.33,122.17Zm18.5,58.14a18.52,18.52,0,0,1-18.5,18.5h-31.71a18.52,18.52,0,0,1-18.5-18.5V148.6a18.52,18.52,0,0,1,18.5-18.5h31.71a18.52,18.52,0,0,1,18.5,18.5Z" transform="translate(-1950.39 -106.69)"/></g><g class="cls-2"><path d="M2008.47,143.32a21.14,21.14,0,1,0,21.15,21.14A21.14,21.14,0,0,0,2008.47,143.32Zm0,34.35a13.22,13.22,0,1,1,13.22-13.21A13.23,13.23,0,0,1,2008.47,177.67Z" transform="translate(-1950.39 -106.69)"/></g><g class="cls-2"><circle cx="80.81" cy="35.04" r="2.82"/></g></svg>