<svg id="Layer_3" data-name="Layer 3" xmlns="http://www.w3.org/2000/svg" viewBox="0 0 116.16 116.16"><defs><style>.cls-1,.cls-2{opacity:0.25;}.cls-3{fill:#fff;}</style></defs><circle class="cls-1" cx="58.08" cy="58.08" r="58.08"/><g class="cls-2"><path d="M2324.62,112.75a52,52,0,1,1-52.1,51.92A52.05,52.05,0,0,1,2324.62,112.75Zm50.31,52a50.41,50.41,0,1,0-50.18,50.42A50.46,50.46,0,0,0,2374.93,164.75Z" transform="translate(-2266.05 -106.69)"/><path class="cls-3" d="M2374.93,164.75a50.41,50.41,0,1,1-50.3-50.4A50.49,50.49,0,0,1,2374.93,164.75ZM2324.58,116a48.81,48.81,0,1,0,48.79,48.86A48.73,48.73,0,0,0,2324.58,116Z" transform="translate(-2266.05 -106.69)"/><path d="M2324.58,116a48.81,48.81,0,1,1-48.86,48.76A48.82,48.82,0,0,1,2324.58,116Zm-.19,78.57a30,30,0,1,0-30-29.88A30,30,0,0,0,2324.39,194.52Zm-18.41,11a6.13,6.13,0,0,0,6.2-6.23,6.57,6.57,0,0,0-6.58-6.35,6.29,6.29,0,0,0-6.21,6.17A6.43,6.43,0,0,0,2306,205.55Zm15.72-74.3c-.2-.78-.36-1.34-.49-1.91-.6-2.81-1.2-5.61-1.79-8.42-.14-.68-.27-1.15-1.21-.88-2.47.73-2.48.69-1.93,3.24,0,.11,0,.22.07.33.33.91.07,1.4-.94,1.64-3.24.76-2.7,1.27-3.44-2.08-.32-1.43-.38-1.49-1.73-1.09a11.44,11.44,0,0,1-1.27.36c-.8.15-1,.55-.79,1.33.75,3.11,1.45,6.23,2.15,9.36.14.63.44.89,1.08.71,3.27-.89,3.07-.15,2.34-3.34-.61-2.64-.83-2.27,1.84-3,1.59-.42,1.61-.4,2,1.22.27,1.08.5,2.17.77,3.35Zm-29.8,5.35a6.61,6.61,0,0,0-6.4,6.2,6.22,6.22,0,0,0,6,6.56,6.72,6.72,0,0,0,6.59-6.51A6.21,6.21,0,0,0,2291.9,136.6Zm-1.19,25.17c.1-.52.21-.94.27-1.37.35-2.42.35-2.44-2-3-.64-.17-.85-.45-.69-1.09a19.35,19.35,0,0,0,.44-2.27,4.12,4.12,0,0,0-3-4.77,3.82,3.82,0,0,0-4.6,2.64,56.61,56.61,0,0,0-1.71,6.48c0,.22.4.72.71.81,1.19.37,2.41.63,3.63.93Zm65.2-29.84-8.79,8,1.59,1.46c1.32,1.2,1.32,1.2,2.61,0,1.13-1.07,1.12-1.06,2.15.07a6.05,6.05,0,0,0,3.76,2.33,3.78,3.78,0,0,0,3.88-5.56C2360,135.68,2357.82,134,2355.91,131.93Zm-12.2,60.43,7.14,9.22,7.13-6.18-1.78-1.74-4,3.22a5.71,5.71,0,0,1-.54-.5c-1.06-1.23-1.06-1.25.21-2.32l2.11-1.76c-.18-.25-.28-.4-.39-.54-1-1.21-1-1.21-2.21-.22-.75.62-1.51,1.22-2.33,1.88l-1.26-1.63,3.74-3.53-1.68-1.5Zm-.25,2.74-1.17-1.93-7.51,3.65,4.27,10.84,8.57-3.93c-.18-.4-.26-.6-.36-.8-.72-1.45-.72-1.45-2.17-.83-1.13.49-2.27,1-3.42,1.44-.18-.34-.29-.53-.38-.73-.6-1.35-.6-1.35.79-2l2.66-1.23-1-2c-1.08.46-2.06.87-3,1.3-.63.28-1.1.45-1.47-.43s-.21-1.24.6-1.6C2341,196.38,2342.15,195.76,2343.46,195.1Zm27.53-33c-.06-.35-.09-.49-.12-.64-.62-3.21-1.25-6.42-1.85-9.63-.11-.55-.31-1-.91-.71-.92.47-2.42-.24-2.77,1.34,0,.16.07.35.11.53.14.69.26,1.38.45,2.05s0,1-.71,1.15c-2.14.51-4.27,1.08-6.41,1.61-2.45.61-2,.28-1.63,2.54.18,1,.56,1.28,1.57,1,2.28-.57,4.59-1,6.89-1.53,1.35-.29,1.35-.29,1.64,1.11.52,2.54.52,2.54,2.95,1.83.07,0,.17,0,.21-.06C2370.64,162.47,2370.85,162.23,2371,162.08Zm-68.1-33.77c-.1-.35-.17-.59-.25-.83-.43-1.29-.49-1.31-1.79-.85a8,8,0,0,0-3.94,2.89,3.94,3.94,0,0,0-.13,4.82c1,1.28,2.79,1.52,4.63.64a8.55,8.55,0,0,1,1.71-.75,1.35,1.35,0,0,1,1.14.38,1.19,1.19,0,0,1-.07,1.16,10.94,10.94,0,0,1-2.21,1.54,7.9,7.9,0,0,1-1.76.49c.55,2.2.89,2.4,2.9,1.7a7.33,7.33,0,0,0,4.3-3.89,3.81,3.81,0,0,0-.66-4.21,3.85,3.85,0,0,0-4-.51c-.5.24-1,.55-1.47.76-.72.29-1.62.67-2.1-.14s.22-1.52.89-2a6.05,6.05,0,0,1,1.26-.66C2301.79,128.64,2302.28,128.51,2302.89,128.31Zm18.73,75.19c-1.2-.24-2.35-.43-3.48-.71-.28-.07-.68-.4-.7-.64-.11-1.22.42-1.65,1.63-1.44l1.41.25c2.64.49,2.69.45,2.61-2.26,0,0,0-.07-.11-.19l-8.12-1.49-2.8,11.34c.72.22,1.31.42,1.9.57,1.8.45,1.8.44,2.26-1.36.56-2.19.56-2.18,2.85-1.82C2321.61,206.16,2321.34,206.49,2321.62,203.5Zm11.54-1c-1.17.15-2.22.26-3.27.42-.87.12-1.27-.17-1.3-1.11,0-.75.2-1.05.94-1.13,1.36-.16,2.72-.4,4.11-.61-.11-.62-.24-1-.27-1.49-.06-1.16-.7-1.3-1.7-1.12-1.48.26-3,.45-4.48.61-2.42.25-2.45.23-2.32,2.69.14,2.72.36,5.43.5,8.14.05,1,.42,1.26,1.38,1.18,2.67-.24,2.67-.21,2.41-2.91a1.66,1.66,0,0,0,0-.22c-.26-1,.22-1.3,1.13-1.38,1.08-.1,2.15-.31,3.33-.48Zm-32.25-10c.51-.24,1-.48,1.44-.67s.58-.64.39-1.16a6.73,6.73,0,0,0-8.31-4.16,5.82,5.82,0,0,0-4,5.75,6.26,6.26,0,0,0,4.41,6c2,.67,2.37.45,2.93-1.57-3.45-1.63-4.09-2.32-3.85-4.14a3.74,3.74,0,0,1,2.84-3C2298.27,189.13,2299.55,190,2300.91,192.46ZM2327.07,120c-2-.21-1.71-.21-2,1.65-.37,2.92-.62,5.86-1,8.77-.12.89.17,1.21,1,1.29,2.24.21,4.47.46,6.7.65,1.78.15,1.93,0,2.1-1.78.07-.68-.16-.9-.84-.93-1.36-.06-2.72-.24-4.07-.32-1-.05-1.37-.35-1.18-1.43.38-2.25.61-4.52.93-6.78.11-.75-.08-1.14-.9-1.08A5,5,0,0,1,2327.07,120Zm13,2.22a7.58,7.58,0,0,0-.65,1c-1,2.59-2,5.19-3.06,7.78s-1,2,1.34,3.08c.72.33,1.08.11,1.36-.54,1.31-3.07,2.65-6.13,3.93-9.21.11-.26,0-.84-.12-.93C2342,123,2341.12,122.63,2340.06,122.19Zm26.32,25.72c-.37-.82-.72-1.51-1-2.23s-.73-.92-1.51-.54c-2.51,1.22-5.06,2.36-7.59,3.56s-2.25.55-1.13,3.19a.83.83,0,0,0,1.29.52l9.32-4A2.84,2.84,0,0,0,2366.38,147.91Zm1.13,25-1.26,0c-2.83-.06-2.1.36-3-2.14-.1-.26-.21-.52-.42-1-.36.9-.66,1.55-.87,2.23a1.36,1.36,0,0,1-1.62,1.11,18,18,0,0,0-2.08,0l0,.31a17.51,17.51,0,0,0,1.56,1.2,1.32,1.32,0,0,1,.63,1.84,21.6,21.6,0,0,0-.67,2.28c.94-.57,1.63-.95,2.28-1.39a1.16,1.16,0,0,1,1.58.06c.59.47,1.24.86,2,1.39-.24-1.29-.83-2.49-.53-3.39S2366.56,173.78,2367.51,172.91Zm-78.65,5.75a21.72,21.72,0,0,0-.56-2.42,1.34,1.34,0,0,1,.57-1.69c.62-.45,1.17-1,2-1.71-1.12,0-1.89,0-2.66,0a1.12,1.12,0,0,1-1.33-1c-.19-.67-.47-1.32-.82-2.28-.37,1-.66,1.62-.84,2.28a1.35,1.35,0,0,1-1.62,1.11c-.67-.06-1.34,0-2,0l-.08.31a13.87,13.87,0,0,0,1.34,1.06,1.52,1.52,0,0,1,.75,2.18,13.69,13.69,0,0,0-.57,2.06c.56-.33.91-.53,1.24-.74,1.74-1.12,1.74-1.12,3.42,0Z" transform="translate(-2266.05 -106.69)"/><path class="cls-3" d="M2324.39,194.52a30,30,0,1,1,30-29.94A29.94,29.94,0,0,1,2324.39,194.52ZM2314.23,162a8.26,8.26,0,0,0,.89,1,4.17,4.17,0,0,1,1,5.31c-.4.66-.86,1.29-1.32,1.91-2.39,3.3-2.33,5.18.31,8.26,2.33,2.73,2.42,4.54.5,7.58a12.75,12.75,0,0,0-1.53,3c-.5,1.63.15,2.33,2,2.28a6.78,6.78,0,0,1,1.2-4.79c2.54-4.24,2.46-5.24-.63-9-1.92-2.36-2-4.09-.26-6.6,1.09-1.56,2.39-3,2-5.19,1.43.86,1.57,1.06,1,2.36s-1.3,2.21-2,3.32c-1.28,2.18-1.19,3.71.35,5.7.43.55.9,1.08,1.31,1.64a5.23,5.23,0,0,1,.57,5.81,21.43,21.43,0,0,0-1.4,2.74,11.29,11.29,0,0,0-.7,3.51c0,1.48.8,1.88,2.36,1.42-1-2.1-.3-4,.67-5.89.44-.85.86-1.72,1.26-2.58a4.46,4.46,0,0,0-.42-4.7c-.68-1-1.41-1.9-2.12-2.83a3.55,3.55,0,0,1-.14-4.41c.72-1.14,1.35-2.35,2.09-3.48.14-.23.67-.47.84-.38a4.66,4.66,0,0,0,4.34,0,1.15,1.15,0,0,1,1.07.34c.77,1,1.4,2.15,2.14,3.19a3.74,3.74,0,0,1,.09,4.62c-.64.95-1.35,1.85-2.05,2.75a4.45,4.45,0,0,0-.38,5.42c1.42,2.49,2.9,5,1.79,8.1,2.07-.1,2.47-.43,2.36-2.28a9.24,9.24,0,0,0-.71-2.86,18.76,18.76,0,0,0-1.44-2.73,4.42,4.42,0,0,1,.16-5c.66-1,1.41-2,2.14-2.95a3.79,3.79,0,0,0,.42-4.25,26.16,26.16,0,0,0-1.73-2.81c-1.6-2.36-1.42-3.68.85-5.53-.08.28-.12.53-.21.76a4.76,4.76,0,0,0,1,5.23,16.87,16.87,0,0,1,1.19,1.59,4.08,4.08,0,0,1,.06,4.77,34,34,0,0,1-2.08,2.85,4.57,4.57,0,0,0-.48,5.35c1.13,2.18,3,4.09,2.39,6.88,2.19-.44,2.55-.92,1.81-2.8a21.77,21.77,0,0,0-2-3.57,4.26,4.26,0,0,1-.24-4.5,20.78,20.78,0,0,1,2.13-3.21,4.54,4.54,0,0,0,.46-5.44,29.87,29.87,0,0,0-2.05-3.27,4.07,4.07,0,0,1-.51-3.88,14.69,14.69,0,0,1,.76-1.83,8.61,8.61,0,0,0,.36-6.55c-.22-.71-.54-1.38-.82-2.07a5.65,5.65,0,0,1,2.19,4.61,23.05,23.05,0,0,1-1.09,5.48,5.28,5.28,0,0,0,.76,4.9c.56.81,1.16,1.61,1.69,2.45a4.27,4.27,0,0,1,0,4.89c-.57.89-1.21,1.75-1.85,2.61-1.73,2.29-1.76,3.32-.3,5.81.92,1.57,1.73,3.19,2.64,4.88,1.31-.2,1.64-.69.95-2.07-.57-1.14-1.31-2.2-2-3.31a3.65,3.65,0,0,1-.18-3.37c.13,3.06,2.43,4.9,3.45,7.57l2.83-2.06-1.21-.95c.25-.7.57-1.08,1.4-.78,1.22.44,1.83.06,2.35-1.38l-1.88-1c.11-.87.61-1,1.28-.82a4.25,4.25,0,0,1,1.13.42c.95.61,1.33-.08,1.72-.71.51-.82-.31-.88-.72-1.14s-.8-.37-1.18-.6c-.83-.51-1.39-.37-1.62.62a1,1,0,0,1-1.5.75c-1-.5-2-1.18-3-1.74s-1.12-1.32-.48-2.31a4.78,4.78,0,0,0,.12-5.14,37.89,37.89,0,0,0-2.07-3.39,4.23,4.23,0,0,1-.61-3.88c1-3.11,1.61-6.2-.11-9.34a3.16,3.16,0,0,1,1.1,1.15,8.84,8.84,0,0,1,.56,7,6.25,6.25,0,0,0,.95,6.21,9.45,9.45,0,0,1,1.7,3.18,4.53,4.53,0,0,0,2.34,3,9.63,9.63,0,0,0,2,.77v1.25c1.12.51,2.16,1,3.16,1.47.84.43,1-.24,1.32-.71s.25-.84-.33-1.14c-1.16-.6-2.29-1.27-3.55-2l.27-1.26c1.15.54,2.14,1,3.1,1.47,1.63.83,2.21.49,2.31-1.35-1.53-.75-3-1.56-4.56-2.22-.76-.33-.94-.7-.6-1.58a8.78,8.78,0,0,1,1.53.38c.8.36,1.54.85,2.35,1.22,1.91.88,2.29.64,2.38-1.47,0-.07,0-.14,0,0l-3.83-1.75a10.46,10.46,0,0,0-2.11-.9c-1-.19-1.06-.73-.95-1.77.92.28,1.78.5,2.61.8,1,.38,2,.93,3.07,1.22,1.43.39,2-.11,1.94-1.61a11,11,0,0,0-.16-1.11c-1.81.54-3.29-.07-4.78-.78a17.08,17.08,0,0,0-3.08-1.16c-.85-.23-1.11-.69-1.05-1.79a26.39,26.39,0,0,1,2.89.75,23.22,23.22,0,0,0,2.56,1.25,8.13,8.13,0,0,0,2.87,0c.6-.08.84-.59.73-1.26-.18-1.06-.2-2.13-.4-3.18a28,28,0,0,0-34.24-22.17,28.44,28.44,0,0,0-21.19,24.59c-.16,1.78.59,2.53,2.39,2.23a12.19,12.19,0,0,0,2.38-.82c.78-.32,1.51-.8,2.31-1a11.55,11.55,0,0,1,2.16-.28c-.22,1.17-.64,1.73-1.65,1.74a2.63,2.63,0,0,0-1.13.36c-2,1-4,2.18-6.33,1.59-.34,2.85.35,3.09,2.65,2.42.83-.24,1.58-.77,2.41-1.08s1.55-.46,2.33-.68l.31.39c-.25.41-.41,1-.77,1.21-2.09,1-4.22,1.8-6.37,2.7.13,1.93.61,2.28,2.31,1.53.74-.32,1.42-.78,2.17-1.09a12.12,12.12,0,0,1,1.72-.48l.26.26c-.16.39-.2,1-.49,1.13-1.45.78-3,1.43-4.45,2.15-.19.09-.47.36-.44.49a2.5,2.5,0,0,0,.51,1.38,1.52,1.52,0,0,0,1.29,0c.8-.36,1.51-.92,2.3-1.3,1.19-.57,1.56-.28,1.52.91-1.16.65-2.22,1.3-3.33,1.85-.67.33-.71.71-.39,1.3s.63,1,1.38.58c1-.53,2-1,3.07-1.52l-.07-1.27c2.28-.43,4.08-1.28,4.55-3.74a2.1,2.1,0,0,1,.38-.91c2.6-3.27,3-6.82,1.77-10.77a5.65,5.65,0,0,1,1.89-5.48,10.34,10.34,0,0,0-.09,8.56,4.78,4.78,0,0,1-.44,4.32,18.4,18.4,0,0,1-1.09,1.67,6.32,6.32,0,0,0-.52,7.7c.13.21.15.74,0,.83-1.29.88-2.61,1.74-4,2.51-.73.42-1.28.06-1.49-.74s-.63-1-1.3-.79c-.86.33-1.66.8-2.61,1.27l1.34,1.6a10.29,10.29,0,0,1,2-.78c.35-.05.77.39,1.15.6a5,5,0,0,1-.78.69,12.21,12.21,0,0,1-1.37.53c.95,1.57,1.13,1.59,2.69,1.31.4-.07.9.35,1.49.61l-1.27,1.17,2.94,2.1c.92-2.76,3.24-4.56,3.29-7.71a3.26,3.26,0,0,1-.21,3.61c-.62,1-1.35,2-1.87,3.12-.67,1.39-.33,1.89,1,2.19.77-1.44,1.49-2.82,2.23-4.19.21-.39.46-.75.69-1.13a4.08,4.08,0,0,0-.2-4.85c-.69-1-1.42-1.88-2.1-2.84a4.51,4.51,0,0,1-.2-5.28,17.52,17.52,0,0,1,1.61-2.23,4.49,4.49,0,0,0,1-4.42c-.29-1-.6-2-.91-3.06Z" transform="translate(-2266.05 -106.69)"/><path class="cls-3" d="M2306,205.55a6.43,6.43,0,0,1-6.59-6.41,6.29,6.29,0,0,1,6.21-6.17,6.57,6.57,0,0,1,6.58,6.35A6.13,6.13,0,0,1,2306,205.55Zm2.82-6.61a2.83,2.83,0,0,0-1.39-2.76,2.35,2.35,0,0,0-2.69.25,4.4,4.4,0,0,0-1.83,3.93,2.45,2.45,0,0,0,3.53,2.09A4.19,4.19,0,0,0,2308.8,198.94Z" transform="translate(-2266.05 -106.69)"/><path class="cls-3" d="M2321.7,131.25l-3.33.84c-.27-1.18-.5-2.27-.77-3.35-.4-1.62-.42-1.64-2-1.22-2.67.71-2.45.34-1.84,3,.73,3.19.93,2.45-2.34,3.34-.64.18-.94-.08-1.08-.71-.7-3.13-1.4-6.25-2.15-9.36-.19-.78,0-1.18.79-1.33a11.44,11.44,0,0,0,1.27-.36c1.35-.4,1.41-.34,1.73,1.09.74,3.35.2,2.84,3.44,2.08,1-.24,1.27-.73.94-1.64,0-.11,0-.22-.07-.33-.55-2.55-.54-2.51,1.93-3.24.94-.27,1.07.2,1.21.88.59,2.81,1.19,5.61,1.79,8.42C2321.34,129.91,2321.5,130.47,2321.7,131.25Z" transform="translate(-2266.05 -106.69)"/><path class="cls-3" d="M2291.9,136.6a6.21,6.21,0,0,1,6.23,6.25,6.72,6.72,0,0,1-6.59,6.51,6.22,6.22,0,0,1-6-6.56A6.61,6.61,0,0,1,2291.9,136.6Zm-.67,3.23a2.47,2.47,0,0,0-2.37,3.71A4.54,4.54,0,0,0,2292,146a2.53,2.53,0,0,0,3.08-3A4.29,4.29,0,0,0,2291.23,139.83Z" transform="translate(-2266.05 -106.69)"/><path class="cls-3" d="M2290.71,161.77l-6.94-1.67c-1.22-.3-2.44-.56-3.63-.93-.31-.09-.76-.59-.71-.81a56.61,56.61,0,0,1,1.71-6.48,3.82,3.82,0,0,1,4.6-2.64,4.12,4.12,0,0,1,3,4.77,19.35,19.35,0,0,1-.44,2.27c-.16.64,0,.92.69,1.09,2.38.59,2.38.61,2,3C2290.92,160.83,2290.81,161.25,2290.71,161.77Zm-6.4-8.67c-.86,0-1.47,1-1.5,2.35,0,.62.93,1.21,2.06,1.05s.76-1.32,1-2S2285.13,153.09,2284.31,153.1Z" transform="translate(-2266.05 -106.69)"/><path class="cls-3" d="M2355.91,131.93c1.91,2.07,4.05,3.75,5.2,6.25a3.78,3.78,0,0,1-3.88,5.56,6.05,6.05,0,0,1-3.76-2.33c-1-1.13-1-1.14-2.15-.07-1.29,1.21-1.29,1.21-2.61,0l-1.59-1.46Zm.63,4.32c-.81.84-1.94,1.62-1.82,2a4.06,4.06,0,0,0,1.83,1.91c.55.31,1.79-.7,1.58-1.27A16.38,16.38,0,0,0,2356.54,136.25Z" transform="translate(-2266.05 -106.69)"/><path class="cls-3" d="M2343.71,192.36l6.16-5.6,1.68,1.5-3.74,3.53,1.26,1.63c.82-.66,1.58-1.26,2.33-1.88,1.18-1,1.18-1,2.21.22.11.14.21.29.39.54l-2.11,1.76c-1.27,1.07-1.27,1.09-.21,2.32a5.71,5.71,0,0,0,.54.5l4-3.22,1.78,1.74-7.13,6.18Z" transform="translate(-2266.05 -106.69)"/><path class="cls-3" d="M2343.46,195.1c-1.31.66-2.44,1.28-3.61,1.79-.81.36-1,.77-.6,1.6s.84.71,1.47.43c1-.43,1.94-.84,3-1.3l1,2-2.66,1.23c-1.39.61-1.39.61-.79,2,.09.2.2.39.38.73,1.15-.48,2.29-.95,3.42-1.44,1.45-.62,1.45-.62,2.17.83.1.2.18.4.36.8l-8.57,3.93-4.27-10.84,7.51-3.65Z" transform="translate(-2266.05 -106.69)"/><path class="cls-3" d="M2371,162.08c-.14.15-.35.39-.58.62,0,.05-.14,0-.21.06-2.43.71-2.43.71-2.95-1.83-.29-1.4-.29-1.4-1.64-1.11-2.3.5-4.61,1-6.89,1.53-1,.25-1.39-.06-1.57-1-.41-2.26-.82-1.93,1.63-2.54,2.14-.53,4.27-1.1,6.41-1.61.7-.17.92-.46.71-1.15s-.31-1.36-.45-2.05c0-.18-.15-.37-.11-.53.35-1.58,1.85-.87,2.77-1.34.6-.31.8.16.91.71.6,3.21,1.23,6.42,1.85,9.63C2370.9,161.59,2370.93,161.73,2371,162.08Z" transform="translate(-2266.05 -106.69)"/><path class="cls-3" d="M2302.89,128.31c-.61.2-1.1.33-1.58.53a6.05,6.05,0,0,0-1.26.66c-.67.49-1.39,1.16-.89,2s1.38.43,2.1.14c.51-.21,1-.52,1.47-.76a3.85,3.85,0,0,1,4,.51,3.81,3.81,0,0,1,.66,4.21,7.33,7.33,0,0,1-4.3,3.89c-2,.7-2.35.5-2.9-1.7a7.9,7.9,0,0,0,1.76-.49,10.94,10.94,0,0,0,2.21-1.54,1.19,1.19,0,0,0,.07-1.16,1.35,1.35,0,0,0-1.14-.38,8.55,8.55,0,0,0-1.71.75c-1.84.88-3.58.64-4.63-.64a3.94,3.94,0,0,1,.13-4.82,8,8,0,0,1,3.94-2.89c1.3-.46,1.36-.44,1.79.85C2302.72,127.72,2302.79,128,2302.89,128.31Z" transform="translate(-2266.05 -106.69)"/><path class="cls-3" d="M2321.62,203.5c-.28,3,0,2.66-2.55,2.25-2.29-.36-2.29-.37-2.85,1.82-.46,1.8-.46,1.81-2.26,1.36-.59-.15-1.18-.35-1.9-.57l2.8-11.34,8.12,1.49c.08.12.11.15.11.19.08,2.71,0,2.75-2.61,2.26l-1.41-.25c-1.21-.21-1.74.22-1.63,1.44,0,.24.42.57.7.64C2319.27,203.07,2320.42,203.26,2321.62,203.5Z" transform="translate(-2266.05 -106.69)"/><path class="cls-3" d="M2333.16,202.47l.43,2.59c-1.18.17-2.25.38-3.33.48-.91.08-1.39.4-1.13,1.38a1.66,1.66,0,0,1,0,.22c.26,2.7.26,2.67-2.41,2.91-1,.08-1.33-.22-1.38-1.18-.14-2.71-.36-5.42-.5-8.14-.13-2.46-.1-2.44,2.32-2.69,1.5-.16,3-.35,4.48-.61,1-.18,1.64,0,1.7,1.12,0,.44.16.87.27,1.49-1.39.21-2.75.45-4.11.61-.74.08-1,.38-.94,1.13,0,.94.43,1.23,1.3,1.11C2330.94,202.73,2332,202.62,2333.16,202.47Z" transform="translate(-2266.05 -106.69)"/><path class="cls-3" d="M2300.91,192.46c-1.36-2.43-2.64-3.33-4.15-3a3.74,3.74,0,0,0-2.84,3c-.24,1.82.4,2.51,3.85,4.14-.56,2-1,2.24-2.93,1.57a6.26,6.26,0,0,1-4.41-6,5.82,5.82,0,0,1,4-5.75,6.73,6.73,0,0,1,8.31,4.16c.19.52.2.91-.39,1.16S2301.42,192.22,2300.91,192.46Z" transform="translate(-2266.05 -106.69)"/><path class="cls-3" d="M2327.07,120a5,5,0,0,0,.77,0c.82-.06,1,.33.9,1.08-.32,2.26-.55,4.53-.93,6.78-.19,1.08.22,1.38,1.18,1.43,1.35.08,2.71.26,4.07.32.68,0,.91.25.84.93-.17,1.76-.32,1.93-2.1,1.78-2.23-.19-4.46-.44-6.7-.65-.81-.08-1.1-.4-1-1.29.38-2.91.63-5.85,1-8.77C2325.36,119.76,2325.05,119.76,2327.07,120Z" transform="translate(-2266.05 -106.69)"/><path class="cls-3" d="M2340.06,122.19c1.06.44,2,.76,2.8,1.2.16.09.23.67.12.93-1.28,3.08-2.62,6.14-3.93,9.21-.28.65-.64.87-1.36.54-2.35-1.09-2.34-.56-1.34-3.08s2-5.19,3.06-7.78A7.58,7.58,0,0,1,2340.06,122.19Z" transform="translate(-2266.05 -106.69)"/><path class="cls-3" d="M2366.38,147.91a2.84,2.84,0,0,1-.62.5l-9.32,4a.83.83,0,0,1-1.29-.52c-1.12-2.64-1.3-2,1.13-3.19s5.08-2.34,7.59-3.56c.78-.38,1.2-.27,1.51.54S2366,147.09,2366.38,147.91Z" transform="translate(-2266.05 -106.69)"/><path class="cls-3" d="M2367.51,172.91c-1,.87-2.15,1.49-2.46,2.4s.29,2.1.53,3.39c-.77-.53-1.42-.92-2-1.39a1.16,1.16,0,0,0-1.58-.06c-.65.44-1.34.82-2.28,1.39a21.6,21.6,0,0,1,.67-2.28,1.32,1.32,0,0,0-.63-1.84,17.51,17.51,0,0,1-1.56-1.2l0-.31a18,18,0,0,1,2.08,0,1.36,1.36,0,0,0,1.62-1.11c.21-.68.51-1.33.87-2.23.21.51.32.77.42,1,.92,2.5.19,2.08,3,2.14Z" transform="translate(-2266.05 -106.69)"/><path class="cls-3" d="M2288.86,178.66l-1.2-.77c-1.68-1.15-1.68-1.15-3.42,0-.33.21-.68.41-1.24.74a13.69,13.69,0,0,1,.57-2.06,1.52,1.52,0,0,0-.75-2.18,13.87,13.87,0,0,1-1.34-1.06l.08-.31c.68,0,1.35-.05,2,0a1.35,1.35,0,0,0,1.62-1.11c.18-.66.47-1.29.84-2.28.35,1,.63,1.61.82,2.28a1.12,1.12,0,0,0,1.33,1c.77-.06,1.54,0,2.66,0-.81.71-1.36,1.26-2,1.71a1.34,1.34,0,0,0-.57,1.69A21.72,21.72,0,0,1,2288.86,178.66Z" transform="translate(-2266.05 -106.69)"/><path d="M2314.25,162c.31,1,.62,2,.91,3.06a4.49,4.49,0,0,1-1,4.42,17.52,17.52,0,0,0-1.61,2.23,4.51,4.51,0,0,0,.2,5.28c.68,1,1.41,1.88,2.1,2.84a4.08,4.08,0,0,1,.2,4.85c-.23.38-.48.74-.69,1.13-.74,1.37-1.46,2.75-2.23,4.19-1.35-.3-1.69-.8-1-2.19.52-1.09,1.25-2.08,1.87-3.12a3.26,3.26,0,0,0,.21-3.61c-.05,3.15-2.37,4.95-3.29,7.71l-2.94-2.1,1.27-1.17c-.59-.26-1.09-.68-1.49-.61-1.56.28-1.74.26-2.69-1.31a12.21,12.21,0,0,0,1.37-.53,5,5,0,0,0,.78-.69c-.38-.21-.8-.65-1.15-.6a10.29,10.29,0,0,0-2,.78l-1.34-1.6c.95-.47,1.75-.94,2.61-1.27.67-.26,1.12.09,1.3.79s.76,1.16,1.49.74c1.36-.77,2.68-1.63,4-2.51.14-.09.12-.62,0-.83a6.32,6.32,0,0,1,.52-7.7,18.4,18.4,0,0,0,1.09-1.67,4.78,4.78,0,0,0,.44-4.32,10.34,10.34,0,0,1,.09-8.56,5.65,5.65,0,0,0-1.89,5.48c1.21,3.95.83,7.5-1.77,10.77a2.1,2.1,0,0,0-.38.91c-.47,2.46-2.27,3.31-4.55,3.74l.07,1.27c-1.05.52-2.08,1-3.07,1.52-.75.41-1.06,0-1.38-.58s-.28-1,.39-1.3c1.11-.55,2.17-1.2,3.33-1.85,0-1.19-.33-1.48-1.52-.91-.79.38-1.5.94-2.3,1.3a1.52,1.52,0,0,1-1.29,0,2.5,2.5,0,0,1-.51-1.38c0-.13.25-.4.44-.49,1.48-.72,3-1.37,4.45-2.15.29-.15.33-.74.49-1.13l-.26-.26a12.12,12.12,0,0,0-1.72.48c-.75.31-1.43.77-2.17,1.09-1.7.75-2.18.4-2.31-1.53,2.15-.9,4.28-1.75,6.37-2.7.36-.17.52-.8.77-1.21l-.31-.39c-.78.22-1.58.4-2.33.68s-1.58.84-2.41,1.08c-2.3.67-3,.43-2.65-2.42,2.38.59,4.33-.55,6.33-1.59a2.63,2.63,0,0,1,1.13-.36c1,0,1.43-.57,1.65-1.74a11.55,11.55,0,0,0-2.16.28c-.8.25-1.53.73-2.31,1a12.19,12.19,0,0,1-2.38.82c-1.8.3-2.55-.45-2.39-2.23a28.44,28.44,0,0,1,21.19-24.59A28,28,0,0,1,2352,159.46c.2,1,.22,2.12.4,3.18.11.67-.13,1.18-.73,1.26a8.13,8.13,0,0,1-2.87,0,23.22,23.22,0,0,1-2.56-1.25,26.39,26.39,0,0,0-2.89-.75c-.06,1.1.2,1.56,1.05,1.79a17.08,17.08,0,0,1,3.08,1.16c1.49.71,3,1.32,4.78.78a11,11,0,0,1,.16,1.11c0,1.5-.51,2-1.94,1.61-1.06-.29-2-.84-3.07-1.22-.83-.3-1.69-.52-2.61-.8-.11,1,0,1.58.95,1.77a10.46,10.46,0,0,1,2.11.9l3.83,1.75c-.06-.16,0-.09,0,0-.09,2.11-.47,2.35-2.38,1.47-.81-.37-1.55-.86-2.35-1.22a8.78,8.78,0,0,0-1.53-.38c-.34.88-.16,1.25.6,1.58,1.55.66,3,1.47,4.56,2.22-.1,1.84-.68,2.18-2.31,1.35-1-.49-1.95-.93-3.1-1.47l-.27,1.26c1.26.71,2.39,1.38,3.55,2,.58.3.65.65.33,1.14s-.48,1.14-1.32.71c-1-.51-2-1-3.16-1.47v-1.25a9.63,9.63,0,0,1-2-.77,4.53,4.53,0,0,1-2.34-3,9.45,9.45,0,0,0-1.7-3.18,6.25,6.25,0,0,1-.95-6.21,8.84,8.84,0,0,0-.56-7,3.16,3.16,0,0,0-1.1-1.15c1.72,3.14,1.15,6.23.11,9.34a4.23,4.23,0,0,0,.61,3.88,37.89,37.89,0,0,1,2.07,3.39,4.78,4.78,0,0,1-.12,5.14c-.64,1-.59,1.71.48,2.31s2,1.24,3,1.74a1,1,0,0,0,1.5-.75c.23-1,.79-1.13,1.62-.62.38.23.81.37,1.18.6s1.23.32.72,1.14c-.39.63-.77,1.32-1.72.71a4.25,4.25,0,0,0-1.13-.42c-.67-.19-1.17-.05-1.28.82l1.88,1c-.52,1.44-1.13,1.82-2.35,1.38-.83-.3-1.15.08-1.4.78l1.21.95-2.83,2.06c-1-2.67-3.32-4.51-3.45-7.57a3.65,3.65,0,0,0,.18,3.37c.66,1.11,1.4,2.17,2,3.31.69,1.38.36,1.87-.95,2.07-.91-1.69-1.72-3.31-2.64-4.88-1.46-2.49-1.43-3.52.3-5.81.64-.86,1.28-1.72,1.85-2.61a4.27,4.27,0,0,0,0-4.89c-.53-.84-1.13-1.64-1.69-2.45a5.28,5.28,0,0,1-.76-4.9,23.05,23.05,0,0,0,1.09-5.48,5.65,5.65,0,0,0-2.19-4.61c.28.69.6,1.36.82,2.07a8.61,8.61,0,0,1-.36,6.55,14.69,14.69,0,0,0-.76,1.83,4.07,4.07,0,0,0,.51,3.88,29.87,29.87,0,0,1,2.05,3.27,4.54,4.54,0,0,1-.46,5.44,20.78,20.78,0,0,0-2.13,3.21,4.26,4.26,0,0,0,.24,4.5,21.77,21.77,0,0,1,2,3.57c.74,1.88.38,2.36-1.81,2.8.57-2.79-1.26-4.7-2.39-6.88a4.57,4.57,0,0,1,.48-5.35,34,34,0,0,0,2.08-2.85,4.08,4.08,0,0,0-.06-4.77,16.87,16.87,0,0,0-1.19-1.59,4.76,4.76,0,0,1-1-5.23c.09-.23.13-.48.21-.76-2.27,1.85-2.45,3.17-.85,5.53a26.16,26.16,0,0,1,1.73,2.81,3.79,3.79,0,0,1-.42,4.25c-.73,1-1.48,1.93-2.14,2.95a4.42,4.42,0,0,0-.16,5,18.76,18.76,0,0,1,1.44,2.73,9.24,9.24,0,0,1,.71,2.86c.11,1.85-.29,2.18-2.36,2.28,1.11-3.09-.37-5.61-1.79-8.1a4.45,4.45,0,0,1,.38-5.42c.7-.9,1.41-1.8,2.05-2.75a3.74,3.74,0,0,0-.09-4.62c-.74-1-1.37-2.17-2.14-3.19a1.15,1.15,0,0,0-1.07-.34,4.66,4.66,0,0,1-4.34,0c-.17-.09-.7.15-.84.38-.74,1.13-1.37,2.34-2.09,3.48a3.55,3.55,0,0,0,.14,4.41c.71.93,1.44,1.87,2.12,2.83a4.46,4.46,0,0,1,.42,4.7c-.4.86-.82,1.73-1.26,2.58-1,1.88-1.63,3.79-.67,5.89-1.56.46-2.36.06-2.36-1.42a11.29,11.29,0,0,1,.7-3.51,21.43,21.43,0,0,1,1.4-2.74,5.23,5.23,0,0,0-.57-5.81c-.41-.56-.88-1.09-1.31-1.64-1.54-2-1.63-3.52-.35-5.7.65-1.11,1.41-2.16,2-3.32s.47-1.5-1-2.36c.36,2.2-.94,3.63-2,5.19-1.75,2.51-1.66,4.24.26,6.6,3.09,3.8,3.17,4.8.63,9a6.78,6.78,0,0,0-1.2,4.79c-1.87,0-2.52-.65-2-2.28a12.75,12.75,0,0,1,1.53-3c1.92-3,1.83-4.85-.5-7.58-2.64-3.08-2.7-5-.31-8.26.46-.62.92-1.25,1.32-1.91a4.17,4.17,0,0,0-1-5.31,8.26,8.26,0,0,1-.89-1c.35-2.71.46-5.48,2-7.9A7.07,7.07,0,0,0,2314.25,162Zm1.82-12.95-4.35-1.35,2.67,5.66a22.47,22.47,0,0,1,20.21-.1l2.59-5.68-4.29,1.35,1.1-3.7c-2.34.2-4,1.6-5.95,2.58a24.43,24.43,0,0,1-1.06-2.59,1.45,1.45,0,0,1,.25-1.2,21.43,21.43,0,0,1,2-1.79l-.23-.31a11.63,11.63,0,0,0-1.85-.15,1.65,1.65,0,0,1-1.9-1.39,16.55,16.55,0,0,0-.83-1.86c-.4.9-.73,1.51-.95,2.16a1.52,1.52,0,0,1-1.63,1.17c-.69,0-1.39.1-2.13.16.84,1,2,1.76,2.21,2.74s-.63,2.13-1,3.25c-2.17-1-3.77-2.49-6-2.74Zm1.12,13.72.51.69a10.42,10.42,0,0,0,5.17,3.93c2.3.81,6.32-1.32,7.56-4.09.33-.74.55-1.08,1.48-.9s1.42-.5,1.52-1.39c.06-.64,0-1.57-.72-1.46-1.06.16-1.59-.55-2.25-.94a2.31,2.31,0,0,0-2.18-.38,1.49,1.49,0,0,1-1.3-.6c-.15-.75.55-.78,1.12-.79a1.87,1.87,0,0,0,.4-.07l.13-.35a15.06,15.06,0,0,0-3.3-1.57c-2.42-.51-4.42.93-6.52,1.84-.18.07-.27.39-.38.6-.34.65-.68,1.3-1,2s-.58.91-1.36.65-1.26.2-1.35,1C2314.54,162.44,2315.52,163.19,2317.19,162.77Zm-11.73-7.69c-.45-2.16-1.11-4.06-3.35-5.24a10.07,10.07,0,0,1-1.08,6.06c-1,1.77-2.08,3.49-3.16,5.3a3.51,3.51,0,0,0,3,0c1.22-.51,2.45-1.47,3.65-1.43,2.52.08,3.73-1.51,5.11-3.07a11.8,11.8,0,0,1,1.39-1.25c.41-.34.85-.64,1.41-1C2309.87,153.14,2307.75,154.37,2305.46,155.08Zm45.68,6.07c-2.14-3.47-5-6.54-4-11.2-2.64,1-3.09,3.2-3.71,5.3-2.24-1-4.34-2.05-6.53-1,1.59,1.7,3.07,3.31,4.58,4.89a.94.94,0,0,0,.62.35c2.18-.2,4,.75,5.85,1.67A3.26,3.26,0,0,0,2351.14,161.15ZM2331,154.22c-1.08-.44-1.68.61-2.56.83C2329.72,156.22,2330.08,154.33,2331,154.22Z" transform="translate(-2266.05 -106.69)"/><path d="M2308.8,198.94a4.19,4.19,0,0,1-2.38,3.51,2.45,2.45,0,0,1-3.53-2.09,4.4,4.4,0,0,1,1.83-3.93,2.35,2.35,0,0,1,2.69-.25A2.83,2.83,0,0,1,2308.8,198.94Z" transform="translate(-2266.05 -106.69)"/><path d="M2291.23,139.83A4.29,4.29,0,0,1,2295,143a2.53,2.53,0,0,1-3.08,3,4.54,4.54,0,0,1-3.1-2.47A2.47,2.47,0,0,1,2291.23,139.83Z" transform="translate(-2266.05 -106.69)"/><path d="M2284.31,153.1c.82,0,1.69.68,1.51,1.36s.24,1.88-1,2-2.07-.43-2.06-1.05C2282.84,154.06,2283.45,153.1,2284.31,153.1Z" transform="translate(-2266.05 -106.69)"/><path d="M2356.54,136.25a16.38,16.38,0,0,1,1.59,2.62c.21.57-1,1.58-1.58,1.27a4.06,4.06,0,0,1-1.83-1.91C2354.6,137.87,2355.73,137.09,2356.54,136.25Z" transform="translate(-2266.05 -106.69)"/><path class="cls-3" d="M2316.07,149.05l-1.17-3.79c2.24.25,3.84,1.76,6,2.74.39-1.12,1.21-2.28,1-3.25s-1.37-1.76-2.21-2.74c.74-.06,1.44-.17,2.13-.16a1.52,1.52,0,0,0,1.63-1.17c.22-.65.55-1.26.95-2.16a16.55,16.55,0,0,1,.83,1.86,1.65,1.65,0,0,0,1.9,1.39,11.63,11.63,0,0,1,1.85.15l.23.31a21.43,21.43,0,0,0-2,1.79,1.45,1.45,0,0,0-.25,1.2,24.43,24.43,0,0,0,1.06,2.59c2-1,3.61-2.38,5.95-2.58l-1.1,3.7,4.29-1.35-2.59,5.68a22.47,22.47,0,0,0-20.21.1l-2.67-5.66Z" transform="translate(-2266.05 -106.69)"/><path class="cls-3" d="M2317.19,162.77c-1.67.42-2.65-.33-2.48-1.84.09-.83.6-1.27,1.35-1s1.07-.09,1.36-.65.67-1.31,1-2c.11-.21.2-.53.38-.6,2.1-.91,4.1-2.35,6.52-1.84a15.06,15.06,0,0,1,3.3,1.57l-.13.35a1.87,1.87,0,0,1-.4.07c-.57,0-1.27,0-1.12.79a1.49,1.49,0,0,0,1.3.6,2.31,2.31,0,0,1,2.18.38c.66.39,1.19,1.1,2.25.94.72-.11.78.82.72,1.46-.1.89-.67,1.55-1.52,1.39s-1.15.16-1.48.9c-1.24,2.77-5.26,4.9-7.56,4.09a10.42,10.42,0,0,1-5.17-3.93Zm5.81-2.17c-.84-.56-1.72-1.61-2.62-1.62s-1.65,1.12-2.46,1.73c.78,1,1,2.35,2.59,2.23S2322.32,161.67,2323,160.6Zm2.56.12c2.07,2.63,2.81,2.58,4.7-.18-.7-.73-1.09-1.73-2.43-1.77S2326.37,160.08,2325.56,160.72Zm-5.24-4.22-1.41,1.38c.29.22.68.67.85.6a8.19,8.19,0,0,0,1.48-1Zm3.23,7-.16-.41-2.32.76.13.36C2322,164,2322.93,164.29,2323.55,163.54Zm1.81,1.58h-.27l-.74.73-.66-.93c-.16.39-.2.94,0,1.08a1.43,1.43,0,0,0,1.2.05C2325.15,166,2325.21,165.45,2325.36,165.12Zm2-1.05.11-.53-2.42-.46-.11.54Z" transform="translate(-2266.05 -106.69)"/><path class="cls-3" d="M2305.46,155.08c2.29-.71,4.41-1.94,7-.68-.56.4-1,.7-1.41,1a11.8,11.8,0,0,0-1.39,1.25c-1.38,1.56-2.59,3.15-5.11,3.07-1.2,0-2.43.92-3.65,1.43a3.51,3.51,0,0,1-3,0c1.08-1.81,2.17-3.53,3.16-5.3a10.07,10.07,0,0,0,1.08-6.06C2304.35,151,2305,152.92,2305.46,155.08Z" transform="translate(-2266.05 -106.69)"/><path class="cls-3" d="M2351.14,161.15a3.26,3.26,0,0,1-3.2,0c-1.85-.92-3.67-1.87-5.85-1.67a.94.94,0,0,1-.62-.35c-1.51-1.58-3-3.19-4.58-4.89,2.19-1.06,4.29,0,6.53,1,.62-2.1,1.07-4.28,3.71-5.3C2346.15,154.61,2349,157.68,2351.14,161.15Z" transform="translate(-2266.05 -106.69)"/><path class="cls-3" d="M2314.25,162a7.07,7.07,0,0,1,2-7.89c-1.57,2.42-1.68,5.19-2,7.9Z" transform="translate(-2266.05 -106.69)"/><path class="cls-3" d="M2331,154.22c-.91.11-1.27,2-2.56.83C2329.31,154.83,2329.91,153.78,2331,154.22Z" transform="translate(-2266.05 -106.69)"/><path d="M2323,160.6c-.68,1.07-1.07,2.23-2.49,2.34s-1.81-1.23-2.59-2.23c.81-.61,1.64-1.73,2.46-1.73S2322.16,160,2323,160.6Zm-3.83.45-.32.18c.27.37.5,1,.82,1a3.8,3.8,0,0,0,1.85-.22c.24-.08.31-.62.45-1C2320.39,161.92,2320.39,161.92,2319.17,161.05Z" transform="translate(-2266.05 -106.69)"/><path d="M2325.56,160.72c.81-.64.78-2,2.27-1.95s1.73,1,2.43,1.77C2328.37,163.3,2327.63,163.35,2325.56,160.72Zm1.05.23c0,1,.6,1.2,1.33,1.21s1.21-.4,1.34-1.6C2328.46,161.8,2327.6,162,2326.61,161Z" transform="translate(-2266.05 -106.69)"/><path d="M2320.32,156.5l.92.95a8.19,8.19,0,0,1-1.48,1c-.17.07-.56-.38-.85-.6Z" transform="translate(-2266.05 -106.69)"/><path d="M2323.55,163.54c-.62.75-1.56.49-2.35.71l-.13-.36,2.32-.76Z" transform="translate(-2266.05 -106.69)"/><path d="M2325.36,165.12c-.15.33-.21.83-.45.94a1.43,1.43,0,0,1-1.2-.05c-.22-.14-.18-.69,0-1.08l.66.93.74-.73Z" transform="translate(-2266.05 -106.69)"/><path d="M2327.35,164.07l-2.42-.45.11-.54,2.42.46Z" transform="translate(-2266.05 -106.69)"/><path class="cls-3" d="M2319.17,161.05c1.22.87,1.22.87,2.8,0-.14.33-.21.87-.45,1a3.8,3.8,0,0,1-1.85.22c-.32-.06-.55-.67-.82-1Z" transform="translate(-2266.05 -106.69)"/><path class="cls-3" d="M2326.61,161c1,1.09,1.85.85,2.67-.39-.13,1.2-.54,1.61-1.34,1.6S2326.62,161.91,2326.61,161Z" transform="translate(-2266.05 -106.69)"/></g></svg>