<svg id="Layer_2" data-name="Layer 2" xmlns="http://www.w3.org/2000/svg" xmlns:xlink="http://www.w3.org/1999/xlink" viewBox="0 0 1694.43 1854.52"><defs><style>.cls-1{fill:none;}.cls-2{fill:#ffb9b9;}.cls-3{isolation:isolate;opacity:0.2;}.cls-4{fill:#71db3a;}.cls-5{clip-path:url(#clip-path);}.cls-6{fill:url(#linear-gradient);}</style><clipPath id="clip-path" transform="translate(15.01 -1884.37)"><path class="cls-1" d="M918.71,3159.37V2025c-.82-.14-1.27-.19-1.27-.19L858.9,2171.15,654,2512.63l-19.51,400L68,3540.89l458.33,142.55c.19-.28,3.24,2.86,3.44,2.56l-1.58,10.89s235.85-237.09,442.9-456A89.57,89.57,0,0,1,918.71,3159.37Z"/></clipPath><linearGradient id="linear-gradient" x1="-103.94" y1="1667.01" x2="1203.94" y2="942.04" gradientUnits="userSpaceOnUse"><stop offset="0.34" stop-color="#fff"/><stop offset="0.69" stop-color="#fff" stop-opacity="0"/></linearGradient></defs><path class="cls-2" d="M933.71,3144.37V2368l-72.37,39.76L548,3378.22l-15.74,302.16s242.67-231,453.22-454.8A89.56,89.56,0,0,1,933.71,3144.37Z" transform="translate(15.01 -1884.37)"/><path class="cls-2" d="M1671.14,2100.41l-70.06-6.67v127.88C1714.93,2196,1671.14,2100.41,1671.14,2100.41Z" transform="translate(15.01 -1884.37)"/><path class="cls-2" d="M1671.14,2280.91l-70.06-6.67v127.88C1714.93,2376.47,1671.14,2280.91,1671.14,2280.91Z" transform="translate(15.01 -1884.37)"/><path class="cls-2" d="M1671.14,2476l-70.06-6.67v127.88C1714.93,2571.6,1671.14,2476,1671.14,2476Z" transform="translate(15.01 -1884.37)"/><path class="cls-2" d="M1641.87,2671.17l-40.79-3.88v115.63C1677.45,2748.82,1641.87,2671.17,1641.87,2671.17Z" transform="translate(15.01 -1884.37)"/><rect class="cls-3" x="1608.82" y="2109.95" width="64.3" height="3.15" transform="translate(-613.7 -1186.99) rotate(-20.22)"/><rect class="cls-3" x="1608.82" y="2292.5" width="64.3" height="3.15" transform="translate(-676.81 -1175.74) rotate(-20.22)"/><rect class="cls-3" x="1608.82" y="2487.65" width="64.3" height="3.15" transform="translate(-744.26 -1163.71) rotate(-20.22)"/><rect class="cls-3" x="1608.68" y="2678.73" width="32.59" height="3.15" transform="translate(-984.75 -917.33) rotate(-25.64)"/><path class="cls-4" d="M1526.52,1884.37H1008.27a89.55,89.55,0,0,0-89.56,89.55V3159.37a89.56,89.56,0,0,0,89.56,89.56h518.25a89.56,89.56,0,0,0,89.56-89.56V1973.92A89.55,89.55,0,0,0,1526.52,1884.37Zm74.56,1260a89.56,89.56,0,0,1-89.56,89.56H1023.27a89.56,89.56,0,0,1-89.56-89.56V1988.92a89.55,89.55,0,0,1,89.56-89.55h92.22a17.9,17.9,0,0,1,17.91,17.9v8.1a35,35,0,0,0,35,35h198a35,35,0,0,0,35-35v-8.1a17.89,17.89,0,0,1,17.9-17.9h92.22a89.55,89.55,0,0,1,89.56,89.55Z" transform="translate(15.01 -1884.37)"/><path class="cls-2" d="M88.47,3535.59l546-622.94,19.51-400L858.9,2171.15l58.54-146.35s136.59,14.63,24.39,292.7l-46.34,148.78h0c41.78,90,31.94,188,31.94,287.19v341c0,80.28-351.1,517.58-395.63,584.38h0Z" transform="translate(15.01 -1884.37)"/><polygon class="cls-3" points="916.4 315.72 875.66 295.7 877.05 292.87 914.68 311.37 971.5 162.42 974.44 163.55 916.4 315.72"/><g class="cls-5"><rect class="cls-6" y="754.52" width="1100" height="1100"/></g></svg>