<svg id="Layer_2" data-name="Layer 2" xmlns="http://www.w3.org/2000/svg" viewBox="0 0 664.74 454.87"><defs><style>.cls-1{fill:#ffb9b9;}.cls-2{fill:#d0cde1;}.cls-3{fill:#2f2e41;}.cls-4{fill:#71db3a;}.cls-5{fill:#3f3d56;}.cls-6{fill:#ccc;}</style></defs><path class="cls-1" d="M5431.53,2636a8.52,8.52,0,0,1,1.4-.3l19-38.56-5.8-8.69,12-10.45,15,18.4L5442.49,2641a9.1,9.1,0,1,1-12-4.59,9.58,9.58,0,0,1,1.06-.39Z" transform="translate(-4906.92 -2499.8)"/><path class="cls-2" d="M5463.92,2583.3a3.93,3.93,0,0,1-.88.7l-19.42,11.25a3.89,3.89,0,0,1-5.32-1.41l-.16-.29-9.44-20a3.88,3.88,0,0,1,1.33-4.89l12-8.19a3.89,3.89,0,0,1,5,.47l16.82,16.88a3.89,3.89,0,0,1,.08,5.43Z" transform="translate(-4906.92 -2499.8)"/><polygon class="cls-1" points="584.26 304.44 574.01 307.23 558.37 269.02 573.5 264.9 584.26 304.44"/><path class="cls-3" d="M5472.81,2806.09l19.77-5.37h0l3.39,12.44h0l-32.22,8.77h0A12.91,12.91,0,0,1,5472.81,2806.09Z" transform="translate(-4906.92 -2499.8)"/><polygon class="cls-1" points="496.63 312.26 486 312.26 480.95 271.28 496.63 271.28 496.63 312.26"/><path class="cls-3" d="M5385.34,2809h20.48v12.9h-33.38A12.89,12.89,0,0,1,5385.34,2809Z" transform="translate(-4906.92 -2499.8)"/><circle class="cls-1" cx="507.82" cy="25.83" r="21.28"/><path class="cls-3" d="M5402.9,2782.85h-14.52a3.93,3.93,0,0,1-3.9-3.66c-4.32-68.77-1.79-118.1,8-155.24a3,3,0,0,1,.16-.48l.77-1.94a3.87,3.87,0,0,1,3.62-2.45h29.86a3.84,3.84,0,0,1,3,1.36l4.05,4.73a3.11,3.11,0,0,1,.23.28c18.28,25.5,34.67,75.35,53.65,142.35a3.89,3.89,0,0,1-2.57,4.78l-15.6,5a3.93,3.93,0,0,1-4.7-2l-40.49-84a3,3,0,0,0-5.73.91l-11.9,87A3.92,3.92,0,0,1,5402.9,2782.85Z" transform="translate(-4906.92 -2499.8)"/><path class="cls-2" d="M5432.24,2625.51h-.13l-36.26-1.14a3.89,3.89,0,0,1-3.75-3.43c-4.6-37.21,8-47.18,13.64-49.73a3,3,0,0,0,1.75-2.38l.49-3.9a3.82,3.82,0,0,1,.77-1.9c8.83-11.44,20.89-15.1,27.29-16.27a3.89,3.89,0,0,1,4.52,3.15.58.58,0,0,1,0,.19l.73,5.6a3.12,3.12,0,0,0,.62,1.46c18.42,24.09-2.1,59.64-6.4,66.53h0A3.9,3.9,0,0,1,5432.24,2625.51Z" transform="translate(-4906.92 -2499.8)"/><path class="cls-3" d="M5457.68,2528a84.65,84.65,0,0,0-16.9-17.69c-5.37-4.2-11.35-7.78-17.95-9.5s-13.88-1.42-19.9,1.78-12.24,9.55-12.27,16.37c0,2.19.54,5.15,2.7,4.77l.62.08,15.6-3.15,6.65,23.06c.47,1.62,1.09,3.43,2.63,4.13s3.12,0,4.59-.58c.24-.1,2.31-4.75,2.31-4.75a.87.87,0,0,1,1.11-.52,1,1,0,0,1,.39.27l1.23,1.54a1.75,1.75,0,0,0,2,.52l25.44-10.63c1.17-.49,2.48-1.12,2.82-2.35S5458.38,2529,5457.68,2528Z" transform="translate(-4906.92 -2499.8)"/><path class="cls-4" d="M5413.78,2687.67a2.78,2.78,0,0,1-1.64-.54l-3.94-2.86a1.92,1.92,0,0,0-2.26,0l-3.94,2.86a2.78,2.78,0,0,1-3.89-.61,2.82,2.82,0,0,1-.4-2.5l1.51-4.64a1.89,1.89,0,0,0-.7-2.14l-3.94-2.87a2.79,2.79,0,0,1,1.64-5h4.87a1.91,1.91,0,0,0,1.83-1.32l1.5-4.64a2.79,2.79,0,0,1,5.3,0l1.51,4.64a1.89,1.89,0,0,0,1.82,1.32h4.88a2.79,2.79,0,0,1,1.63,5l-3.94,2.87a1.89,1.89,0,0,0-.7,2.14l1.51,4.64a2.8,2.8,0,0,1-2.65,3.65Z" transform="translate(-4906.92 -2499.8)"/><path class="cls-1" d="M5428.85,2678.4a9.3,9.3,0,0,0,2.28-13,9.82,9.82,0,0,0-1.06-1.26l6.74-81.34-20.06,2.76-.38,79a9.36,9.36,0,0,0,12.48,13.77Z" transform="translate(-4906.92 -2499.8)"/><path class="cls-2" d="M5438.12,2594.55a3.77,3.77,0,0,1-1.11-.16l-21.53-6.33a3.89,3.89,0,0,1-2.64-4.84c0-.1.06-.21.1-.31l8-20.58a3.88,3.88,0,0,1,4.47-2.4l14.22,3.09a3.9,3.9,0,0,1,3.07,3.92l-.66,23.82a3.89,3.89,0,0,1-3.89,3.79Z" transform="translate(-4906.92 -2499.8)"/><path class="cls-5" d="M5275.29,2620.48h-330.8A5.45,5.45,0,0,1,4939,2615v-98.85a5.45,5.45,0,0,1,5.45-5.45h330.8a5.46,5.46,0,0,1,5.45,5.45V2615A5.46,5.46,0,0,1,5275.29,2620.48Zm-330.8-108.19a3.9,3.9,0,0,0-3.9,3.89V2615a3.9,3.9,0,0,0,3.9,3.89h330.8a3.89,3.89,0,0,0,3.89-3.89v-98.85a3.89,3.89,0,0,0-3.89-3.89Z" transform="translate(-4906.92 -2499.8)"/><path class="cls-4" d="M5097.47,2662.1a3.05,3.05,0,0,1-1.8-.59l-4.34-3.16a2.1,2.1,0,0,0-2.48,0l-4.34,3.16a3.07,3.07,0,0,1-4.72-3.43l1.66-5.1a2.09,2.09,0,0,0-.76-2.36l-4.34-3.16a3.06,3.06,0,0,1,1.8-5.54h5.36a2.11,2.11,0,0,0,2-1.46l1.66-5.1a3.06,3.06,0,0,1,3.86-2,3.12,3.12,0,0,1,2,2l1.65,5.1a2.12,2.12,0,0,0,2,1.46H5102a3.06,3.06,0,0,1,1.8,5.54l-4.34,3.16a2.08,2.08,0,0,0-.77,2.36l1.66,5.1a3.08,3.08,0,0,1-2.92,4Z" transform="translate(-4906.92 -2499.8)"/><path class="cls-4" d="M5139.4,2662.1a3.05,3.05,0,0,1-1.8-.59l-4.34-3.16a2.1,2.1,0,0,0-2.48,0l-4.34,3.16a3.07,3.07,0,0,1-4.72-3.43l1.66-5.1a2.11,2.11,0,0,0-.77-2.36l-4.34-3.16a3.06,3.06,0,0,1,1.8-5.54h5.37a2.1,2.1,0,0,0,2-1.46l1.66-5.1a3.06,3.06,0,0,1,5.83,0l1.66,5.1a2.11,2.11,0,0,0,2,1.46H5144A3.07,3.07,0,0,1,5147,2645a3,3,0,0,1-1.27,2.47l-4.34,3.16a2.09,2.09,0,0,0-.76,2.36l1.65,5.1a3,3,0,0,1-1.11,3.43A3.05,3.05,0,0,1,5139.4,2662.1Z" transform="translate(-4906.92 -2499.8)"/><path class="cls-4" d="M5180.3,2662.1a3.05,3.05,0,0,1-1.8-.59l-4.35-3.16a2.1,2.1,0,0,0-2.48,0l-4.34,3.16a3.07,3.07,0,0,1-4.28-.68,3.1,3.1,0,0,1-.43-2.75l1.66-5.1a2.11,2.11,0,0,0-.77-2.36l-4.34-3.16a3.06,3.06,0,0,1,1.8-5.54h5.36a2.11,2.11,0,0,0,2-1.46l1.66-5.1a3.06,3.06,0,0,1,5.83,0l1.66,5.1a2.1,2.1,0,0,0,2,1.46h5.37a3.06,3.06,0,0,1,1.8,5.54l-4.34,3.16a2.11,2.11,0,0,0-.77,2.36l1.66,5.1a3,3,0,0,1-1.11,3.43A3.08,3.08,0,0,1,5180.3,2662.1Z" transform="translate(-4906.92 -2499.8)"/><path class="cls-4" d="M5221.19,2662.1a3.08,3.08,0,0,1-1.8-.59l-4.34-3.16a2.1,2.1,0,0,0-2.48,0l-4.34,3.16a3.06,3.06,0,0,1-4.71-3.43l1.65-5.1a2.09,2.09,0,0,0-.76-2.36l-4.34-3.16a3.06,3.06,0,0,1,1.8-5.54h5.36a2.11,2.11,0,0,0,2-1.46l1.66-5.1a3.06,3.06,0,0,1,3.86-2,3.12,3.12,0,0,1,2,2l1.65,5.1a2.12,2.12,0,0,0,2,1.46h5.37a3.06,3.06,0,0,1,1.8,5.54l-4.34,3.16a2.11,2.11,0,0,0-.77,2.36l1.66,5.1a3.08,3.08,0,0,1-2.92,4Z" transform="translate(-4906.92 -2499.8)"/><path class="cls-5" d="M5250.41,2662.4a3.38,3.38,0,0,1-3.2-4.41l1.66-5.11a1.8,1.8,0,0,0-.66-2l-4.34-3.15a3.37,3.37,0,0,1-.74-4.7,3.33,3.33,0,0,1,2.72-1.39h5.37a1.8,1.8,0,0,0,1.72-1.25l1.65-5.1a3.37,3.37,0,0,1,6.41,0l1.65,5.1a1.81,1.81,0,0,0,1.72,1.25h5.37a3.37,3.37,0,0,1,2,6.09l-4.34,3.15a1.8,1.8,0,0,0-.66,2l1.66,5.11a3.36,3.36,0,0,1-5.18,3.76l-4.34-3.15a1.79,1.79,0,0,0-2.13,0l-4.34,3.15A3.33,3.33,0,0,1,5250.41,2662.4Zm7.39-5.71a3.32,3.32,0,0,1,2,.65l4.34,3.15a1.81,1.81,0,0,0,2.79-2l-1.66-5.11a3.37,3.37,0,0,1,1.22-3.76l4.34-3.15a1.81,1.81,0,0,0-1.06-3.27h-5.37a3.37,3.37,0,0,1-3.2-2.33l-1.65-5.1a1.81,1.81,0,0,0-2.28-1.16,1.83,1.83,0,0,0-1.17,1.16l-1.65,5.1a3.36,3.36,0,0,1-3.2,2.33h-5.37a1.81,1.81,0,0,0-1.06,3.27l4.34,3.15a3.37,3.37,0,0,1,1.22,3.76l-1.66,5.11a1.81,1.81,0,0,0,2.79,2l4.34-3.15A3.33,3.33,0,0,1,5257.8,2656.69Z" transform="translate(-4906.92 -2499.8)"/><path class="cls-6" d="M4981.85,2534.08a5.06,5.06,0,0,0,0,10.12h256.08a5.06,5.06,0,0,0,0-10.12Z" transform="translate(-4906.92 -2499.8)"/><path class="cls-6" d="M4981.85,2560.54a5.06,5.06,0,0,0,0,10.12h256.08a5.06,5.06,0,0,0,0-10.12Z" transform="translate(-4906.92 -2499.8)"/><path class="cls-6" d="M4981.85,2587a5.06,5.06,0,0,0,0,10.12h256.08a5.06,5.06,0,0,0,0-10.12Z" transform="translate(-4906.92 -2499.8)"/><path class="cls-6" d="M4981.85,2534.08a5.06,5.06,0,0,0,0,10.12h256.08a5.06,5.06,0,0,0,0-10.12Z" transform="translate(-4906.92 -2499.8)"/><path class="cls-6" d="M4981.85,2560.54a5.06,5.06,0,0,0,0,10.12h256.08a5.06,5.06,0,0,0,0-10.12Z" transform="translate(-4906.92 -2499.8)"/><path class="cls-6" d="M4981.85,2587a5.06,5.06,0,0,0,0,10.12h256.08a5.06,5.06,0,0,0,0-10.12Z" transform="translate(-4906.92 -2499.8)"/><path d="M5032.91,2885h-7.7v21.31h-4.07V2885h-7.67v-3.89h19.44Z" transform="translate(-4906.92 -2499.8)"/><path d="M5052.82,2896.43a10.26,10.26,0,1,1-10.26-10.33A10.09,10.09,0,0,1,5052.82,2896.43Zm-16.42,0a6.16,6.16,0,1,0,6.16-6.44A6.12,6.12,0,0,0,5036.4,2896.43Z" transform="translate(-4906.92 -2499.8)"/><path d="M5075,2886.53v19.8h-4.07v-16h-6.55l-1.3,8.28c-1,5.9-3.16,8.13-6.55,8.13a13.71,13.71,0,0,1-2-.21v-3.67c.39,0,.79.1,1.19.1,1.9,0,2.73-1,3.34-4.71l1.87-11.74Z" transform="translate(-4906.92 -2499.8)"/><path d="M5096.56,2899.38c0,4.76-3.17,6.95-7.24,6.95h-9.64v-19.8h4.06v6.19h5.73C5093.54,2892.72,5096.56,2894.63,5096.56,2899.38Zm-4.1,0c0-1.83-.73-3.06-3.21-3.06h-5.51v6.12h5.47C5091.7,2902.44,5092.46,2901.15,5092.46,2899.38Z" transform="translate(-4906.92 -2499.8)"/><path d="M5114.05,2906.33l-9.32-9.14v9.14h-4.07v-19.8h4.07v8.57l8.57-8.57h5.22l-9.68,9.4,10.47,10.4Z" transform="translate(-4906.92 -2499.8)"/><path d="M5140.3,2896.43A10.26,10.26,0,1,1,5130,2886.1,10.09,10.09,0,0,1,5140.3,2896.43Zm-16.42,0A6.16,6.16,0,1,0,5130,2890,6.12,6.12,0,0,0,5123.88,2896.43Z" transform="translate(-4906.92 -2499.8)"/><path d="M5173.53,2906.33h-4.07v-16h-10.22v16h-4.07v-19.8h18.36Z" transform="translate(-4906.92 -2499.8)"/><path d="M5198.54,2896.43c0,6.05-3.85,10.33-9.14,10.33a8,8,0,0,1-6.91-3.74v12.31h-4.07v-28.8h4.07v3.39a8,8,0,0,1,6.95-3.82C5194.62,2886.1,5198.54,2890.39,5198.54,2896.43Zm-4.1,0c0-3.78-2.45-6.44-5.9-6.44s-6.08,2.66-6.08,6.44,2.62,6.45,6.08,6.45S5194.44,2900.25,5194.44,2896.43Z" transform="translate(-4906.92 -2499.8)"/><path d="M5222.52,2896.43a10.26,10.26,0,1,1-10.26-10.33A10.09,10.09,0,0,1,5222.52,2896.43Zm-16.41,0a6.16,6.16,0,1,0,6.15-6.44A6.12,6.12,0,0,0,5206.11,2896.43Z" transform="translate(-4906.92 -2499.8)"/><path d="M5243.76,2900.64c0,3.75-2.7,5.69-7.09,5.69h-10.08v-19.8h9.21c4.29,0,7,1.37,7,5,0,2-1.08,3.2-2.7,4.17A4.79,4.79,0,0,1,5243.76,2900.64Zm-8.28-10.9h-4.82v5h4.75c2.45,0,3.28-1,3.28-2.41C5238.69,2890.71,5238,2889.74,5235.48,2889.74Zm4.18,10.58c0-1.62-.87-2.66-3.28-2.66h-5.72v5.47h5.76C5238.94,2903.13,5239.66,2902,5239.66,2900.32Z" transform="translate(-4906.92 -2499.8)"/><path d="M5266.91,2897.55h-16.09a5.86,5.86,0,0,0,6.19,5.65,5.55,5.55,0,0,0,5.29-2.95h4.21c-1.55,4.43-5.33,6.51-9.54,6.51a10.33,10.33,0,0,1-.07-20.66C5263.27,2886.1,5267.3,2891,5266.91,2897.55Zm-15.88-3.31h11.52a5.6,5.6,0,0,0-5.65-4.61A5.85,5.85,0,0,0,5251,2894.24Z" transform="translate(-4906.92 -2499.8)"/><path d="M5291.17,2896.43c0,6.05-3.85,10.33-9.14,10.33a8,8,0,0,1-6.91-3.74v12.31h-4.07v-28.8h4.07v3.39a8,8,0,0,1,6.94-3.82C5287.25,2886.1,5291.17,2890.39,5291.17,2896.43Zm-4.1,0c0-3.78-2.45-6.44-5.91-6.44a6.08,6.08,0,0,0-6.08,6.44c0,3.82,2.63,6.45,6.08,6.45S5287.07,2900.25,5287.07,2896.43Z" transform="translate(-4906.92 -2499.8)"/><path d="M5314.86,2897.55h-16.09a5.86,5.86,0,0,0,6.19,5.65,5.54,5.54,0,0,0,5.29-2.95h4.21c-1.54,4.43-5.32,6.51-9.54,6.51a10.33,10.33,0,0,1-.07-20.66C5311.22,2886.1,5315.26,2891,5314.86,2897.55Zm-15.87-3.31h11.51a5.6,5.6,0,0,0-5.65-4.61A5.83,5.83,0,0,0,5299,2894.24Z" transform="translate(-4906.92 -2499.8)"/><path d="M5337.47,2886.53v19.8h-4.07v-8.17h-10.51v8.17h-4.07v-19.8h4.07v7.78h10.51v-7.78Z" transform="translate(-4906.92 -2499.8)"/><path d="M5360.83,2886.53v19.8h-4.07v-8.17h-10.51v8.17h-4.06v-19.8h4.06v7.78h10.51v-7.78Z" transform="translate(-4906.92 -2499.8)"/><path d="M5382.39,2899.38c0,4.76-3.16,6.95-7.23,6.95h-9.61v-19.8h4.07v6.19h5.68C5379.37,2892.72,5382.39,2894.63,5382.39,2899.38Zm-4.1,0c0-1.83-.72-3.06-3.2-3.06h-5.47v6.12h5.4C5377.5,2902.44,5378.29,2901.15,5378.29,2899.38Zm11.09-12.85v19.8h-4.07v-19.8Z" transform="translate(-4906.92 -2499.8)"/><path d="M5413.68,2897.55h-16.09a5.86,5.86,0,0,0,6.19,5.65,5.56,5.56,0,0,0,5.29-2.95h4.21c-1.55,4.43-5.32,6.51-9.54,6.51a10.33,10.33,0,0,1-.07-20.66C5410,2886.1,5414.07,2891,5413.68,2897.55Zm-15.88-3.31h11.52a5.6,5.6,0,0,0-5.65-4.61A5.85,5.85,0,0,0,5397.8,2894.24Z" transform="translate(-4906.92 -2499.8)"/><path d="M5130.16,2943.92c0,3.81-3.34,6-8.53,6-6.19,0-8.89-2.84-9.64-6.94h4.1c.58,2.73,2.34,3.78,5.44,3.78s4.53-1.26,4.53-3.17c0-1.37-.65-2.74-3.49-2.74h-3.67v-3.13h3c2.77,0,3.6-1,3.6-2.45,0-1.62-1.12-2.91-4.21-2.91-2.13,0-4.07.68-4.61,2.95h-4.14c.72-3.46,3.31-6,8.82-6,5,0,8.24,2.2,8.24,5.73a4.23,4.23,0,0,1-2.59,4A4.88,4.88,0,0,1,5130.16,2943.92Z" transform="translate(-4906.92 -2499.8)"/><path d="M5153.42,2929.73v19.8h-4.07v-3.31a7.9,7.9,0,0,1-6.91,3.74c-5.29,0-9.14-4.28-9.14-10.33s3.92-10.33,9.1-10.33a8,8,0,0,1,7,3.82v-3.39Zm-4,9.9a6.08,6.08,0,0,0-6.09-6.44c-3.45,0-5.9,2.66-5.9,6.44s2.48,6.45,5.9,6.45S5149.39,2943.45,5149.39,2939.63Z" transform="translate(-4906.92 -2499.8)"/><path d="M5175.34,2943.84c0,3.75-2.7,5.69-7.09,5.69h-10.08v-19.8h9.22c4.28,0,7,1.37,7,5,0,2-1.08,3.2-2.7,4.17A4.79,4.79,0,0,1,5175.34,2943.84Zm-8.28-10.9h-4.82v5H5167c2.45,0,3.28-1,3.28-2.41C5170.27,2933.91,5169.55,2932.94,5167.06,2932.94Zm4.18,10.58c0-1.62-.86-2.66-3.28-2.66h-5.72v5.47H5168C5170.52,2946.33,5171.24,2945.18,5171.24,2943.52Z" transform="translate(-4906.92 -2499.8)"/><path d="M5198.49,2940.75H5182.4a5.86,5.86,0,0,0,6.19,5.65,5.54,5.54,0,0,0,5.29-3h4.21c-1.54,4.43-5.32,6.51-9.53,6.51a10.33,10.33,0,0,1-.08-20.66C5194.86,2929.3,5198.89,2934.23,5198.49,2940.75Zm-15.87-3.31h11.51a5.6,5.6,0,0,0-5.65-4.61A5.83,5.83,0,0,0,5182.62,2937.44Z" transform="translate(-4906.92 -2499.8)"/><path d="M5225.17,2945.72v9h-4.07v-5.15h-16.78v5.15h-4.06v-9h3.45c.9-.69,1.48-2.2,1.95-5l1.76-11h14.15v16Zm-7.67,0v-12.17h-6.62l-1.19,7.34a12,12,0,0,1-1.55,4.83Z" transform="translate(-4906.92 -2499.8)"/><path d="M5247.34,2940.75h-16.09a5.87,5.87,0,0,0,6.19,5.65,5.54,5.54,0,0,0,5.29-3H5247c-1.55,4.43-5.33,6.51-9.54,6.51a10.33,10.33,0,0,1-.07-20.66C5243.71,2929.3,5247.74,2934.23,5247.34,2940.75Zm-15.87-3.31H5243a5.61,5.61,0,0,0-5.65-4.61A5.84,5.84,0,0,0,5231.47,2937.44Z" transform="translate(-4906.92 -2499.8)"/><path d="M5270,2929.73v19.8h-4.07v-8.17h-10.51v8.17h-4.07v-19.8h4.07v7.78h10.51v-7.78Z" transform="translate(-4906.92 -2499.8)"/><path d="M5293.06,2929.73v19.8H5289v-8.28l.26-6.26-9.79,14.54h-4.79v-19.8h4.07V2938l-.26,6.23,9.79-14.51Z" transform="translate(-4906.92 -2499.8)"/><path d="M5314.41,2929.73v19.8h-4.07v-7.16h-3.92l-5.15,7.16h-5l5.79-7.45c-2.73-.68-4.78-2.41-4.78-5.72,0-4.57,3.13-6.63,7.19-6.63Zm-4.07,9.29v-5.61h-5.65c-2.52,0-3.31,1.22-3.31,2.88s1,2.73,3.42,2.73Z" transform="translate(-4906.92 -2499.8)"/><path class="cls-5" d="M5570.43,2822.71H4908.15a1,1,0,1,1,0-1.91h662.28a1,1,0,1,1,0,1.91Z" transform="translate(-4906.92 -2499.8)"/></svg>