<svg id="Layer_1" data-name="Layer 1" xmlns="http://www.w3.org/2000/svg" viewBox="0 0 697.37 1364.56"><defs><style>.cls-1{fill:#71db3a;}.cls-2{fill:#fff;}</style></defs><rect class="cls-1" width="697.37" height="1364.56" rx="89.56"/><path class="cls-2" d="M2147.61,10590.91h-92.22a17.9,17.9,0,0,0-17.91,17.9v8.1a35,35,0,0,1-35,35h-198a35,35,0,0,1-35-35v-8.1a17.89,17.89,0,0,0-17.9-17.9h-92.22a89.55,89.55,0,0,0-89.56,89.55v1155.45a89.56,89.56,0,0,0,89.56,89.56h488.25a89.56,89.56,0,0,0,89.56-89.56V10680.46A89.55,89.55,0,0,0,2147.61,10590.91Z" transform="translate(-1554.8 -10575.91)"/></svg>