<svg id="Layer_1" data-name="Layer 1" xmlns="http://www.w3.org/2000/svg" viewBox="0 0 427.3 427.3"><defs><style>.cls-1{fill:#71d93a;}.cls-2{fill:#fff;}</style></defs><circle class="cls-1" cx="213.65" cy="213.65" r="213.65"/><path class="cls-2" d="M6790-6373.32a22.78,22.78,0,0,1-11.14,3c-7.48,0-14-4.49-14-15.22v-13.8h-6.66v-9.17h6.66v-8.08l9.72-2.11v10.19h13.86v9.17h-13.86v13.25c0,4.42,2.1,6.73,6,6.73a25.16,25.16,0,0,0,7.82-1.83Z" transform="translate(-6704.31 6604.54)"/><path class="cls-2" d="M6832.15-6387.32h-28.67c.61,6,4.69,9,9.72,9,3.73,0,7-1.7,8.28-4.69h10.06c-2.78,8.83-10.26,12.71-18.28,12.71-11.68,0-19.7-8.29-19.7-19.43s8.08-19.57,19.5-19.57C6825.43-6409.33,6833.1-6399.62,6832.15-6387.32Zm-28.2-7.13h17.87a8.69,8.69,0,0,0-8.83-6.87C6808.23-6401.32,6805.18-6398.46,6804-6394.45Z" transform="translate(-6704.31 6604.54)"/><path class="cls-2" d="M6838.81-6423.47h9.71v52.32h-9.71Z" transform="translate(-6704.31 6604.54)"/><path class="cls-2" d="M6894-6387.32H6865.3c.62,6,4.69,9,9.72,9,3.74,0,7-1.7,8.29-4.69h10.06c-2.79,8.83-10.26,12.71-18.28,12.71-11.69,0-19.71-8.29-19.71-19.43s8.09-19.57,19.5-19.57C6887.25-6409.33,6894.93-6399.62,6894-6387.32Zm-28.2-7.13h17.87a8.71,8.71,0,0,0-8.83-6.87C6870.06-6401.32,6867-6398.46,6865.78-6394.45Z" transform="translate(-6704.31 6604.54)"/><path class="cls-2" d="M6938.21-6408.52v36.9c0,11.07-7.21,18.27-18.49,18.27-9,0-17.53-4.55-18.95-14.33h10c1.09,4.21,4.62,5.71,8.63,5.71,5.91,0,9-3.06,9-9.38v-5.37a14.11,14.11,0,0,1-11.76,5.84c-9.78,0-17-8-17-19.22s7.41-19.23,17-19.23a14,14,0,0,1,11.76,6v-5.17Zm-9.72,18.42c0-5.85-4.14-10-9.58-10s-9.45,4.14-9.45,10,4.08,10,9.45,10S6928.49-6384.19,6928.49-6390.1Z" transform="translate(-6704.31 6604.54)"/><path class="cls-2" d="M6969.53-6409.2v10a21,21,0,0,0-2.38-.14c-6.19,0-11.49,2.72-11.49,11.56v16.64H6946v-37.37h9.71v6.52a12.15,12.15,0,0,1,11.69-7.33A18.5,18.5,0,0,1,6969.53-6409.2Z" transform="translate(-6704.31 6604.54)"/><path class="cls-2" d="M7012.33-6408.52l-.07,37.37h-9.72v-5a13.86,13.86,0,0,1-11.68,5.85c-9.79,0-17.06-8-17.06-19.5s7.41-19.5,17-19.5a14,14,0,0,1,11.82,6v-5.23Zm-9.72,18.69c0-6.12-4.14-10.26-9.58-10.26s-9.44,4.14-9.44,10.26,4.07,10.26,9.44,10.26S7002.61-6383.65,7002.61-6389.83Z" transform="translate(-6704.31 6604.54)"/><path class="cls-2" d="M7077.69-6394.79v23.64H7068v-21.54c0-4.75-1.76-7.4-6.45-7.4-5.1,0-7.75,3.39-7.75,9.31v19.63h-9.71v-21.54c0-4.75-1.77-7.4-6.46-7.4-5.1,0-7.81,3.39-7.81,9.31l.06,19.63h-9.78v-37.37h9.78v5a12.77,12.77,0,0,1,11.08-5.77c5.37,0,9.31,2.51,11.35,7.06a14.16,14.16,0,0,1,12.5-7.06C7072.73-6409.33,7077.69-6403.83,7077.69-6394.79Z" transform="translate(-6704.31 6604.54)"/></svg>