<svg id="Layer_1" data-name="Layer 1" xmlns="http://www.w3.org/2000/svg" viewBox="0 0 1153.49 249.58"><path d="M-5511.39-4937.06c0,6.61-5.61,11.72-16,11.72-11.21,0-17.25-5-18.83-13.3h3.81c1.72,7,6.83,10.13,14.88,10.13,8.48,0,12.29-3.95,12.29-8.84,0-3.45-1.58-7.83-9.49-7.83h-8.63v-3.1h6.62c7.91,0,10.21-3.09,10.21-6.82,0-4.25-3.17-8.2-11.58-8.2-5.75,0-11.07,2.09-12.79,7.62h-3.88c1.72-6.9,7.69-10.78,16.82-10.78,10.2,0,15.31,5,15.31,11.14,0,3.81-1.87,6.69-6,8.27C-5513.26-4945.54-5511.39-4941.16-5511.39-4937.06Z" transform="translate(5546.18 4985.22)"/><path d="M-5459.28-4929.73v14.45h-3.8v-10.85h-41.12v10.85H-5508v-14.45h6.61c2.59-1.65,4.39-5.89,5.82-15l3.38-21h25.74v35.94Zm-11,0v-32.35H-5489l-2.88,17.47c-1.15,7.69-2.8,12.37-5,14.88Z" transform="translate(5546.18 4985.22)"/><path d="M-5415.57-4944.68h-35.66c.44,9.78,7.19,15.67,16.39,15.67,6.26,0,11.58-2.66,14.24-7.84h4c-3.23,7.7-10.35,11.51-18.26,11.51-11.64,0-20.2-8.2-20.2-20.42s8.41-20.7,20-20.7C-5423-4966.46-5415.35-4957.48-5415.57-4944.68Zm-35.58-3.6h31.55c-.93-8.48-6.82-14.59-15.52-14.59S-5450.15-4956.76-5451.15-4948.28Z" transform="translate(5546.18 4985.22)"/><path d="M-5408.1-4945.9c0-11.86,8.92-20.56,20.35-20.56,8.91,0,16.46,5.39,18.9,13.94h-4a15.34,15.34,0,0,0-14.88-10.35c-9.35,0-16.54,7.19-16.54,17s7.19,17,16.47,17a15.45,15.45,0,0,0,14.95-10.35h4c-2.44,8.55-10.06,13.95-19,13.95C-5399.18-4925.34-5408.1-4934-5408.1-4945.9Z" transform="translate(5546.18 4985.22)"/><path d="M-5328-4939.22c0,7.77-4.17,13.09-13.87,13.09h-17.76v-39.54h3.81v13.87h14.16C-5332-4951.8-5328-4947-5328-4939.22Zm-3.81,0c0-5.17-1.94-9.13-9.92-9.13h-14.09v18.55H-5342C-5334-4929.8-5331.83-4934-5331.83-4939.22Z" transform="translate(5546.18 4985.22)"/><path d="M-5267.78-4962.08h-14.38v35.95H-5286v-35.95h-14.45v-3.59h32.64Z" transform="translate(5546.18 4985.22)"/><path d="M-5228.25-4939.22c0,7.77-4.24,13.09-13.94,13.09h-17.69v-39.54h3.81v13.87h14.16C-5232.2-4951.8-5228.25-4947-5228.25-4939.22Zm-3.81,0c0-5.17-2-9.13-10-9.13h-14v18.55h13.88C-5234.21-4929.8-5232.06-4934-5232.06-4939.22Zm14.38-26.45v39.54h-3.81v-39.54Z" transform="translate(5546.18 4985.22)"/><path d="M-5149.11-4965.67v39.54h-3.81v-18.48h-27.6v18.48h-3.81v-39.54h3.81v17.47h27.6v-17.47Z" transform="translate(5546.18 4985.22)"/><path d="M-5100.08-4965.67v39.54h-3.81v-9.42a18.18,18.18,0,0,1-16.54,10.21c-11.07,0-18.76-8.7-18.76-20.56s7.77-20.56,18.69-20.56a18.15,18.15,0,0,1,16.61,10.28v-9.49Zm-3.74,19.77c0-9.78-7-16.9-16.1-16.9s-15.46,7.12-15.46,16.9,6.33,16.89,15.46,16.89S-5103.82-4936-5103.82-4945.9Z" transform="translate(5546.18 4985.22)"/><path d="M-5053.65-4965.67v39.54h-3.81v-21.5l.22-13.8-26,35.3h-5v-39.54h3.81v21.49l-.21,13.8,26-35.29Zm-28.61-18.62v-.93h3.31v.79c0,4.67,3.16,7.62,8,7.62s8-2.95,8-7.62v-.79h3.3v.93c0,6.54-5,10.64-11.28,10.64S-5082.26-4977.75-5082.26-4984.29Z" transform="translate(5546.18 4985.22)"/><path d="M-4997.58-4929.73v14.45h-3.81v-10.85h-41.12v10.85h-3.81v-14.45h6.62c2.58-1.65,4.38-5.89,5.82-15l3.38-21h25.73v35.94Zm-11,0v-32.35h-18.69l-2.87,17.47c-1.15,7.69-2.81,12.37-5,14.88Z" transform="translate(5546.18 4985.22)"/><path d="M-4953.87-4944.68h-35.66c.43,9.78,7.19,15.67,16.39,15.67,6.25,0,11.57-2.66,14.23-7.84h4c-3.24,7.7-10.35,11.51-18.26,11.51-11.65,0-20.2-8.2-20.2-20.42s8.41-20.7,20-20.7C-4961.28-4966.46-4953.66-4957.48-4953.87-4944.68Zm-35.59-3.6h31.56c-.93-8.48-6.83-14.59-15.53-14.59S-4988.45-4956.76-4989.46-4948.28Zm4.53-31.41a2.83,2.83,0,0,1,2.88-2.8,2.83,2.83,0,0,1,2.94,2.8,2.86,2.86,0,0,1-2.94,2.88A2.85,2.85,0,0,1-4984.93-4979.69Zm16.25,0a2.84,2.84,0,0,1,3-2.8,2.83,2.83,0,0,1,2.94,2.8,2.86,2.86,0,0,1-2.94,2.88A2.86,2.86,0,0,1-4968.68-4979.69Z" transform="translate(5546.18 4985.22)"/><path d="M-4893.78-4965.67v39.54h-50.75v-39.54h3.81v35.94h19.62v-35.94h3.81v35.94h19.7v-35.94Z" transform="translate(5546.18 4985.22)"/><path d="M-4850.36-4939.22c0,7.77-4.17,13.09-13.88,13.09H-4882v-39.54h3.81v13.87H-4864C-4854.32-4951.8-4850.36-4947-4850.36-4939.22Zm-3.81,0c0-5.17-1.95-9.13-9.92-9.13h-14.09v18.55h13.87C-4856.33-4929.8-4854.17-4934-4854.17-4939.22Z" transform="translate(5546.18 4985.22)"/><path d="M-4786.39-4937.28c0,6.26-3.81,11.15-13.73,11.15h-18.76v-39.54h17c9.85,0,13.59,3.88,13.59,10.06,0,3.74-1.94,6.76-6.11,8.56C-4788.83-4945.62-4786.39-4941.73-4786.39-4937.28Zm-15.67-25.23h-13v14.38h12.72c7.62,0,10.21-3.31,10.21-7C-4792.14-4959.27-4794.08-4962.51-4802.06-4962.51Zm11.79,25c0-4-2.45-7.62-10.14-7.62h-14.66v15.81h14.88C-4792.21-4929.3-4790.27-4933.25-4790.27-4937.49Z" transform="translate(5546.18 4985.22)"/><path d="M-4779.28-4945.9c0-11.86,8.92-20.56,20.35-20.56,8.91,0,16.46,5.39,18.9,13.94h-4a15.34,15.34,0,0,0-14.88-10.35c-9.35,0-16.54,7.19-16.54,17s7.19,17,16.47,17a15.45,15.45,0,0,0,14.95-10.35h4c-2.44,8.55-10.06,13.95-19,13.95C-4770.36-4925.34-4779.28-4934-4779.28-4945.9Z" transform="translate(5546.18 4985.22)"/><path d="M-4693.16-4944.68h-35.65c.43,9.78,7.18,15.67,16.39,15.67,6.25,0,11.57-2.66,14.23-7.84h3.95c-3.23,7.7-10.35,11.51-18.26,11.51-11.64,0-20.2-8.2-20.2-20.42s8.41-20.7,20-20.7C-4700.56-4966.46-4692.94-4957.48-4693.16-4944.68Zm-35.58-3.6h31.55c-.93-8.48-6.82-14.59-15.52-14.59S-4727.74-4956.76-4728.74-4948.28Z" transform="translate(5546.18 4985.22)"/><path d="M-4664.12-4945.9c0-11.86,8.91-20.56,20.34-20.56a19.18,19.18,0,0,1,18.91,13.94h-4a15.32,15.32,0,0,0-14.88-10.35c-9.34,0-16.53,7.19-16.53,17s7.19,17,16.46,17a15.44,15.44,0,0,0,15-10.35h4c-2.45,8.55-10.07,13.95-19,13.95C-4655.21-4925.34-4664.12-4934-4664.12-4945.9Z" transform="translate(5546.18 4985.22)"/><path d="M-4617.54-4945.9c0-11.86,8.91-20.56,20.34-20.56a19.18,19.18,0,0,1,18.91,13.94h-4a15.32,15.32,0,0,0-14.88-10.35c-9.34,0-16.53,7.19-16.53,17s7.19,17,16.46,17a15.44,15.44,0,0,0,15-10.35h4c-2.45,8.55-10.07,13.95-19,13.95C-4608.63-4925.34-4617.54-4934-4617.54-4945.9Z" transform="translate(5546.18 4985.22)"/><path d="M-4537.46-4939.22c0,7.77-4.25,13.09-13.95,13.09h-17.68v-39.54h3.81v13.87h14.16C-4541.42-4951.8-4537.46-4947-4537.46-4939.22Zm-3.81,0c0-5.17-2-9.13-10-9.13h-14v18.55h13.87C-4543.43-4929.8-4541.27-4934-4541.27-4939.22Zm14.37-26.45v39.54h-3.81v-39.54Z" transform="translate(5546.18 4985.22)"/><path d="M-4479.67-4965.67v39.54h-3.81v-35.95h-18.69l-3.31,20.63c-1.94,12-5.25,16.11-11.07,16.11-.72,0-1.72-.08-2.44-.15V-4929c.5,0,1.22.07,1.8.07,4.31,0,6.32-2.73,7.9-12.65l3.88-24.08Z" transform="translate(5546.18 4985.22)"/><path d="M-4440.5-4926.13l-23.57-19.84v19.84h-3.81v-39.54h3.81v18l21.49-18h5.18l-22.36,18.69,24.51,20.85Z" transform="translate(5546.18 4985.22)"/><path d="M-4392.69-4965.67v39.54h-3.81v-21.5l.21-13.8-26,35.3h-5v-39.54h3.81v21.49l-.22,13.8,26-35.29Z" transform="translate(5546.18 4985.22)"/><path d="M-5507.51-4879.41v39.53h-3.81v-18.47h-27.6v18.47h-3.81v-39.53h3.81v17.47h27.6v-17.47Z" transform="translate(5546.18 4985.22)"/><path d="M-5458.49-4879.41v39.53h-3.81v-9.41a18.17,18.17,0,0,1-16.53,10.21c-11.07,0-18.76-8.7-18.76-20.56s7.76-20.56,18.69-20.56a18.12,18.12,0,0,1,16.6,10.28v-9.49Zm-3.73,19.77c0-9.78-7-16.9-16.11-16.9s-15.45,7.12-15.45,16.9,6.32,16.89,15.45,16.89S-5462.22-4849.8-5462.22-4859.64Z" transform="translate(5546.18 4985.22)"/><path d="M-5385.67-4859.64c0,11.86-7.69,20.56-18.69,20.56a18.24,18.24,0,0,1-16.61-10.28v27.46h-3.8v-57.51h3.8v9.49a18.22,18.22,0,0,1,16.61-10.28C-5393.36-4880.2-5385.67-4871.5-5385.67-4859.64Zm-3.81,0c0-9.78-6.25-16.9-15.46-16.9s-16.1,7.12-16.1,16.9,7,16.89,16.1,16.89S-5389.48-4849.87-5389.48-4859.64Z" transform="translate(5546.18 4985.22)"/><path d="M-5338.08-4858.42h-35.66c.43,9.77,7.19,15.67,16.39,15.67,6.25,0,11.57-2.66,14.23-7.84h4c-3.24,7.7-10.35,11.51-18.26,11.51-11.65,0-20.2-8.2-20.2-20.42s8.41-20.7,20-20.7C-5345.49-4880.2-5337.87-4871.22-5338.08-4858.42Zm-35.59-3.6h31.56c-.93-8.48-6.83-14.59-15.53-14.59S-5372.66-4870.5-5373.67-4862Z" transform="translate(5546.18 4985.22)"/><path d="M-5330.61-4859.64c0-11.86,8.91-20.56,20.34-20.56,8.92,0,16.46,5.39,18.91,13.94h-4a15.32,15.32,0,0,0-14.88-10.35c-9.34,0-16.53,7.19-16.53,17s7.19,17,16.46,17a15.44,15.44,0,0,0,14.95-10.35h4c-2.45,8.55-10.06,13.95-19,13.95C-5321.7-4839.08-5330.61-4847.78-5330.61-4859.64Z" transform="translate(5546.18 4985.22)"/><path d="M-5250-4879.41l-27.1,57.51h-4.17l10.64-22.5-16.46-35h4.1l14.38,30.76,14.52-30.76Z" transform="translate(5546.18 4985.22)"/><path d="M-5202.59-4859.64c0,11.86-7.69,20.56-18.69,20.56a18.22,18.22,0,0,1-16.6-10.28v27.46h-3.81v-57.51h3.81v9.49a18.2,18.2,0,0,1,16.6-10.28C-5210.28-4880.2-5202.59-4871.5-5202.59-4859.64Zm-3.81,0c0-9.78-6.25-16.9-15.45-16.9s-16.1,7.12-16.1,16.9,7,16.89,16.1,16.89S-5206.4-4849.87-5206.4-4859.64Z" transform="translate(5546.18 4985.22)"/><path d="M-5194.54-4859.64c0-11.86,8.92-20.56,20.35-20.56,8.91,0,16.46,5.39,18.9,13.94h-4a15.34,15.34,0,0,0-14.88-10.35c-9.35,0-16.54,7.19-16.54,17s7.19,17,16.46,17a15.46,15.46,0,0,0,15-10.35h4c-2.44,8.55-10.06,13.95-19,13.95C-5185.62-4839.08-5194.54-4847.78-5194.54-4859.64Z" transform="translate(5546.18 4985.22)"/><path d="M-5114.46-4853c0,7.76-4.24,13.08-13.95,13.08h-17.68v-39.53h3.81v13.87h14.16C-5118.41-4865.54-5114.46-4860.72-5114.46-4853Zm-3.81,0c0-5.17-2-9.13-10-9.13h-14v18.55h13.87C-5120.43-4843.54-5118.27-4847.78-5118.27-4853Zm14.38-26.45v39.53h-3.81v-39.53Z" transform="translate(5546.18 4985.22)"/><path d="M-5043.15-4839.88l-23.58-19.84v19.84h-3.81v-39.53h3.81v18l21.49-18h5.18l-22.36,18.69,24.51,20.84Z" transform="translate(5546.18 4985.22)"/><path d="M-4994.63-4859.64c0,11.79-8.92,20.56-20.27,20.56a20.09,20.09,0,0,1-20.27-20.56,20.13,20.13,0,0,1,20.27-20.56A20.09,20.09,0,0,1-4994.63-4859.64Zm-36.66,0c0,9.77,7.26,16.89,16.39,16.89s16.39-7.12,16.39-16.89-7.34-16.9-16.39-16.9S-5031.29-4869.56-5031.29-4859.64Z" transform="translate(5546.18 4985.22)"/><path d="M-4945.32-4859.64c0,11.86-7.69,20.56-18.69,20.56a18.23,18.23,0,0,1-16.61-10.28v27.46h-3.81v-57.51h3.81v9.49A18.21,18.21,0,0,1-4964-4880.2C-4953-4880.2-4945.32-4871.5-4945.32-4859.64Zm-3.81,0c0-9.78-6.26-16.9-15.46-16.9s-16.1,7.12-16.1,16.9,7,16.89,16.1,16.89S-4949.13-4849.87-4949.13-4859.64Z" transform="translate(5546.18 4985.22)"/><path d="M-4896.73-4859.64c0,11.79-8.91,20.56-20.27,20.56a20.09,20.09,0,0,1-20.27-20.56A20.13,20.13,0,0,1-4917-4880.2,20.09,20.09,0,0,1-4896.73-4859.64Zm-36.66,0c0,9.77,7.26,16.89,16.39,16.89s16.39-7.12,16.39-16.89-7.33-16.9-16.39-16.9S-4933.39-4869.56-4933.39-4859.64Z" transform="translate(5546.18 4985.22)"/><path d="M-4856.84-4879.41v39.53h-3.81V-4855a32.29,32.29,0,0,1-12.93,2.58c-9.64,0-15.1-4.45-15.1-14.8v-12.15h3.81v11.5c0,8.41,3.67,12,11.86,12,4.31,0,9.7-1.07,12.36-2.73v-20.77Z" transform="translate(5546.18 4985.22)"/><path d="M-4807.38-4858.42H-4843c.44,9.77,7.19,15.67,16.39,15.67,6.26,0,11.58-2.66,14.24-7.84h3.95c-3.23,7.7-10.35,11.51-18.26,11.51-11.64,0-20.2-8.2-20.2-20.42s8.41-20.7,20-20.7C-4814.79-4880.2-4807.17-4871.22-4807.38-4858.42ZM-4843-4862h31.55c-.93-8.48-6.83-14.59-15.52-14.59S-4842-4870.5-4843-4862Z" transform="translate(5546.18 4985.22)"/><path d="M-4796.17-4827.51h-3l4.39-11.65a2.86,2.86,0,0,1-2.45-2.87,3,3,0,0,1,3.09-3.09,2.86,2.86,0,0,1,3,3.09C-4791.06-4841.1-4791.14-4840-4796.17-4827.51Z" transform="translate(5546.18 4985.22)"/><path d="M-4719.26-4858.42h-35.65c.43,9.77,7.19,15.67,16.39,15.67,6.25,0,11.57-2.66,14.23-7.84h4c-3.24,7.7-10.36,11.51-18.26,11.51-11.65,0-20.2-8.2-20.2-20.42s8.41-20.7,20-20.7C-4726.66-4880.2-4719-4871.22-4719.26-4858.42Zm-35.58-3.6h31.56c-.94-8.48-6.83-14.59-15.53-14.59S-4753.83-4870.5-4754.84-4862Z" transform="translate(5546.18 4985.22)"/><path d="M-4667.93-4843.47V-4829h-3.81v-10.86h-41.12V-4829h-3.81v-14.45h6.61c2.59-1.65,4.39-5.89,5.83-14.95l3.38-21h25.73v35.94Zm-11,0v-32.35h-18.69l-2.88,17.47c-1.15,7.69-2.8,12.36-5,14.88Z" transform="translate(5546.18 4985.22)"/><path d="M-4628.4-4853c0,7.76-4.24,13.08-13.94,13.08H-4660v-39.53h3.81v13.87H-4642C-4632.35-4865.54-4628.4-4860.72-4628.4-4853Zm-3.81,0c0-5.17-2-9.13-10-9.13h-14v18.55h13.88C-4634.36-4843.54-4632.21-4847.78-4632.21-4853Zm14.38-26.45v39.53h-3.81v-39.53Z" transform="translate(5546.18 4985.22)"/><path d="M-5503.27-4773.39c0,11.87-7.69,20.56-18.69,20.56a18.2,18.2,0,0,1-16.6-10.28v27.46h-3.81v-57.5h3.81v9.49a18.2,18.2,0,0,1,16.6-10.28C-5511-4793.94-5503.27-4785.25-5503.27-4773.39Zm-3.81,0c0-9.77-6.25-16.89-15.45-16.89s-16.1,7.12-16.1,16.89,7,16.9,16.1,16.9S-5507.08-4763.61-5507.08-4773.39Z" transform="translate(5546.18 4985.22)"/><path d="M-5489.25-4755.92a3.07,3.07,0,0,1-3.09,3.09,3,3,0,0,1-3-3.09,2.93,2.93,0,0,1,3-2.94A3,3,0,0,1-5489.25-4755.92Z" transform="translate(5546.18 4985.22)"/><path d="M-5479.76-4766h3.88c1.8,6.68,7,9.49,14.88,9.49,6.54,0,11.93-2.59,11.93-7.69,0-4.75-4.81-5.61-12.94-7.7-11.36-2.87-15.6-4.74-15.6-10.63,0-7.34,6.62-11.43,15.31-11.43s14.74,3.95,16.47,10.92h-3.89c-1.79-5-6.54-7.26-12.5-7.26-6.76,0-11.58,2.88-11.58,7.48,0,4.1,3.74,5,13,7.4,10.07,2.59,15.6,4.1,15.6,10.93,0,7.83-7.26,11.64-15.74,11.64C-5471.14-4752.83-5478.11-4757.57-5479.76-4766Z" transform="translate(5546.18 4985.22)"/><path d="M-5429.23-4755.92a3.07,3.07,0,0,1-3.09,3.09,3,3,0,0,1-3-3.09,2.93,2.93,0,0,1,3-2.94A3,3,0,0,1-5429.23-4755.92Z" transform="translate(5546.18 4985.22)"/><path d="M-5360-4753.62h-3.81v-35.94h-27.39v35.94H-5395v-39.53h35Z" transform="translate(5546.18 4985.22)"/><path d="M-5309.55-4773.39c0,11.79-8.91,20.56-20.27,20.56a20.09,20.09,0,0,1-20.27-20.56,20.13,20.13,0,0,1,20.27-20.55A20.08,20.08,0,0,1-5309.55-4773.39Zm-36.66,0c0,9.78,7.26,16.9,16.39,16.9s16.39-7.12,16.39-16.9-7.33-16.89-16.39-16.89S-5346.21-4783.3-5346.21-4773.39Z" transform="translate(5546.18 4985.22)"/><path d="M-5272.67-4789.56H-5287v35.94h-3.81v-35.94h-14.45v-3.59h32.64Z" transform="translate(5546.18 4985.22)"/><path d="M-5229.25-4793.15v39.53h-3.81V-4763a18.17,18.17,0,0,1-16.54,10.2c-11.07,0-18.76-8.69-18.76-20.56s7.76-20.55,18.69-20.55a18.13,18.13,0,0,1,16.61,10.28v-9.49Zm-3.74,19.76c0-9.77-7-16.89-16.1-16.89s-15.46,7.12-15.46,16.89,6.33,16.9,15.46,16.9S-5233-4763.54-5233-4773.39Z" transform="translate(5546.18 4985.22)"/><path d="M-5219.34-4773.39c0-11.86,8.92-20.55,20.35-20.55,8.91,0,16.46,5.39,18.9,13.94h-4a15.34,15.34,0,0,0-14.88-10.35c-9.35,0-16.54,7.19-16.54,17s7.19,17,16.47,17a15.45,15.45,0,0,0,15-10.35h4c-2.44,8.55-10.06,13.94-19,13.94C-5210.42-4752.83-5219.34-4761.52-5219.34-4773.39Z" transform="translate(5546.18 4985.22)"/><path d="M-5143.5-4753.62l-23.58-19.84v19.84h-3.81v-39.53h3.81v18l21.5-18h5.17l-22.35,18.69,24.51,20.84Z" transform="translate(5546.18 4985.22)"/><path d="M-5096.42-4793.15v39.53h-3.81V-4763a18.16,18.16,0,0,1-16.53,10.2c-11.07,0-18.76-8.69-18.76-20.56s7.76-20.55,18.69-20.55a18.12,18.12,0,0,1,16.6,10.28v-9.49Zm-3.73,19.76c0-9.77-7-16.89-16.11-16.89s-15.45,7.12-15.45,16.89,6.33,16.9,15.45,16.9S-5100.15-4763.54-5100.15-4773.39Z" transform="translate(5546.18 4985.22)"/><path d="M-5050-4793.15v39.53h-3.81v-21.49l.22-13.8-26,35.29h-5v-39.53h3.81v21.49l-.21,13.8,26-35.29Zm-28.61-18.62v-.94h3.31v.8c0,4.67,3.16,7.61,8,7.61s8-2.94,8-7.61v-.8h3.3v.94c0,6.54-5,10.64-11.28,10.64S-5078.59-4805.23-5078.59-4811.77Z" transform="translate(5546.18 4985.22)"/><path d="M-4982-4793.15v39.53h-3.81v-21.49l.22-13.8-26,35.29h-5v-39.53h3.81v21.49l-.21,13.8,26-35.29Z" transform="translate(5546.18 4985.22)"/><path d="M-4944.75-4753.62l-12.36-17.32-12.29,17.32h-4.67l14.59-20.34-13.73-19.19h4.6l11.57,16.24,11.43-16.24h4.67l-13.8,19.19,14.59,20.34Z" transform="translate(5546.18 4985.22)"/><path d="M-4875.67-4753.62h-3.81v-35.94h-27.38v35.94h-3.81v-39.53h35Z" transform="translate(5546.18 4985.22)"/><path d="M-4825.21-4773.39c0,11.79-8.91,20.56-20.27,20.56a20.09,20.09,0,0,1-20.27-20.56,20.13,20.13,0,0,1,20.27-20.55A20.08,20.08,0,0,1-4825.21-4773.39Zm-36.66,0c0,9.78,7.26,16.9,16.39,16.9s16.39-7.12,16.39-16.9-7.33-16.89-16.39-16.89S-4861.87-4783.3-4861.87-4773.39Z" transform="translate(5546.18 4985.22)"/><path d="M-4757.06-4773.39c0,11.87-8.77,20.56-20.2,20.56-9,0-16.82-5.32-19.12-13.94h4c2,6.25,7.91,10.42,15.1,10.42,8.84,0,15.67-6.47,16.31-15.6H-4780v-3.16h19c-.79-9-7.47-15.31-16.24-15.31-7.26,0-13.16,4.24-15.1,10.42h-4c2.3-8.55,10.06-13.94,19.12-13.94C-4765.83-4793.94-4757.06-4785.25-4757.06-4773.39Z" transform="translate(5546.18 4985.22)"/><path d="M-4719.76-4753.62l-23.58-19.84v19.84h-3.81v-39.53h3.81v18l21.5-18h5.17l-22.35,18.69,24.51,20.84Z" transform="translate(5546.18 4985.22)"/><path d="M-4667.14-4773.39c0,11.87-7.69,20.56-18.69,20.56a18.22,18.22,0,0,1-16.61-10.28v27.46h-3.81v-57.5h3.81v9.49a18.22,18.22,0,0,1,16.61-10.28C-4674.83-4793.94-4667.14-4785.25-4667.14-4773.39Zm-3.81,0c0-9.77-6.25-16.89-15.46-16.89s-16.1,7.12-16.1,16.89,7,16.9,16.1,16.9S-4670.95-4763.61-4670.95-4773.39Z" transform="translate(5546.18 4985.22)"/><path d="M-4620-4793.15v39.53h-3.81V-4763a18.16,18.16,0,0,1-16.53,10.2c-11.07,0-18.76-8.69-18.76-20.56s7.76-20.55,18.69-20.55a18.12,18.12,0,0,1,16.6,10.28v-9.49Zm-3.73,19.76c0-9.77-7-16.89-16.11-16.89s-15.45,7.12-15.45,16.89,6.32,16.9,15.45,16.9S-4623.72-4763.54-4623.72-4773.39Z" transform="translate(5546.18 4985.22)"/><path d="M-4573-4793.15v39.53h-3.8v-18.47h-27.61v18.47h-3.81v-39.53h3.81v17.46h27.61v-17.46Z" transform="translate(5546.18 4985.22)"/><path d="M-4528-4793.15l-27.1,57.5h-4.17l10.64-22.5-16.46-35h4.1l14.37,30.76,14.53-30.76Z" transform="translate(5546.18 4985.22)"/></svg>