<svg id="Layer_1" data-name="Layer 1" xmlns="http://www.w3.org/2000/svg" viewBox="0 0 584 584"><defs><style>.cls-1{fill:#71d93a;}.cls-2{fill:#fff;}</style></defs><circle class="cls-1" cx="292" cy="292" r="292"/><path class="cls-2" d="M5018-6243.95a5.71,5.71,0,0,1-6,5.77,5.79,5.79,0,0,1-6.05-5.77,5.74,5.74,0,0,1,6.05-5.71C5015.52-6249.66,5018-6247.28,5018-6243.95Zm-10.94,11.55h9.72V-6195h-9.72Z" transform="translate(-4893.1 6505)"/><path class="cls-2" d="M5059.48-6218.47V-6195h-9.72v-21.34c0-4.89-1.83-7.61-7-7.61-5.5,0-8.42,3.2-8.42,9.31V-6195h-9.72v-37.37h9.72v5.09a13.43,13.43,0,0,1,11.62-5.91C5054.38-6233.22,5059.48-6227.65,5059.48-6218.47Z" transform="translate(-4893.1 6505)"/><path class="cls-2" d="M5065.52-6207.33h9.85c.75,3,3,5,9,5,4.28,0,6.32-1,6.32-3.06,0-2.51-2.92-2.72-8.56-4.08-10.6-2.51-14.95-4.89-14.95-11.34,0-7.89,6.52-12.44,16.38-12.44,10.39,0,15.49,5,16.78,12h-9.85c-.75-2.38-2.79-3.81-7.27-3.81-3.88,0-6.26,1.09-6.26,3.13,0,1.77,1.7,2.11,7.14,3.33,10.67,2.45,16.65,4.49,16.65,12,0,8.36-7.41,12.43-16.65,12.43C5074.15-6194.22,5066.88-6199.11,5065.52-6207.33Z" transform="translate(-4893.1 6505)"/><path class="cls-2" d="M5136.52-6197.21a22.78,22.78,0,0,1-11.14,3c-7.47,0-14-4.48-14-15.22v-13.79h-6.66v-9.17h6.66v-8.09l9.72-2.11v10.2H5135v9.17H5121.1V-6210c0,4.42,2.11,6.73,6,6.73a24.94,24.94,0,0,0,7.81-1.84Z" transform="translate(-4893.1 6505)"/><path class="cls-2" d="M5178.58-6232.4l-.07,37.37h-9.72v-5a13.88,13.88,0,0,1-11.68,5.84c-9.79,0-17.06-8-17.06-19.5s7.41-19.5,17-19.5a14,14,0,0,1,11.82,6.05v-5.23Zm-9.72,18.68c0-6.11-4.14-10.26-9.58-10.26s-9.44,4.15-9.44,10.26,4.07,10.26,9.44,10.26S5168.86-6207.53,5168.86-6213.72Z" transform="translate(-4893.1 6505)"/><path class="cls-2" d="M5224-6232.4v36.89c0,11.08-7.2,18.28-18.48,18.28-9,0-17.53-4.55-19-14.34h10.06c1.09,4.22,4.62,5.71,8.63,5.71,5.91,0,9-3.06,9-9.38v-5.36a14.12,14.12,0,0,1-11.76,5.84c-9.78,0-17.05-8-17.05-19.23s7.4-19.23,17.05-19.23a14.07,14.07,0,0,1,11.76,6v-5.16Zm-9.71,18.41c0-5.84-4.15-10-9.58-10s-9.45,4.15-9.45,10,4.08,10,9.45,10S5214.25-6208.08,5214.25-6214Z" transform="translate(-4893.1 6505)"/><path class="cls-2" d="M5255.28-6233.08v10a20.87,20.87,0,0,0-2.38-.14c-6.18,0-11.48,2.72-11.48,11.55V-6195h-9.72v-37.37h9.72v6.52a12.16,12.16,0,0,1,11.69-7.34A17.93,17.93,0,0,1,5255.28-6233.08Z" transform="translate(-4893.1 6505)"/><path class="cls-2" d="M5298.08-6232.4,5298-6195h-9.72v-5a13.9,13.9,0,0,1-11.69,5.84c-9.78,0-17-8-17-19.5s7.4-19.5,17-19.5a14.05,14.05,0,0,1,11.83,6.05v-5.23Zm-9.71,18.68c0-6.11-4.15-10.26-9.58-10.26s-9.45,4.15-9.45,10.26,4.08,10.26,9.45,10.26S5288.37-6207.53,5288.37-6213.72Z" transform="translate(-4893.1 6505)"/><path class="cls-2" d="M5363.44-6218.68V-6195h-9.71v-21.54c0-4.76-1.77-7.41-6.46-7.41-5.09,0-7.74,3.4-7.74,9.31V-6195h-9.72v-21.54c0-4.76-1.77-7.41-6.45-7.41-5.1,0-7.82,3.4-7.82,9.31l.07,19.64h-9.78v-37.37h9.78v5a12.76,12.76,0,0,1,11.08-5.78c5.36,0,9.3,2.51,11.34,7.07a14.16,14.16,0,0,1,12.51-7.07C5358.48-6233.22,5363.44-6227.71,5363.44-6218.68Z" transform="translate(-4893.1 6505)"/></svg>