<svg id="Layer_1" data-name="Layer 1" xmlns="http://www.w3.org/2000/svg" viewBox="0 0 845.99 269.33"><defs><style>.cls-1{fill:#71d93a;}.cls-2{fill:#fff;}</style></defs><rect class="cls-1" width="845.99" height="269.33" rx="80.45"/><path class="cls-2" d="M3671-6731.81a19.08,19.08,0,0,1-19.5,19.5,19.11,19.11,0,0,1-19.43-19.5,19.15,19.15,0,0,1,19.43-19.5A19.16,19.16,0,0,1,3671-6731.81Zm-29.15,0c0,6.19,4.22,10.26,9.65,10.26s9.65-4.07,9.65-10.26-4.21-10.26-9.65-10.26S3641.86-6737.92,3641.86-6731.81Z" transform="translate(-3388.89 6873.87)"/><path class="cls-2" d="M3733.65-6713.12h-9.71v-28.2h-16v28.2h-9.71v-37.37h35.46Z" transform="translate(-3388.89 6873.87)"/><path class="cls-2" d="M3780.33-6731.81c0,11.49-7.34,19.5-17.06,19.5a14.14,14.14,0,0,1-11.82-5.84v22h-9.72v-54.36h9.72v5.23a14.13,14.13,0,0,1,11.82-6.05C3772.85-6751.31,3780.33-6743.36,3780.33-6731.81Zm-9.85,0c0-6.11-4-10.26-9.45-10.26s-9.58,4.15-9.58,10.26,4.15,10.26,9.58,10.26S3770.48-6725.62,3770.48-6731.81Z" transform="translate(-3388.89 6873.87)"/><path class="cls-2" d="M3825.17-6731.81a19.08,19.08,0,0,1-19.5,19.5,19.11,19.11,0,0,1-19.44-19.5,19.15,19.15,0,0,1,19.44-19.5A19.16,19.16,0,0,1,3825.17-6731.81Zm-29.15,0c0,6.19,4.21,10.26,9.65,10.26s9.65-4.07,9.65-10.26-4.22-10.26-9.65-10.26S3796-6737.92,3796-6731.81Z" transform="translate(-3388.89 6873.87)"/><path class="cls-2" d="M3869.67-6729.29H3841c.62,6,4.69,9,9.72,9,3.74,0,7-1.7,8.29-4.69h10.06c-2.79,8.83-10.26,12.7-18.28,12.7-11.69,0-19.71-8.29-19.71-19.43s8.09-19.57,19.51-19.57C3862.94-6751.31,3870.62-6741.59,3869.67-6729.29Zm-28.2-7.14h17.87a8.7,8.7,0,0,0-8.83-6.86A9,9,0,0,0,3841.47-6736.43Z" transform="translate(-3388.89 6873.87)"/><path class="cls-2" d="M3901.26-6713.12,3886-6729.43v16.31h-9.72v-37.37H3886v15.56l14.2-15.56h12.37l-17.06,17.8,18.21,19.57Z" transform="translate(-3388.89 6873.87)"/><path class="cls-2" d="M3949.36-6741.32h-11.55v28.2h-9.72v-28.2h-11.48v-9.17h32.75Z" transform="translate(-3388.89 6873.87)"/><path class="cls-2" d="M3992-6729.29h-28.67c.61,6,4.69,9,9.71,9,3.74,0,7-1.7,8.29-4.69h10.06c-2.79,8.83-10.26,12.7-18.28,12.7-11.69,0-19.7-8.29-19.7-19.43s8.08-19.57,19.5-19.57C3985.23-6751.31,3992.91-6741.59,3992-6729.29Zm-28.2-7.14h17.87a8.7,8.7,0,0,0-8.83-6.86C3968-6743.29,3965-6740.44,3963.76-6736.43Z" transform="translate(-3388.89 6873.87)"/></svg>