<svg id="Layer_2" data-name="Layer 2" xmlns="http://www.w3.org/2000/svg" viewBox="0 0 899 710"><defs><style>.cls-1{fill:#d0cde1;}.cls-2{fill:#a0616a;}.cls-10,.cls-3{isolation:isolate;}.cls-3{opacity:0.1;}.cls-4{fill:#3f3d56;}.cls-5{fill:#71db3a;}.cls-6{fill:#ff6584;}.cls-7{fill:#2f2e41;}.cls-8{fill:#575a89;}.cls-9{fill:#ffb8b8;}.cls-10{opacity:0.2;}</style></defs><ellipse class="cls-1" cx="449.5" cy="689" rx="449.5" ry="21"/><path class="cls-2" d="M1931.82,8609.45v319a17.42,17.42,0,0,1-34.84,0v-319c0-9.62,7.79-2.17,17.42-2.17,4.81,0,4.46-5.33,7.62-2.18S1931.82,8604.64,1931.82,8609.45Z" transform="translate(-1419.6 -8601.83)"/><rect class="cls-3" x="477.38" y="15.79" width="34.84" height="13.07"/><rect class="cls-3" x="477.38" y="57.16" width="34.84" height="13.07"/><rect class="cls-3" x="477.38" y="98.54" width="34.84" height="13.07"/><rect class="cls-3" x="477.38" y="139.92" width="34.84" height="13.07"/><rect class="cls-3" x="477.38" y="181.29" width="34.84" height="13.07"/><rect class="cls-3" x="477.38" y="222.67" width="34.84" height="13.07"/><rect class="cls-3" x="477.38" y="264.05" width="34.84" height="13.07"/><rect class="cls-3" x="477.38" y="305.42" width="34.84" height="13.07"/><ellipse class="cls-2" cx="494.8" cy="5.44" rx="17.42" ry="5.44"/><ellipse class="cls-3" cx="494.8" cy="5.44" rx="17.42" ry="5.44"/><path class="cls-2" d="M2095.08,8677.18l-201.88,247a17.42,17.42,0,0,1-27-22l201.88-247c6.09-7.45,7.41,3.25,14.87,9.34,3.72,3,6.82-1.3,7.28,3.14S2098.12,8673.45,2095.08,8677.18Z" transform="translate(-1419.6 -8601.83)"/><rect class="cls-3" x="2065.75" y="8660.12" width="13.07" height="34.84" transform="translate(-7377.95 -3810.54) rotate(-50.75)"/><rect class="cls-3" x="2039.57" y="8692.15" width="13.07" height="34.84" transform="translate(-7412.37 -3819.05) rotate(-50.75)"/><rect class="cls-3" x="2013.39" y="8724.19" width="13.07" height="34.84" transform="translate(-7446.8 -3827.56) rotate(-50.75)"/><rect class="cls-3" x="1987.21" y="8756.23" width="13.07" height="34.84" transform="translate(-7481.22 -3836.07) rotate(-50.75)"/><rect class="cls-3" x="1961.03" y="8788.27" width="13.07" height="34.84" transform="translate(-7515.64 -3844.57) rotate(-50.75)"/><rect class="cls-3" x="1934.84" y="8820.31" width="13.07" height="34.84" transform="translate(-7550.07 -3853.08) rotate(-50.75)"/><rect class="cls-3" x="1908.66" y="8852.35" width="13.07" height="34.84" transform="translate(-7584.5 -3861.57) rotate(-50.75)"/><rect class="cls-3" x="1882.48" y="8884.39" width="13.07" height="34.84" transform="translate(-7618.91 -3870.1) rotate(-50.75)"/><ellipse class="cls-2" cx="2082.97" cy="8664.47" rx="5.44" ry="17.42" transform="translate(-7363.91 -3807.07) rotate(-50.75)"/><ellipse class="cls-3" cx="2082.97" cy="8664.47" rx="5.44" ry="17.42" transform="translate(-7363.91 -3807.07) rotate(-50.75)"/><path class="cls-4" d="M2093.42,8973.13H2046.8l.34-8.72,2-51.53,1-25.6H1725.48l.51,13.1,1.33,34.16,2.53,64.82,1.69,43.15,2.17,55.81,1.85,47.67.54,13.71v.16l.26,6.83.68,17.11.06,1.9.46,11.61.07,2.09.67,16.87.59,15.2.2,5.25.1,2.38.09,2.31a60.05,60.05,0,0,0,4.48,22.84,57.61,57.61,0,0,0,2.65,5.62,60.37,60.37,0,0,0,33.5,28.56,55.57,55.57,0,0,0,5.79,1.69,59.84,59.84,0,0,0,13.92,1.62H1976a60.11,60.11,0,0,0,48.31-24.18,58.74,58.74,0,0,0,6.45-10.77c.14-.31.28-.61.4-.91a59.53,59.53,0,0,0,5.1-21.31c0-1,.09-2.11.09-3.16l.56-14.54.7-17.84.06-1.78.73-18.53h55a73.68,73.68,0,0,0,73.59-73.59v-68.41A73.67,73.67,0,0,0,2093.42,8973.13Zm30,142a30.08,30.08,0,0,1-30,30h-53.33v-.2l.5-12.87.38-9.82,2.16-55.25,2-50.35h48.33a30.08,30.08,0,0,1,30,30Z" transform="translate(-1419.6 -8601.83)"/><circle class="cls-1" cx="383.99" cy="50.55" r="35.23"/><circle class="cls-1" cx="406.11" cy="120.9" r="48.38"/><path class="cls-5" d="M1840,8668.52l-55.6,17.48a1.62,1.62,0,0,0-1.06,2l1,3.17a1.63,1.63,0,0,0,2,1.07h0l9.45-3,1.27.62,4.94,45.59,7.82,5.51-5.33-47.44,35.85,17.65,7.64-3.88-42.59-21.07,36.56-11.5a1.62,1.62,0,0,0,1.06-2h0l-1-3.18A1.62,1.62,0,0,0,1840,8668.52Z" transform="translate(-1419.6 -8601.83)"/><path class="cls-5" d="M1780.14,8641.53s12.14-11.73,11.33-14.3-8.89-8.51-19.17-5.27c0,0-4-3.82-6,.75s3.48,5.68,3.48,5.68-2.75,11,7.26,14.11Z" transform="translate(-1419.6 -8601.83)"/><circle class="cls-4" cx="369.33" cy="47.77" r="2.82"/><circle class="cls-4" cx="394.42" cy="39.88" r="2.82"/><rect class="cls-6" x="1803.12" y="8651.11" width="5.17" height="15.97" transform="translate(-3933.96 -7661.39) rotate(-17.46)"/><circle class="cls-4" cx="401.79" cy="104.04" r="2.82"/><circle class="cls-4" cx="404.89" cy="113.9" r="2.82"/><circle class="cls-4" cx="407.99" cy="123.76" r="2.82"/><path class="cls-4" d="M1809.86,8672.31a28.07,28.07,0,0,1-13.83.61l.17-.93a25.91,25.91,0,0,0,24.67-7.75l.67.65A28,28,0,0,1,1809.86,8672.31Z" transform="translate(-1419.6 -8601.83)"/><circle class="cls-6" cx="404.13" cy="45.69" r="2.35"/><circle class="cls-6" cx="364.69" cy="58.09" r="2.35"/><circle class="cls-1" cx="1932.84" cy="9016.2" r="5.53" transform="translate(-8696.14 878.02) rotate(-80.78)"/><circle class="cls-1" cx="530.67" cy="505.84" r="5.53"/><circle class="cls-1" cx="421.78" cy="528.7" r="5.53"/><circle class="cls-1" cx="477.31" cy="633.23" r="5.53"/><circle class="cls-1" cx="353.19" cy="549.39" r="5.53"/><circle class="cls-1" cx="348.83" cy="442.68" r="5.53"/><circle class="cls-1" cx="578.58" cy="400.22" r="5.53"/><circle class="cls-1" cx="405.45" cy="627.79" r="5.53"/><circle class="cls-1" cx="378.23" cy="375.18" r="7.5"/><circle class="cls-1" cx="452.27" cy="453.57" r="7.5"/><circle class="cls-1" cx="548.09" cy="611.45" r="7.5"/><ellipse class="cls-2" cx="468.21" cy="285.45" rx="162.69" ry="19.73"/><path class="cls-1" d="M1891.84,8683.05s5,39.11-43.36,52.23-60.82,41.5-60.82,41.5-51.73,14.19-20.08,46.32c0,0-73.45,50.68-1.71,71.57s265.55,6.76,257.43-32.84c0,0,10.08-18.36-13.29-22,0,0,32.54-44.36-49.61-70.09,0,0,13.36-13.85-22.39-9.91C1938,8759.78,1960.3,8669.1,1891.84,8683.05Z" transform="translate(-1419.6 -8601.83)"/><path class="cls-2" d="M1786.82,8779l-.13-3.15c57.48-2.36,89-20.29,105.4-34.92,17.68-15.8,21.88-31.25,21.92-31.4l3.06.79c-.17.66-4.41,16.37-22.69,32.8C1877.64,8758.17,1845.39,8776.61,1786.82,8779Z" transform="translate(-1419.6 -8601.83)"/><path class="cls-2" d="M1767,8825.3l-.7-3.08c.25-.06,25.67-5.83,95.79-20,48-9.72,59.5-19.71,62.08-24.8a4.14,4.14,0,0,0,.58-2.85l2.86-1.32c.11.24,1,2.38-.63,5.6-3.47,6.84-17.43,17-64.26,26.46C1792.68,8819.47,1767.28,8825.24,1767,8825.3Z" transform="translate(-1419.6 -8601.83)"/><path class="cls-2" d="M1798.81,8838.28h-.65v-3.15c1.1,0,115.41.16,150.59-37.66,7.48-8,10.86-17.34,10.06-27.65l3.15-.25c.87,11.23-2.8,21.34-10.9,30.05C1916,8837.35,1809.14,8838.28,1798.81,8838.28Z" transform="translate(-1419.6 -8601.83)"/><path class="cls-2" d="M1932.7,8877h-.18l0-3.16c.53,0,55.09.36,76.09-34.91l2.71,1.62C1990.05,8876.4,1936.22,8877,1932.7,8877Z" transform="translate(-1419.6 -8601.83)"/><path class="cls-1" d="M1899.46,8680.87s5,39.11-43.36,52.23-60.82,41.5-60.82,41.5-51.73,14.19-20.08,46.32c0,0-73.44,50.68-1.7,71.58s265.54,6.75,257.42-32.85c0,0,10.08-18.36-13.29-22,0,0,32.54-44.36-49.61-70.08,0,0,13.36-13.86-22.38-9.92C1945.64,8757.6,1967.92,8666.92,1899.46,8680.87Z" transform="translate(-1419.6 -8601.83)"/><path class="cls-2" d="M1794.44,8776.83l-.13-3.15c57.48-2.36,89-20.29,105.41-34.91,17.67-15.8,21.88-31.25,21.92-31.41l3,.79c-.17.67-4.41,16.37-22.68,32.8C1885.27,8756,1853,8774.43,1794.44,8776.83Z" transform="translate(-1419.6 -8601.83)"/><path class="cls-2" d="M1774.65,8823.12l-.7-3.08c.25-.05,25.67-5.83,95.79-20,48-9.72,59.5-19.71,62.08-24.8a4.13,4.13,0,0,0,.58-2.85l2.86-1.32c.11.24,1,2.38-.63,5.6-3.47,6.84-17.43,17-64.26,26.46C1800.3,8817.29,1774.9,8823.06,1774.65,8823.12Z" transform="translate(-1419.6 -8601.83)"/><path class="cls-2" d="M1806.43,8836.11h-.65l0-3.15c1.09,0,115.4.16,150.58-37.66,7.48-8,10.87-17.34,10.07-27.65l3.14-.25c.87,11.23-2.8,21.34-10.9,30.05C1923.59,8835.17,1816.76,8836.11,1806.43,8836.11Z" transform="translate(-1419.6 -8601.83)"/><path class="cls-2" d="M1940.32,8874.86h-.18l0-3.16c.53,0,55.1.36,76.09-34.9l2.71,1.61C1997.67,8874.22,1943.84,8874.86,1940.32,8874.86Z" transform="translate(-1419.6 -8601.83)"/><circle class="cls-7" cx="119.06" cy="286.16" r="17"/><path class="cls-7" d="M1555.64,8881.08l-10.65-2.61a27.41,27.41,0,0,1-27.4-27.41,27.12,27.12,0,0,1,.55-5.46h0a35.82,35.82,0,0,1,35.82-35.82h0a35.82,35.82,0,0,1,35.82,35.82h0a28.47,28.47,0,0,1-34.14,35.48Z" transform="translate(-1419.6 -8601.83)"/><polygon class="cls-8" points="67.59 388.21 93.9 350.76 108.18 377.29 91.86 396.33 67.59 388.21"/><path class="cls-8" d="M1500.91,8986.26s-8.16-3.4-12.92,2.72-12.92,19-10.2,21.08,11.56-6.12,11.56-6.12Z" transform="translate(-1419.6 -8601.83)"/><ellipse class="cls-9" cx="1485.61" cy="9010.4" rx="11.56" ry="6.12" transform="translate(-7905.72 -4046.3) rotate(-51.44)"/><path class="cls-9" d="M1474.39,9080.79s1.36,43.52,6.12,68.69-2.72,115.61-2.72,115.61l15,6.8,9.52-10.2s-3.4-18.37,1.36-31.29,6.81-68.68,6.81-68.68l8.16-74.81Z" transform="translate(-1419.6 -8601.83)"/><path class="cls-9" d="M1530.16,9093.71l42.84,78.21,38.77,71.4v15l19.72-6.12-6.8-15.65s-3.4-61.2-27.89-85L1575.72,9091Z" transform="translate(-1419.6 -8601.83)"/><path class="cls-7" d="M1504.65,8988.64h-7.48s-40.8,55.76-38.76,89.77l58.49,23.8,2-4.76s48.28,8.84,60.52-1.36l-17-87-1.36-12.24Z" transform="translate(-1419.6 -8601.83)"/><path class="cls-7" d="M1486,9264.41s9.52-12.24-2-12.92-11.56,6.8-11.56,6.8L1446.51,9276s-42.85,15.64-12.24,20.4c0,0,12.92,2.72,29.24-3.4a96.81,96.81,0,0,1,30.6-6.12s15-.68,15-8.16-7.29-20.4-7.29-20.4S1490,9266.45,1486,9264.41Z" transform="translate(-1419.6 -8601.83)"/><path class="cls-7" d="M1632.85,9247.41s-23.12-4.77-23.8,4.08,0,23.8,0,23.8,5.44,6.8,4.08,11.56,3.4,19.72,19.72,17.68,10.88-25.16,10.88-25.16l-10.88-26.52Z" transform="translate(-1419.6 -8601.83)"/><circle class="cls-9" cx="139.12" cy="247.05" r="22.78"/><path class="cls-9" d="M1543.42,8861.47l-.34,39.1,27.88-9.52s-3.4-22.44-2.72-24.48Z" transform="translate(-1419.6 -8601.83)"/><path class="cls-8" d="M1538.32,8889s29.24-10.2,32.64-8.84,4.76,8.84,4.76,8.84,16.32-3.4,18.36,7.48-12.92,58.49-12.92,58.49l-15,27.88s7.48,11.56-5.44,15.64-59.85-8.84-59.85-8.84-8.16-9.52,0-9.52c0,0,2.72-8.84,5.44-10.88s-2-5.44.68-6.12,2.73-2,2.73-2-13.61-18.37-1.37-33.33,13.95-28.9,20.07-30.94S1538.32,8889,1538.32,8889Z" transform="translate(-1419.6 -8601.83)"/><ellipse class="cls-9" cx="1552.94" cy="9045.08" rx="11.56" ry="6.12" transform="translate(-4707.44 -7353.67) rotate(-22.09)"/><path class="cls-8" d="M1583.88,8894.45h9.59s27.82,67.33,19.66,88.41-38.09,57.8-38.09,57.8-9.52,17-16.32,17-14.28-24.49-14.28-24.49l21.76-9.52,25.84-47.6-12.24-36.73Z" transform="translate(-1419.6 -8601.83)"/><polygon class="cls-10" points="89.82 358.92 74.85 385.45 77.57 386.81 89.82 358.92"/><rect class="cls-10" x="1489.13" y="9058.35" width="79.34" height="1.36" transform="translate(-9045.2 -317.5) rotate(-75.58)"/><path class="cls-7" d="M1586.26,8839.7l-4.08-7.48-6.12,4.11h0a6.66,6.66,0,0,1-5.51,2.74l-21.37-.43a7.07,7.07,0,0,1-5.08-2.31h0a11.13,11.13,0,0,0-6.91,7.63l-2.61,10v-34h40.8Z" transform="translate(-1419.6 -8601.83)"/></svg>