<svg id="Isolation_Mode" data-name="Isolation Mode" xmlns="http://www.w3.org/2000/svg" viewBox="0 0 308.17 110.08"><defs><style>.cls-1{fill:#fff;}</style></defs><path class="cls-1" d="M143.61,11771.48,131,11756.82v14.66H120v-35.68h11V11750l11.74-14.21h13.94l-15.24,17,16.09,18.68Z" transform="translate(-73.57 -11734.96)"/><path class="cls-1" d="M194.27,11753.64a18.68,18.68,0,1,1-18.68-18.68A18.32,18.32,0,0,1,194.27,11753.64Zm-26.21,0c0,5,3.31,8.17,7.53,8.17s7.52-3.18,7.52-8.17-3.24-8.17-7.52-8.17S168.06,11748.71,168.06,11753.64Z" transform="translate(-73.57 -11734.96)"/><path class="cls-1" d="M237.67,11753.64c0,11-7,18.68-16.09,18.68a12.6,12.6,0,0,1-10.12-4.67v20h-11v-51.89h11v4a12.39,12.39,0,0,1,10.18-4.86C230.53,11735,237.67,11742.55,237.67,11753.64Zm-11.16,0c0-4.93-3.24-8.17-7.53-8.17s-7.52,3.24-7.52,8.17,3.24,8.17,7.52,8.17S226.51,11758.63,226.51,11753.64Z" transform="translate(-73.57 -11734.96)"/><path class="cls-1" d="M280.22,11753.64a18.68,18.68,0,1,1-18.68-18.68A18.32,18.32,0,0,1,280.22,11753.64Zm-26.21,0c0,5,3.31,8.17,7.53,8.17s7.52-3.18,7.52-8.17-3.24-8.17-7.52-8.17S254,11748.71,254,11753.64Z" transform="translate(-73.57 -11734.96)"/><path class="cls-1" d="M318.55,11735.8v35.68h-11v-10.77a20.48,20.48,0,0,1-7.27,1.23c-7.2,0-14.53-2.72-14.53-12.78v-13.36h11v10.44c0,4.09.84,5.84,5.77,5.84a10,10,0,0,0,5-1v-15.24Z" transform="translate(-73.57 -11734.96)"/><path class="cls-1" d="M361.63,11756h-26c.52,5.52,4,7.85,7.85,7.85,3,0,5.45-1.42,6.3-4h11.35c-2.47,8.82-9.93,12.52-17.65,12.52-11.41,0-19.07-8.11-19.07-18.68s7.72-18.68,18.81-18.68C355,11735,362.73,11744.23,361.63,11756Zm-25.69-6.68h14.2c-.71-3.44-3-5.84-7-5.84S336.85,11745.85,335.94,11749.29Z" transform="translate(-73.57 -11734.96)"/><path class="cls-1" d="M381.73,11766.55c0,1.62-.32,4.28-7.78,16.08h-7l5.25-10.83a5.76,5.76,0,0,1-3.83-5.71,6.3,6.3,0,0,1,6.62-6.48C377.71,11759.61,381.73,11761,381.73,11766.55Z" transform="translate(-73.57 -11734.96)"/><path class="cls-1" d="M156.58,11820.78h-26c.52,5.51,4,7.84,7.85,7.84,3,0,5.45-1.42,6.29-4h11.35c-2.46,8.82-9.92,12.52-17.64,12.52-11.42,0-19.07-8.11-19.07-18.68s7.72-18.68,18.81-18.68C150,11799.76,157.69,11809,156.58,11820.78Zm-25.68-6.69h14.2c-.71-3.43-3-5.83-7-5.83S131.8,11810.66,130.9,11814.09Z" transform="translate(-73.57 -11734.96)"/><path class="cls-1" d="M205.75,11825.9V11845h-11v-8.76H171v8.76H160v-19.14h6.48c.85-.84,1.43-2.33,1.82-4.73l3.31-20.57h27.7v25.3Zm-17.51,0V11811H181l-1.75,10.77a12.92,12.92,0,0,1-1.3,4.15Z" transform="translate(-73.57 -11734.96)"/><path class="cls-1" d="M245.58,11800.6l-.06,35.68h-11v-3.83a12.38,12.38,0,0,1-10.06,4.67c-9.08,0-16.08-7.65-16.08-18.68s7.13-18.68,16-18.68a12.42,12.42,0,0,1,10.18,4.86v-4Zm-11,17.84c0-4.93-3.24-8.17-7.52-8.17s-7.53,3.24-7.53,8.17,3.31,8.17,7.53,8.17S234.55,11823.44,234.55,11818.44Z" transform="translate(-73.57 -11734.96)"/><rect class="cls-1" y="0.84" width="36.45" height="109.24"/></svg>