<svg id="Isolation_Mode" data-name="Isolation Mode" xmlns="http://www.w3.org/2000/svg" viewBox="0 0 476 176.8"><defs><style>.cls-1,.cls-3{fill:#fff;}.cls-2{fill:#002d6e;}.cls-2,.cls-3{fill-rule:evenodd;}</style></defs><path class="cls-1" d="M95.27,12088.15h-8.8v37.4H73.57v-85.1h12.9v34.1h8.8v-34.1h12.9v85.2H95.27Z" transform="translate(-73.57 -12039.65)"/><path class="cls-1" d="M130.37,12126.55h-2.5c-10.3,0-15.8-5.6-15.8-16.1v-17.1h12.8v14.9c0,3.9,1.3,6,4.2,6,3.1,0,4.2-2.1,4.2-7.3v-1.9c0-6.1-.6-8.2-5.3-14.3l-8.1-10.7c-5.5-7.1-7.1-12.6-7.1-21.1v-2.7c0-11.3,5.7-16.6,15.9-16.6h2.4c10.6,0,14.8,4.7,14.8,14.8v14h-12.5v-12.3c0-2.9-.6-5-3.7-5s-3.8,1.9-3.8,6v1.6c0,4.8.9,7.4,5.3,13.1l8.2,10.6c5.8,7.6,7.7,11.9,7.7,21.5v2.7C147.07,12119.15,141.67,12126.55,130.37,12126.55Z" transform="translate(-73.57 -12039.65)"/><path class="cls-1" d="M180.17,12040.45v12.4h-16.5v22.3h12.9v12.9h-12.9v24.6h17.2v12.9h-30.1v-85.1Z" transform="translate(-73.57 -12039.65)"/><path class="cls-1" d="M215.77,12109.55h-9.4l-1.7,16h-11.6l10.4-85.2h15.3l11.1,85.2h-12.5Zm-1.4-12.7-3.4-31.5-3.3,31.5Z" transform="translate(-73.57 -12039.65)"/><path class="cls-1" d="M245,12125.65h-12.9v-85.2h21c8.6,0,12.9,3.7,12.9,13.2v15.1c0,7.1-3.3,9.8-5.6,10.9,2.9,1.3,5.6,3.6,5.6,9.3v29.9a13.15,13.15,0,0,0,1.3,6.3v.6h-12.8c-.6-.9-1.3-2.4-1.3-7V12093c0-3.8-.7-5.4-4.8-5.4h-3.3l-.1,38.1Zm0-50.2h3.4c3.6,0,4.7-2.3,4.7-6.1v-11.9c0-3.7-.8-5.5-4.7-5.5H245Z" transform="translate(-73.57 -12039.65)"/><path class="cls-1" d="M292.07,12052.75v72.8h-12.8v-72.8h-10.9v-12.3H303v12.4l-10.9-.1Z" transform="translate(-73.57 -12039.65)"/><path class="cls-1" d="M337.57,12109.55h-9.4l-1.7,16h-11.6l10.4-85.2h15.3l11.1,85.2h-12.5Zm-1.4-12.7-3.4-31.5-3.3,31.5Z" transform="translate(-73.57 -12039.65)"/><path class="cls-1" d="M365.47,12040.45l11.1,45.7v-45.7h11.8v85.2h-10.5l-12.4-49v49h-11.7v-85.2Z" transform="translate(-73.57 -12039.65)"/><path class="cls-1" d="M393.17,12040.45h19.9c11.1,0,14.5,6.3,14.5,16.4v51.9c0,10.4-3.9,16.9-14.5,16.9h-19.8v-85.2Zm13,72.8h3.1c3.9,0,5-2.1,5-6.6v-48c0-4.9-1.3-6.6-4.5-6.6h-3.7v61.2Z" transform="translate(-73.57 -12039.65)"/><path class="cls-1" d="M73.57,12130.05h19.8c11.1,0,14.5,6.3,14.5,16.4v51.9c0,10.4-3.9,16.9-14.5,16.9H73.57Zm12.9,72.9h3.1c3.9,0,5-2.1,5-6.6v-48c0-4.9-1.3-6.6-4.5-6.6h-3.7v61.2Z" transform="translate(-73.57 -12039.65)"/><path class="cls-1" d="M142,12130.05v12.4h-16.5v22.3h12.9v12.9h-12.9v24.6h17.2v12.9h-30.2v-85.1Z" transform="translate(-73.57 -12039.65)"/><path class="cls-1" d="M163.27,12216.15h-2.5c-10.3,0-15.8-5.6-15.8-16.1V12183h12.8v14.9c0,3.9,1.3,6,4.2,6,3.1,0,4.2-2.1,4.2-7.3v-1.9c0-6.1-.6-8.2-5.3-14.3l-8.2-10.5c-5.5-7.1-7.1-12.6-7.1-21.1v-2.7c0-11.3,5.7-16.6,15.9-16.6h2.4c10.7,0,14.8,4.7,14.8,14.8v14h-12.5V12146c0-2.9-.6-5-3.7-5s-3.8,1.9-3.8,6v1.6c0,4.8.9,7.4,5.3,13.1l8.2,10.6c5.8,7.6,7.7,11.9,7.7,21.5v2.7C180,12208.75,174.57,12216.15,163.27,12216.15Z" transform="translate(-73.57 -12039.65)"/><path class="cls-1" d="M196.57,12215.25h-12.9v-85.2h12.9Z" transform="translate(-73.57 -12039.65)"/><path class="cls-1" d="M213.37,12216.45c-7.6,0-12.4-6.8-12.4-15.6v-53.3c0-9.5,3.7-18.3,15.9-18.3h2.5c13.9,0,15.5,9,15.5,19.1v8.7h-12.6v-9.6c0-3.8-.9-5.8-4.1-5.8-2.7,0-4,2.1-4,5.8v49.8c0,4,1.6,6.1,4.2,6.1,3.3,0,4.8-2.3,4.8-5.5v-21.3h-5.8v-13.1h18.1v51.8h-7.3c-.1-.5-1.1-4.7-2.2-8.4-.9,2.9-5.3,9.5-11.8,9.5h-.8v.1Z" transform="translate(-73.57 -12039.65)"/><path class="cls-1" d="M251.67,12130.05l11.1,45.7v-45.7h11.8v85.2h-10.5l-12.4-49v49H240v-85.2Z" transform="translate(-73.57 -12039.65)"/><path class="cls-1" d="M308.37,12216.15h-2.5c-10.3,0-15.8-5.6-15.8-16.1V12183h12.8v14.9c0,3.9,1.3,6,4.2,6,3.1,0,4.2-2.1,4.2-7.3v-1.9c0-6.1-.6-8.2-5.3-14.3l-8.2-10.5c-5.5-7.1-7.1-12.6-7.1-21.1v-2.7c0-11.3,5.7-16.6,15.9-16.6H309c10.6,0,14.8,4.7,14.8,14.8v14h-12.5V12146c0-2.9-.6-5-3.7-5s-3.8,1.9-3.8,6v1.6c0,4.8.9,7.4,5.3,13.1l8.2,10.6c5.8,7.6,7.7,11.9,7.7,21.5v2.7C325.07,12208.75,319.67,12216.15,308.37,12216.15Z" transform="translate(-73.57 -12039.65)"/><path class="cls-1" d="M349.87,12198v-19.8h12.7v19.7c0,9.2-3,18.4-15.5,18.4h-2.9c-13.1,0-15.9-9.4-15.9-18v-52c0-8.7,3.8-17.1,15.5-17.1h3c14.2,0,15.8,9.4,15.8,17.7v15.2h-12.7v-15c0-3.7-1.1-5.6-4.4-5.6s-4,1.8-4,5.6v50.6c0,3.8,1.3,5.8,4.1,5.8C348.77,12203.75,349.87,12201.45,349.87,12198Z" transform="translate(-73.57 -12039.65)"/><path class="cls-1" d="M388.47,12177.85h-8.8v37.4h-12.9v-85.2h12.9v34.1h8.8v-34.1h12.9v85.2h-12.9Z" transform="translate(-73.57 -12039.65)"/><path class="cls-1" d="M441.27,12196.25c0,11.9-4,20-16.5,20h-2.2c-12.4,0-16.7-8.1-16.7-20v-47.4c0-11.8,4.5-19.6,16.6-19.6h2.2c12.6,0,16.6,7.8,16.6,19.5Zm-13.2-48.1c0-4.5-1.5-6.5-4.5-6.5-3.3,0-4.6,2.2-4.6,6.5v49c0,3.7,1,6.5,4.7,6.5,3.4,0,4.4-2.9,4.4-6.5Z" transform="translate(-73.57 -12039.65)"/><path class="cls-1" d="M480.77,12196.25c0,11.9-4,20-16.5,20h-2.2c-12.4,0-16.7-8.1-16.7-20v-47.4c0-11.8,4.5-19.6,16.6-19.6h2.2c12.6,0,16.6,7.8,16.6,19.5Zm-13.2-48.1c0-4.5-1.5-6.5-4.5-6.5-3.3,0-4.6,2.2-4.6,6.5v49c0,3.7,1,6.5,4.7,6.5,3.4,0,4.4-2.9,4.4-6.5Z" transform="translate(-73.57 -12039.65)"/><path class="cls-1" d="M498.17,12130.05v72H514v13.2h-28.7v-85.2Z" transform="translate(-73.57 -12039.65)"/><path class="cls-2" d="M532.07,12129.15a17.5,17.5,0,1,0,17.5,17.5,17.52,17.52,0,0,0-17.5-17.5" transform="translate(-73.57 -12039.65)"/><path class="cls-3" d="M535,12145.05a7.59,7.59,0,0,0,2.3-1.7,4.9,4.9,0,0,0,1.2-3.4,5.4,5.4,0,0,0-1.9-4.1c-1.1-.9-2.1-1.3-4.5-1.3h-6.3v23.4h14.1v-4.5C540,12149.15,538.57,12146.25,535,12145.05Zm1.8,11.6h-2.6v-7.8h-2.9v7.8h-2.2v-21h2.3a3.87,3.87,0,0,1,3.1,1.3,4.35,4.35,0,0,1,.9,2.1h-4.1v1.2h4.1a4,4,0,0,1-.9,2.5,3.94,3.94,0,0,1-3.2,1.5h0v1.2c4,0,5.5,2.6,5.5,7.5v3.7Z" transform="translate(-73.57 -12039.65)"/></svg>