<?xml version="1.0" encoding="UTF-8"?><svg id="a" xmlns="http://www.w3.org/2000/svg" viewBox="0 0 140 50.14"><defs><style>.b{fill:#3f3d56;}</style></defs><polygon class="b" points="31.82 16.63 26.1 9.96 26.1 16.63 21.09 16.63 21.09 .38 26.1 .38 26.1 6.85 31.43 .38 37.77 .38 30.85 8.12 38.16 16.63 31.82 16.63"/><path class="b" d="M42.93,8.51c0,2.28,1.5,3.72,3.42,3.72s3.42-1.45,3.42-3.72-1.47-3.72-3.42-3.72-3.42,1.48-3.42,3.72Zm11.91,0c0,4.9-3.74,8.51-8.49,8.51s-8.49-3.63-8.49-8.51S41.66,0,46.35,0s8.49,3.6,8.49,8.51Z"/><path class="b" d="M69.48,8.51c0-2.24-1.47-3.72-3.42-3.72s-3.42,1.48-3.42,3.72,1.47,3.72,3.42,3.72c1.92,0,3.42-1.45,3.42-3.72h0Zm5.07,0c0,5.02-3.18,8.51-7.31,8.51-2.06,0-3.54-.86-4.6-2.13v9.13h-5.01V.38h5.01v1.83C63.68,.89,65.21,0,67.27,0c4.04,0,7.28,3.45,7.28,8.51Z"/><path class="b" d="M81.98,8.51c0,2.28,1.5,3.72,3.42,3.72s3.42-1.45,3.42-3.72-1.47-3.72-3.42-3.72-3.42,1.48-3.42,3.72Zm11.91,0c0,4.9-3.74,8.51-8.49,8.51s-8.49-3.63-8.49-8.51S80.71,0,85.4,0s8.49,3.6,8.49,8.51Z"/><path class="b" d="M111.3,.38V16.63h-5.01v-4.9c-.88,.33-1.92,.56-3.3,.56-3.27,0-6.6-1.24-6.6-5.82V.38h5.02V5.14c0,1.86,.38,2.66,2.62,2.66,.88,0,1.65-.12,2.27-.47V.38h5Z"/><path class="b" d="M119.2,6.53h6.45c-.33-1.57-1.39-2.66-3.18-2.66s-2.86,1.09-3.27,2.66Zm11.67,3.04h-11.82c.24,2.51,1.83,3.57,3.57,3.57,1.36,0,2.47-.65,2.86-1.83h5.16c-1.12,4.02-4.51,5.7-8.01,5.7-5.19,0-8.66-3.69-8.66-8.51S117.46,0,122.5,0c5.36,0,8.87,4.22,8.37,9.57Z"/><path class="b" d="M140,14.39c0,.74-.15,1.95-3.54,7.33h-3.18l2.39-4.93c-1.06-.38-1.74-1.33-1.74-2.6,0-1.77,1.3-2.95,3.01-2.95,1.24,0,3.06,.62,3.06,3.16Z"/><path class="b" d="M26.05,36.04h6.45c-.33-1.57-1.39-2.66-3.18-2.66s-2.86,1.09-3.27,2.66Zm11.67,3.04h-11.82c.24,2.51,1.83,3.57,3.57,3.57,1.36,0,2.47-.65,2.86-1.83h5.16c-1.12,4.02-4.51,5.7-8.01,5.7-5.19,0-8.66-3.69-8.66-8.51s3.51-8.51,8.55-8.51c5.36,0,8.87,4.22,8.37,9.57Z"/><path class="b" d="M52.1,41.42v-6.8h-3.3l-.8,4.91c-.09,.66-.29,1.3-.59,1.89h4.69Zm7.96,0v8.72h-5.01v-3.99h-10.79v3.99h-5.01v-8.72h2.94c.38-.38,.65-1.07,.83-2.16l1.5-9.36h12.58v11.52h2.95Z"/><path class="b" d="M73.14,38.02c0-2.24-1.47-3.72-3.42-3.72s-3.42,1.48-3.42,3.72,1.5,3.72,3.42,3.72c1.94,0,3.42-1.45,3.42-3.72Zm5.01-8.12l-.03,16.25h-5.01v-1.74c-1.03,1.27-2.5,2.13-4.57,2.13-4.13,0-7.31-3.49-7.31-8.51s3.24-8.51,7.28-8.51c2.06,0,3.6,.89,4.63,2.21v-1.83h5.01Z"/><rect class="b" y=".38" width="16.56" height="49.75"/><path class="b" d="M16.56,50.14V17.93C11.91,14.04,6.05,11.91,0,11.92V50.14H16.56Z"/><path class="b" d="M0,30.75v19.39H16.56V22.55c-3.2,0-6.36,.74-9.24,2.16-2.87,1.42-5.38,3.49-7.32,6.04Z"/><path class="b" d="M16.56,33.57c-2.55-1.36-5.39-2.07-8.28-2.07s-5.73,.71-8.28,2.07v16.56H16.56v-16.56Z"/></svg>