<?xml version="1.0" encoding="UTF-8"?><svg id="a" xmlns="http://www.w3.org/2000/svg" viewBox="0 0 133.04 50.02"><defs><style>.b{fill:#f9a825;}.c{fill:#fe7d1e;}.d{fill:#3f3d56;}.e{fill:#5fc638;}</style></defs><polygon points="30.24 16.59 24.81 9.93 24.81 16.59 20.04 16.59 20.04 .38 24.8 .38 24.8 6.84 29.87 .38 35.9 .38 29.32 8.1 36.26 16.59 30.24 16.59"/><path d="M40.8,8.49c0,2.27,1.43,3.71,3.25,3.71s3.25-1.44,3.25-3.71-1.4-3.71-3.25-3.71-3.25,1.47-3.25,3.71Zm11.31,0c0,4.89-3.56,8.49-8.07,8.49s-8.06-3.62-8.06-8.49S39.59,0,44.05,0s8.07,3.6,8.07,8.49Z"/><path d="M66.03,8.49c0-2.24-1.4-3.71-3.25-3.71s-3.25,1.47-3.25,3.71,1.4,3.71,3.25,3.71c1.82,0,3.25-1.44,3.25-3.71h0Zm4.82,0c0,5.01-3.02,8.49-6.95,8.49-1.96,0-3.36-.85-4.37-2.12v9.11h-4.76V.38h4.76v1.83C60.51,.88,61.97,0,63.93,0c3.84,0,6.92,3.45,6.92,8.49Z"/><path d="M77.9,8.49c0,2.27,1.43,3.71,3.25,3.71s3.25-1.44,3.25-3.71-1.4-3.71-3.25-3.71-3.25,1.47-3.25,3.71Zm11.31,0c0,4.89-3.56,8.49-8.07,8.49s-8.06-3.62-8.06-8.49S76.7,0,81.15,0s8.07,3.6,8.07,8.49Z"/><path d="M105.77,.38V16.59h-4.76v-4.89c-.84,.33-1.82,.56-3.14,.56-3.11,0-6.27-1.24-6.27-5.81V.38h4.77V5.13c0,1.86,.36,2.65,2.49,2.65,.84,0,1.57-.12,2.16-.47V.38h4.76Z"/><path d="M113.27,6.51h6.13c-.31-1.56-1.32-2.65-3.02-2.65s-2.72,1.09-3.11,2.65Zm11.09,3.04h-11.23c.22,2.5,1.74,3.57,3.39,3.57,1.29,0,2.35-.65,2.72-1.83h4.9c-1.06,4.01-4.28,5.69-7.62,5.69-4.93,0-8.23-3.68-8.23-8.49S111.62,0,116.41,0c5.1,0,8.43,4.21,7.95,9.55Z"/><path class="e" d="M133.04,14.35c0,.74-.14,1.95-3.36,7.31h-3.02l2.27-4.92c-1.01-.38-1.65-1.33-1.65-2.59,0-1.77,1.23-2.94,2.86-2.94,1.18,0,2.91,.62,2.91,3.15Z"/><path d="M24.75,35.96h6.13c-.31-1.56-1.32-2.65-3.02-2.65s-2.72,1.09-3.11,2.65Zm11.09,3.04h-11.23c.22,2.51,1.74,3.57,3.39,3.57,1.29,0,2.35-.65,2.72-1.83h4.9c-1.06,4.01-4.29,5.69-7.62,5.69-4.93,0-8.23-3.68-8.23-8.49s3.33-8.49,8.12-8.49c5.1,0,8.43,4.21,7.95,9.55Z"/><path d="M49.51,41.32v-6.78h-3.14l-.76,4.89c-.09,.66-.27,1.29-.56,1.89h4.45Zm7.56,0v8.69h-4.76v-3.98h-10.25v3.98h-4.76v-8.69h2.8c.36-.38,.62-1.06,.78-2.15l1.43-9.34h11.96v11.49h2.8Z"/><path d="M69.5,37.93c0-2.24-1.4-3.71-3.25-3.71s-3.25,1.47-3.25,3.71,1.43,3.71,3.25,3.71c1.85,0,3.25-1.44,3.25-3.71Zm4.76-8.1l-.03,16.21h-4.76v-1.74c-.98,1.27-2.38,2.12-4.34,2.12-3.92,0-6.94-3.48-6.94-8.49s3.08-8.49,6.92-8.49c1.96,0,3.42,.88,4.4,2.21v-1.83h4.76Z"/><rect class="e" y=".38" width="15.73" height="49.63"/><path class="d" d="M15.73,50.02V17.89C11.32,14,5.75,11.88,0,11.89V50.02H15.73Z"/><path class="b" d="M0,30.67v19.34H15.73V22.5c-3.04,0-6.05,.73-8.78,2.15S1.85,28.13,0,30.67Z"/><path class="c" d="M15.73,33.49c-2.42-1.35-5.12-2.06-7.87-2.06s-5.44,.71-7.87,2.06v16.52H15.73v-16.52Z"/></svg>