<?xml version="1.0" encoding="UTF-8"?><svg id="a" xmlns="http://www.w3.org/2000/svg" viewBox="0 0 50 50"><defs><style>.b{fill:#efefef;}.c{fill:#3f3d56;fill-rule:evenodd;}</style></defs><rect class="b" width="50" height="50" rx="12" ry="12"/><path class="c" d="M11.05,23.35c8.05-3.38,13.41-5.62,16.1-6.71,7.66-3.09,9.27-3.62,10.31-3.64,.23,0,.74,.04,1.08,.31,.28,.22,.35,.51,.39,.73,.05,.22,.09,.69,.05,1.04-.41,4.22-2.21,14.46-3.13,19.17-.39,2-1.15,2.67-1.89,2.73-1.61,.13-2.83-1.02-4.37-2-2.44-1.53-3.8-2.49-6.17-4-2.74-1.73-.97-2.69,.6-4.24,.41-.4,7.48-6.62,7.61-7.17,.02-.07,.02-.33-.14-.47s-.39-.09-.58-.04c-.25,.04-4.12,2.53-11.64,7.44-1.1,.73-2.09,1.09-2.99,1.07-.99-.02-2.88-.53-4.3-.98-1.73-.53-3.11-.82-2.99-1.75,.07-.49,.76-.98,2.05-1.49Z"/></svg>