<?xml version="1.0" encoding="UTF-8"?><svg id="a" xmlns="http://www.w3.org/2000/svg" viewBox="0 0 250 50"><defs><style>.b{fill:#efefef;}.c{fill:#3f3d56;}</style></defs><rect class="b" width="250" height="50" rx="18" ry="18"/><path class="c" d="M190.97,19.88c-1.46,0-2.59,.7-3.31,1.87-.54-1.21-1.58-1.87-3.01-1.87-1.3,0-2.23,.54-2.93,1.53v-1.31h-2.59v9.9h2.59l-.02-5.2c0-1.57,.72-2.47,2.07-2.47,1.24,0,1.71,.7,1.71,1.96v5.71h2.57v-5.2c0-1.57,.7-2.47,2.05-2.47,1.24,0,1.71,.7,1.71,1.96v5.71h2.57v-6.26c0-2.39-1.31-3.85-3.42-3.85Zm-19.01,7.88c-1.42,0-2.5-1.08-2.5-2.72s1.06-2.72,2.5-2.72,2.54,1.1,2.54,2.72-1.1,2.72-2.54,2.72Zm2.54-7.67v1.39c-.68-.95-1.73-1.6-3.13-1.6-2.54,0-4.5,2.11-4.5,5.17s1.93,5.17,4.52,5.17c1.39,0,2.41-.61,3.1-1.55v1.33h2.57l.02-9.9h-2.57Zm-9.34-.22c-1.4,0-2.48,.65-3.1,1.94v-1.73h-2.57v9.9h2.57v-4.41c0-2.34,1.4-3.06,3.04-3.06,.29,0,.43,.02,.63,.04v-2.65c-.16-.02-.34-.04-.58-.04Zm-12.83,7.74c-1.42,0-2.5-1.1-2.5-2.65s1.06-2.65,2.5-2.65,2.54,1.1,2.54,2.65-1.1,2.65-2.54,2.65Zm2.54-7.52v1.37c-.68-.95-1.75-1.58-3.11-1.58-2.56,0-4.52,2.11-4.52,5.09s1.93,5.09,4.52,5.09c1.39,0,2.41-.61,3.11-1.55v1.42c0,1.67-.83,2.48-2.39,2.48-1.06,0-2-.4-2.29-1.51h-2.66c.38,2.59,2.63,3.8,5.02,3.8,2.99,0,4.9-1.91,4.9-4.84v-9.77h-2.57Zm-14.23,1.91c1.24,0,2.05,.74,2.34,1.82h-4.73c.32-1.06,1.13-1.82,2.39-1.82Zm.02-2.12c-3.02,0-5.17,2.21-5.17,5.18s2.12,5.15,5.22,5.15c2.12,0,4.1-1.03,4.84-3.37h-2.66c-.34,.79-1.21,1.24-2.2,1.24-1.33,0-2.41-.79-2.57-2.38h7.6c.25-3.26-1.78-5.83-5.06-5.83Zm-9.55,10.12h2.57v-13.86h-2.57v13.86Zm-6.85-7.99c1.24,0,2.05,.74,2.34,1.82h-4.73c.32-1.06,1.13-1.82,2.39-1.82Zm.02-2.12c-3.02,0-5.17,2.21-5.17,5.18s2.12,5.15,5.22,5.15c2.12,0,4.1-1.03,4.84-3.37h-2.66c-.34,.79-1.21,1.24-2.2,1.24-1.33,0-2.41-.79-2.57-2.38h7.6c.25-3.26-1.78-5.83-5.06-5.83Zm-4.89-2.48h-9.83v2.45h3.62v10.15h2.57v-10.15h3.64v-2.45Zm-20.19,10.58h-2.47v-2.12h2.47c.86,0,1.19,.34,1.19,1.04s-.29,1.08-1.19,1.08Zm.7-4.9c0,.61-.29,.94-1.17,.94h-2v-1.91h2c.88,0,1.17,.32,1.17,.97Zm1.31,1.57c.74-.49,1.28-1.03,1.28-2.05,0-1.98-1.57-2.5-3.55-2.5h-4.79v9.9h5.24c2.03,0,3.6-.83,3.6-2.86,0-1.26-.63-2.14-1.78-2.48Zm-13.86-4.55h-8.68v2.43h3.04v7.47h2.57v-7.47h3.06v-2.43Zm-14.91,2.23c1.44,0,2.56,1.1,2.56,2.72s-1.12,2.72-2.56,2.72-2.56-1.08-2.56-2.72,1.12-2.72,2.56-2.72Zm0-2.45c-2.84,0-5.15,2.18-5.15,5.17s2.27,5.17,5.15,5.17,5.17-2.18,5.17-5.17-2.3-5.17-5.17-5.17Zm-11.85,8.12c-1.42,0-2.54-1.06-2.54-2.72s1.17-2.68,2.59-2.68,2.5,1.06,2.5,2.68-1.12,2.72-2.56,2.72Zm.76-7.6c-1.35,0-2.61,.59-3.28,1.78,.22-3.29,2.21-3.85,6.37-3.85v-2.41c-5.26,0-8.98,1.12-8.98,7.96,0,4.52,2.5,6.34,5.24,6.34s5.02-2,5.02-5.08c0-2.86-1.93-4.73-4.37-4.73Z"/></svg>