<?xml version="1.0" encoding="UTF-8"?><svg id="a" xmlns="http://www.w3.org/2000/svg" viewBox="0 0 50 50"><defs><style>.b{fill:#efefef;}.c{fill:#3f3d56;fill-rule:evenodd;}</style></defs><rect class="b" width="50" height="50" rx="12" ry="12"/><path class="c" d="M41.22,16.36c.24-.78,0-1.36-1.12-1.36h-3.72c-.95,0-1.38,.49-1.62,1.04,0,0-1.89,4.57-4.57,7.53-.87,.86-1.26,1.13-1.73,1.13-.24,0-.58-.27-.58-1.05v-7.3c0-.94-.27-1.36-1.06-1.36h-5.84c-.59,0-.95,.43-.95,.85,0,.89,1.34,1.09,1.48,3.59v5.43c0,1.19-.22,1.41-.69,1.41-1.26,0-4.33-4.59-6.15-9.84-.36-1.02-.71-1.43-1.66-1.43h-3.72c-1.06,0-1.28,.49-1.28,1.04,0,.98,1.26,5.82,5.87,12.22,3.07,4.37,7.4,6.74,11.34,6.74,2.36,0,2.66-.53,2.66-1.43v-3.3c0-1.05,.22-1.26,.97-1.26,.55,0,1.5,.27,3.7,2.38,2.52,2.5,2.94,3.62,4.36,3.62h3.72c1.06,0,1.59-.53,1.29-1.57-.33-1.03-1.54-2.54-3.14-4.32-.87-1.02-2.17-2.11-2.56-2.66-.55-.7-.39-1.02,0-1.64,0,0,4.53-6.32,5.01-8.47h0Z"/></svg>