<?xml version="1.0" encoding="UTF-8"?><svg id="a" xmlns="http://www.w3.org/2000/svg" viewBox="0 0 480 435.13"><defs><style>.b{fill:#ffb6b6;}.c{fill:#71db3a;}.d{fill:#c7c7ea;}.e{fill:#3f3d56;}.f{fill:#2f2e41;}</style></defs><path class="e" d="M1,434.85H479v-2H1v2Zm478,0c.55,0,1-.45,1-1s-.45-1-1-1v2ZM1,432.85c-.55,0-1,.45-1,1s.45,1,1,1v-2Z"/><path class="e" d="M150.46,292.84c-15.24-.66-22.13-12.57-22.08-23.35,.05-11.07,7.21-23.23,22.83-23.76,58.1-1.98,90.01-12.34,100.42-32.59,10.76-20.94,.25-53.28-34.08-104.85-10.14-15.02-11.22-34.4-2.8-50.45,7.89-15.72,23.77-25.85,41.36-26.36,.63-.02,1.27-.03,1.9-.03h97.73c.63,0,1.27,.01,1.9,.03,16.01,.54,65.12,3.32,74.99,16.16,.1,.13,.2,.26,.31,.4,12.3,15.92,6.89,32.47-3.64,49.56-23.02,37.42-40.56,77.94-52.07,120.34l-5.56,20.46c-4.45,31.17-31.09,54.36-62.58,54.47H151.95c-.5,0-1-.01-1.5-.03h.01Z"/><path class="e" d="M303.76,413.37c0-4.32-3.5-7.83-7.83-7.83h-35.07v-120.99h-15.67v120.99h-35.07c-4.32,0-7.83,3.5-7.83,7.83s3.5,7.83,7.83,7.83h85.81c4.32,0,7.83-3.5,7.83-7.83Z"/><circle class="e" cx="213.14" cy="428.16" r="6.96"/><circle class="e" cx="291.16" cy="428.16" r="6.96"/><circle class="e" cx="265.04" cy="428.16" r="6.96"/><path class="e" d="M182.9,190.71c0,4.32,3.5,7.83,7.83,7.83h21.54v60.71h15.67v-60.71h21.54c4.32,0,7.83-3.5,7.83-7.83s-3.5-7.83-7.83-7.83h-58.75c-4.32,0-7.83,3.5-7.83,7.83h0Z"/><path class="b" d="M171.9,213.43c-5.14-1.22-8.78-5.8-8.8-11.08-.03-6.32,5.07-11.45,11.39-11.48l81.93-32.62,15.84,13.79-86.32,31.05c-.04,.67-.14,1.33-.3,1.98-1.49,6.1-7.64,9.85-13.74,8.36Z"/><path class="d" d="M248.03,156.19c-11.94-.44-29.74,9.25-49.24,21.89l18.56,13.47s54.59-8.33,59.51-15.1c4.91-6.77,36.63-47.82,35.35-64.42-1.29-16.6-15.83-16.92-15.83-16.92l-48.34,61.08h0Z"/><path class="c" d="M158.5,179.37h17.69c1.69,0,3.06,1.37,3.06,3.06v40.45c0,1.69-1.37,3.06-3.06,3.06h-17.69c-1.69,0-3.06-1.37-3.06-3.06v-40.45c0-1.69,1.37-3.06,3.06-3.06Z" transform="translate(-88.39 142.05) rotate(-37.12)"/><path class="e" d="M160.24,179.46l-2.51,1.9c-.27,.2-.32,.59-.12,.86l.17,.22c.4,.53,.29,1.27-.23,1.67l-5.39,4.08c-.53,.4-1.27,.29-1.67-.23l-.17-.22c-.21-.27-.59-.32-.86-.12l-2.51,1.9c-1.35,1.02-1.61,2.93-.59,4.28l23.79,31.43c1.02,1.35,2.93,1.61,4.28,.59l13.29-10.06c1.35-1.02,1.61-2.93,.59-4.28l-23.79-31.43c-1.02-1.35-2.93-1.61-4.28-.59Z"/><polygon class="b" points="207.25 339.45 192.31 347.56 219.11 384.6 229.23 379.1 207.25 339.45"/><path class="f" d="M236.95,392.23l-8.06,3.06-4.33-7.07-.79,9.01-21.39,8.13c-1.58,.6-3.36,.38-4.75-.57-2.34-1.61-2.93-4.82-1.31-7.16l12.6-18.28-2.93-7.7,18.37-5.75,12.59,26.32Z"/><path class="b" d="M257.07,157.86c.08,17.12-5.68,39.73-5.68,39.73,0,0,54.28,5.17,56.74,2.59,2.49-2.59,2.52-16.62,2.52-16.62l3.54-15.22-57.13-10.48h0Z"/><path class="f" d="M155.29,232.68c.03-.63,.08-1.27,.15-1.9,0-.05,.01-.11,.02-.16,1.4-11.75,12.07-20.13,23.82-18.73l58.11,7.52,11.72-25.92c18.71-6.5,39.17-4.42,60.71,2.94,8.19,13.32-.72,20.91,3.25,33.03,.17,.53,.32,1.06,.45,1.59,2.82,11.38-4,22.91-15.34,25.9-33.18,8.46-71.53,6.22-112.18-.78,18.18,36.12,33.51,70.6,33.13,96.09l-19.58,10.77c-19.33-25.72-32.5-75.28-44.25-130.36h0Z"/><path class="d" d="M325.82,81.91c1.4,.25,2.9,1.75,4.32,3.76,4.76,6.83,6.21,15.44,3.97,23.46l-20.49,75.28s-3,13.18-5.47,15.76c-1.26,1.31-14.18-.97-27.1-8.63-.84-.5-3.3,.99-4.13,.49-1.67-1-3.06,1.56-4.65,.59-9.38-5.69-23.76,4.95-23.76,4.95,0,0,3.67-39.59,3.7-56.7,.03-17.11,10.43-30.35,10.43-30.35l26.29-21.73,6.32-15.34c.74-1.79,2.54-2.91,4.47-2.81l22.38,1.32c2.26,2.26,.6,9.28,3.73,9.94h0Z"/><polygon class="b" points="157.59 373.74 143.64 364.04 122.24 404.42 131.69 410.99 157.59 373.74"/><path class="f" d="M163.63,284.69c-.26-.58-.49-1.17-.7-1.77-.02-.06-.04-.11-.06-.17-3.91-11.15,1.97-23.36,13.11-27.27l55.4-18.76-1.86-8.45,29.49-31.52c13.2,8.37,35.74,6.63,44.63,15.76,.38,.4,.75,.81,1.1,1.24,7.53,9.1,.91,18.69-7.92,26.16-26.02,22.16-55.83,40.84-95.35,52.41-15.09,41.78-32.89,78.58-56.43,104.82l-14.81-13.23,33.37-99.2h0Z"/><path class="f" d="M122.59,433.59l-7.08-4.93,3.38-7.57-7.89,4.44-18.79-13.06c-1.39-.97-2.21-2.55-2.21-4.24,0-2.84,2.32-5.14,5.16-5.12l22.2,.07,4.7-6.76,15.12,11.91-14.61,25.26h.01Z"/><path class="b" d="M289.04,261.69c-4.85,2.09-10.51,.6-13.68-3.63-3.79-5.05-2.77-12.22,2.27-16.01l46.22-75.11,20.94,1.59-50.68,76.47c.37,.56,.68,1.15,.94,1.77,2.45,5.78-.24,12.46-6.03,14.91h0Z"/><path class="d" d="M315.9,170.3c-15,14.71-26.67,29.92-26.41,46.97l22.93-.28s5.72-5.8,12.77-13.41c1.49-1.6,5.96-1.35,7.52-3.07,1.57-1.74,.22-5.46,1.79-7.24,2.7-3.09,5.33-6.19,7.67-9.13,5.21-6.53,8.99-12.18,8.96-14.8-.1-8.37,.81-60.24-10.14-72.78-10.95-12.54-22.8-4.11-22.8-4.11l-2.27,77.86h0Z"/><path class="f" d="M288.65,28.84c1.62-7.08,3.9-13.39,9.76-17.26,3.39-2.23,7.12-3.89,11.04-4.92,0,0,.01,0,.02,0,4.7-1.23,9.6-1.51,14.41-.81,.37,.04,.75,.1,1.13,.17,.3,.05,.61,.1,.9,.17l.21,.04c.62,.13,1.24,.28,1.85,.43,.61,.17,1.22,.33,1.81,.51,5.17,1.59,9.91,4.34,13.88,8.01,.26,.24,.52,.49,.77,.73,.85,.83,1.66,1.69,2.43,2.59,.03,.04,.05,.08,.09,.11,.28,.33,.53,.65,.79,.98,.26,.33,.51,.65,.77,1,.34,.48-2.92,52.46-2.92,52.46-.01-.01-.03-.03-.04-.04-.34-.42-.65-.85-.93-1.31-.02-.04-.04-.08-.06-.12-.91-1.51-1.43-3.22-1.51-4.98-.76,1.31-1.3,2.74-1.6,4.23-.04,.23-.08,.46-.12,.69-.03,.19-.04,.38-.08,.56l-15.87-3.47-5.46-1.2-6.71-1.49-10.81-2.4c-6.89-2.05-17.52,6.92-17.66,12.64-1.56-3.06,.54-28.69,1.13-32.32l1.23-7.48c.53-2.55,1-5.08,1.57-7.51l.02-.02Z"/><circle class="b" cx="316.38" cy="39.36" r="24.28" transform="translate(64.84 235.24) rotate(-45)"/><path class="f" d="M309.45,6.66h.02c.28,.04,.54,.08,.81,.14l10.14,2.08c.88-1.29,2.07-2.33,3.46-3.03,.37,.04,.75,.1,1.13,.17,.3,.05,.61,.1,.9,.17l.21,.04c.62,.13,1.24,.28,1.85,.43,.61,.17,1.22,.34,1.8,.52,5.16,1.61,9.9,4.34,13.88,8,.26,.24,.52,.49,.77,.73,.85,.83,1.65,1.7,2.43,2.59,.03,.04,.05,.08,.09,.11,.28,.33,.53,.65,.79,.98s.34,.98,.76,1.01c14.51,.98,7.33,53.82-2.91,52.45-.01-.01-.03-.03-.04-.04-.34-.42-.65-.85-.93-1.31-.02-.04-.04-.08-.06-.12-.91-1.51-1.43-3.22-1.51-4.98-.76,1.31-1.3,2.74-1.59,4.23-.04,.23-.08,.46-.12,.69-.03,.19-.04,.38-.08,.56l-15.87-3.47c-2.27-3.61-3.81-8.49-5.46-1.2-.69,2.59-1.14,5.25-1.37,7.92l-2.46,7.49c-1.92-4.36-2.79-10.43-2.88-16.91-.19-12.26,2.42-26.01,5.94-32.53-5.39,1.79-11.17,2.01-16.68,.65-.6-1.7-.76-3.54-.45-5.32-1.19,1.29-2.11,2.81-2.72,4.45-3.64-1.19-7.19-2.63-10.63-4.32-.86-.4-1.73-.83-2.63-1.27,2.63-12.84,10.77-23.02,23.43-20.9h0Z"/><path class="f" d="M344.28,21.1c-5.52-1.08-10.36-4.38-13.41-9.12-1.2-1.74-1.89-3.77-2-5.87-.09-2.13,.94-4.16,2.7-5.36,1.78-.93,3.89-1,5.73-.19,1.81,.81,3.48,1.9,4.97,3.21l8.1,6.49c2.56,2.04,5.4,4.91,4.5,8.06-.73,2.58-3.84,3.86-6.48,3.47-2.65-.39-4.93-2.01-7.1-3.57"/><path class="e" d="M272,194.63c0,4.32,3.5,7.83,7.83,7.83h21.54v60.71h15.67v-60.71h21.54c4.32,0,7.83-3.5,7.83-7.83s-3.5-7.83-7.83-7.83h-58.75c-4.32,0-7.83,3.5-7.83,7.83h0Z"/></svg>