<?xml version="1.0" encoding="UTF-8"?><svg id="a" xmlns="http://www.w3.org/2000/svg" viewBox="0 0 480 331"><defs><style>.b{fill:#e6e6e6;}.c{fill:#fff;}.d{fill:#ffb6b6;}.e{fill:#e4e4e4;}.f{fill:#9e616a;}.g{fill:#3f3d56;}.h{fill:#2f2e41;}.i{fill:#5fc638;}.j{opacity:.2;}</style></defs><path class="g" d="M1,331H479v-2H1v2Zm478,0c.55,0,1-.45,1-1s-.45-1-1-1v2ZM1,329c-.55,0-1,.45-1,1s.45,1,1,1v-2Z"/><g><path class="g" d="M321.42,325.55l-100.41-181.05c-.06-.9-.56-1.71-1.34-2.17-.44-.25-.94-.37-1.45-.35h-.1c-1.43-.07-2.65,1-2.78,2.43l-106.43,181.13c-.74,1.29-.31,2.94,.98,3.69,1.29,.74,2.94,.31,3.69-.98l104.5-177.87,98.65,177.87c.74,1.29,2.39,1.73,3.69,.99,1.29-.74,1.73-2.39,.99-3.69Z"/><polygon class="d" points="201.53 294.49 212.88 291.89 208.23 246.87 191.49 250.72 201.53 294.49"/><path class="h" d="M210.3,272.75l-16.15,3.71-5.16-10.09-.29-.36c-2.29-2.81-3.56-6.32-3.61-9.94l-13.42-35.51-1.1-.52c-3.3-1.57-4.7-5.51-3.13-8.81,.12-.26,.26-.51,.42-.75l-1.42-3.76-40.1,.07h-.04l-49.25-13.83,5.17-30.82,13.86,8.72c4.56-.29,82.76-5.1,89.98,12.43,6.43,15.61,15.7,42.27,22.35,61.88,.33,.88,.74,1.73,1.23,2.53,1.03,1.59,1.64,3.42,1.76,5.31,.08,.82,.23,1.64,.47,2.44,2.76,8.25-1.45,17.09-1.49,17.18l-.06,.13h0Z"/><path class="h" d="M197.69,290.73l3.69-.85,13.06-9.17,9.06,4.08c9.09-2.09,18.14,3.59,20.23,12.68l.12,.53-42.27,9.7-3.9-16.99h0Z"/><path class="c" d="M352.42,271.93c-1.3,.57-2.8,.44-3.99-.33-.3-.2-.56,.29-.26,.49,1.32,.85,2.97,.99,4.41,.38,.14-.05,.23-.2,.19-.35-.04-.14-.2-.23-.35-.19Z"/><path class="c" d="M319.94,287.32c-.7,1.24-1.97,2.04-3.38,2.14-.36,.02-.28,.58,.08,.55,1.57-.11,2.97-1,3.75-2.36,.08-.13,.06-.29-.06-.39-.13-.09-.3-.07-.39,.06Z"/><path class="g" d="M316.83,53.75c1.49,0,2.7-1.21,2.7-2.7s-1.21-2.7-2.7-2.7-2.7,1.21-2.7,2.7,1.21,2.7,2.7,2.7Z"/><path class="e" d="M283.04,71.84l36.39-22.86c1.34-.85,3.12-.44,3.96,.91,.85,1.34,.44,3.12-.91,3.96-.07,.05-.15,.09-.23,.13l-38.31,19.48c-.46,.23-1.01,.05-1.25-.41-.22-.43-.07-.95,.34-1.21Z"/><path class="i" d="M210.03,121.07c-.59-.87-.57-2.02,.04-2.87,.62-.82,1.43-1.48,2.38-1.88,1.95-.99,4.04-1.66,6.21-1.96,1.64-.23,3.44-.31,4.71-1.37,1.27-1.06,1.97-3.03,3.61-3.2,1.59-.16,2.81,1.58,4.4,1.69,1.96,.13,3.24-2.16,5.15-2.63,1.28-.32,2.59,.24,3.79,.79l7.19,3.26,3.68,1.67c1.29,.58,2.74,1.37,2.98,2.77,.34,1.91-1.79,3.26-3.61,3.94-12.99,4.79-27.27,4.8-40.26,0"/><path class="g" d="M220.87,156.32c52.17,0,94.47-6.04,94.47-13.5s-42.3-13.5-94.47-13.5-94.47,6.04-94.47,13.5,42.3,13.5,94.47,13.5Z"/><path class="g" d="M347.72,226.5h64.78c2.98,0,5.4,2.42,5.4,5.4s-2.42,5.4-5.4,5.4h-64.78c-2.98,0-5.4-2.42-5.4-5.4s2.42-5.4,5.4-5.4Z"/><path class="g" d="M443.9,130.25l-21.4,101.64,5.57,26.01,10.52,49.09v22.16c0,.49-.1,.97-.26,1.43h-8.46c-.17-.46-.26-.94-.26-1.43,0-.03,0-.06,0-.09v-21.12l-9.55-44.56-1.93-9-3.74-17.44-1.08-5.05,1.07-5.07,.82-3.9,19.9-94.52c.51-2.43,2.89-3.99,5.32-3.48,2.43,.51,3.99,2.89,3.48,5.32h-.01Z"/><path class="g" d="M352.22,231.89v97.26c0,.49-.1,.97-.26,1.43h-8.46c-.17-.46-.26-.94-.26-1.43,0-.03,0-.06,0-.09v-97.17c0-2.48,2.02-4.5,4.5-4.5s4.5,2.02,4.5,4.5h-.01Z"/><path class="g" d="M358.52,215.7h43.19c8.94,0,16.19,7.25,16.19,16.19h-75.58c0-8.94,7.25-16.19,16.19-16.19Z"/><path class="g" d="M423.3,263.38h-75.58c-2.48,0-4.5-2.02-4.5-4.5s2.02-4.5,4.5-4.5h75.58c2.48,0,4.5,2.02,4.5,4.5s-2.02,4.5-4.5,4.5Z"/><rect class="g" x="66.36" y="225.03" width="87.03" height="12.43" rx="5.4" ry="5.4"/><path class="g" d="M70.97,231.31l-1.38,5.69-5.06,20.83-2.18,9-10.14,41.73v18.11c0,.89-.26,1.75-.76,2.49-.39,.59-.92,1.09-1.54,1.43h-4.4c-.62-.34-1.15-.83-1.54-1.43-.5-.74-.76-1.6-.76-2.49v-19.19l11.26-46.37,7.27-29.94-24.65-117.11c-.51-2.43,1.04-4.82,3.47-5.33,2.43-.51,4.82,1.04,5.33,3.47l22.79,108.23,1.05,4.99,1.22,5.82,.02,.07Z"/><path class="g" d="M151.67,231.24v95.42c0,.89-.26,1.75-.76,2.49-.39,.59-.92,1.09-1.54,1.43h-4.41c-.62-.34-1.15-.83-1.54-1.43-.5-.74-.76-1.6-.76-2.49v-95.42c0-2.48,2.02-4.5,4.5-4.5s4.5,2.02,4.5,4.5Z"/><path class="g" d="M153.39,231.24H66.36v-2.45c0-8.94,7.25-16.19,16.19-16.19h54.64c8.94,0,16.19,7.25,16.19,16.19v2.45Z"/><path class="g" d="M147.17,266.82H60.15c-2.48,0-4.5-2.02-4.5-4.5s2.02-4.5,4.5-4.5h87.03c2.48,0,4.5,2.02,4.5,4.5s-2.02,4.5-4.5,4.5Z"/><polygon class="f" points="259.01 306.06 249.56 301.54 262.55 262.02 276.5 268.69 259.01 306.06"/><polygon class="f" points="323.09 302.49 312.92 304.99 298.19 266.1 313.2 262.39 323.09 302.49"/><path class="f" d="M284.13,134.29c2.81,4.55,8.73,6.04,13.35,3.35,.45-.27,.87-.58,1.27-.92l29.89,17.15-1.3-17.61-28.18-13.59c-3.15-3.17-8.05-3.81-11.91-1.55-4.47,2.69-5.93,8.49-3.24,12.97,.04,.07,.08,.13,.12,.2h0Z"/><path class="b" d="M315.78,147.41l5.28,3.22,23.73,14.47c6.55,4.1,15.19,2.11,19.28-4.44h0c1.76-2.91,2.39-6.35,1.75-9.68l-10.54-52.69c-1.49-7.94-9.14-13.16-17.08-11.66-.72,.14-1.43,.32-2.12,.56-6.93,2.44-10.78,9.84-8.78,16.91l11.03,37.4-16.9-7.88-5.65,13.79h0Z"/><path class="h" d="M303.29,291.58l-16.27-32.63v-.07l1.61-59.85c.02-.53,.07-1.07,.13-1.6,.58-4.85,3.07-9.26,6.93-12.25,3.69-2.89,8.4-4.17,13.05-3.57l46.52,6.02,1.61-6.6,.3-.11,44.57-16.34,.26,.42c5.84,9.5,9.92,28.47,11.03,34.06l.02,.08c.02,.12,.04,.19,.04,.21,2.3,9.54-7.19,25.34-16.63,27.71-19.9,5.07-37.69,1.12-58.3-3.47-7.39-1.64-15.03-3.34-23.43-4.81l.25,4.95c.2,3.81,1,7.56,2.35,11.13,1.5,4.39,2.68,7.86,.18,15.09l-1.21,3.5c1.27,3.52,.82,7.44-1.22,10.57l-.25,.37,10.73,27.15h-22.26v.02Z"/><path class="h" d="M276.56,277.16l-19.4-1.81,6.87-21.98c1.42-14.35,4.99-28.41,10.6-41.7l9.38-22.22c.02-.49,.07-.99,.13-1.48,.58-4.85,3.07-9.26,6.93-12.25,3.69-2.89,8.4-4.17,13.05-3.57l46.46,6.01,2.02-16.98,44.58-5.97,.2,.33c7.79,12.68,12.74,22.61,15.57,31.24,.14,.44,.27,.89,.38,1.34,2.31,9.6-3.45,19.34-12.85,21.7-23.95,6.11-52.76,5.94-90.63-.53l-18.33,43.62c-1.75,4.17-3.92,8.15-6.47,11.88l-8.48,12.37h0Z"/><ellipse class="f" cx="344.23" cy="33.98" rx="22.47" ry="22.97"/><path class="e" d="M350.72,178.97l-3.23-11.55-.79-5.7-4.64,.16-9.09-20.99-3.53-5.54c-.72-.76-1.37-1.49-1.96-2.19-3.68-4.16-6.63-8.91-8.73-14.06-1.47-3.69-2.33-7.61-2.56-11.58-.66-11.73,4.29-24.14,15.12-37.94-.18-.49-.29-1-.35-1.51-.4-3.49,2.08-6.65,5.57-7.08l10.45-1.18c1.64-.19,3.29,.29,4.57,1.33,1.34,1.07,2.2,2.65,2.37,4.35,.14,1.31-.12,2.63-.74,3.79,10.88,1.38,19.94,9,23.16,19.49,6.25,11.67,11.23,23.98,14.86,36.71,.71,2.5,.4,5.06,.09,7.55-.28,2.3-.58,4.67-.08,7.04,.5,2.41,1.72,4.82,2.99,7.38,1.47,2.93,2.99,5.96,3.39,9.04l.03,.22-46.91,22.27h0Z"/><path class="j" d="M319.03,118.98c2.09,5.12,5.03,9.84,8.69,13.98,.62,.75,1.29,1.48,1.98,2.22l3.56,5.58c13.11-9.82,23.72-48.5,23.72-48.5l-14.79-2.88-23.15,29.6h0Z"/><path class="f" d="M310.08,59.1c2.69,4.62,1.21,10.55-3.33,13.37-.45,.27-.92,.5-1.41,.69l1.04,34.45-14.92-9.39,1.3-31.27c-1.31-4.28,.44-8.9,4.24-11.25,4.46-2.69,10.25-1.27,12.95,3.19,.04,.07,.09,.15,.13,.22h0Z"/><path class="b" d="M307.69,94.6l-16.4,2.33,.71,33.97c.08,4.93,2.71,9.46,6.95,11.98,5.23,3.08,11.86,2.32,16.27-1.85l38.74-37.25c5.66-5.37,6.14-14.22,1.08-20.17-4.97-5.88-13.75-6.62-19.63-1.65-.11,.1-.22,.19-.32,.28-.38,.34-.75,.71-1.09,1.09l-25.58,29.42-.71-18.16h0Z"/><polygon class="d" points="170.48 316.21 182.12 316.21 187.67 271.3 170.48 271.3 170.48 316.21"/><path class="d" d="M127.42,38.11c2.06-12.67-6.55-24.61-19.22-26.67-12.67-2.06-24.61,6.55-26.67,19.22-2.06,12.67,6.55,24.61,19.22,26.67,12.67,2.06,24.61-6.55,26.67-19.22Z"/><path class="h" d="M185.93,302.37h-16.49l-4.2-5.64-1.14-5.31-.98-.95c-2.74-2.63-3.3-6.79-1.38-10.05l-11.95-55.76c-3.13-.28-38.43-3.43-62.97-7.77-6.28-1.11-11.18-4.16-14.58-9.07-8.33-12.06-4.76-31.58-4.73-31.78l.04-.22,.22-.02,57.31-6.44,.08,.04c1.9,.9,46.67,22.15,53.98,29.47,3.3,3.3,10.67,22.93,12.32,43.79,.29,3.74-.77,7.55-1.8,11.23-.96,3.44-1.96,7.01-1.76,10.37,.31,5.19,.59,10.65,.85,16.2,.04,.89,.71,1.8,1.36,2.69,.67,.92,1.31,1.8,1.35,2.71,.39,8.87-5.4,16.32-5.46,16.39l-.09,.11h.01Z"/><path class="d" d="M189.68,96.28c-4.71-1.29-9.58,1.49-10.87,6.21-.14,.5-.23,1.02-.28,1.54l-19.31,6.03,.8,12.63,27.15-8.91c4.91,.12,9-3.77,9.11-8.69,.1-4.11-2.63-7.76-6.61-8.82h0Z"/><path class="i" d="M177.08,117.19l-14.43,5.46-.37,.71c-1.84,3.57-6.23,4.98-9.81,3.14l-32.44,12.28s-14.49-14.5-24.8-27.44l3.51-21.62c.82-5.01,2.54-9.84,5.1-14.23,21.16,4.64,33.3,34.21,33.3,34.21l38.12-7.28,1.81,14.76h0Z"/><path class="h" d="M101.17,56.38c-5.82,1.57-12.24-.52-16.78-4.48-4.54-3.96-7.38-9.58-9.02-15.38-1.2-4.25-1.77-8.96,.13-12.95,1.89-3.99,6.98-6.68,10.91-4.67-2.42-2.83-1.21-7.49,1.62-9.91s6.72-3.11,10.42-3.48c5.37-.55,10.92-.61,16.03,1.13,5.11,1.74,9.75,5.54,11.35,10.7,3.36,1.57,7.35,.67,9.71-2.2,.61,3.28-1.06,6.56-4.07,8l7.83-2.54c1.35,2.85-1.01,6.38-4.03,7.29-3.02,.91-6.27-.08-9.14-1.4-2.87-1.32-5.64-2.99-8.75-3.5s-6.77,.49-8.21,3.29c-.76,1.47-.79,3.19-1.23,4.78s-1.55,3.24-3.19,3.37c-1.04,.08-2.06-.47-3.1-.36-1.28,.14-2.27,1.31-2.62,2.56-.26,1.27-.26,2.58-.01,3.85l1.99,15.21"/><path class="i" d="M72.38,210.6h-.01l-.19-.03-.05-.18c-.67-2.25-1.52-4.55-2.34-6.77-1.21-3.08-2.23-6.23-3.07-9.44-.65-3.06-1.1-6.17-1.36-9.29-.23-2.27-.47-4.61-.87-6.92-.18-1.03,.5-2,1.16-2.93,.61-.87,1.18-1.69,1.06-2.47-.13-.8-1.01-1.67-1.86-2.51-.94-.92-1.9-1.88-2.04-2.89-1.87-13.75-2.73-27.61-2.6-41.48,.19-19.19,1.06-32.28,2.58-38.89,4.08-17.77,22.94-21.01,25.89-21.41,1.27-3.37,5.03-5.07,8.39-3.81,.14,.05,.28,.11,.42,.17l13.4,6.14c5.49,2.53,9.69,7.22,11.6,12.96l1.99,6.07,1,40.74-5.52,28.69,10.8,16.19c-57.54,31.59-58.21,38.09-58.4,38.09h.01Z"/><path class="h" d="M164.21,311.68h3.78l14.78-6.01,7.92,6.01c9.32,0,16.88,7.56,16.88,16.88v.55h-43.37v-17.43h0Z"/><path class="d" d="M194.52,125.36c-4.22-2.48-9.64-1.06-12.12,3.16-.26,.45-.49,.92-.67,1.41l-20.22,.79-2.72,9.42,28.74,1.47c4.71,1.4,9.67-1.29,11.07-6,1.17-3.95-.52-8.18-4.08-10.23h0Z"/><path class="i" d="M177.91,142.61l-20.77-.26-2.63-.04-42.25-.53s-11.47-10.95-21.47-22.22l1.4-10.13c1.37-9.94,6.3-19.04,13.87-25.62,14.31,9.56,22.61,28.49,22.61,28.49l13.92,6.23c9.79,.44,19.33,3.23,27.81,8.15l4.58,2.65,2.93,13.29h0Z"/><path class="h" d="M330.51,321.64l-6.91,1.7-2.84-6.22-1.55,7.31-18.32,4.52c-2.27,.56-4.58-.83-5.13-3.1-.34-1.36,.02-2.78,.94-3.83l12.14-13.72-1.63-6.6,15.62-2.88,7.69,22.82h0Z"/><path class="h" d="M257.31,323.77l-6.59-2.69,1.36-6.7-5.55,4.99-17.48-7.13c-2.17-.89-3.21-3.36-2.33-5.53,.53-1.29,1.66-2.24,3.02-2.54l17.89-3.94,2.57-6.29,14.32,6.87-7.22,22.97h0Z"/><path class="e" d="M234.36,140.42h-5.4c-12.09-.01-21.88-9.81-21.89-21.89v-.3h49.18v.3c-.01,12.09-9.81,21.88-21.89,21.89Z"/><path class="g" d="M228.96,110.43c0,1.49-2.7,2.7-2.7,2.7,0,0-2.7-1.21-2.7-2.7s2.7-2.7,2.7-2.7c0,0,2.7,1.21,2.7,2.7Z"/><path class="g" d="M245.16,110.43c0,1.49-2.7,2.7-2.7,2.7,0,0-2.7-1.21-2.7-2.7s2.7-2.7,2.7-2.7c0,0,2.7,1.21,2.7,2.7Z"/><path class="g" d="M234.36,115.83c0,1.49-2.7,2.7-2.7,2.7,0,0-2.7-1.21-2.7-2.7s2.7-2.7,2.7-2.7c0,0,2.7,1.21,2.7,2.7Z"/><path class="g" d="M215.47,104.73c1.49,0,2.7-1.21,2.7-2.7s-1.21-2.7-2.7-2.7-2.7,1.21-2.7,2.7,1.21,2.7,2.7,2.7Z"/><path class="e" d="M176.22,96.24l42.57,5.88c1.57,.22,2.68,1.67,2.46,3.24-.22,1.58-1.67,2.68-3.24,2.46-.08-.01-.17-.03-.26-.05l-41.86-9.71c-.5-.11-.81-.61-.7-1.12,.11-.47,.56-.77,1.03-.71Z"/><path class="h" d="M404.37,24.02c-3.82-4.46-5.64-10.36-8.69-15.42-3.05-5.06-8.37-9.58-13.98-8.41-3.87,.81-6.86,4.23-8.37,8.03-1.51,3.81-1.8,8.01-2.06,12.12,.1-8.45-5.48-16.64-13.15-19.34-7.67-2.7-16.85,.31-21.67,7.1-4.35-4.04-11.04-4.17-15.56-.32-4.31,3.85-5.27,11.19-2.09,16.1,3.17,4.92,10.04,6.75,15.08,4.02l1.78,1.64c-1,3.51,.94,7.65,4.21,8.97,2.65,1.07,6.39,.89,7.38,3.68,.7,1.94-.6,4.02-1.98,5.51-1.38,1.49-3.02,3.03-3.18,5.1-.25,3.12,2.98,5.3,5.9,5.96,7.07,1.59,14.91-1.69,18.97-7.92,.08-.12,.16-.24,.26-.36,4.62-5.9,6.6-13.45,5.49-20.86-.23-1.44,0-2.51,1-2.86,4.29-1.48,16.33,1.62,19.97,4.42,3.64,2.8,6.56,6.5,10.06,9.48,3.51,2.98,7.98,5.28,12.43,4.46,3.57-.65,6.6-3.24,8.64-6.36,2.04-3.12,3.21-6.77,4.26-10.38-7.89,4.56-18.68,2.65-24.69-4.36h0Z"/></g></svg>