<?xml version="1.0" encoding="UTF-8"?><svg id="a" xmlns="http://www.w3.org/2000/svg" viewBox="0 0 620 565"><defs><style>.b{opacity:.1;}.c{fill:#fff;}.d{fill:#ffb8b8;}.e{fill:#fe7d1e;}.f{fill:#3f3d56;}.g{fill:#2f2e41;}.h{fill:#5fc638;}</style></defs><polygon class="d" points="399.27 516.96 384.65 516.96 389.37 555.15 399.27 555.15 399.27 516.96"/><path class="g" d="M401.79,564.75h-31.93v-.4c0-6.86,5.57-12.42,12.43-12.43h19.5v12.83Z"/><polygon class="d" points="507.3 503.65 494.77 511.17 518.48 541.49 526.97 536.39 507.3 503.65"/><path class="g" d="M506.7,559.76l-.21-.35c-3.52-5.89-1.62-13.51,4.25-17.05l16.71-10.04,6.61,11-27.37,16.44h0Z"/><path class="g" d="M401.84,547.27h-.17c-4.82-.01-9.63-.29-14.42-.83-1.83-.18-3.8-.38-6.19-.57h-.08c-1.63-.5-1.67-15.76-.98-67.99,.35-26.75,.76-57.08,.28-76.39v-.19l.14-.13c17.66-15.36,40.35-21.12,63.88-16.22l.17,.04,.09,.16c9.73,16.47,24.43,40.19,38.64,63.13,32.62,52.66,41.95,68.14,40.93,69.31l-.12,.09c-2.23,1.11-3.9,1.97-5.32,2.7-4.76,2.44-6.73,3.45-17.32,7.81l-.26,.11-.19-.21c-33.1-36.27-60.64-76.79-77.68-114.24-1.99,12.79-4.41,29.48-6.96,47.13-7.34,50.73-12.3,84.14-14.3,86.17l-.12,.12h0Z"/><path class="g" d="M403.18,239.32c-1.28-9.74-1.62-19.85,1.32-29.22,2.94-9.37,9.63-17.97,18.88-21.14,9.25-3.17,25.39-.21,29.75,8.59,6.28,12.68,3.46,28.2,.13,41.97-16.05-.85-33.06-.52-50.08-.2h0Z"/><circle class="d" cx="424.55" cy="219.68" r="19.84" transform="translate(181.73 631.43) rotate(-86.83)"/><path class="g" d="M398.99,216.25c-.02-.53-.03-1.07-.02-1.6,.26-13.76,11.63-24.7,25.38-24.45,13.76,.26,24.7,11.63,24.45,25.38-15.85,.73-32.82,.69-49.81,.66h0Z"/><path class="f" d="M410.76,405.39c19.74-.09,39.34,3.2,57.98,9.71,.65-31.27-10.12-62.6-29.58-86.04l-.15-.17,.08-.22c5.2-15.02,10.58-30.55,15.38-46l-.08-.26c-3.37-11.97-10.6-24.07-22.1-36.99-2.59-2.68-6.82-2.9-9.66-.49-20.45,18.74-31.57,46.82-29.01,73.29v.15c-9.02,30.51-12.29,46.19-15.17,60.02-2.1,10.09-3.93,18.82-7.59,31.3,13.11-2.85,26.49-4.29,39.91-4.29h0Z"/><polygon class="b" points="393.78 355.77 410.52 372.72 439.82 308.93 393.78 355.77"/><path class="h" d="M325.17,128.56l-1.58,10.44,19.24-.15-1.74-10.42c25.18-4.92,44.29-31.87,44.04-64.22C384.86,28.52,361.13-.22,332.13,0c-28.99,.23-52.27,29.34-52,65.03,.25,32.35,19.78,59,45.04,63.53Z"/><path class="c" d="M367.18,40.12l7.27-.06c2.52,13.61,2.62,27.55,.32,41.19l-7.27,.06c3.04-13.25,2.93-26.97-.32-41.19Z"/><rect class="f" x="322.26" y="128.38" width="21.81" height="4.85" transform="translate(-1.02 2.62) rotate(-.45)"/><path class="e" d="M228.57,144.88l-.83,10.53,19.18-1.53-2.48-10.27c24.76-6.7,41.9-34.95,39.34-67.21-2.83-35.57-28.55-62.55-57.45-60.26s-50.04,33-47.22,68.57c2.56,32.26,23.94,57.44,49.45,60.15h0Z"/><path class="c" d="M264.16,53.67l7.25-.58c3.48,13.39,4.59,27.29,3.26,41.07l-7.25,.58c2.09-13.43,1-27.12-3.26-41.07Z"/><rect class="f" x="225.79" y="144.19" width="21.81" height="4.85" transform="translate(-10.86 19.19) rotate(-4.54)"/><rect class="f" x="314.4" y="123.52" width="2.42" height="303.82" transform="translate(-97.39 205.42) rotate(-31.49)"/><path class="h" d="M207.44,155.09l3.45,9.98,16.98-9.05-6.37-8.43c20.03-16.03,24.47-48.77,9.25-77.32-16.79-31.49-51.14-45.96-76.73-32.32-25.59,13.64-32.72,50.23-15.93,81.72,15.22,28.55,44.88,43.11,69.35,35.41h0Z"/><path class="c" d="M203.66,57.26l6.42-3.42c8.54,10.89,15.1,23.19,19.38,36.35l-6.42,3.42c-3.45-13.15-9.9-25.26-19.38-36.35Z"/><rect class="f" x="204.66" y="150.95" width="21.81" height="4.85" transform="translate(-46.82 119.47) rotate(-28.07)"/><rect class="f" x="304.19" y="125.18" width="2.42" height="303.82" transform="translate(-104.57 232.7) rotate(-36.04)"/><rect class="f" x="355.96" y="128.56" width="2.42" height="303.82" transform="translate(-43.53 66.75) rotate(-10.07)"/><path class="d" d="M374.49,376.74c-3.76,.29-7.23-2.04-8.39-5.63-1.38-4.29,.97-8.89,5.26-10.28l20.82-15.94,13.77,5.95-24.14,15.82c.12,.46,.19,.94,.23,1.41,.31,4.47-3.07,8.35-7.54,8.66h0Z"/><path class="f" d="M397.73,365.34l-.31-.22c-5.75-4.23-12.12-8.6-18.3-12.83l-.37-.25,.29-.34c13.17-15.4,26.35-31.5,39.1-47.06,0-.02-.02-.04-.02-.06l.12-.06,.05-.06,.03,.02,.08-.04-.35,.03-3.93-30.81c-3.55-4.84-4.23-14.46,.42-21.16,4.82-6.95,15.01-9.28,21.81-4.98,3.61,2.42,5.92,6.36,6.28,10.69,.51,3.86-.75,7.74-3.42,10.57,1.67,16.31,1.73,30.88,1.8,44.98v.14l-.08,.12c-13.59,17.27-28.52,34.44-42.96,51.05l-.24,.28h0Z"/><path class="f" d="M1,565H619v-2H1v2Zm618,0c.55,0,1-.45,1-1s-.45-1-1-1v2ZM1,563c-.55,0-1,.45-1,1s.45,1,1,1v-2Z"/></svg>