<?xml version="1.0" encoding="UTF-8"?><svg id="a" xmlns="http://www.w3.org/2000/svg" viewBox="0 0 250 50"><defs><style>.b{fill:#efefef;}.c{fill:#3f3d56;}</style></defs><rect class="b" width="250" height="50" rx="18" ry="18"/><path class="c" d="M188.63,22.01c1.24,0,2.05,.74,2.34,1.82h-4.73c.32-1.06,1.13-1.82,2.39-1.82Zm.02-2.12c-3.02,0-5.17,2.21-5.17,5.18s2.12,5.15,5.22,5.15c2.12,0,4.1-1.03,4.84-3.37h-2.66c-.34,.79-1.21,1.24-2.2,1.24-1.33,0-2.41-.79-2.57-2.38h7.6c.25-3.26-1.78-5.83-5.06-5.83Zm-6.24,.22h-8.68v2.43h3.04v7.47h2.57v-7.47h3.06v-2.43Zm-9.45,9.9l-4.82-5.18,4.52-4.72h-3.28l-3.76,4.12v-4.12h-2.57v9.9h2.57v-4.32l4.05,4.32h3.29Zm-17.08-2.23c-1.42,0-2.5-1.08-2.5-2.72s1.06-2.72,2.5-2.72,2.54,1.1,2.54,2.72-1.1,2.72-2.54,2.72Zm2.54-7.67v1.39c-.68-.95-1.73-1.6-3.13-1.6-2.54,0-4.5,2.11-4.5,5.17s1.93,5.17,4.52,5.17c1.39,0,2.41-.61,3.1-1.55v1.33h2.57l.02-9.9h-2.57Zm-8.7,0h-8.68v2.43h3.04v7.47h2.57v-7.47h3.06v-2.43Zm-12.68,0v3.65h-4.45v-3.65h-2.57v9.9h2.57v-3.82h4.45v3.82h2.57v-9.9h-2.57Zm-13.99,2.23c1.44,0,2.56,1.1,2.56,2.72s-1.12,2.72-2.56,2.72-2.56-1.08-2.56-2.72,1.12-2.72,2.56-2.72Zm0-2.45c-2.84,0-5.15,2.18-5.15,5.17s2.27,5.17,5.15,5.17,5.17-2.18,5.17-5.17-2.3-5.17-5.17-5.17Zm-5.26,10.12l-5.24-6.5,4.95-6.1h-3.19l-4.48,5.58v-5.58h-2.57v12.6h2.57v-5.89l4.73,5.89h3.22Zm-16.89-2.45h-2.93v-2.81h2.92c1.33,0,1.71,.49,1.71,1.4,0,.85-.38,1.4-1.69,1.4Zm1.28-6.44c0,.85-.47,1.28-1.53,1.28h-2.68v-2.54h2.61c1.08,0,1.6,.34,1.6,1.26Zm1.03,2.11c1.03-.52,1.57-1.28,1.57-2.54,0-2.16-1.53-3.28-3.85-3.28h-5.53v12.6h5.56c2.59,0,4.25-1.33,4.25-3.64,0-1.48-.65-2.7-2-3.15Zm-14.96-3.11h-8.68v2.43h3.04v7.47h2.57v-7.47h3.06v-2.43Zm-14.91,2.23c1.44,0,2.56,1.1,2.56,2.72s-1.12,2.72-2.56,2.72-2.56-1.08-2.56-2.72,1.12-2.72,2.56-2.72Zm0-2.45c-2.84,0-5.15,2.18-5.15,5.17s2.27,5.17,5.15,5.17,5.17-2.18,5.17-5.17-2.3-5.17-5.17-5.17Zm-11.85,8.12c-1.42,0-2.54-1.06-2.54-2.72s1.17-2.68,2.59-2.68,2.5,1.06,2.5,2.68-1.12,2.72-2.56,2.72Zm.76-7.6c-1.35,0-2.61,.59-3.28,1.78,.22-3.29,2.21-3.85,6.37-3.85v-2.41c-5.26,0-8.98,1.12-8.98,7.96,0,4.52,2.5,6.34,5.24,6.34s5.02-2,5.02-5.08c0-2.86-1.93-4.73-4.37-4.73Z"/></svg>